0
SECTION
2
HEADER
9
$INSUNITS
70
4
0
ENDSEC
0
SECTION
2
TABLES
0
TABLE
2
LTYPE
0
LTYPE
72
65
70
64
2
CONTINUOUS
3
______
73
0
40
0
0
ENDTAB
0
TABLE
2
LAYER
0
ENDTAB
0
ENDSEC
0
SECTION
2
ENTITIES
0
LINE
8
0
10
6.2603271
20
6.979814
11
24.0851524
21
9.4849298
0
LINE
8
0
10
24.0851524
20
9.4849298
11
26.4510951
21
-7.3496274
0
LINE
8
0
10
26.4510951
20
-7.3496274
11
8.6262698
21
-9.8547432
0
LINE
8
0
10
8.6262698
20
-9.8547432
11
6.2603271
21
6.979814
0
LINE
8
0
10
3.6160382
20
25.7949073
11
21.4408635
21
28.3000231
0
LINE
8
0
10
21.4408635
20
28.3000231
11
23.8068062
21
11.4654659
0
LINE
8
0
10
23.8068062
20
11.4654659
11
5.9819809
21
8.9603501
0
LINE
8
0
10
5.9819809
20
8.9603501
11
3.6160382
21
25.7949073
0
LINE
8
0
10
-15.1990552
20
23.1506184
11
2.6257701
21
25.6557342
0
LINE
8
0
10
2.6257701
20
25.6557342
11
4.9917128
21
8.821177
0
LINE
8
0
10
4.9917128
20
8.821177
11
-12.8331125
21
6.3160612
0
LINE
8
0
10
-12.8331125
20
6.3160612
11
-15.1990552
21
23.1506184
0
LINE
8
0
10
25.7098135
20
22.0231685
11
43.6988484
21
22.6513594
0
LINE
8
0
10
43.6988484
20
22.6513594
11
44.2921399
21
5.6617153
0
LINE
8
0
10
44.2921399
20
5.6617153
11
26.303105
21
5.0335244
0
LINE
8
0
10
26.303105
20
5.0335244
11
25.7098135
21
22.0231685
0
LINE
8
0
10
25.0467231
20
41.0115942
11
43.035758
21
41.6397851
0
LINE
8
0
10
43.035758
20
41.6397851
11
43.6290495
21
24.650141
0
LINE
8
0
10
43.6290495
20
24.650141
11
25.6400146
21
24.0219501
0
LINE
8
0
10
25.6400146
20
24.0219501
11
25.0467231
21
41.0115942
0
LINE
8
0
10
24.3836327
20
60.00002
11
42.3726676
21
60.6282109
0
LINE
8
0
10
42.3726676
20
60.6282109
11
42.9659591
21
43.6385668
0
LINE
8
0
10
42.9659591
20
43.6385668
11
24.9769242
21
43.0103759
0
LINE
8
0
10
24.9769242
20
43.0103759
11
24.3836327
21
60.00002
0
LINE
8
0
10
45.5198748
20
26.8147918
11
63.5198748
21
26.8147918
0
LINE
8
0
10
63.5198748
20
26.8147918
11
63.5198748
21
9.8147918
0
LINE
8
0
10
63.5198748
20
9.8147918
11
45.5198748
21
9.8147918
0
LINE
8
0
10
45.5198748
20
9.8147918
11
45.5198748
21
26.8147918
0
LINE
8
0
10
45.5198748
20
45.8147918
11
63.5198748
21
45.8147918
0
LINE
8
0
10
63.5198748
20
45.8147918
11
63.5198748
21
28.8147918
0
LINE
8
0
10
63.5198748
20
28.8147918
11
45.5198748
21
28.8147918
0
LINE
8
0
10
45.5198748
20
28.8147918
11
45.5198748
21
45.8147918
0
LINE
8
0
10
45.5198747
20
64.8147918
11
63.5198747
21
64.8147918
0
LINE
8
0
10
63.5198747
20
64.8147918
11
63.5198747
21
47.8147918
0
LINE
8
0
10
63.5198747
20
47.8147918
11
45.5198747
21
47.8147918
0
LINE
8
0
10
45.5198747
20
47.8147918
11
45.5198747
21
64.8147918
0
LINE
8
0
10
65.8901014
20
21.6756116
11
83.8462543
21
20.4199951
0
LINE
8
0
10
83.8462543
20
20.4199951
11
82.6603942
21
3.4614062
0
LINE
8
0
10
82.6603942
20
3.4614062
11
64.7042413
21
4.7170227
0
LINE
8
0
10
64.7042413
20
4.7170227
11
65.8901014
21
21.6756116
0
LINE
8
0
10
67.2154744
20
40.6293285
11
85.1716273
21
39.373712
0
LINE
8
0
10
85.1716273
20
39.373712
11
83.9857672
21
22.4151231
0
LINE
8
0
10
83.9857672
20
22.4151231
11
66.0296143
21
23.6707396
0
LINE
8
0
10
66.0296143
20
23.6707396
11
67.2154744
21
40.6293285
0
LINE
8
0
10
68.5408473
20
59.5830455
11
86.4970002
21
58.327429
0
LINE
8
0
10
86.4970002
20
58.327429
11
85.3111401
21
41.3688401
0
LINE
8
0
10
85.3111401
20
41.3688401
11
67.3549872
21
42.6244566
0
LINE
8
0
10
67.3549872
20
42.6244566
11
68.5408473
21
59.5830455
0
LINE
8
0
10
84.7112809
20
18.4548668
11
102.6674338
21
17.1992503
0
LINE
8
0
10
102.6674338
20
17.1992503
11
101.4815737
21
0.2406614
0
LINE
8
0
10
101.4815737
20
0.2406614
11
83.5254208
21
1.4962779
0
LINE
8
0
10
83.5254208
20
1.4962779
11
84.7112809
21
18.4548668
0
LINE
8
0
10
86.036654
20
37.4085838
11
103.9928069
21
36.1529673
0
LINE
8
0
10
103.9928069
20
36.1529673
11
102.8069468
21
19.1943784
0
LINE
8
0
10
102.8069468
20
19.1943784
11
84.8507939
21
20.4499949
0
LINE
8
0
10
84.8507939
20
20.4499949
11
86.036654
21
37.4085838
0
LINE
8
0
10
87.3620271
20
56.3623008
11
105.31818
21
55.1066843
0
LINE
8
0
10
105.31818
20
55.1066843
11
104.1323199
21
38.1480954
0
LINE
8
0
10
104.1323199
20
38.1480954
11
86.176167
21
39.4037119
0
LINE
8
0
10
86.176167
20
39.4037119
11
87.3620271
21
56.3623008
0
LINE
8
0
10
108.859928
20
11.2600715
11
125.8792624
21
5.3998447
0
LINE
8
0
10
125.8792624
20
5.3998447
11
120.3446038
21
-10.6739711
0
LINE
8
0
10
120.3446038
20
-10.6739711
11
103.3252694
21
-4.8137443
0
LINE
8
0
10
103.3252694
20
-4.8137443
11
108.859928
21
11.2600715
0
LINE
8
0
10
77.0946125
20
-3.9805461
11
94.8730026
21
-6.7963665
0
LINE
8
0
10
94.8730026
20
-6.7963665
11
92.2136167
21
-23.5870683
0
LINE
8
0
10
92.2136167
20
-23.5870683
11
74.4352266
21
-20.7712479
0
LINE
8
0
10
74.4352266
20
-20.7712479
11
77.0946125
21
-3.9805461
0
LINE
8
0
10
101.7337151
20
-9.0255471
11
117.7718326
21
-17.1973761
0
LINE
8
0
10
117.7718326
20
-17.1973761
11
110.0539941
21
-32.3444871
0
LINE
8
0
10
110.0539941
20
-32.3444871
11
94.0158766
21
-24.1726581
0
LINE
8
0
10
94.0158766
20
-24.1726581
11
101.7337151
21
-9.0255471
0
LINE
8
0
10
123.6079032
20
-21.4375296
11
136.3358253
21
-34.1654517
0
LINE
8
0
10
136.3358253
20
-34.1654517
11
124.31501
21
-46.186267
0
LINE
8
0
10
124.31501
20
-46.186267
11
111.5870879
21
-33.4583449
0
LINE
8
0
10
111.5870879
20
-33.4583449
11
123.6079032
21
-21.4375296
0
ENDSEC
0
EOF