<?xml version="1.0" encoding="UTF-8" standalone="no"?>
<svg
   width="157.048mm"
   height="112.578mm"
   viewBox="0 0 157.048 112.578"
   version="1.1"
   id="svg5"
   xmlns="http://www.w3.org/2000/svg"
   xmlns:svg="http://www.w3.org/2000/svg">
  <defs
     id="defs9">
    <rect
       x="57.048582"
       y="-73.984994"
       width="23.280556"
       height="18.63212"
       id="rect8342" />
    <rect
       x="57.048582"
       y="-73.984994"
       width="23.280556"
       height="18.63212"
       id="rect12626" />
    <rect
       x="57.048582"
       y="-73.984994"
       width="23.280556"
       height="18.63212"
       id="rect14130" />
    <rect
       x="57.048582"
       y="-73.984994"
       width="23.280556"
       height="18.63212"
       id="rect5222" />
  </defs>
  <g
     id="layer3"
     style="display:none">
    <path
       id="path4907"
       style="display:inline;fill:#8c9498;fill-opacity:1;stroke:none;stroke-width:0.101972;stroke-miterlimit:4;stroke-dasharray:none"
       d="m 37.397845,-15.321797 a 2.5525001,2.5525001 0 0 1 -2.5525,2.552499 2.5525001,2.5525001 0 0 1 -2.552499,-2.552499 2.5525001,2.5525001 0 0 1 2.552499,-2.552499 2.5525001,2.5525001 0 0 1 2.5525,2.552499 z" />
    <path
       id="path4687"
       style="display:inline;fill:#8c9498;fill-opacity:1;stroke:none;stroke-width:0.100668;stroke-miterlimit:4;stroke-dasharray:none"
       d="m 27.440391,-15.321797 a 7.4998732,7.4998732 0 0 1 -7.499873,7.499873 7.4998732,7.4998732 0 0 1 -7.499874,-7.499873 7.4998732,7.4998732 0 0 1 7.499874,-7.499873 7.4998732,7.4998732 0 0 1 7.499873,7.499873 z" />
    <text
       xml:space="preserve"
       transform="matrix(0.26458333,0,0,0.26458333,1.7824929,2.2068439)"
       id="text8340"
       style="font-size:14.6667px;line-height:1.25;font-family:sans-serif;text-align:center;letter-spacing:0px;word-spacing:0px;white-space:pre;shape-inside:url(#rect8342);display:inline"
       x="7.8847837"
       y="0"><tspan
         x="59.358051"
         y="-61.007783"
         id="tspan2140">15</tspan></text>
    <text
       xml:space="preserve"
       transform="matrix(0.26458333,0,0,0.26458333,16.843557,3.5183969)"
       id="text14128"
       style="font-size:5.33333px;line-height:1.25;font-family:sans-serif;text-align:center;letter-spacing:0px;word-spacing:0px;white-space:pre;shape-inside:url(#rect14130);display:inline"
       x="7.8847837"
       y="0"><tspan
         x="61.055343"
         y="-69.265628"
         id="tspan2142">5.105</tspan></text>
    <path
       id="path5216"
       style="display:inline;fill:#8c9498;fill-opacity:1;stroke:none;stroke-width:0.0671131;stroke-miterlimit:4;stroke-dasharray:none"
       d="m 54.631345,-15.158505 a 5.0000001,5.0000001 0 0 1 -5,5 5.0000001,5.0000001 0 0 1 -5.000001,-5 5.0000001,5.0000001 0 0 1 5.000001,-5 5.0000001,5.0000001 0 0 1 5,5 z" />
    <text
       xml:space="preserve"
       transform="matrix(0.26458333,0,0,0.26458333,31.47332,2.370136)"
       id="text5220"
       style="font-size:14.6667px;line-height:1.25;font-family:sans-serif;text-align:center;letter-spacing:0px;word-spacing:0px;white-space:pre;shape-inside:url(#rect5222);display:inline"
       x="7.8847837"
       y="0"><tspan
         x="59.358051"
         y="-61.007783"
         id="tspan2144">10</tspan></text>
  </g>
  <g
     id="layer4"
     style="display:none">
    <g
       id="layer7"
       style="display:inline">
      <g
         id="layer6"
         style="display:inline">
        <path
           id="path6498"
           style="display:inline;fill:#9e8e86;fill-opacity:1;stroke:none;stroke-width:0.101972;stroke-miterlimit:4;stroke-dasharray:none"
           d="m 106.48299,45.579324 a 2.5524981,2.5524981 0 0 1 -2.5525,2.552498 2.5524981,2.5524981 0 0 1 -2.5525,-2.552498 2.5524981,2.5524981 0 0 1 2.5525,-2.552498 2.5524981,2.5524981 0 0 1 2.5525,2.552498 z" />
        <path
           id="path6500"
           style="display:inline;fill:#9e8e86;fill-opacity:1;stroke:none;stroke-width:0.10067;stroke-linecap:butt;stroke-miterlimit:4;stroke-dasharray:none;paint-order:fill markers stroke"
           d="m 54.108605,45.117781 a 2.5524997,2.5524997 0 0 1 -2.5525,2.5525 2.5524997,2.5524997 0 0 1 -2.552499,-2.5525 2.5524997,2.5524997 0 0 1 2.552499,-2.5525 2.5524997,2.5524997 0 0 1 2.5525,2.5525 z" />
        <path
           id="path6502"
           style="display:inline;fill:#9e8e86;fill-opacity:1;stroke:none;stroke-width:0.101972;stroke-miterlimit:4;stroke-dasharray:none"
           d="m 80.2958,45.263344 a 2.552501,2.552501 0 0 1 -2.5525,2.552501 2.552501,2.552501 0 0 1 -2.5525,-2.552501 2.552501,2.552501 0 0 1 2.5525,-2.552501 2.552501,2.552501 0 0 1 2.5525,2.552501 z" />
      </g>
      <g
         id="layer2"
         style="display:inline">
        <path
           id="circle1569-2"
           style="display:inline;fill:#9e8e86;fill-opacity:1;stroke:none;stroke-width:0.101972;stroke-miterlimit:4;stroke-dasharray:none"
           d="m 67.202201,26.921598 a 2.5525001,2.5525001 0 0 1 -2.552501,2.5525 2.5525001,2.5525001 0 0 1 -2.552501,-2.5525 2.5525001,2.5525001 0 0 1 2.552501,-2.552499 2.5525001,2.5525001 0 0 1 2.552501,2.552499 z" />
        <path
           id="circle1571-28"
           style="display:inline;fill:#9e8e86;fill-opacity:1;stroke:none;stroke-width:0.101972;stroke-miterlimit:4;stroke-dasharray:none"
           d="m 93.389389,26.348505 a 2.5525006,2.5525006 0 0 1 -2.552501,2.552501 2.5525006,2.5525006 0 0 1 -2.5525,-2.552501 2.5525006,2.5525006 0 0 1 2.5525,-2.552501 2.5525006,2.5525006 0 0 1 2.552501,2.552501 z" />
      </g>
      <g
         id="g2947"
         style="display:inline">
        <path
           id="path2943"
           style="display:inline;fill:#9e8e86;fill-opacity:1;stroke:none;stroke-width:0.101972;stroke-miterlimit:4;stroke-dasharray:none"
           d="m 67.202199,62.348183 a 2.5524995,2.5524995 0 0 1 -2.5525,2.552499 2.5524995,2.5524995 0 0 1 -2.5525,-2.552499 2.5524995,2.5524995 0 0 1 2.5525,-2.5525 2.5524995,2.5524995 0 0 1 2.5525,2.5525 z" />
        <path
           id="path2945"
           style="display:inline;fill:#9e8e86;fill-opacity:1;stroke:none;stroke-width:0.101972;stroke-miterlimit:4;stroke-dasharray:none"
           d="m 93.389395,62.852654 a 2.5525001,2.5525001 0 0 1 -2.5525,2.552499 2.5525001,2.5525001 0 0 1 -2.552499,-2.552499 2.5525001,2.5525001 0 0 1 2.552499,-2.5525 2.5525001,2.5525001 0 0 1 2.5525,2.5525 z" />
      </g>
    </g>
    <g
       id="layer5"
       style="display:none">
      <path
         id="circle1474-2"
         style="display:inline;fill:#7075b4;fill-opacity:1;stroke:none;stroke-width:0.100668;stroke-miterlimit:4;stroke-dasharray:none"
         d="m 31.869859,45.263344 a 7.4998732,7.4998732 0 0 1 -7.499873,7.499873 7.4998732,7.4998732 0 0 1 -7.499874,-7.499873 7.4998732,7.4998732 0 0 1 7.499874,-7.499873 7.4998732,7.4998732 0 0 1 7.499873,7.499873 z" />
      <path
         id="circle1254-0"
         style="display:inline;fill:#7075b4;fill-opacity:1;stroke:none;stroke-width:0.101;stroke-miterlimit:4;stroke-dasharray:none;stroke-opacity:1;paint-order:normal"
         d="m 122.68461,19.443738 a 7.4998775,7.4998775 0 0 1 -7.49987,7.499878 7.4998775,7.4998775 0 0 1 -7.49987,-7.499878 7.4998775,7.4998775 0 0 1 7.49987,-7.499877 7.4998775,7.4998775 0 0 1 7.49987,7.499877 z" />
      <path
         id="circle1336-2"
         style="display:inline;fill:#7075b4;fill-opacity:1;stroke:none;stroke-width:0.100668;stroke-miterlimit:4;stroke-dasharray:none"
         d="m 122.68461,78.102912 a 7.4998801,7.4998801 0 0 1 -7.49987,7.49988 7.4998801,7.4998801 0 0 1 -7.49987,-7.49988 7.4998801,7.4998801 0 0 1 7.49987,-7.499881 7.4998801,7.4998801 0 0 1 7.49987,7.499881 z" />
    </g>
    <g
       id="layer8"
       style="display:inline">
      <path
         id="path7964"
         style="display:inline;fill:#5da4c7;fill-opacity:1;stroke:none;stroke-width:0.0671131;stroke-miterlimit:4;stroke-dasharray:none"
         d="m 29.377486,45.281573 a 5.0000001,5.0000001 0 0 1 -5,5 5.0000001,5.0000001 0 0 1 -5.000001,-5 5.0000001,5.0000001 0 0 1 5.000001,-5 5.0000001,5.0000001 0 0 1 5,5 z" />
      <path
         id="path8129"
         style="display:inline;fill:#5da4c7;fill-opacity:1;stroke:none;stroke-width:0.0671131;stroke-miterlimit:4;stroke-dasharray:none"
         d="m 120.18474,19.494292 a 5.0000001,5.0000001 0 0 1 -5,5 5.0000001,5.0000001 0 0 1 -5,-5 5.0000001,5.0000001 0 0 1 5,-5 5.0000001,5.0000001 0 0 1 5,5 z" />
      <path
         id="path8131"
         style="display:inline;fill:#5da4c7;fill-opacity:1;stroke:none;stroke-width:0.0671131;stroke-miterlimit:4;stroke-dasharray:none"
         d="m 120.18474,78.135308 a 5.0000001,5.0000001 0 0 1 -5,5 5.0000001,5.0000001 0 0 1 -5,-5 5.0000001,5.0000001 0 0 1 5,-5 5.0000001,5.0000001 0 0 1 5,5 z" />
    </g>
    <path
       d="m 117.95472,9.365993 35.411,2.476 a 4,4 0 0 1 3.651,4.737 l -10.065,52.967 8.081,27.749997 a 6,6 0 0 1 -1.518,5.92001 l -7.608,7.608 a 6,6 0 0 1 -7.335,0.899 l -35.947,-21.620007 a 6,6 0 0 0 -2.095,-0.775 l -73.261008,-12.351 a 6,6 0 0 1 -2.613,-1.125 l -18.7550004,-14.132 a 6,6 0 0 1 -2.112,-2.992 l -3.47300004,-11.041 a 6,6 0 0 1 1.68900004,-6.242 l 38.8070004,-35.242 a 6,6 0 0 1 3.618,-1.544 l 17.145,-1.191 v -1.464 a 2,2 0 0 1 2,-2.00000007 h 17.85 a 2,2 0 0 1 2,2.00000007 v 3.043 l 19.200008,1.342 a 2,2 0 0 1 1.86,2.035 l 13.469,0.942 z m -78.695008,7.298 m -1.1,0 a 1.1,1.1 0 0 1 2.2,0 1.1,1.1 0 0 1 -2.2,0 z m -18.885,44.29 m -1.1,0 a 1.1,1.1 0 0 1 2.2,0 1.1,1.1 0 0 1 -2.2,0 z m 85.055008,-34.5 m -1.1,0 a 1.1,1.1 0 0 1 2.2,0 1.1,1.1 0 0 1 -2.2,0 z m -0.9,41.56 m -1.1,0 a 1.1,1.1 0 0 1 2.2,0 1.1,1.1 0 0 1 -2.2,0 z m 45.71,19.2 m -1.1,0 a 1.1,1.1 0 0 1 2.2,0 1.1,1.1 0 0 1 -2.2,0 z"
       vector-effect="non-scaling-stroke"
       id="path872"
       style="font-size:12px;fill:#130c0b;fill-opacity:0.309391;fill-rule:evenodd;stroke:none;stroke-width:0.25mm;stroke-linecap:round" />
  </g>
  <g
     id="g1016"
     style="display:inline">
    <path
       id="path1010"
       style="display:inline;fill:#130c0b;fill-opacity:0.309804;stroke:none;stroke-width:0.385406;stroke-miterlimit:4;stroke-dasharray:none"
       d="m 240.2832,0.015625 a 7.5590551,7.5590551 0 0 0 -7.56054,7.5585938 v 5.5332032 l -64.79883,4.501953 a 22.677165,22.677165 0 0 0 -13.67578,5.835937 L 7.5761719,156.64258 a 22.677165,22.677165 0 0 0 -6.3828125,23.5918 l 13.1269526,41.73046 a 22.677165,22.677165 0 0 0 7.982422,11.30664 L 93.1875,286.68555 a 22.677165,22.677165 0 0 0 9.875,4.25195 l 276.89258,46.67969 a 22.677165,22.677165 0 0 1 7.91797,2.92969 l 135.86328,81.71289 a 22.677165,22.677165 0 0 0 27.72265,-3.39649 l 28.75391,-28.75586 a 22.677165,22.677165 0 0 0 5.73828,-22.375 L 555.4082,262.85156 593.44922,62.660156 A 15.11811,15.11811 0 0 0 579.65039,44.757812 L 445.8125,35.398438 h -0.004 l -50.90625,-3.560547 a 7.5590551,7.5590551 0 0 0 -7.02929,-7.691407 L 315.30664,19.076172 V 7.5742188 A 7.5590551,7.5590551 0 0 0 307.74609,0.015625 Z m 195.06055,45.126953 a 28.345994,28.345994 0 0 1 28.3457,28.345703 28.345994,28.345994 0 0 1 -28.3457,28.345699 28.345994,28.345994 0 0 1 -28.3457,-28.345699 28.345994,28.345994 0 0 1 28.3457,-28.345703 z M 148.38281,58.824219 a 4.1574803,4.1574803 0 0 1 4.15821,4.158203 4.1574803,4.1574803 0 0 1 -8.31446,0 4.1574803,4.1574803 0 0 1 4.15625,-4.158203 z M 343.32031,89.9375 a 9.6472464,9.6472464 0 0 1 9.64649,9.646484 9.6472464,9.6472464 0 0 1 -9.64649,9.648436 9.6472464,9.6472464 0 0 1 -9.64648,-9.648436 9.6472464,9.6472464 0 0 1 9.64648,-9.646484 z m -98.97461,2.166016 a 9.6472445,9.6472445 0 0 1 9.64649,9.646484 9.6472445,9.6472445 0 0 1 -9.64649,9.64844 9.6472445,9.6472445 0 0 1 -9.64843,-9.64844 9.6472445,9.6472445 0 0 1 9.64843,-9.646484 z m 145.81446,3.722656 a 4.1574803,4.1574803 0 0 1 4.15625,4.158203 4.1574803,4.1574803 0 0 1 -8.31446,0 4.1574803,4.1574803 0 0 1 4.15821,-4.158203 z M 92.107422,142.72852 a 28.345977,28.345977 0 0 1 28.345698,28.3457 28.345977,28.345977 0 0 1 -28.345698,28.3457 28.345977,28.345977 0 0 1 -28.345703,-28.3457 28.345977,28.345977 0 0 1 28.345703,-28.3457 z m 102.749998,18.14843 a 9.647243,9.647243 0 0 1 9.64844,9.64649 9.647243,9.647243 0 0 1 -9.64844,9.64844 9.647243,9.647243 0 0 1 -9.64648,-9.64844 9.647243,9.647243 0 0 1 9.64648,-9.64649 z m 98.97461,0.55078 a 9.6472479,9.6472479 0 0 1 9.64844,9.64649 9.6472479,9.6472479 0 0 1 -9.64844,9.64648 9.6472479,9.6472479 0 0 1 -9.64648,-9.64648 9.6472479,9.6472479 0 0 1 9.64648,-9.64649 z m 98.97656,1.19336 a 9.6472369,9.6472369 0 0 1 9.64649,9.64649 9.6472369,9.6472369 0 0 1 -9.64649,9.64844 9.6472369,9.6472369 0 0 1 -9.64843,-9.64844 9.6472369,9.6472369 0 0 1 9.64843,-9.64649 z M 244.3457,226 a 9.6472422,9.6472422 0 0 1 9.64649,9.64648 9.6472422,9.6472422 0 0 1 -9.64649,9.64649 9.6472422,9.6472422 0 0 1 -9.64843,-9.64649 A 9.6472422,9.6472422 0 0 1 244.3457,226 Z m -171.496091,0.2207 a 4.1574803,4.1574803 0 0 1 4.15625,4.15625 4.1574803,4.1574803 0 0 1 -8.314453,0 4.1574803,4.1574803 0 0 1 4.158203,-4.15625 z m 270.470701,1.68555 a 9.6472445,9.6472445 0 0 1 9.64844,9.64648 9.6472445,9.6472445 0 0 1 -9.64844,9.64844 9.6472445,9.6472445 0 0 1 -9.64648,-9.64844 9.6472445,9.6472445 0 0 1 9.64648,-9.64648 z m 39.2793,24.99609 a 4.1574803,4.1574803 0 0 1 4.1582,4.15821 4.1574803,4.1574803 0 0 1 -8.31445,0 4.1574803,4.1574803 0 0 1 4.15625,-4.15821 z m 52.74414,13.94336 a 28.346004,28.346004 0 0 1 28.3457,28.34571 28.346004,28.346004 0 0 1 -28.3457,28.34765 28.346004,28.346004 0 0 1 -28.3457,-28.34765 28.346004,28.346004 0 0 1 28.3457,-28.34571 z m 115.86133,58.625 a 4.1574803,4.1574803 0 0 1 4.1582,4.15625 4.1582,4.1582 0 0 1 -8.3164,0 4.1574803,4.1574803 0 0 1 4.1582,-4.15625 z"
       transform="scale(0.26458333)" />
  </g>
  <g
     id="g869"
     style="display:none">
    <path
       id="path863"
       style="display:inline;fill:#130c0b;fill-opacity:0.309804;stroke:none;stroke-width:0.385406;stroke-miterlimit:4;stroke-dasharray:none"
       d="m 240.2832,0.015625 a 7.5590551,7.5590551 0 0 0 -7.56054,7.5585938 v 5.5332032 l -64.79883,4.501953 a 22.677165,22.677165 0 0 0 -13.67578,5.835937 L 7.5761719,156.64258 a 22.677165,22.677165 0 0 0 -6.3828125,23.5918 l 13.1269526,41.73046 a 22.677165,22.677165 0 0 0 7.982422,11.30664 L 93.1875,286.68555 a 22.677165,22.677165 0 0 0 9.875,4.25195 l 276.89258,46.67969 a 22.677165,22.677165 0 0 1 7.91797,2.92969 l 135.86328,81.71289 a 22.677165,22.677165 0 0 0 27.72265,-3.39649 l 28.75391,-28.75586 a 22.677165,22.677165 0 0 0 5.73828,-22.375 L 555.4082,262.85156 593.44922,62.660156 A 15.11811,15.11811 0 0 0 579.65039,44.757812 L 445.8125,35.398438 h -0.004 l -50.90625,-3.560547 a 7.5590551,7.5590551 0 0 0 -7.02929,-7.691407 L 315.30664,19.076172 V 7.5742188 A 7.5590551,7.5590551 0 0 0 307.74609,0.015625 Z M 435.34375,54.78125 A 18.897638,18.897638 0 0 1 454.24219,73.679688 18.897638,18.897638 0 0 1 435.34375,92.576172 18.897638,18.897638 0 0 1 416.44531,73.679688 18.897638,18.897638 0 0 1 435.34375,54.78125 Z m -286.96094,4.042969 a 4.1574803,4.1574803 0 0 1 4.15821,4.158203 4.1574803,4.1574803 0 0 1 -8.31446,0 4.1574803,4.1574803 0 0 1 4.15625,-4.158203 z M 343.32031,89.9375 a 9.6472464,9.6472464 0 0 1 9.64649,9.646484 9.6472464,9.6472464 0 0 1 -9.64649,9.648436 9.6472464,9.6472464 0 0 1 -9.64648,-9.648436 9.6472464,9.6472464 0 0 1 9.64648,-9.646484 z m -98.97461,2.166016 a 9.6472445,9.6472445 0 0 1 9.64649,9.646484 9.6472445,9.6472445 0 0 1 -9.64649,9.64844 9.6472445,9.6472445 0 0 1 -9.64843,-9.64844 9.6472445,9.6472445 0 0 1 9.64843,-9.646484 z m 145.81446,3.722656 a 4.1574803,4.1574803 0 0 1 4.15625,4.158203 4.1574803,4.1574803 0 0 1 -8.31446,0 4.1574803,4.1574803 0 0 1 4.15821,-4.158203 z M 92.134766,152.24609 A 18.897638,18.897638 0 0 1 111.0332,171.14258 18.897638,18.897638 0 0 1 92.134766,190.04102 18.897638,18.897638 0 0 1 73.238281,171.14258 18.897638,18.897638 0 0 1 92.134766,152.24609 Z m 102.722654,8.63086 a 9.647243,9.647243 0 0 1 9.64844,9.64649 9.647243,9.647243 0 0 1 -9.64844,9.64844 9.647243,9.647243 0 0 1 -9.64648,-9.64844 9.647243,9.647243 0 0 1 9.64648,-9.64649 z m 98.97461,0.55078 a 9.6472479,9.6472479 0 0 1 9.64844,9.64649 9.6472479,9.6472479 0 0 1 -9.64844,9.64648 9.6472479,9.6472479 0 0 1 -9.64648,-9.64648 9.6472479,9.6472479 0 0 1 9.64648,-9.64649 z m 98.97656,1.19336 a 9.6472369,9.6472369 0 0 1 9.64649,9.64649 9.6472369,9.6472369 0 0 1 -9.64649,9.64844 9.6472369,9.6472369 0 0 1 -9.64843,-9.64844 9.6472369,9.6472369 0 0 1 9.64843,-9.64649 z M 244.3457,226 a 9.6472422,9.6472422 0 0 1 9.64649,9.64648 9.6472422,9.6472422 0 0 1 -9.64649,9.64649 9.6472422,9.6472422 0 0 1 -9.64843,-9.64649 A 9.6472422,9.6472422 0 0 1 244.3457,226 Z m -171.496091,0.2207 a 4.1574803,4.1574803 0 0 1 4.15625,4.15625 4.1574803,4.1574803 0 0 1 -8.314453,0 4.1574803,4.1574803 0 0 1 4.158203,-4.15625 z m 270.470701,1.68555 a 9.6472445,9.6472445 0 0 1 9.64844,9.64648 9.6472445,9.6472445 0 0 1 -9.64844,9.64844 9.6472445,9.6472445 0 0 1 -9.64648,-9.64844 9.6472445,9.6472445 0 0 1 9.64648,-9.64648 z m 39.2793,24.99609 a 4.1574803,4.1574803 0 0 1 4.1582,4.15821 4.1574803,4.1574803 0 0 1 -8.31445,0 4.1574803,4.1574803 0 0 1 4.15625,-4.15821 z m 52.74414,23.51368 a 18.897638,18.897638 0 0 1 18.89844,18.89843 18.897638,18.897638 0 0 1 -18.89844,18.89844 18.897638,18.897638 0 0 1 -18.89844,-18.89844 18.897638,18.897638 0 0 1 18.89844,-18.89843 z m 115.86133,49.05468 a 4.1574803,4.1574803 0 0 1 4.1582,4.15625 4.1582,4.1582 0 0 1 -8.3164,0 4.1574803,4.1574803 0 0 1 4.1582,-4.15625 z"
       transform="scale(0.26458333)" />
  </g>
  <g
     id="layer9"
     style="display:none">
    <path
       d="m 117.95471,9.365993 35.411,2.476 a 4,4 0 0 1 3.651,4.737 l -10.065,52.967 8.081,27.749997 a 6,6 0 0 1 -1.518,5.92 l -7.608,7.608 a 6,6 0 0 1 -7.335,0.899 l -35.947,-21.619999 a 6,6 0 0 0 -2.095,-0.775 l -73.261,-12.351 a 6,6 0 0 1 -2.613,-1.125 L 5.90071,61.719993 a 6,6 0 0 1 -2.112,-2.992 l -3.473,-11.041 a 6,6 0 0 1 1.689,-6.242 l 38.807,-35.242 a 6,6 0 0 1 3.618002,-1.544 l 17.145,-1.191 v -1.464 a 2,2 0 0 1 2,-2 h 17.85 a 2,2 0 0 1 2,2 v 3.043 l 19.199998,1.342 a 2,2 0 0 1 1.86,2.035 l 13.469,0.942 z m -78.695,7.298 m -1.9,0 a 1.9,1.9 0 0 1 3.8,0 1.9,1.9 0 0 1 -3.8,0 z m -18.085,44.29 m -1.9,0 a 1.9,1.9 0 0 1 3.8,0 1.9,1.9 0 0 1 -3.8,0 z m 85.855,-34.5 m -1.9,0 a 1.9,1.9 0 0 1 3.8,0 1.9,1.9 0 0 1 -3.8,0 z m -0.1,41.56 m -1.899998,0 a 1.9,1.9 0 0 1 3.799998,0 1.9,1.9 0 0 1 -3.799998,0 z m 46.509998,19.199998 m -1.9,0 a 1.9,1.9 0 0 1 3.8,0 1.9,1.9 0 0 1 -3.8,0 z m 6.38,-58.249998 m -1.1,0 a 1.1,1.1 0 0 1 2.2,0 1.1,1.1 0 0 1 -2.2,0 z m -17.88,20.79 m -1.1,0 a 1.1,1.1 0 0 1 2.2,0 1.1,1.1 0 0 1 -2.2,0 z"
       vector-effect="non-scaling-stroke"
       id="path872-3"
       style="font-size:12px;fill:#130c0b;fill-opacity:0.309804;fill-rule:evenodd;stroke:none;stroke-width:0.25mm;stroke-linecap:round" />
  </g>
  <g
     id="layer1"
     style="display:none">
    <path
       d="m 121.75672,47.451993 2.493,-35.641 a 2,2 0 0 0 -1.856,-2.135 l -17.909,-1.252 a 2,2 0 0 0 -1.86,-2.035 l -19.2,-1.342 v -3.043 a 2,2 0 0 0 -2,-2 h -17.85 a 2,2 0 0 0 -2,2 v 1.464 l -17.145,1.191 a 6,6 0 0 0 -3.618,1.544 l -38.8069998,35.242 a 6,6 0 0 0 -1.689,6.242 l 3.4729998,11.041 a 6,6 0 0 0 2.112,2.992 l 18.755,14.132 a 6,6 0 0 0 2.613,1.125 l 73.261,12.351 a 6,6 0 0 1 2.095,0.775 l 35.947,21.619997 a 6,6 0 0 0 7.335,-0.899 l 7.608,-7.608 a 6,6 0 0 0 1.518,-5.919997 l -10.491,-36.027 a 6,6 0 0 0 -3.018,-3.659 z m 13.405,30.848 5.893,-17.114 -13.238,-4.558 -5.892,17.114 z m -21.128,11.263 12.474,6.356 6.356,-12.474 -12.474,-6.356 z m -86.081,-15.653 13.864,-1.949 -1.949,-13.863 -13.864,1.948 z m -2.644,-18.815 13.863,-1.949 -1.948,-13.863 -13.864,1.948 z m -18.815,2.644 13.863,-1.948 -1.948,-13.864 -13.864,1.948 z m 39.31,1.477 13.992,-0.488 -0.489,-13.992 -13.991,0.489 z m -1.326,-37.976 13.992,-0.489 -0.489,-13.992 -13.991,0.489 z m 0.663,18.988 13.992,-0.489 -0.489,-13.991 -13.991,0.488 z m 40.543,0.563 13.966,0.977 0.977,-13.966 -13.966,-0.977 z m 1.326,-18.953 13.965,0.976 0.977,-13.966 -13.966,-0.976 z m 17.495,22.174 13.966,0.977 0.977,-13.966 -13.966,-0.977 z m 1.326,-18.954 13.966,0.977 0.976,-13.966 -13.966,-0.977 z m -21.472,34.687 13.966,0.977 0.976,-13.966 -13.966,-0.977 z m 18.821,3.221 13.966,0.976 0.977,-13.966 -13.966,-0.976 z m -38.105,-8.462 h 14 v -14 h -14 z m 0,-19 h 14 v -14 h -14 z m 0,-19 h 14 v -14 h -14 z m 66.542,83.127 9.899,9.898997 9.9,-9.898997 -9.9,-9.9 z m -37.417,-14.21 13.828,2.19 2.19,-13.827 -13.828,-2.19 z m -54.94,-68.757 m -1.1,0 a 1.1,1.1 0 0 1 2.2,0 1.1,1.1 0 0 1 -2.2,0 z m -18.885,44.29 m -1.1,0 a 1.1,1.1 0 0 1 2.2,0 1.1,1.1 0 0 1 -2.2,0 z m 85.055,-34.5 m -1.1,0 a 1.1,1.1 0 0 1 2.2,0 1.1,1.1 0 0 1 -2.2,0 z m -0.9,41.56 m -1.1,0 a 1.1,1.1 0 0 1 2.2,0 1.1,1.1 0 0 1 -2.2,0 z m 45.71,19.2 m -1.1,0 a 1.1,1.1 0 0 1 2.2,0 1.1,1.1 0 0 1 -2.2,0 z"
       vector-effect="non-scaling-stroke"
       id="path857"
       style="font-size:12px;fill:#130c0b;fill-opacity:0.309804;fill-rule:evenodd;stroke:none;stroke-width:0.25mm;stroke-linecap:round" />
  </g>
</svg>
