  0
SECTION
  2
HEADER
  9
$ACADVER
  1
AC1014
  9
$HANDSEED
  5
FFFF
  9
$MEASUREMENT
 70
     1
  0
ENDSEC
  0
SECTION
  2
TABLES
  0
TABLE
  2
VPORT
  5
8
330
0
100
AcDbSymbolTable
 70
     4
  0
VPORT
  5
2E
330
8
100
AcDbSymbolTableRecord
100
AcDbViewportTableRecord
  2
*ACTIVE
 70
     0
 10
0.0
 20
0.0
 11
1.0
 21
1.0
 12
210.0
 22
148.5
 13
0.0
 23
0.0
 14
10.0
 24
10.0
 15
10.0
 25
10.0
 16
0.0
 26
0.0
 36
1.0
 17
0.0
 27
0.0
 37
0.0
 40
341.0
 41
1.24
 42
50.0
 43
0.0
 44
0.0
 50
0.0
 51
0.0
 71
     0
 72
   100
 73
     1
 74
     3
 75
     0
 76
     0
 77
     0
 78
     0
  0
ENDTAB
  0
TABLE
  2
LTYPE
  5
5
330
0
100
AcDbSymbolTable
 70
     1
  0
LTYPE
  5
14
330
5
100
AcDbSymbolTableRecord
100
AcDbLinetypeTableRecord
  2
BYBLOCK
 70
     0
  3

 72
    65
 73
     0
 40
0.0
  0
LTYPE
  5
15
330
5
100
AcDbSymbolTableRecord
100
AcDbLinetypeTableRecord
  2
BYLAYER
 70
     0
  3

 72
    65
 73
     0
 40
0.0
  0
LTYPE
  5
16
330
5
100
AcDbSymbolTableRecord
100
AcDbLinetypeTableRecord
  2
CONTINUOUS
 70
     0
  3
Solid line
 72
    65
 73
     0
 40
0.0
  0
ENDTAB
  0
TABLE
  2
LAYER
  5
2
100
AcDbSymbolTable
 70
13
  0
LAYER
  5
50
100
AcDbSymbolTableRecord
100
AcDbLayerTableRecord
  2
0
 70
0
  6
CONTINUOUS
  0
LAYER
  5
51
100
AcDbSymbolTableRecord
100
AcDbLayerTableRecord
  2
References
 70
0
  6
CONTINUOUS
  0
LAYER
  5
52
100
AcDbSymbolTableRecord
100
AcDbLayerTableRecord
  2
Bottom
 70
0
  6
CONTINUOUS
  0
LAYER
  5
53
100
AcDbSymbolTableRecord
100
AcDbLayerTableRecord
  2
holes
 70
0
  6
CONTINUOUS
  0
LAYER
  5
54
100
AcDbSymbolTableRecord
100
AcDbLayerTableRecord
  2
center
 70
0
  6
CONTINUOUS
  0
LAYER
  5
55
100
AcDbSymbolTableRecord
100
AcDbLayerTableRecord
  2
top
 70
0
  6
CONTINUOUS
  0
LAYER
  5
56
100
AcDbSymbolTableRecord
100
AcDbLayerTableRecord
  2
bottom
 70
0
  6
CONTINUOUS
  0
LAYER
  5
57
100
AcDbSymbolTableRecord
100
AcDbLayerTableRecord
  2
15-magnets
 70
0
  6
CONTINUOUS
  0
LAYER
  5
58
100
AcDbSymbolTableRecord
100
AcDbLayerTableRecord
  2
10-magnets
 70
0
  6
CONTINUOUS
  0
LAYER
  5
59
100
AcDbSymbolTableRecord
100
AcDbLayerTableRecord
  2
Bottom_15
 70
0
  6
CONTINUOUS
  0
LAYER
  5
5a
100
AcDbSymbolTableRecord
100
AcDbLayerTableRecord
  2
Bottom_10
 70
0
  6
CONTINUOUS
  0
LAYER
  5
5b
100
AcDbSymbolTableRecord
100
AcDbLayerTableRecord
  2
PCB
 70
0
  6
CONTINUOUS
  0
LAYER
  5
5c
100
AcDbSymbolTableRecord
100
AcDbLayerTableRecord
  2
Top
 70
0
  6
CONTINUOUS
  0
ENDTAB
  0
TABLE
  2
STYLE
  5
3
330
0
100
AcDbSymbolTable
 70
     1
  0
STYLE
  5
11
330
3
100
AcDbSymbolTableRecord
100
AcDbTextStyleTableRecord
  2
STANDARD
 70
     0
 40
0.0
 41
1.0
 50
0.0
 71
     0
 42
2.5
  3
txt
  4

  0
ENDTAB
  0
TABLE
  2
VIEW
  5
6
330
0
100
AcDbSymbolTable
 70
     0
  0
ENDTAB
  0
TABLE
  2
UCS
  5
7
330
0
100
AcDbSymbolTable
 70
     0
  0
ENDTAB
  0
TABLE
  2
APPID
  5
9
330
0
100
AcDbSymbolTable
 70
     2
  0
APPID
  5
12
330
9
100
AcDbSymbolTableRecord
100
AcDbRegAppTableRecord
  2
ACAD
 70
     0
  0
ENDTAB
  0
TABLE
  2
DIMSTYLE
  5
A
330
0
100
AcDbSymbolTable
 70
     1
  0
DIMSTYLE
105
27
330
A
100
AcDbSymbolTableRecord
100
AcDbDimStyleTableRecord
  2
ISO-25
 70
     0
  3

  4

  5

  6

  7

 40
1.0
 41
2.5
 42
0.625
 43
3.75
 44
1.25
 45
0.0
 46
0.0
 47
0.0
 48
0.0
140
2.5
141
2.5
142
0.0
143
0.03937007874016
144
1.0
145
0.0
146
1.0
147
0.625
 71
     0
 72
     0
 73
     0
 74
     0
 75
     0
 76
     0
 77
     1
 78
     8
170
     0
171
     3
172
     1
173
     0
174
     0
175
     0
176
     0
177
     0
178
     0
270
     2
271
     2
272
     2
273
     2
274
     3
340
11
275
     0
280
     0
281
     0
282
     0
283
     0
284
     8
285
     0
286
     0
287
     3
288
     0
  0
ENDTAB
  0
TABLE
  2
BLOCK_RECORD
  5
1
330
0
100
AcDbSymbolTable
 70
     1
  0
BLOCK_RECORD
  5
1F
330
1
100
AcDbSymbolTableRecord
100
AcDbBlockTableRecord
  2
*MODEL_SPACE
  0
BLOCK_RECORD
  5
1B
330
1
100
AcDbSymbolTableRecord
100
AcDbBlockTableRecord
  2
*PAPER_SPACE
  0
ENDTAB
  0
ENDSEC
  0
SECTION
  2
BLOCKS
  0
BLOCK
  5
20
330
1F
100
AcDbEntity
  8
0
100
AcDbBlockBegin
  2
*MODEL_SPACE
 70
     0
 10
0.0
 20
0.0
 30
0.0
  3
*MODEL_SPACE
  1

  0
ENDBLK
  5
21
330
1F
100
AcDbEntity
  8
0
100
AcDbBlockEnd
  0
BLOCK
  5
1C
330
1B
100
AcDbEntity
 67
     1
  8
0
100
AcDbBlockBegin
  2
*PAPER_SPACE
  1

  0
ENDBLK
  5
1D
330
1B
100
AcDbEntity
 67
     1
  8
0
100
AcDbBlockEnd
  0
ENDSEC
  0
SECTION
  2
ENTITIES
  0
LINE
  5
100
100
AcDbEntity
  8
Bottom_15
 62
7
100
AcDbLine
 10
61.574536
 20
110.573988
 30
0.0
 11
61.574536
 21
109.109995
 31
0.0
  0
LINE
  5
101
100
AcDbEntity
  8
Bottom_15
 62
7
100
AcDbLine
 10
61.574536
 20
109.109995
 30
0.0
 11
44.429846
 21
107.918853
 31
0.0
  0
SPLINE
  5
102
100
AcDbEntity
  8
Bottom_15
 62
7
100
AcDbSpline
 70
0
 71
3
 72
13
 73
9
 74
7
 40
0.000000
 40
0.000000
 40
0.000000
 40
0.000000
 40
0.523595
 40
1.042856
 40
1.566451
 40
2.090046
 40
2.609307
 40
3.132902
 40
3.132902
 40
3.132902
 40
3.132902
 10
63.574929
 20
112.573866
 30
0.0
 10
63.399885
 20
112.560565
 30
0.0
 10
63.051245
 20
112.534075
 30
0.0
 10
62.563486
 20
112.324285
 30
0.0
 10
62.143722
 20
112.005049
 30
0.0
 10
61.824378
 20
111.585367
 30
0.0
 10
61.614462
 20
111.097662
 30
0.0
 10
61.587882
 20
110.749029
 30
0.0
 10
61.574536
 20
110.573988
 30
0.0
 11
63.574929
 21
112.573866
 31
0.0
 11
63.055825
 21
112.505435
 31
0.0
 11
62.576058
 21
112.306800
 31
0.0
 11
62.160505
 21
111.988262
 31
0.0
 11
61.841859
 21
111.572790
 31
0.0
 11
61.643101
 21
111.093074
 31
0.0
 11
61.574536
 21
110.573988
 31
0.0
  0
LINE
  5
103
100
AcDbEntity
  8
Bottom_15
 62
7
100
AcDbLine
 10
40.811463
 20
106.374761
 30
0.0
 11
2.004529
 21
71.132985
 31
0.0
  0
SPLINE
  5
104
100
AcDbEntity
  8
Bottom_15
 62
7
100
AcDbSpline
 70
0
 71
3
 72
10
 73
6
 74
4
 40
0.000000
 40
0.000000
 40
0.000000
 40
0.000000
 40
1.335996
 40
2.663917
 40
3.999913
 40
3.999913
 40
3.999913
 40
3.999913
 10
44.429846
 20
107.918853
 30
0.0
 10
43.987410
 20
107.858316
 30
0.0
 10
43.105212
 20
107.737608
 30
0.0
 10
41.858835
 20
107.205734
 30
0.0
 10
41.161292
 20
106.652312
 30
0.0
 10
40.811463
 20
106.374761
 30
0.0
 11
44.429846
 21
107.918853
 31
0.0
 11
43.115646
 21
107.678508
 31
0.0
 11
41.894285
 21
107.157310
 31
0.0
 11
40.811463
 21
106.374761
 31
0.0
  0
LINE
  5
105
100
AcDbEntity
  8
Bottom_15
 62
7
100
AcDbLine
 10
0.315743
 20
64.890988
 30
0.0
 11
3.788916
 21
53.849803
 31
0.0
  0
SPLINE
  5
106
100
AcDbEntity
  8
Bottom_15
 62
7
100
AcDbSpline
 70
0
 71
3
 72
10
 73
6
 74
4
 40
0.000000
 40
0.000000
 40
0.000000
 40
0.000000
 40
2.275450
 40
4.512875
 40
6.788325
 40
6.788325
 40
6.788325
 40
6.788325
 10
2.004529
 20
71.132985
 30
0.0
 10
1.500037
 20
70.557934
 30
0.0
 10
0.499484
 20
69.417443
 30
0.0
 10
-0.119024
 20
67.131349
 30
0.0
 10
0.170009
 20
65.641958
 30
0.0
 10
0.315743
 20
64.890988
 30
0.0
 11
2.004529
 21
71.132985
 31
0.0
 11
0.640889
 21
69.311402
 31
0.0
 11
0.056558
 21
67.151629
 31
0.0
 11
0.315743
 21
64.890988
 31
0.0
  0
LINE
  5
107
100
AcDbEntity
  8
Bottom_15
 62
7
100
AcDbLine
 10
5.900932
 20
50.858255
 30
0.0
 11
24.655859
 21
36.725783
 31
0.0
  0
SPLINE
  5
108
100
AcDbEntity
  8
Bottom_15
 62
7
100
AcDbSpline
 70
0
 71
3
 72
10
 73
6
 74
4
 40
0.000000
 40
0.000000
 40
0.000000
 40
0.000000
 40
1.240395
 40
2.474305
 40
3.714700
 40
3.714700
 40
3.714700
 40
3.714700
 10
3.788916
 20
53.849803
 30
0.0
 10
3.937443
 20
53.462891
 30
0.0
 10
4.233722
 20
52.691090
 30
0.0
 10
4.957951
 20
51.665261
 30
0.0
 10
5.586056
 20
51.127727
 30
0.0
 10
5.900932
 20
50.858255
 30
0.0
 11
3.788916
 21
53.849803
 31
0.0
 11
4.281273
 21
52.711311
 31
0.0
 11
4.992923
 21
51.703300
 31
0.0
 11
5.900932
 21
50.858255
 31
0.0
  0
LINE
  5
109
100
AcDbEntity
  8
Bottom_15
 62
7
100
AcDbLine
 10
27.268619
 20
35.600787
 30
0.0
 11
100.529780
 21
23.250120
 31
0.0
  0
SPLINE
  5
10a
100
AcDbEntity
  8
Bottom_15
 62
7
100
AcDbSpline
 70
0
 71
3
 72
10
 73
6
 74
4
 40
0.000000
 40
0.000000
 40
0.000000
 40
0.000000
 40
0.957323
 40
1.911639
 40
2.868962
 40
2.868962
 40
2.868962
 40
2.868962
 10
24.655859
 20
36.725783
 30
0.0
 10
24.919936
 20
36.545850
 30
0.0
 10
25.447261
 20
36.186551
 30
0.0
 10
26.333034
 20
35.805158
 30
0.0
 10
26.956431
 20
35.668982
 30
0.0
 10
27.268619
 20
35.600787
 30
0.0
 11
24.655859
 21
36.725783
 31
0.0
 11
25.463861
 21
36.212361
 31
0.0
 11
26.340377
 21
35.834953
 31
0.0
 11
27.268619
 21
35.600787
 31
0.0
  0
LINE
  5
10b
100
AcDbEntity
  8
Bottom_15
 62
7
100
AcDbLine
 10
102.624743
 20
22.474972
 30
0.0
 11
138.571902
 21
0.855104
 31
0.0
  0
SPLINE
  5
10c
100
AcDbEntity
  8
Bottom_15
 62
7
100
AcDbSpline
 70
0
 71
3
 72
10
 73
6
 74
4
 40
0.000000
 40
0.000000
 40
0.000000
 40
0.000000
 40
0.748954
 40
1.496462
 40
2.245416
 40
2.245416
 40
2.245416
 40
2.245416
 10
100.529780
 20
23.250120
 30
0.0
 10
100.774432
 20
23.199362
 30
0.0
 10
101.263263
 20
23.097945
 30
0.0
 10
101.968859
 20
22.836871
 30
0.0
 10
102.405974
 20
22.595683
 30
0.0
 10
102.624743
 20
22.474972
 30
0.0
 11
100.529780
 21
23.250120
 31
0.0
 11
101.259081
 21
23.079668
 31
0.0
 11
101.960138
 21
22.820273
 31
0.0
 11
102.624743
 21
22.474972
 31
0.0
  0
LINE
  5
10d
100
AcDbEntity
  8
Bottom_15
 62
7
100
AcDbLine
 10
145.906853
 20
1.753759
 30
0.0
 11
153.514659
 21
9.362080
 31
0.0
  0
SPLINE
  5
10e
100
AcDbEntity
  8
Bottom_15
 62
7
100
AcDbSpline
 70
0
 71
3
 72
10
 73
6
 74
4
 40
0.000000
 40
0.000000
 40
0.000000
 40
0.000000
 40
2.651735
 40
5.244882
 40
7.896617
 40
7.896617
 40
7.896617
 40
7.896617
 10
138.571902
 20
0.855104
 30
0.0
 10
139.392406
 20
0.498723
 30
0.0
 10
141.015286
 20
-0.206164
 30
0.0
 10
143.791938
 20
0.134022
 30
0.0
 10
145.196651
 20
1.209841
 30
0.0
 10
145.906853
 20
1.753759
 30
0.0
 11
138.571902
 21
0.855104
 31
0.0
 11
141.089996
 21
0.023899
 31
0.0
 11
143.663898
 21
0.339245
 31
0.0
 11
145.906853
 21
1.753759
 31
0.0
  0
LINE
  5
10f
100
AcDbEntity
  8
Bottom_15
 62
7
100
AcDbLine
 10
155.032912
 20
15.282132
 30
0.0
 11
146.951751
 21
43.031859
 31
0.0
  0
LINE
  5
110
100
AcDbEntity
  8
Bottom_15
 62
7
100
AcDbLine
 10
146.951751
 20
43.031859
 30
0.0
 11
157.016771
 21
95.999167
 31
0.0
  0
SPLINE
  5
111
100
AcDbEntity
  8
Bottom_15
 62
7
100
AcDbSpline
 70
0
 71
3
 72
10
 73
6
 74
4
 40
0.000000
 40
0.000000
 40
0.000000
 40
0.000000
 40
2.136824
 40
4.241880
 40
6.378704
 40
6.378704
 40
6.378704
 40
6.378704
 10
153.514659
 20
9.362080
 30
0.0
 10
153.965363
 20
9.920473
 30
0.0
 10
154.860072
 20
11.028957
 30
0.0
 10
155.410057
 20
13.173489
 30
0.0
 10
155.159253
 20
14.575750
 30
0.0
 10
155.032912
 20
15.282132
 30
0.0
 11
153.514659
 21
9.362080
 31
0.0
 11
154.732543
 21
11.117863
 31
0.0
 11
155.255481
 21
13.156930
 31
0.0
 11
155.032912
 21
15.282132
 31
0.0
  0
LINE
  5
112
100
AcDbEntity
  8
Bottom_15
 62
7
100
AcDbLine
 10
153.365830
 20
100.735829
 30
0.0
 11
117.954556
 21
103.212163
 31
0.0
  0
LINE
  5
113
100
AcDbEntity
  8
Bottom_15
 62
7
100
AcDbLine
 10
117.954556
 20
103.212163
 30
0.0
 11
117.953497
 21
103.212163
 31
0.0
  0
LINE
  5
114
100
AcDbEntity
  8
Bottom_15
 62
7
100
AcDbLine
 10
117.953497
 20
103.212163
 30
0.0
 11
104.484552
 21
104.154225
 31
0.0
  0
SPLINE
  5
115
100
AcDbEntity
  8
Bottom_15
 62
7
100
AcDbSpline
 70
0
 71
3
 72
13
 73
9
 74
7
 40
0.000000
 40
0.000000
 40
0.000000
 40
0.000000
 40
1.125684
 40
2.240660
 40
3.366343
 40
4.492027
 40
5.607003
 40
6.732686
 40
6.732686
 40
6.732686
 40
6.732686
 10
157.016771
 20
95.999167
 30
0.0
 10
157.056693
 20
96.374809
 30
0.0
 10
157.136157
 20
97.122520
 30
0.0
 10
156.854319
 20
98.231227
 30
0.0
 10
156.298601
 20
99.220987
 30
0.0
 10
155.482959
 20
100.010402
 30
0.0
 10
154.482556
 20
100.565252
 30
0.0
 10
153.739257
 20
100.678789
 30
0.0
 10
153.365830
 20
100.735829
 30
0.0
 11
157.016771
 21
95.999167
 31
0.0
 11
157.069133
 21
97.123633
 31
0.0
 11
156.810076
 21
98.208096
 31
0.0
 11
156.255142
 21
99.187490
 31
0.0
 11
155.449326
 21
99.973507
 31
0.0
 11
154.466567
 21
100.500153
 31
0.0
 11
153.365830
 21
100.735829
 31
0.0
  0
LINE
  5
116
100
AcDbEntity
  8
Bottom_15
 62
7
100
AcDbLine
 10
102.624719
 20
106.189243
 30
0.0
 11
83.424881
 21
107.530763
 31
0.0
  0
LINE
  5
117
100
AcDbEntity
  8
Bottom_15
 62
7
100
AcDbLine
 10
83.424881
 20
107.530763
 30
0.0
 11
83.424881
 21
110.573988
 31
0.0
  0
SPLINE
  5
118
100
AcDbEntity
  8
Bottom_15
 62
7
100
AcDbSpline
 70
0
 71
3
 72
10
 73
6
 74
4
 40
0.000000
 40
0.000000
 40
0.000000
 40
0.000000
 40
1.012609
 40
1.996795
 40
3.009404
 40
3.009404
 40
3.009404
 40
3.009404
 10
104.484552
 20
104.154225
 30
0.0
 10
104.439791
 20
104.494374
 30
0.0
 10
104.351524
 20
105.165124
 30
0.0
 10
103.619594
 20
105.965998
 30
0.0
 10
102.959476
 20
106.114125
 30
0.0
 10
102.624719
 20
106.189243
 30
0.0
 11
104.484552
 21
104.154225
 31
0.0
 11
104.248074
 21
105.138834
 31
0.0
 11
103.584122
 21
105.865325
 31
0.0
 11
102.624719
 21
106.189243
 31
0.0
  0
LINE
  5
119
100
AcDbEntity
  8
Bottom_15
 62
7
100
AcDbLine
 10
81.424485
 20
112.573866
 30
0.0
 11
63.574929
 21
112.573866
 31
0.0
  0
SPLINE
  5
11a
100
AcDbEntity
  8
Bottom_15
 62
7
100
AcDbSpline
 70
0
 71
3
 72
13
 73
9
 74
7
 40
0.000000
 40
0.000000
 40
0.000000
 40
0.000000
 40
0.523595
 40
1.042857
 40
1.566452
 40
2.090048
 40
2.609309
 40
3.132905
 40
3.132905
 40
3.132905
 40
3.132905
 10
83.424881
 20
110.573988
 30
0.0
 10
83.411535
 20
110.749029
 30
0.0
 10
83.384955
 20
111.097662
 30
0.0
 10
83.175039
 20
111.585368
 30
0.0
 10
82.855694
 20
112.005050
 30
0.0
 10
82.435930
 20
112.324285
 30
0.0
 10
81.948170
 20
112.534075
 30
0.0
 10
81.599530
 20
112.560566
 30
0.0
 10
81.424485
 20
112.573866
 30
0.0
 11
83.424881
 21
110.573988
 31
0.0
 11
83.356316
 21
111.093075
 31
0.0
 11
83.157558
 21
111.572791
 31
0.0
 11
82.838911
 21
111.988262
 31
0.0
 11
82.423357
 21
112.306801
 31
0.0
 11
81.943590
 21
112.505436
 31
0.0
 11
81.424485
 21
112.573866
 31
0.0
  0
LINE
  5
11b
100
AcDbEntity
  8
Bottom_15
 62
7
100
AcDbLine
 10
115.184699
 20
100.634026
 30
0.0
 11
115.184699
 21
100.634026
 31
0.0
  0
SPLINE
  5
11c
100
AcDbEntity
  8
Bottom_15
 62
7
100
AcDbSpline
 70
0
 71
3
 72
19
 73
15
 74
13
 40
0.000000
 40
0.000000
 40
0.000000
 40
0.000000
 40
3.921328
 40
7.726354
 40
11.647682
 40
15.569010
 40
19.374035
 40
23.295363
 40
27.216690
 40
31.021715
 40
34.943043
 40
38.864371
 40
42.669397
 40
46.590725
 40
46.590725
 40
46.590725
 40
46.590725
 10
115.184699
 20
100.634026
 30
0.0
 10
116.506784
 20
100.427885
 30
0.0
 10
119.111743
 20
100.021718
 30
0.0
 10
121.979582
 20
97.035934
 30
0.0
 10
123.042263
 20
93.141110
 30
0.0
 10
121.979582
 20
89.205391
 30
0.0
 10
119.111743
 20
86.339865
 30
0.0
 10
115.184699
 20
85.276398
 30
0.0
 10
111.257655
 20
86.339865
 30
0.0
 10
108.389816
 20
89.205391
 30
0.0
 10
107.327136
 20
93.141110
 30
0.0
 10
108.389816
 20
97.035934
 30
0.0
 10
111.257655
 20
100.021718
 30
0.0
 10
113.862614
 20
100.427885
 30
0.0
 10
115.184699
 20
100.634026
 30
0.0
 11
115.184699
 21
100.634026
 31
0.0
 11
118.969974
 21
99.610061
 31
0.0
 11
121.660533
 21
96.919501
 31
0.0
 11
122.684499
 21
93.134226
 31
0.0
 11
121.660533
 21
89.348951
 31
0.0
 11
118.969974
 21
86.658392
 31
0.0
 11
115.184699
 21
85.634426
 31
0.0
 11
111.399424
 21
86.658392
 31
0.0
 11
108.708865
 21
89.348951
 31
0.0
 11
107.684899
 21
93.134226
 31
0.0
 11
108.708865
 21
96.919501
 31
0.0
 11
111.399424
 21
99.610061
 31
0.0
 11
115.184699
 21
100.634026
 31
0.0
  0
SPLINE
  5
11d
100
AcDbEntity
  8
Bottom_15
 62
7
100
AcDbSpline
 70
0
 71
3
 72
13
 73
9
 74
7
 40
0.000000
 40
0.000000
 40
0.000000
 40
0.000000
 40
0.288016
 40
0.573648
 40
0.861665
 40
1.149681
 40
1.435313
 40
1.723329
 40
1.723329
 40
1.723329
 40
1.723329
 10
39.259618
 20
97.014092
 30
0.0
 10
39.355905
 20
97.006773
 30
0.0
 10
39.547683
 20
96.992195
 30
0.0
 10
39.815979
 20
96.876774
 30
0.0
 10
40.046862
 20
96.701145
 30
0.0
 10
40.222492
 20
96.470262
 30
0.0
 10
40.337913
 20
96.201966
 30
0.0
 10
40.352492
 20
96.010188
 30
0.0
 10
40.359811
 20
95.913901
 30
0.0
 11
39.259618
 21
97.014092
 31
0.0
 11
39.545163
 21
96.976439
 31
0.0
 11
39.809062
 21
96.867156
 31
0.0
 11
40.037628
 21
96.691910
 31
0.0
 11
40.212874
 21
96.463344
 31
0.0
 11
40.322157
 21
96.199446
 31
0.0
 11
40.359811
 21
95.913901
 31
0.0
  0
SPLINE
  5
11e
100
AcDbEntity
  8
Bottom_15
 62
7
100
AcDbSpline
 70
0
 71
3
 72
13
 73
9
 74
7
 40
0.000000
 40
0.000000
 40
0.000000
 40
0.000000
 40
0.571149
 40
1.125558
 40
1.696706
 40
2.267855
 40
2.822264
 40
3.393412
 40
3.393412
 40
3.393412
 40
3.393412
 10
40.359811
 20
95.913901
 30
0.0
 10
40.327882
 20
95.721705
 30
0.0
 10
40.264959
 20
95.342946
 30
0.0
 10
39.828431
 20
94.927922
 30
0.0
 10
39.259877
 20
94.774238
 30
0.0
 10
38.691323
 20
94.927922
 30
0.0
 10
38.254796
 20
95.342946
 30
0.0
 10
38.191873
 20
95.721705
 30
0.0
 10
38.159944
 20
95.913901
 30
0.0
 11
40.359811
 21
95.913901
 31
0.0
 11
40.205660
 21
95.363948
 31
0.0
 11
39.811489
 21
94.974079
 31
0.0
 11
39.259877
 21
94.825971
 31
0.0
 11
38.708266
 21
94.974079
 31
0.0
 11
38.314095
 21
95.363948
 31
0.0
 11
38.159944
 21
95.913901
 31
0.0
  0
LINE
  5
11f
100
AcDbEntity
  8
Bottom_15
 62
7
100
AcDbLine
 10
39.259618
 20
97.014092
 30
0.0
 11
39.259618
 21
97.014092
 31
0.0
  0
SPLINE
  5
120
100
AcDbEntity
  8
Bottom_15
 62
7
100
AcDbSpline
 70
0
 71
3
 72
10
 73
6
 74
4
 40
0.000000
 40
0.000000
 40
0.000000
 40
0.000000
 40
0.575101
 40
1.133146
 40
1.708247
 40
1.708247
 40
1.708247
 40
1.708247
 10
38.159944
 20
95.913901
 30
0.0
 10
38.190161
 20
96.106640
 30
0.0
 10
38.249700
 20
96.486401
 30
0.0
 10
38.687160
 20
96.924067
 30
0.0
 10
39.066894
 20
96.983784
 30
0.0
 10
39.259618
 20
97.014092
 30
0.0
 11
38.159944
 21
95.913901
 31
0.0
 11
38.310006
 21
96.469078
 31
0.0
 11
38.704511
 21
96.863769
 31
0.0
 11
39.259618
 21
97.014092
 31
0.0
  0
LINE
  5
121
100
AcDbEntity
  8
Bottom_15
 62
7
100
AcDbLine
 10
90.836831
 20
88.782037
 30
0.0
 11
90.836831
 21
88.782037
 31
0.0
  0
SPLINE
  5
122
100
AcDbEntity
  8
Bottom_15
 62
7
100
AcDbSpline
 70
0
 71
3
 72
25
 73
21
 74
19
 40
0.000000
 40
0.000000
 40
0.000000
 40
0.000000
 40
1.334465
 40
2.629357
 40
3.963823
 40
4.632022
 40
5.294692
 40
5.962892
 40
6.631091
 40
7.293761
 40
7.961961
 40
8.630160
 40
9.292829
 40
9.961028
 40
10.629227
 40
11.291897
 40
11.960096
 40
13.294560
 40
14.589452
 40
15.923916
 40
15.923916
 40
15.923916
 40
15.923916
 10
90.836831
 20
88.782037
 30
0.0
 10
91.286712
 20
88.711780
 30
0.0
 10
92.173134
 20
88.573351
 30
0.0
 10
93.149533
 20
87.558447
 30
0.0
 10
93.448967
 20
86.452007
 30
0.0
 10
93.330297
 20
85.561552
 30
0.0
 10
93.072703
 20
84.938802
 30
0.0
 10
92.662545
 20
84.403871
 30
0.0
 10
92.127682
 20
83.993656
 30
0.0
 10
91.505092
 20
83.735719
 30
0.0
 10
90.836831
 20
83.647402
 30
0.0
 10
90.168571
 20
83.735720
 30
0.0
 10
89.545980
 20
83.993657
 30
0.0
 10
89.011119
 20
84.403872
 30
0.0
 10
88.600961
 20
84.938803
 30
0.0
 10
88.343367
 20
85.561552
 30
0.0
 10
88.224698
 20
86.452006
 30
0.0
 10
88.524131
 20
87.558446
 30
0.0
 10
89.500529
 20
88.573350
 30
0.0
 10
90.386950
 20
88.711780
 30
0.0
 10
90.836831
 20
88.782037
 30
0.0
 11
90.836831
 21
88.782037
 31
0.0
 11
92.124980
 21
88.433514
 31
0.0
 11
93.040608
 21
87.517887
 31
0.0
 11
93.389131
 21
86.229738
 31
0.0
 11
93.301758
 21
85.567275
 31
0.0
 11
93.048234
 21
84.955020
 31
0.0
 11
92.641703
 21
84.424715
 31
0.0
 11
92.111480
 21
84.018077
 31
0.0
 11
91.499276
 21
83.764430
 31
0.0
 11
90.836831
 21
83.676923
 31
0.0
 11
90.174386
 21
83.764430
 31
0.0
 11
89.562183
 21
84.018078
 31
0.0
 11
89.031960
 21
84.424716
 31
0.0
 11
88.625430
 21
84.955021
 31
0.0
 11
88.371906
 21
85.567276
 31
0.0
 11
88.284533
 21
86.229738
 31
0.0
 11
88.633056
 21
87.517886
 31
0.0
 11
89.548682
 21
88.433513
 31
0.0
 11
90.836831
 21
88.782037
 31
0.0
  0
LINE
  5
123
100
AcDbEntity
  8
Bottom_15
 62
7
100
AcDbLine
 10
64.649799
 20
88.208945
 30
0.0
 11
64.649799
 21
88.208945
 31
0.0
  0
SPLINE
  5
124
100
AcDbEntity
  8
Bottom_15
 62
7
100
AcDbSpline
 70
0
 71
3
 72
28
 73
24
 74
22
 40
0.000000
 40
0.000000
 40
0.000000
 40
0.000000
 40
1.334465
 40
2.629357
 40
3.963823
 40
4.632023
 40
5.294692
 40
5.962892
 40
6.631092
 40
7.293762
 40
7.961962
 40
8.630247
 40
9.293001
 40
9.961286
 40
10.629571
 40
11.292325
 40
11.960610
 40
12.628809
 40
13.291479
 40
13.959678
 40
14.627877
 40
15.290546
 40
15.958745
 40
15.958745
 40
15.958745
 40
15.958745
 10
64.649799
 20
88.208945
 30
0.0
 10
65.099680
 20
88.138689
 30
0.0
 10
65.986102
 20
88.000260
 30
0.0
 10
66.962501
 20
86.985355
 30
0.0
 10
67.261935
 20
85.878915
 30
0.0
 10
67.143266
 20
84.988460
 30
0.0
 10
66.885672
 20
84.365710
 30
0.0
 10
66.475513
 20
83.830778
 30
0.0
 10
65.940651
 20
83.420566
 30
0.0
 10
65.318059
 20
83.162616
 30
0.0
 10
64.649774
 20
83.074345
 30
0.0
 10
63.981440
 20
83.162496
 30
0.0
 10
63.358733
 20
83.420388
 30
0.0
 10
62.823736
 20
83.830583
 30
0.0
 10
62.413542
 20
84.365579
 30
0.0
 10
62.155651
 20
84.988290
 30
0.0
 10
62.067500
 20
85.656610
 30
0.0
 10
62.155771
 20
86.324947
 30
0.0
 10
62.413724
 20
86.947343
 30
0.0
 10
62.823927
 20
87.482939
 30
0.0
 10
63.358888
 20
87.890358
 30
0.0
 10
63.981528
 20
88.158118
 30
0.0
 10
64.426426
 20
88.191956
 30
0.0
 10
64.649799
 20
88.208945
 30
0.0
 11
64.649799
 21
88.208945
 31
0.0
 11
65.937949
 21
87.860422
 31
0.0
 11
66.853576
 21
86.944796
 31
0.0
 11
67.202099
 21
85.656646
 31
0.0
 11
67.114726
 21
84.994183
 31
0.0
 11
66.861202
 21
84.381928
 31
0.0
 11
66.454672
 21
83.851622
 31
0.0
 11
65.924449
 21
83.444984
 31
0.0
 11
65.312244
 21
83.191337
 31
0.0
 11
64.649799
 21
83.103830
 31
0.0
 11
63.987253
 21
83.191226
 31
0.0
 11
63.374933
 21
83.444813
 31
0.0
 11
62.844594
 21
83.851441
 31
0.0
 11
62.437967
 21
84.381780
 31
0.0
 11
62.184381
 21
84.994100
 31
0.0
 11
62.096985
 21
85.656646
 31
0.0
 11
62.184492
 21
86.319091
 31
0.0
 11
62.438140
 21
86.931294
 31
0.0
 11
62.844777
 21
87.461517
 31
0.0
 11
63.375082
 21
87.868047
 31
0.0
 11
63.987337
 21
88.121572
 31
0.0
 11
64.649799
 21
88.208945
 31
0.0
  0
SPLINE
  5
125
100
AcDbEntity
  8
Bottom_15
 62
7
100
AcDbSpline
 70
0
 71
3
 72
10
 73
6
 74
4
 40
0.000000
 40
0.000000
 40
0.000000
 40
0.000000
 40
0.575101
 40
1.133146
 40
1.708247
 40
1.708247
 40
1.708247
 40
1.708247
 10
103.229874
 20
87.223992
 30
0.0
 10
103.422599
 20
87.193684
 30
0.0
 10
103.802332
 20
87.133967
 30
0.0
 10
104.239793
 20
86.696301
 30
0.0
 10
104.299331
 20
86.316540
 30
0.0
 10
104.329549
 20
86.123801
 30
0.0
 11
103.229874
 21
87.223992
 31
0.0
 11
103.784981
 21
87.073669
 31
0.0
 11
104.179486
 21
86.678978
 31
0.0
 11
104.329549
 21
86.123801
 31
0.0
  0
SPLINE
  5
126
100
AcDbEntity
  8
Bottom_15
 62
7
100
AcDbSpline
 70
0
 71
3
 72
13
 73
9
 74
7
 40
0.000000
 40
0.000000
 40
0.000000
 40
0.000000
 40
0.571149
 40
1.125558
 40
1.696706
 40
2.267855
 40
2.822264
 40
3.393412
 40
3.393412
 40
3.393412
 40
3.393412
 10
104.329549
 20
86.123801
 30
0.0
 10
104.297619
 20
85.931605
 30
0.0
 10
104.234696
 20
85.552846
 30
0.0
 10
103.798169
 20
85.137822
 30
0.0
 10
103.229615
 20
84.984138
 30
0.0
 10
102.661061
 20
85.137822
 30
0.0
 10
102.224534
 20
85.552846
 30
0.0
 10
102.161611
 20
85.931605
 30
0.0
 10
102.129681
 20
86.123801
 30
0.0
 11
104.329549
 21
86.123801
 31
0.0
 11
104.175398
 21
85.573848
 31
0.0
 11
103.781226
 21
85.183979
 31
0.0
 11
103.229615
 21
85.035871
 31
0.0
 11
102.678004
 21
85.183979
 31
0.0
 11
102.283833
 21
85.573848
 31
0.0
 11
102.129681
 21
86.123801
 31
0.0
  0
LINE
  5
127
100
AcDbEntity
  8
Bottom_15
 62
7
100
AcDbLine
 10
103.229874
 20
87.223992
 30
0.0
 11
103.229874
 21
87.223992
 31
0.0
  0
SPLINE
  5
128
100
AcDbEntity
  8
Bottom_15
 62
7
100
AcDbSpline
 70
0
 71
3
 72
13
 73
9
 74
7
 40
0.000000
 40
0.000000
 40
0.000000
 40
0.000000
 40
0.288016
 40
0.573648
 40
0.861665
 40
1.149681
 40
1.435313
 40
1.723329
 40
1.723329
 40
1.723329
 40
1.723329
 10
102.129681
 20
86.123801
 30
0.0
 10
102.137001
 20
86.220088
 30
0.0
 10
102.151579
 20
86.411866
 30
0.0
 10
102.267001
 20
86.680162
 30
0.0
 10
102.442630
 20
86.911045
 30
0.0
 10
102.673513
 20
87.086674
 30
0.0
 10
102.941809
 20
87.202095
 30
0.0
 10
103.133587
 20
87.216673
 30
0.0
 10
103.229874
 20
87.223992
 30
0.0
 11
102.129681
 21
86.123801
 31
0.0
 11
102.167335
 21
86.409346
 31
0.0
 11
102.276619
 21
86.673245
 31
0.0
 11
102.451864
 21
86.901810
 31
0.0
 11
102.680431
 21
87.077056
 31
0.0
 11
102.944330
 21
87.186339
 31
0.0
 11
103.229874
 21
87.223992
 31
0.0
  0
LINE
  5
129
100
AcDbEntity
  8
Bottom_15
 62
7
100
AcDbLine
 10
24.370088
 20
74.814413
 30
0.0
 11
24.370088
 21
74.814413
 31
0.0
  0
SPLINE
  5
12a
100
AcDbEntity
  8
Bottom_15
 62
7
100
AcDbSpline
 70
0
 71
3
 72
19
 73
15
 74
13
 40
0.000000
 40
0.000000
 40
0.000000
 40
0.000000
 40
3.921328
 40
7.726354
 40
11.647682
 40
15.569011
 40
19.374036
 40
23.295364
 40
27.216693
 40
31.021719
 40
34.943048
 40
38.864377
 40
42.669403
 40
46.590731
 40
46.590731
 40
46.590731
 40
46.590731
 10
24.370088
 20
74.814413
 30
0.0
 10
25.692174
 20
74.608273
 30
0.0
 10
28.297133
 20
74.202106
 30
0.0
 10
31.164973
 20
71.216322
 30
0.0
 10
32.227650
 20
67.321497
 30
0.0
 10
31.164973
 20
63.385778
 30
0.0
 10
28.297133
 20
60.520250
 30
0.0
 10
24.370088
 20
59.456786
 30
0.0
 10
20.443043
 20
60.520250
 30
0.0
 10
17.575203
 20
63.385777
 30
0.0
 10
16.512525
 20
67.321497
 30
0.0
 10
17.575203
 20
71.216323
 30
0.0
 10
20.443043
 20
74.202106
 30
0.0
 10
23.048003
 20
74.608273
 30
0.0
 10
24.370088
 20
74.814413
 30
0.0
 11
24.370088
 21
74.814413
 31
0.0
 11
28.155364
 21
73.790448
 31
0.0
 11
30.845923
 21
71.099889
 31
0.0
 11
31.869888
 21
67.314613
 31
0.0
 11
30.845923
 21
63.529337
 31
0.0
 11
28.155364
 21
60.838778
 31
0.0
 11
24.370088
 21
59.814813
 31
0.0
 11
20.584812
 21
60.838777
 31
0.0
 11
17.894252
 21
63.529337
 31
0.0
 11
16.870288
 21
67.314613
 31
0.0
 11
17.894252
 21
71.099889
 31
0.0
 11
20.584812
 21
73.790449
 31
0.0
 11
24.370088
 21
74.814413
 31
0.0
  0
LINE
  5
12b
100
AcDbEntity
  8
Bottom_15
 62
7
100
AcDbLine
 10
51.556025
 20
70.012641
 30
0.0
 11
51.556025
 21
70.012641
 31
0.0
  0
SPLINE
  5
12c
100
AcDbEntity
  8
Bottom_15
 62
7
100
AcDbSpline
 70
0
 71
3
 72
28
 73
24
 74
22
 40
0.000000
 40
0.000000
 40
0.000000
 40
0.000000
 40
0.668200
 40
1.330870
 40
1.999070
 40
2.667270
 40
3.329940
 40
3.998139
 40
4.666425
 40
5.329179
 40
5.997465
 40
6.665751
 40
7.328505
 40
7.996790
 40
8.664990
 40
9.327659
 40
9.995859
 40
10.664058
 40
11.326728
 40
11.994927
 40
13.329392
 40
14.624284
 40
15.958749
 40
15.958749
 40
15.958749
 40
15.958749
 10
51.556025
 20
70.012641
 30
0.0
 10
51.779399
 20
69.995652
 30
0.0
 10
52.224297
 20
69.961815
 30
0.0
 10
52.846938
 20
69.694055
 30
0.0
 10
53.381900
 20
69.286635
 30
0.0
 10
53.792103
 20
68.751039
 30
0.0
 10
54.050056
 20
68.128642
 30
0.0
 10
54.138326
 20
67.460304
 30
0.0
 10
54.050176
 20
66.791984
 30
0.0
 10
53.792284
 20
66.169273
 30
0.0
 10
53.382090
 20
65.634276
 30
0.0
 10
52.847092
 20
65.224081
 30
0.0
 10
52.224384
 20
64.966190
 30
0.0
 10
51.556051
 20
64.878039
 30
0.0
 10
50.887765
 20
64.966311
 30
0.0
 10
50.265174
 20
65.224261
 30
0.0
 10
49.730312
 20
65.634473
 30
0.0
 10
49.320155
 20
66.169405
 30
0.0
 10
49.062561
 20
66.792154
 30
0.0
 10
48.943892
 20
67.682609
 30
0.0
 10
49.243324
 20
68.789049
 30
0.0
 10
50.219722
 20
69.803954
 30
0.0
 10
51.106144
 20
69.942384
 30
0.0
 10
51.556025
 20
70.012641
 30
0.0
 11
51.556025
 21
70.012641
 31
0.0
 11
52.218488
 21
69.925268
 31
0.0
 11
52.830744
 21
69.671744
 31
0.0
 11
53.361049
 21
69.265213
 31
0.0
 11
53.767687
 21
68.734990
 31
0.0
 11
54.021335
 21
68.122786
 31
0.0
 11
54.108841
 21
67.460340
 31
0.0
 11
54.021446
 21
66.797794
 31
0.0
 11
53.767859
 21
66.185473
 31
0.0
 11
53.361232
 21
65.655134
 31
0.0
 11
52.830892
 21
65.248506
 31
0.0
 11
52.218572
 21
64.994919
 31
0.0
 11
51.556025
 21
64.907524
 31
0.0
 11
50.893580
 21
64.995031
 31
0.0
 11
50.281376
 21
65.248679
 31
0.0
 11
49.751154
 21
65.655317
 31
0.0
 11
49.344624
 21
66.185623
 31
0.0
 11
49.091100
 21
66.797878
 31
0.0
 11
49.003727
 21
67.460340
 31
0.0
 11
49.352250
 21
68.748490
 31
0.0
 11
50.267876
 21
69.664117
 31
0.0
 11
51.556025
 21
70.012641
 31
0.0
  0
LINE
  5
12d
100
AcDbEntity
  8
Bottom_15
 62
7
100
AcDbLine
 10
77.743057
 20
69.866914
 30
0.0
 11
77.743057
 21
69.866914
 31
0.0
  0
SPLINE
  5
12e
100
AcDbEntity
  8
Bottom_15
 62
7
100
AcDbSpline
 70
0
 71
3
 72
25
 73
21
 74
19
 40
0.000000
 40
0.000000
 40
0.000000
 40
0.000000
 40
0.668200
 40
1.330870
 40
1.999069
 40
2.667269
 40
3.329939
 40
3.998139
 40
4.666338
 40
5.329008
 40
5.997207
 40
6.665406
 40
7.328076
 40
7.996275
 40
9.330739
 40
10.625630
 40
11.960094
 40
13.294559
 40
14.589450
 40
15.923915
 40
15.923915
 40
15.923915
 40
15.923915
 10
77.743057
 20
69.866914
 30
0.0
 10
77.966431
 20
69.849925
 30
0.0
 10
78.411329
 20
69.816087
 30
0.0
 10
79.033970
 20
69.548327
 30
0.0
 10
79.568930
 20
69.140908
 30
0.0
 10
79.979138
 20
68.605311
 30
0.0
 10
80.237077
 20
67.982916
 30
0.0
 10
80.325394
 20
67.314602
 30
0.0
 10
80.237075
 20
66.646356
 30
0.0
 10
79.979142
 20
66.023762
 30
0.0
 10
79.568908
 20
65.488901
 30
0.0
 10
79.034048
 20
65.078742
 30
0.0
 10
78.411035
 20
64.821153
 30
0.0
 10
77.521901
 20
64.702459
 30
0.0
 10
76.405518
 20
65.002082
 30
0.0
 10
75.431046
 20
65.977711
 30
0.0
 10
75.068882
 20
67.316928
 30
0.0
 10
75.430754
 20
68.642394
 30
0.0
 10
76.406653
 20
69.658464
 30
0.0
 10
77.293142
 20
69.796737
 30
0.0
 10
77.743057
 20
69.866914
 30
0.0
 11
77.743057
 21
69.866914
 31
0.0
 11
78.405520
 21
69.779540
 31
0.0
 11
79.017775
 21
69.526016
 31
0.0
 11
79.548081
 21
69.119486
 31
0.0
 11
79.954718
 21
68.589263
 31
0.0
 11
80.208366
 21
67.977058
 31
0.0
 11
80.295873
 21
67.314613
 31
0.0
 11
80.208366
 21
66.652169
 31
0.0
 11
79.954718
 21
66.039965
 31
0.0
 11
79.548080
 21
65.509742
 31
0.0
 11
79.017775
 21
65.103212
 31
0.0
 11
78.405519
 21
64.849688
 31
0.0
 11
77.743057
 21
64.762315
 31
0.0
 11
76.454909
 21
65.110839
 31
0.0
 11
75.539283
 21
66.026465
 31
0.0
 11
75.190759
 21
67.314613
 31
0.0
 11
75.539282
 21
68.602762
 31
0.0
 11
76.454908
 21
69.518390
 31
0.0
 11
77.743057
 21
69.866914
 31
0.0
  0
LINE
  5
12f
100
AcDbEntity
  8
Bottom_15
 62
7
100
AcDbLine
 10
103.930605
 20
69.551170
 30
0.0
 11
103.930605
 21
69.551170
 31
0.0
  0
SPLINE
  5
130
100
AcDbEntity
  8
Bottom_15
 62
7
100
AcDbSpline
 70
0
 71
3
 72
28
 73
24
 74
22
 40
0.000000
 40
0.000000
 40
0.000000
 40
0.000000
 40
1.334466
 40
2.629359
 40
3.963825
 40
4.632025
 40
5.294695
 40
5.962895
 40
6.631095
 40
7.293765
 40
7.961965
 40
8.630251
 40
9.293004
 40
9.961290
 40
10.629575
 40
11.292329
 40
11.960614
 40
12.628814
 40
13.291483
 40
13.959683
 40
14.627882
 40
15.290552
 40
15.958752
 40
15.958752
 40
15.958752
 40
15.958752
 10
103.930605
 20
69.551170
 30
0.0
 10
104.380487
 20
69.480914
 30
0.0
 10
105.266909
 20
69.342486
 30
0.0
 10
106.243309
 20
68.327580
 30
0.0
 10
106.542740
 20
67.221139
 30
0.0
 10
106.424072
 20
66.330683
 30
0.0
 10
106.166478
 20
65.707934
 30
0.0
 10
105.756320
 20
65.173001
 30
0.0
 10
105.221457
 20
64.762790
 30
0.0
 10
104.598865
 20
64.504839
 30
0.0
 10
103.930580
 20
64.416569
 30
0.0
 10
103.262246
 20
64.504720
 30
0.0
 10
102.639538
 20
64.762612
 30
0.0
 10
102.104541
 20
65.172806
 30
0.0
 10
101.694348
 20
65.707803
 30
0.0
 10
101.436456
 20
66.330514
 30
0.0
 10
101.348306
 20
66.998834
 30
0.0
 10
101.436576
 20
67.667171
 30
0.0
 10
101.694528
 20
68.289568
 30
0.0
 10
102.104731
 20
68.825165
 30
0.0
 10
102.639693
 20
69.232584
 30
0.0
 10
103.262333
 20
69.500344
 30
0.0
 10
103.707231
 20
69.534182
 30
0.0
 10
103.930605
 20
69.551170
 30
0.0
 11
103.930605
 21
69.551170
 31
0.0
 11
105.218755
 21
69.202648
 31
0.0
 11
106.134383
 21
68.287021
 31
0.0
 11
106.482905
 21
66.998870
 31
0.0
 11
106.395533
 21
66.336407
 31
0.0
 11
106.142009
 21
65.724151
 31
0.0
 11
105.735478
 21
65.193845
 31
0.0
 11
105.205255
 21
64.787208
 31
0.0
 11
104.593050
 21
64.533560
 31
0.0
 11
103.930605
 21
64.446054
 31
0.0
 11
103.268059
 21
64.533449
 31
0.0
 11
102.655739
 21
64.787036
 31
0.0
 11
102.125399
 21
65.193664
 31
0.0
 11
101.718772
 21
65.724003
 31
0.0
 11
101.465186
 21
66.336324
 31
0.0
 11
101.377791
 21
66.998870
 31
0.0
 11
101.465297
 21
67.661315
 31
0.0
 11
101.718945
 21
68.273519
 31
0.0
 11
102.125582
 21
68.803743
 31
0.0
 11
102.655887
 21
69.210273
 31
0.0
 11
103.268142
 21
69.463797
 31
0.0
 11
103.930605
 21
69.551170
 31
0.0
  0
LINE
  5
131
100
AcDbEntity
  8
Bottom_15
 62
7
100
AcDbLine
 10
64.649799
 20
52.782167
 30
0.0
 11
64.649799
 21
52.782167
 31
0.0
  0
SPLINE
  5
132
100
AcDbEntity
  8
Bottom_15
 62
7
100
AcDbSpline
 70
0
 71
3
 72
25
 73
21
 74
19
 40
0.000000
 40
0.000000
 40
0.000000
 40
0.000000
 40
1.334465
 40
2.629357
 40
3.963822
 40
5.298288
 40
6.593180
 40
7.927646
 40
8.595846
 40
9.258515
 40
9.926715
 40
10.594914
 40
11.257584
 40
11.925783
 40
12.593982
 40
13.256651
 40
13.924850
 40
14.593049
 40
15.255719
 40
15.923918
 40
15.923918
 40
15.923918
 40
15.923918
 10
64.649799
 20
52.782167
 30
0.0
 10
65.099715
 20
52.711991
 30
0.0
 10
65.986204
 20
52.573720
 30
0.0
 10
66.962104
 20
51.557651
 30
0.0
 10
67.323977
 20
50.232184
 30
0.0
 10
66.961814
 20
48.892965
 30
0.0
 10
65.987340
 20
47.917334
 30
0.0
 10
64.870955
 20
47.617712
 30
0.0
 10
63.981821
 20
47.736407
 30
0.0
 10
63.358808
 20
47.993997
 30
0.0
 10
62.823948
 20
48.404156
 30
0.0
 10
62.413714
 20
48.939017
 30
0.0
 10
62.155783
 20
49.561612
 30
0.0
 10
62.067465
 20
50.229858
 30
0.0
 10
62.155782
 20
50.898171
 30
0.0
 10
62.413721
 20
51.520566
 30
0.0
 10
62.823928
 20
52.056162
 30
0.0
 10
63.358888
 20
52.463581
 30
0.0
 10
63.981528
 20
52.731341
 30
0.0
 10
64.426426
 20
52.765178
 30
0.0
 10
64.649799
 20
52.782167
 30
0.0
 11
64.649799
 21
52.782167
 31
0.0
 11
65.937948
 21
52.433645
 31
0.0
 11
66.853576
 21
51.518019
 31
0.0
 11
67.202099
 21
50.229870
 31
0.0
 11
66.853577
 21
48.941719
 31
0.0
 11
65.937949
 21
48.026092
 31
0.0
 11
64.649799
 21
47.677569
 31
0.0
 11
63.987337
 21
47.764943
 31
0.0
 11
63.375081
 21
48.018467
 31
0.0
 11
62.844776
 21
48.424997
 31
0.0
 11
62.438139
 21
48.955221
 31
0.0
 11
62.184492
 21
49.567425
 31
0.0
 11
62.096985
 21
50.229870
 31
0.0
 11
62.184492
 21
50.892314
 31
0.0
 11
62.438140
 21
51.504517
 31
0.0
 11
62.844777
 21
52.034740
 31
0.0
 11
63.375082
 21
52.441270
 31
0.0
 11
63.987337
 21
52.694794
 31
0.0
 11
64.649799
 21
52.782167
 31
0.0
  0
SPLINE
  5
133
100
AcDbEntity
  8
Bottom_15
 62
7
100
AcDbSpline
 70
0
 71
3
 72
10
 73
6
 74
4
 40
0.000000
 40
0.000000
 40
0.000000
 40
0.000000
 40
0.574930
 40
1.132818
 40
1.707747
 40
1.707747
 40
1.707747
 40
1.707747
 10
19.274792
 20
52.723774
 30
0.0
 10
19.467458
 20
52.693484
 30
0.0
 10
19.847080
 20
52.633803
 30
0.0
 10
20.284495
 20
52.196387
 30
0.0
 10
20.344177
 20
51.816765
 30
0.0
 10
20.374467
 20
51.624099
 30
0.0
 11
19.274792
 21
52.723774
 31
0.0
 11
19.829746
 21
52.573540
 31
0.0
 11
20.224232
 21
52.179053
 31
0.0
 11
20.374467
 21
51.624099
 31
0.0
  0
SPLINE
  5
134
100
AcDbEntity
  8
Bottom_15
 62
7
100
AcDbSpline
 70
0
 71
3
 72
13
 73
9
 74
7
 40
0.000000
 40
0.000000
 40
0.000000
 40
0.000000
 40
0.571121
 40
1.125504
 40
1.696625
 40
2.267746
 40
2.822129
 40
3.393250
 40
3.393250
 40
3.393250
 40
3.393250
 10
20.374467
 20
51.624099
 30
0.0
 10
20.342526
 20
51.431915
 30
0.0
 10
20.279580
 20
51.053180
 30
0.0
 10
19.843060
 20
50.638194
 30
0.0
 10
19.274534
 20
50.484526
 30
0.0
 10
18.706008
 20
50.638194
 30
0.0
 10
18.269488
 20
51.053180
 30
0.0
 10
18.206542
 20
51.431915
 30
0.0
 10
18.174601
 20
51.624099
 30
0.0
 11
20.374467
 21
51.624099
 31
0.0
 11
20.220288
 21
51.074183
 31
0.0
 11
19.826120
 21
50.684347
 31
0.0
 11
19.274534
 21
50.536254
 31
0.0
 11
18.722947
 21
50.684347
 31
0.0
 11
18.328780
 21
51.074183
 31
0.0
 11
18.174601
 21
51.624099
 31
0.0
  0
LINE
  5
135
100
AcDbEntity
  8
Bottom_15
 62
7
100
AcDbLine
 10
19.274792
 20
52.723774
 30
0.0
 11
19.274792
 21
52.723774
 31
0.0
  0
SPLINE
  5
136
100
AcDbEntity
  8
Bottom_15
 62
7
100
AcDbSpline
 70
0
 71
3
 72
10
 73
6
 74
4
 40
0.000000
 40
0.000000
 40
0.000000
 40
0.000000
 40
0.575101
 40
1.133146
 40
1.708247
 40
1.708247
 40
1.708247
 40
1.708247
 10
18.174601
 20
51.624099
 30
0.0
 10
18.204909
 20
51.816824
 30
0.0
 10
18.264626
 20
52.196557
 30
0.0
 10
18.702292
 20
52.634018
 30
0.0
 10
19.082054
 20
52.693556
 30
0.0
 10
19.274792
 20
52.723774
 30
0.0
 11
18.174601
 21
51.624099
 31
0.0
 11
18.324924
 21
52.179206
 31
0.0
 11
18.719615
 21
52.573711
 31
0.0
 11
19.274792
 21
52.723774
 31
0.0
  0
LINE
  5
137
100
AcDbEntity
  8
Bottom_15
 62
7
100
AcDbLine
 10
90.836831
 20
52.277805
 30
0.0
 11
90.836831
 21
52.277805
 31
0.0
  0
SPLINE
  5
138
100
AcDbEntity
  8
Bottom_15
 62
7
100
AcDbSpline
 70
0
 71
3
 72
28
 73
24
 74
22
 40
0.000000
 40
0.000000
 40
0.000000
 40
0.000000
 40
0.668199
 40
1.330869
 40
1.999068
 40
2.667268
 40
3.329937
 40
3.998137
 40
4.666422
 40
5.329176
 40
5.997462
 40
6.665748
 40
7.328502
 40
7.996787
 40
8.664987
 40
9.327656
 40
9.995856
 40
10.664055
 40
11.326725
 40
11.994924
 40
13.329388
 40
14.624279
 40
15.958743
 40
15.958743
 40
15.958743
 40
15.958743
 10
90.836831
 20
52.277805
 30
0.0
 10
91.060204
 20
52.260817
 30
0.0
 10
91.505103
 20
52.226979
 30
0.0
 10
92.127743
 20
51.959220
 30
0.0
 10
92.662704
 20
51.551801
 30
0.0
 10
93.072908
 20
51.016205
 30
0.0
 10
93.330861
 20
50.393809
 30
0.0
 10
93.419132
 20
49.725471
 30
0.0
 10
93.330981
 20
49.057152
 30
0.0
 10
93.073090
 20
48.434440
 30
0.0
 10
92.662895
 20
47.899443
 30
0.0
 10
92.127898
 20
47.489249
 30
0.0
 10
91.505190
 20
47.231357
 30
0.0
 10
90.836856
 20
47.143206
 30
0.0
 10
90.168571
 20
47.231478
 30
0.0
 10
89.545980
 20
47.489429
 30
0.0
 10
89.011118
 20
47.899640
 30
0.0
 10
88.600961
 20
48.434573
 30
0.0
 10
88.343367
 20
49.057321
 30
0.0
 10
88.224698
 20
49.947776
 30
0.0
 10
88.524132
 20
51.054215
 30
0.0
 10
89.500529
 20
52.069119
 30
0.0
 10
90.386950
 20
52.207549
 30
0.0
 10
90.836831
 20
52.277805
 30
0.0
 11
90.836831
 21
52.277805
 31
0.0
 11
91.499293
 21
52.190433
 31
0.0
 11
92.111549
 21
51.936909
 31
0.0
 11
92.641854
 21
51.530379
 31
0.0
 11
93.048492
 21
51.000156
 31
0.0
 11
93.302140
 21
50.387952
 31
0.0
 11
93.389647
 21
49.725508
 31
0.0
 11
93.302252
 21
49.062961
 31
0.0
 11
93.048665
 21
48.450641
 31
0.0
 11
92.642037
 21
47.920301
 31
0.0
 11
92.111698
 21
47.513674
 31
0.0
 11
91.499377
 21
47.260087
 31
0.0
 11
90.836831
 21
47.172691
 31
0.0
 11
90.174386
 21
47.260199
 31
0.0
 11
89.562182
 21
47.513847
 31
0.0
 11
89.031960
 21
47.920485
 31
0.0
 11
88.625430
 21
48.450790
 31
0.0
 11
88.371906
 21
49.063045
 31
0.0
 11
88.284533
 21
49.725508
 31
0.0
 11
88.633056
 21
51.013656
 31
0.0
 11
89.548683
 21
51.929282
 31
0.0
 11
90.836831
 21
52.277805
 31
0.0
  0
SPLINE
  5
139
100
AcDbEntity
  8
Bottom_15
 62
7
100
AcDbSpline
 70
0
 71
3
 72
13
 73
9
 74
7
 40
0.000000
 40
0.000000
 40
0.000000
 40
0.000000
 40
0.288016
 40
0.573648
 40
0.861664
 40
1.149681
 40
1.435312
 40
1.723329
 40
1.723329
 40
1.723329
 40
1.723329
 10
101.229479
 20
45.664257
 30
0.0
 10
101.325766
 20
45.656937
 30
0.0
 10
101.517544
 20
45.642359
 30
0.0
 10
101.785840
 20
45.526937
 30
0.0
 10
102.016722
 20
45.351308
 30
0.0
 10
102.192351
 20
45.120425
 30
0.0
 10
102.307772
 20
44.852129
 30
0.0
 10
102.322350
 20
44.660351
 30
0.0
 10
102.329669
 20
44.564064
 30
0.0
 11
101.229479
 21
45.664257
 31
0.0
 11
101.515023
 21
45.626603
 31
0.0
 11
101.778922
 21
45.517319
 31
0.0
 11
102.007488
 21
45.342073
 31
0.0
 11
102.182733
 21
45.113507
 31
0.0
 11
102.292016
 21
44.849608
 31
0.0
 11
102.329669
 21
44.564064
 31
0.0
  0
SPLINE
  5
13a
100
AcDbEntity
  8
Bottom_15
 62
7
100
AcDbSpline
 70
0
 71
3
 72
13
 73
9
 74
7
 40
0.000000
 40
0.000000
 40
0.000000
 40
0.000000
 40
0.571109
 40
1.125481
 40
1.696590
 40
2.267699
 40
2.822071
 40
3.393180
 40
3.393180
 40
3.393180
 40
3.393180
 10
102.329669
 20
44.564064
 30
0.0
 10
102.297723
 20
44.371885
 30
0.0
 10
102.234768
 20
43.993159
 30
0.0
 10
101.798251
 20
43.578190
 30
0.0
 10
101.229737
 20
43.424528
 30
0.0
 10
100.661222
 20
43.578190
 30
0.0
 10
100.224706
 20
43.993159
 30
0.0
 10
100.161750
 20
44.371885
 30
0.0
 10
100.129804
 20
44.564064
 30
0.0
 11
102.329669
 21
44.564064
 31
0.0
 11
102.175479
 21
44.014163
 31
0.0
 11
101.781313
 21
43.624341
 31
0.0
 11
101.229737
 21
43.476254
 31
0.0
 11
100.678161
 21
43.624341
 31
0.0
 11
100.283995
 21
44.014163
 31
0.0
 11
100.129804
 21
44.564064
 31
0.0
  0
LINE
  5
13b
100
AcDbEntity
  8
Bottom_15
 62
7
100
AcDbLine
 10
101.229479
 20
45.664257
 30
0.0
 11
101.229479
 21
45.664257
 31
0.0
  0
SPLINE
  5
13c
100
AcDbEntity
  8
Bottom_15
 62
7
100
AcDbSpline
 70
0
 71
3
 72
10
 73
6
 74
4
 40
0.000000
 40
0.000000
 40
0.000000
 40
0.000000
 40
0.575101
 40
1.133147
 40
1.708249
 40
1.708249
 40
1.708249
 40
1.708249
 10
100.129804
 20
44.564064
 30
0.0
 10
100.160022
 20
44.756802
 30
0.0
 10
100.219560
 20
45.136564
 30
0.0
 10
100.657021
 20
45.574231
 30
0.0
 10
101.036754
 20
45.633949
 30
0.0
 10
101.229479
 20
45.664257
 30
0.0
 11
100.129804
 21
44.564064
 31
0.0
 11
100.279866
 21
45.119242
 31
0.0
 11
100.674372
 21
45.513933
 31
0.0
 11
101.229479
 21
45.664257
 31
0.0
  0
LINE
  5
13d
100
AcDbEntity
  8
Bottom_15
 62
7
100
AcDbLine
 10
115.184699
 20
41.975076
 30
0.0
 11
115.184699
 21
41.975076
 31
0.0
  0
SPLINE
  5
13e
100
AcDbEntity
  8
Bottom_15
 62
7
100
AcDbSpline
 70
0
 71
3
 72
25
 73
21
 74
19
 40
0.000000
 40
0.000000
 40
0.000000
 40
0.000000
 40
3.921328
 40
7.726354
 40
11.647683
 40
13.611022
 40
15.558113
 40
17.521452
 40
19.484792
 40
21.431883
 40
23.395222
 40
25.358562
 40
27.305653
 40
29.268992
 40
31.232332
 40
33.179423
 40
35.142762
 40
39.064090
 40
42.869116
 40
46.790445
 40
46.790445
 40
46.790445
 40
46.790445
 10
115.184699
 20
41.975076
 30
0.0
 10
116.506693
 20
41.768698
 30
0.0
 10
119.111471
 20
41.362062
 30
0.0
 10
121.980646
 20
38.379735
 30
0.0
 10
122.860367
 20
35.128454
 30
0.0
 10
122.511501
 20
32.511985
 30
0.0
 10
121.754503
 20
30.682240
 30
0.0
 10
120.549251
 20
29.110555
 30
0.0
 10
118.977610
 20
27.905352
 30
0.0
 10
117.148228
 20
27.147565
 30
0.0
 10
115.184699
 20
26.888296
 30
0.0
 10
113.221170
 20
27.147565
 30
0.0
 10
111.391788
 20
27.905352
 30
0.0
 10
109.820147
 20
29.110555
 30
0.0
 10
108.614895
 20
30.682240
 30
0.0
 10
107.857897
 20
32.511985
 30
0.0
 10
107.509031
 20
35.128454
 30
0.0
 10
108.388752
 20
38.379735
 30
0.0
 10
111.257927
 20
41.362062
 30
0.0
 10
113.862705
 20
41.768698
 30
0.0
 10
115.184699
 20
41.975076
 30
0.0
 11
115.184699
 21
41.975076
 31
0.0
 11
118.969974
 21
40.951109
 31
0.0
 11
121.660533
 21
38.260549
 31
0.0
 11
122.684499
 21
34.475274
 31
0.0
 11
122.427646
 21
32.528808
 31
0.0
 11
121.682610
 21
30.729896
 31
0.0
 11
120.488017
 21
29.171805
 31
0.0
 11
118.930008
 21
27.977104
 31
0.0
 11
117.131147
 21
27.231944
 31
0.0
 11
115.184699
 21
26.974958
 31
0.0
 11
113.238251
 21
27.231944
 31
0.0
 11
111.439390
 21
27.977104
 31
0.0
 11
109.881381
 21
29.171805
 31
0.0
 11
108.686788
 21
30.729896
 31
0.0
 11
107.941752
 21
32.528808
 31
0.0
 11
107.684899
 21
34.475274
 31
0.0
 11
108.708865
 21
38.260549
 31
0.0
 11
111.399424
 21
40.951109
 31
0.0
 11
115.184699
 21
41.975076
 31
0.0
  0
LINE
  5
13f
100
AcDbEntity
  8
Bottom_15
 62
7
100
AcDbLine
 10
145.839676
 20
26.463878
 30
0.0
 11
145.839676
 21
26.463878
 31
0.0
  0
SPLINE
  5
140
100
AcDbEntity
  8
Bottom_15
 62
7
100
AcDbSpline
 70
0
 71
3
 72
19
 73
15
 74
13
 40
0.000000
 40
0.000000
 40
0.000000
 40
0.000000
 40
0.575100
 40
1.133146
 40
1.708246
 40
2.283490
 40
2.841673
 40
3.416918
 40
3.992163
 40
4.550345
 40
5.125590
 40
5.700690
 40
6.258736
 40
6.833836
 40
6.833836
 40
6.833836
 40
6.833836
 10
145.839676
 20
26.463878
 30
0.0
 10
146.033578
 20
26.433683
 30
0.0
 10
146.415633
 20
26.374189
 30
0.0
 10
146.836316
 20
25.936399
 30
0.0
 10
146.992387
 20
25.365173
 30
0.0
 10
146.836449
 20
24.787855
 30
0.0
 10
146.415763
 20
24.367494
 30
0.0
 10
145.839676
 20
24.211495
 30
0.0
 10
145.263588
 20
24.367494
 30
0.0
 10
144.842902
 20
24.787855
 30
0.0
 10
144.686964
 20
25.365173
 30
0.0
 10
144.843035
 20
25.936399
 30
0.0
 10
145.263718
 20
26.374189
 30
0.0
 10
145.645773
 20
26.433683
 30
0.0
 10
145.839676
 20
26.463878
 30
0.0
 11
145.839676
 21
26.463878
 31
0.0
 11
146.394853
 21
26.313816
 31
0.0
 11
146.789543
 21
25.919310
 31
0.0
 11
146.939866
 21
25.364204
 31
0.0
 11
146.789658
 21
24.808917
 31
0.0
 11
146.394963
 21
24.414222
 31
0.0
 11
145.839676
 21
24.264014
 31
0.0
 11
145.284388
 21
24.414222
 31
0.0
 11
144.889693
 21
24.808917
 31
0.0
 11
144.739485
 21
25.364204
 31
0.0
 11
144.889808
 21
25.919310
 31
0.0
 11
145.284499
 21
26.313816
 31
0.0
 11
145.839676
 21
26.463878
 31
0.0
  0
ENDSEC
  0
SECTION
  2
OBJECTS
  0
DICTIONARY
  5
C
330
0
100
AcDbDictionary
  3
ACAD_GROUP
350
D
  3
ACAD_MLINESTYLE
350
17
  0
DICTIONARY
  5
D
330
C
100
AcDbDictionary
  0
DICTIONARY
  5
1A
330
C
100
AcDbDictionary
  0
DICTIONARY
  5
17
330
C
100
AcDbDictionary
  3
STANDARD
350
18
  0
DICTIONARY
  5
19
330
C
100
AcDbDictionary
  0
ENDSEC
  0
EOF
