0
SECTION
2
HEADER
9
$INSUNITS
70
4
0
ENDSEC
0
SECTION
2
TABLES
0
TABLE
2
LTYPE
0
LTYPE
72
65
70
64
2
CONTINUOUS
3
______
73
0
40
0
0
ENDTAB
0
TABLE
2
LAYER
0
ENDTAB
0
ENDSEC
0
SECTION
2
ENTITIES
0
LINE
8
0
10
-18.8793456
20
45.4805594
11
-9.7572269
21
46.7625896
0
LINE
8
0
10
-18.9557534
20
38.8389321
11
-19.7304406
21
44.3511182
0
LINE
8
0
10
24.8952585
20
63.1536076
11
44.8952585
21
63.1536076
0
LINE
8
0
10
45.8952585
20
62.1536076
11
45.8952585
21
61.6355547
0
LINE
8
0
10
23.8952585
20
60.0716187
11
23.8952585
21
62.1536076
0
LINE
8
0
10
46.825502
20
60.6379906
11
65.44482
21
59.3360011
0
LINE
8
0
10
66.3726275
20
58.2686805
11
66.323798
21
57.5703858
0
LINE
8
0
10
83.6940895
20
19.2653863
11
83.4150635
21
15.2751302
0
LINE
8
0
10
82.9485019
20
8.6029886
11
83.4150635
21
15.2751302
0
LINE
8
0
10
84.6706801
20
33.231283
11
85.4031231
21
43.7057056
0
LINE
8
0
10
84.6706801
20
33.231283
11
84.1475065
21
25.7495528
0
LINE
8
0
10
84.1475065
20
25.7495528
11
83.6940895
21
19.2653863
0
LINE
8
0
10
67.2516055
20
56.5030652
11
85.2077586
21
55.2474486
0
LINE
8
0
10
86.1355661
20
54.180128
11
85.4031231
21
43.7057056
0
ARC
8
0
10
85.1380021
20
54.2498845
40
1
50
355.9999983
51
85.9999987
0
ARC
8
0
10
67.321362
20
57.5006293
40
1
50
175.9999983
51
265.9999987
0
ARC
8
0
10
65.3750635
20
58.338437
40
1
50
355.9999983
51
85.9999987
0
ARC
8
0
10
46.8952585
20
61.6355547
40
1
50
180
51
265.9999987
0
ARC
8
0
10
44.8952585
20
62.1536076
40
1
50
0
51
90
0
ARC
8
0
10
24.8952585
20
62.1536076
40
1
50
90
51
180
0
ARC
8
0
10
-18.7401725
20
44.4902913
40
1
50
97.9999997
51
187.9999997
0
LINE
8
0
10
108.7182198
20
-7.5710858
11
115.8128129
21
-36.7934697
0
LINE
8
0
10
113.9185408
20
-42.7372833
11
107.1186736
21
-48.6483176
0
LINE
8
0
10
100.1152062
20
-49.2768821
11
64.5584154
21
-28.1288356
0
LINE
8
0
10
62.7116401
20
-27.4110705
11
-8.482244
21
-12.6218411
0
LINE
8
0
10
-10.7813046
20
-11.6066605
11
-29.0781527
21
1.6447321
0
LINE
8
0
10
-31.2095116
20
4.4869783
11
-35.9953308
21
17.8936999
0
LINE
8
0
10
-34.3604293
20
24.3687629
11
-19.2767121
21
37.9567752
0
LINE
8
0
10
-9.2270906
20
47.0098739
11
1.783039
21
56.9282364
0
LINE
8
0
10
5.5894983
20
58.4666787
11
22.930158
21
59.0722279
0
LINE
8
0
10
83.4916791
20
7.6424277
11
87.3064258
21
5.6965788
0
LINE
8
0
10
105.1330992
20
-3.3965578
11
105.6139151
21
-3.6418153
0
ARC
8
0
10
109.9821867
20
-38.2090257
40
6
50
310.9999996
51
13.6462139
0
ARC
8
0
10
103.1823196
20
-44.12006
40
6
50
239.2571672
51
310.999998
0
ARC
8
0
10
61.4913019
20
-33.2856577
40
6
50
59.2571672
51
78.2647501
0
ARC
8
0
10
-7.2619058
20
-6.7472539
40
6
50
234.0862696
51
258.2647501
0
ARC
8
0
10
-25.5587537
20
6.5041387
40
6
50
199.6451237
51
234.0862677
0
ARC
8
0
10
-30.3445729
20
19.9108602
40
6
50
132.0137863
51
199.645123
0
ARC
8
0
10
5.7988953
20
52.4703337
40
6
50
92.0000002
51
132.0137863
0
ARC
8
0
10
102.8875936
20
-8.9866419
40
6
50
13.6462139
51
62.9745058
0
ARC
8
0
10
-9.8964
20
47.7528577
40
1
50
277.9999997
51
312.0137863
0
ARC
8
0
10
22.8952585
20
60.0716187
40
1
50
272.0000002
51
0
0
ARC
8
0
10
83.946066
20
8.5332321
40
1
50
175.9999987
51
242.9745058
0
ARC
8
0
10
87.7608127
20
6.5873832
40
1
50
242.9745058
51
252.5369605
0
ARC
8
0
10
105.5874861
20
-2.5057534
40
1
50
229.4630426
51
242.9745058
0
ARC
8
0
10
113.2624818
20
-41.9825736
40
1
50
310.999998
51
310.9999996
0
ARC
8
0
10
62.5082504
20
-28.3901684
40
1
50
78.2647501
51
78.2647506
0
ARC
8
0
10
-8.2788543
20
-11.6427432
40
1
50
258.2647501
51
258.2647506
0
ARC
8
0
10
-10.1947381
20
-10.7967594
40
1
50
234.0862677
51
234.0862696
0
ARC
8
0
10
-35.0535378
20
18.2298933
40
1
50
199.645123
51
199.6451237
0
ARC
8
0
10
-19.9460215
20
38.699759
40
1
50
312.0137863
51
7.9999997
0
LINE
8
0
10
81.5596806
20
-9.137619
11
95.2037481
21
-16.7006492
0
LINE
8
0
10
97.9226067
20
-15.921029
11
104.9375477
21
-3.2657403
0
LINE
8
0
10
87.4607222
20
5.6334725
11
80.7800604
21
-6.4187604
0
ARC
8
0
10
96.1733673
20
-14.9514098
40
2
50
241.0000008
51
331.0000008
0
ARC
8
0
10
82.5292998
20
-7.3883796
40
2
50
151.0000008
51
241.0000008
0
LINE
8
0
10
-9.1051159
20
-9.6961062
11
6.7391732
21
-7.4693366
0
ARC
8
0
10
6.6000001
20
-6.4790685
40
1
50
278
51
8
0
LINE
8
0
10
7.5902682
20
-6.3398954
11
5.5026717
21
8.5141256
0
ARC
8
0
10
4.5124036
20
8.3749525
40
1
50
8
51
98
0
LINE
8
0
10
4.3732305
20
9.3652206
11
-11.4710586
21
7.138451
0
ARC
8
0
10
-11.3318855
20
6.1481829
40
1
50
98
51
188
0
LINE
8
0
10
-12.3221536
20
6.0090098
11
-10.2345571
21
-8.8450112
0
ARC
8
0
10
-9.244289
20
-8.7058381
40
1
50
188
51
278
0
LINE
8
0
10
-11.6102317
20
8.128719
11
4.2340574
21
10.3554886
0
ARC
8
0
10
4.0948843
20
11.3457567
40
1
50
278
51
8
0
LINE
8
0
10
5.0851524
20
11.4849298
11
2.9975559
21
26.3389508
0
ARC
8
0
10
2.0072878
20
26.1997777
40
1
50
8
51
98
0
LINE
8
0
10
1.8681147
20
27.1900458
11
-13.9761744
21
24.9632762
0
ARC
8
0
10
-13.8370013
20
23.9730081
40
1
50
98
51
188
0
LINE
8
0
10
-14.8272694
20
23.833835
11
-12.7396729
21
8.979814
0
ARC
8
0
10
-11.7494048
20
9.1189871
40
1
50
188
51
278
0
LINE
8
0
10
-30.4253251
20
5.48443
11
-14.581036
21
7.7111996
0
ARC
8
0
10
-14.7202091
20
8.7014677
40
1
50
278
51
8
0
LINE
8
0
10
-13.729941
20
8.8406408
11
-15.8175375
21
23.6946618
0
ARC
8
0
10
-16.8078056
20
23.5554887
40
1
50
8
51
98
0
LINE
8
0
10
-16.9469787
20
24.5457568
11
-32.7912678
21
22.3189872
0
ARC
8
0
10
-32.6520947
20
21.3287191
40
1
50
98
51
188
0
LINE
8
0
10
-33.6423628
20
21.189546
11
-31.5547663
21
6.335525
0
ARC
8
0
10
-30.5644982
20
6.4746981
40
1
50
188
51
278
0
LINE
8
0
10
8.1134873
20
3.8214762
11
24.1037405
21
4.3798681
0
ARC
8
0
10
24.068841
20
5.379259
40
1
50
272
51
2
0
LINE
8
0
10
25.0682319
20
5.4141585
11
24.5447394
21
20.4050209
0
ARC
8
0
10
23.5453486
20
20.3701214
40
1
50
2
51
92
0
LINE
8
0
10
23.5104491
20
21.3695122
11
7.5201959
21
20.8111203
0
ARC
8
0
10
7.5550954
20
19.8117294
40
1
50
92
51
182
0
LINE
8
0
10
6.5557045
20
19.7768299
11
7.079197
21
4.7859675
0
ARC
8
0
10
8.0785878
20
4.820867
40
1
50
182
51
272
0
LINE
8
0
10
7.4852963
20
21.810511
11
23.4755495
21
22.3689029
0
ARC
8
0
10
23.44065
20
23.3682938
40
1
50
272
51
2
0
LINE
8
0
10
24.4400409
20
23.4031933
11
23.9165484
21
38.3940557
0
ARC
8
0
10
22.9171576
20
38.3591562
40
1
50
2
51
92
0
LINE
8
0
10
22.8822581
20
39.358547
11
6.8920049
21
38.8001551
0
ARC
8
0
10
6.9269044
20
37.8007642
40
1
50
92
51
182
0
LINE
8
0
10
5.9275135
20
37.7658647
11
6.451006
21
22.7750023
0
ARC
8
0
10
7.4503968
20
22.8099018
40
1
50
182
51
272
0
LINE
8
0
10
6.8571054
20
39.799546
11
22.8473586
21
40.3579379
0
ARC
8
0
10
22.8124591
20
41.3573288
40
1
50
272
51
2
0
LINE
8
0
10
23.81185
20
41.3922283
11
23.2883575
21
56.3830907
0
ARC
8
0
10
22.2889667
20
56.3481912
40
1
50
2
51
92
0
LINE
8
0
10
22.2540672
20
57.347582
11
6.263814
21
56.7891901
0
ARC
8
0
10
6.2987135
20
55.7897992
40
1
50
92
51
182
0
LINE
8
0
10
5.2993226
20
55.7548997
11
5.8228151
21
40.7640373
0
ARC
8
0
10
6.8222059
20
40.7989368
40
1
50
182
51
272
0
LINE
8
0
10
26.8952585
20
8.1536076
11
42.8952585
21
8.1536076
0
ARC
8
0
10
42.8952585
20
9.1536076
40
1
50
270
51
360
0
LINE
8
0
10
43.8952585
20
9.1536076
11
43.8952585
21
24.1536076
0
ARC
8
0
10
42.8952585
20
24.1536076
40
1
50
0
51
90
0
LINE
8
0
10
42.8952585
20
25.1536076
11
26.8952585
21
25.1536076
0
ARC
8
0
10
26.8952585
20
24.1536076
40
1
50
90
51
180
0
LINE
8
0
10
25.8952585
20
24.1536076
11
25.8952585
21
9.1536076
0
ARC
8
0
10
26.8952585
20
9.1536076
40
1
50
180
51
270
0
LINE
8
0
10
26.8952586
20
26.1536076
11
42.8952586
21
26.1536076
0
ARC
8
0
10
42.8952586
20
27.1536076
40
1
50
270
51
360
0
LINE
8
0
10
43.8952586
20
27.1536076
11
43.8952586
21
42.1536076
0
ARC
8
0
10
42.8952586
20
42.1536076
40
1
50
0
51
90
0
LINE
8
0
10
42.8952586
20
43.1536076
11
26.8952586
21
43.1536076
0
ARC
8
0
10
26.8952586
20
42.1536076
40
1
50
90
51
180
0
LINE
8
0
10
25.8952586
20
42.1536076
11
25.8952586
21
27.1536076
0
ARC
8
0
10
26.8952586
20
27.1536076
40
1
50
180
51
270
0
LINE
8
0
10
26.8952585
20
44.1536076
11
42.8952585
21
44.1536076
0
ARC
8
0
10
42.8952585
20
45.1536076
40
1
50
270
51
360
0
LINE
8
0
10
43.8952585
20
45.1536076
11
43.8952585
21
60.1536076
0
ARC
8
0
10
42.8952585
20
60.1536076
40
1
50
0
51
90
0
LINE
8
0
10
42.8952585
20
61.1536076
11
26.8952585
21
61.1536076
0
ARC
8
0
10
26.8952585
20
60.1536076
40
1
50
90
51
180
0
LINE
8
0
10
25.8952585
20
60.1536076
11
25.8952585
21
45.1536076
0
ARC
8
0
10
26.8952585
20
45.1536076
40
1
50
180
51
270
0
LINE
8
0
10
45.5076761
20
3.5909538
11
61.4687009
21
2.4748502
0
ARC
8
0
10
61.5384573
20
3.4724142
40
1
50
266
51
356
0
LINE
8
0
10
62.5360214
20
3.4026578
11
63.5823685
21
18.3661185
0
ARC
8
0
10
62.5848045
20
18.435875
40
1
50
356
51
86
0
LINE
8
0
10
62.6545609
20
19.433439
11
46.6935361
21
20.5495426
0
ARC
8
0
10
46.6237797
20
19.5519786
40
1
50
86
51
176
0
LINE
8
0
10
45.6262156
20
19.621735
11
44.5798685
21
4.6582743
0
ARC
8
0
10
45.5774325
20
4.5885178
40
1
50
176
51
266
0
LINE
8
0
10
46.7632927
20
21.5471068
11
62.7243175
21
20.4310032
0
ARC
8
0
10
62.7940739
20
21.4285672
40
1
50
266
51
356
0
LINE
8
0
10
63.791638
20
21.3588108
11
64.8379851
21
36.3222715
0
ARC
8
0
10
63.8404211
20
36.392028
40
1
50
356
51
86
0
LINE
8
0
10
63.9101775
20
37.389592
11
47.9491527
21
38.5056956
0
ARC
8
0
10
47.8793963
20
37.5081316
40
1
50
86
51
176
0
LINE
8
0
10
46.8818322
20
37.577888
11
45.8354851
21
22.6144273
0
ARC
8
0
10
46.8330491
20
22.5446708
40
1
50
176
51
266
0
LINE
8
0
10
48.0189092
20
39.5032596
11
63.979934
21
38.387156
0
ARC
8
0
10
64.0496904
20
39.38472
40
1
50
266
51
356
0
LINE
8
0
10
65.0472545
20
39.3149636
11
66.0936016
21
54.2784243
0
ARC
8
0
10
65.0960376
20
54.3481808
40
1
50
356
51
86
0
LINE
8
0
10
65.165794
20
55.3457448
11
49.2047692
21
56.4618484
0
ARC
8
0
10
49.1350128
20
55.4642844
40
1
50
86
51
176
0
LINE
8
0
10
48.1374487
20
55.5340408
11
47.0911016
21
40.5705801
0
ARC
8
0
10
48.0886656
20
40.5008236
40
1
50
176
51
266
0
LINE
8
0
10
64.3428071
20
0.5697219
11
80.3038319
21
-0.5463817
0
ARC
8
0
10
80.3735883
20
0.4511823
40
1
50
266
51
356
0
LINE
8
0
10
81.3711524
20
0.3814259
11
82.4174995
21
15.3448866
0
ARC
8
0
10
81.4199355
20
15.4146431
40
1
50
356
51
86
0
LINE
8
0
10
81.4896919
20
16.4122071
11
65.5286671
21
17.5283107
0
ARC
8
0
10
65.4589107
20
16.5307467
40
1
50
86
51
176
0
LINE
8
0
10
64.4613466
20
16.6005031
11
63.4149995
21
1.6370424
0
ARC
8
0
10
64.4125635
20
1.5672859
40
1
50
176
51
266
0
LINE
8
0
10
65.5984236
20
18.5258749
11
81.5594484
21
17.4097713
0
ARC
8
0
10
81.6292048
20
18.4073353
40
1
50
266
51
356
0
LINE
8
0
10
82.6267689
20
18.3375789
11
83.673116
21
33.3010396
0
ARC
8
0
10
82.675552
20
33.3707961
40
1
50
356
51
86
0
LINE
8
0
10
82.7453084
20
34.3683601
11
66.7842836
21
35.4844637
0
ARC
8
0
10
66.7145272
20
34.4868997
40
1
50
86
51
176
0
LINE
8
0
10
65.7169631
20
34.5566561
11
64.670616
21
19.5931954
0
ARC
8
0
10
65.66818
20
19.5234389
40
1
50
176
51
266
0
LINE
8
0
10
66.8540402
20
36.4820277
11
82.815065
21
35.3659241
0
ARC
8
0
10
82.8848214
20
36.3634881
40
1
50
266
51
356
0
LINE
8
0
10
83.8823855
20
36.2937317
11
84.9287326
21
51.2571924
0
ARC
8
0
10
83.9311686
20
51.3269489
40
1
50
356
51
86
0
LINE
8
0
10
84.000925
20
52.3245129
11
68.0399002
21
53.4406165
0
ARC
8
0
10
67.9701438
20
52.4430525
40
1
50
86
51
176
0
LINE
8
0
10
66.9725797
20
52.5128089
11
65.9262326
21
37.5493482
0
ARC
8
0
10
66.9237966
20
37.4795917
40
1
50
176
51
266
0
LINE
8
0
10
55.2048212
20
-23.6888527
11
71.0078347
21
-26.1918041
0
ARC
8
0
10
71.1642691
20
-25.2041158
40
1
50
261
51
351
0
LINE
8
0
10
72.1519575
20
-25.3605502
11
74.4984745
21
-10.5452251
0
ARC
8
0
10
73.5107861
20
-10.3887907
40
1
50
351
51
81
0
LINE
8
0
10
73.6672206
20
-9.4011023
11
57.8642071
21
-6.8981509
0
ARC
8
0
10
57.7077727
20
-7.8858392
40
1
50
81
51
171
0
LINE
8
0
10
56.7200843
20
-7.7294048
11
54.3735673
21
-22.5447299
0
ARC
8
0
10
55.3612557
20
-22.7011643
40
1
50
171
51
261
0
LINE
8
0
10
74.4160688
20
-27.1816993
11
88.4099841
21
-34.9386533
0
ARC
8
0
10
88.8947937
20
-34.0640336
40
1
50
241
51
331
0
LINE
8
0
10
89.7694134
20
-34.5488432
11
97.0415577
21
-21.4295476
0
ARC
8
0
10
96.166938
20
-20.944738
40
1
50
331
51
61
0
LINE
8
0
10
96.6517476
20
-20.0701183
11
82.6578323
21
-12.3131643
0
ARC
8
0
10
82.1730227
20
-13.187784
40
1
50
61
51
151
0
LINE
8
0
10
81.298403
20
-12.7029744
11
74.0262587
21
-25.82227
0
ARC
8
0
10
74.9008784
20
-26.3070796
40
1
50
151
51
241
0
LINE
8
0
10
91.2741126
20
-37.0345354
11
101.7710571
21
-49.1098887
0
ARC
8
0
10
102.5257667
20
-48.4538297
40
1
50
221
51
311
0
LINE
8
0
10
103.1818257
20
-49.2085392
11
114.5024694
21
-39.3676538
0
ARC
8
0
10
113.8464104
20
-38.6129442
40
1
50
311
51
41
0
LINE
8
0
10
114.60112
20
-37.9568852
11
104.1041755
21
-25.8815319
0
ARC
8
0
10
103.3494659
20
-26.5375909
40
1
50
41
51
131
0
LINE
8
0
10
102.6934069
20
-25.7828814
11
91.3727632
21
-35.6237668
0
ARC
8
0
10
92.0288222
20
-36.3784764
40
1
50
131
51
221
0
LINE
8
0
10
82.6452617
20
-6.7666458
11
96.639177
21
-14.5235998
0
ARC
8
0
10
97.1239866
20
-13.6489801
40
1
50
241
51
331
0
LINE
8
0
10
97.9986063
20
-14.1337897
11
105.2707506
21
-1.0144941
0
ARC
8
0
10
104.3961309
20
-0.5296845
40
1
50
331
51
61
0
LINE
8
0
10
104.8809405
20
0.3449352
11
90.8870252
21
8.1018892
0
ARC
8
0
10
90.4022156
20
7.2272695
40
1
50
61
51
151
0
LINE
8
0
10
89.5275959
20
7.7120791
11
82.2554516
21
-5.4072165
0
ARC
8
0
10
83.1300713
20
-5.8920261
40
1
50
151
51
241
0
ENDSEC
0
EOF