0
SECTION
2
HEADER
9
$INSUNITS
70
4
0
ENDSEC
0
SECTION
2
TABLES
0
TABLE
2
LTYPE
0
LTYPE
72
65
70
64
2
CONTINUOUS
3
______
73
0
40
0
0
ENDTAB
0
TABLE
2
LAYER
0
ENDTAB
0
ENDSEC
0
SECTION
2
ENTITIES
0
LINE
8
0
10
104.202592
20
18.366435
11
106.6948911
21
54.0079732
0
ARC
8
0
10
104.699763
20
54.1474862
40
2
50
356
51
86
0
LINE
8
0
10
104.839276
20
56.1426143
11
86.930506
21
57.3949175
0
ARC
8
0
10
84.9308977
20
57.4344996
40
2
50
358.8659823
51
86
0
LINE
8
0
10
85.0704106
20
59.4296277
11
65.8698748
21
60.77226
0
LINE
8
0
10
65.8698748
20
60.77226
11
65.8698748
21
63.8147918
0
ARC
8
0
10
63.8698748
20
63.8147918
40
2
50
0
51
90
0
LINE
8
0
10
63.8698748
20
65.8147918
11
46.0198748
21
65.8147918
0
ARC
8
0
10
46.0198748
20
63.8147918
40
2
50
90
51
180
0
LINE
8
0
10
44.0198748
20
63.8147918
11
44.0198748
21
62.350758
0
LINE
8
0
10
126.987301
20
4.5494544
11
137.4784822
21
-31.4773939
0
LINE
8
0
10
135.9604077
20
-37.3975806
11
128.3524367
21
-45.0055516
0
LINE
8
0
10
121.0173649
20
-45.9045904
11
85.0703011
21
-24.2844513
0
LINE
8
0
10
82.9753728
20
-23.5096295
11
9.7142438
21
-11.1580406
0
LINE
8
0
10
7.1008567
20
-10.0333524
11
-11.6534647
21
4.0990425
0
LINE
8
0
10
-13.7660615
20
7.0903841
11
-17.2393341
21
18.1315093
0
LINE
8
0
10
-15.5495549
20
24.3737376
11
23.25738
21
59.6156102
0
LINE
8
0
10
26.8751676
20
61.1594203
11
44.0198748
21
62.350758
0
LINE
8
0
10
104.202592
20
18.366435
11
123.9690419
21
8.2084742
0
ARC
8
0
10
131.717767
20
-33.1549399
40
6
50
315
51
16.2357958
0
ARC
8
0
10
124.109796
20
-40.7629109
40
6
50
238.975457
51
315
0
ARC
8
0
10
81.9778699
20
-29.4261309
40
6
50
58.975457
51
80.4301142
0
ARC
8
0
10
10.7117468
20
-5.2415392
40
6
50
233.0000007
51
260.4301142
0
ARC
8
0
10
-8.0425746
20
8.8908556
40
6
50
197.4623237
51
233.0000007
0
ARC
8
0
10
-11.5158473
20
19.9319808
40
6
50
132.2436368
51
197.4623237
0
ARC
8
0
10
27.2910876
20
55.1738534
40
6
50
93.9749311
51
132.2436368
0
ARC
8
0
10
121.2265858
20
2.8719084
40
6
50
16.2357958
51
62.8014114
0
LINE
8
0
10
10.3980463
20
-8.0909949
11
24.2617993
21
-6.1425715
0
LINE
8
0
10
24.2617993
20
-6.1425715
11
22.3133759
21
7.7211815
0
LINE
8
0
10
22.3133759
20
7.7211815
11
8.4496229
21
5.7727581
0
LINE
8
0
10
8.4496229
20
5.7727581
11
10.3980463
21
-8.0909949
0
LINE
8
0
10
7.7537574
20
10.7240984
11
21.6175104
21
12.6725218
0
LINE
8
0
10
21.6175104
20
12.6725218
11
19.669087
21
26.5362748
0
LINE
8
0
10
19.669087
20
26.5362748
11
5.805334
21
24.5878514
0
LINE
8
0
10
5.805334
20
24.5878514
11
7.7537574
21
10.7240984
0
LINE
8
0
10
-11.061336
20
8.0798095
11
2.802417
21
10.0282329
0
LINE
8
0
10
2.802417
20
10.0282329
11
0.8539936
21
23.8919859
0
LINE
8
0
10
0.8539936
20
23.8919859
11
-13.0097594
21
21.9435625
0
LINE
8
0
10
-13.0097594
20
21.9435625
11
-11.061336
21
8.0798095
0
LINE
8
0
10
28.2495374
20
6.6024096
11
42.241009
21
7.0910026
0
LINE
8
0
10
42.241009
20
7.0910026
11
41.752416
21
21.0824742
0
LINE
8
0
10
41.752416
20
21.0824742
11
27.7609444
21
20.5938812
0
LINE
8
0
10
27.7609444
20
20.5938812
11
28.2495374
21
6.6024096
0
LINE
8
0
10
27.586447
20
25.5908353
11
41.5779186
21
26.0794283
0
LINE
8
0
10
41.5779186
20
26.0794283
11
41.0893256
21
40.0708999
0
LINE
8
0
10
41.0893256
20
40.0708999
11
27.097854
21
39.5823069
0
LINE
8
0
10
27.097854
20
39.5823069
11
27.586447
21
25.5908353
0
LINE
8
0
10
26.9233566
20
44.5792611
11
40.9148282
21
45.0678541
0
LINE
8
0
10
40.9148282
20
45.0678541
11
40.4262352
21
59.0593257
0
LINE
8
0
10
40.4262352
20
59.0593257
11
26.4347636
21
58.5707327
0
LINE
8
0
10
26.4347636
20
58.5707327
11
26.9233566
21
44.5792611
0
LINE
8
0
10
47.5198748
20
11.3147918
11
61.5198748
21
11.3147918
0
LINE
8
0
10
61.5198748
20
11.3147918
11
61.5198748
21
25.3147918
0
LINE
8
0
10
61.5198748
20
25.3147918
11
47.5198748
21
25.3147918
0
LINE
8
0
10
47.5198748
20
25.3147918
11
47.5198748
21
11.3147918
0
LINE
8
0
10
47.5198748
20
30.3147918
11
61.5198748
21
30.3147918
0
LINE
8
0
10
61.5198748
20
30.3147918
11
61.5198748
21
44.3147918
0
LINE
8
0
10
61.5198748
20
44.3147918
11
47.5198748
21
44.3147918
0
LINE
8
0
10
47.5198748
20
44.3147918
11
47.5198748
21
30.3147918
0
LINE
8
0
10
47.5198747
20
49.3147918
11
61.5198747
21
49.3147918
0
LINE
8
0
10
61.5198747
20
49.3147918
11
61.5198747
21
63.3147918
0
LINE
8
0
10
61.5198747
20
63.3147918
11
47.5198747
21
63.3147918
0
LINE
8
0
10
47.5198747
20
63.3147918
11
47.5198747
21
49.3147918
0
LINE
8
0
10
66.8040041
20
6.0738559
11
80.7699008
21
5.0972652
0
LINE
8
0
10
80.7699008
20
5.0972652
11
81.7464915
21
19.0631619
0
LINE
8
0
10
81.7464915
20
19.0631619
11
67.7805948
21
20.0397526
0
LINE
8
0
10
67.7805948
20
20.0397526
11
66.8040041
21
6.0738559
0
LINE
8
0
10
68.1293771
20
25.0275728
11
82.0952738
21
24.0509821
0
LINE
8
0
10
82.0952738
20
24.0509821
11
83.0718645
21
38.0168788
0
LINE
8
0
10
83.0718645
20
38.0168788
11
69.1059678
21
38.9934695
0
LINE
8
0
10
69.1059678
20
38.9934695
11
68.1293771
21
25.0275728
0
LINE
8
0
10
69.45475
20
43.9812898
11
83.4206467
21
43.0046991
0
LINE
8
0
10
83.4206467
20
43.0046991
11
84.3972374
21
56.9705958
0
LINE
8
0
10
84.3972374
20
56.9705958
11
70.4313407
21
57.9471865
0
LINE
8
0
10
70.4313407
20
57.9471865
11
69.45475
21
43.9812898
0
LINE
8
0
10
85.6251836
20
2.8531111
11
99.5910803
21
1.8765204
0
LINE
8
0
10
99.5910803
20
1.8765204
11
100.567671
21
15.8424171
0
LINE
8
0
10
100.567671
20
15.8424171
11
86.6017743
21
16.8190078
0
LINE
8
0
10
86.6017743
20
16.8190078
11
85.6251836
21
2.8531111
0
LINE
8
0
10
86.9505567
20
21.8068281
11
100.9164534
21
20.8302374
0
LINE
8
0
10
100.9164534
20
20.8302374
11
101.8930441
21
34.7961341
0
LINE
8
0
10
101.8930441
20
34.7961341
11
87.9271474
21
35.7727248
0
LINE
8
0
10
87.9271474
20
35.7727248
11
86.9505567
21
21.8068281
0
LINE
8
0
10
88.2759298
20
40.7605451
11
102.2418265
21
39.7839544
0
LINE
8
0
10
102.2418265
20
39.7839544
11
103.2184172
21
53.7498511
0
LINE
8
0
10
103.2184172
20
53.7498511
11
89.2525205
21
54.7264418
0
LINE
8
0
10
89.2525205
20
54.7264418
11
88.2759298
21
40.7605451
0
LINE
8
0
10
117.6070895
20
-12.4811831
11
123.499873
21
4.6327031
0
LINE
8
0
10
123.499873
20
4.6327031
11
110.262613
21
9.1906573
0
LINE
8
0
10
104.3698294
20
-7.9232289
11
110.262613
21
9.1906573
0
LINE
8
0
10
76.645255
20
-19.6025843
11
90.4728917
21
-21.7926668
0
LINE
8
0
10
90.4728917
20
-21.7926668
11
92.6629742
21
-7.9650301
0
LINE
8
0
10
92.6629742
20
-7.9650301
11
78.8353375
21
-5.7749476
0
LINE
8
0
10
78.8353375
20
-5.7749476
11
76.645255
21
-19.6025843
0
LINE
8
0
10
96.4788754
20
-23.7441293
11
108.9529668
21
-30.0999963
0
LINE
8
0
10
108.9529668
20
-30.0999963
11
115.3088338
21
-17.6259049
0
LINE
8
0
10
115.3088338
20
-17.6259049
11
102.8347424
21
-11.2700379
0
LINE
8
0
10
102.8347424
20
-11.2700379
11
96.4788754
21
-23.7441293
0
LINE
8
0
10
114.0619617
20
-33.8118983
11
123.9614566
21
-43.7113932
0
LINE
8
0
10
123.9614566
20
-43.7113932
11
133.8609515
21
-33.8118983
0
LINE
8
0
10
133.8609515
20
-33.8118983
11
123.9614566
21
-23.9124034
0
LINE
8
0
10
123.9614566
20
-23.9124034
11
114.0619617
21
-33.8118983
0
CIRCLE
8
0
10
21.7048748
20
49.1547918
40
1.1
0
CIRCLE
8
0
10
1.7198748
20
4.8647918
40
1.1
0
CIRCLE
8
0
10
85.6748748
20
39.3647918
40
1.1
0
CIRCLE
8
0
10
83.6748748
20
-2.1952082
40
1.1
0
CIRCLE
8
0
10
128.2848748
20
-21.3952082
40
1.1
0
LINE
8
0
10
104.3698294
20
-7.9232289
11
117.6070895
21
-12.4811831
0
ENDSEC
0
EOF