0
SECTION
2
HEADER
9
$INSUNITS
70
4
0
ENDSEC
0
SECTION
2
TABLES
0
TABLE
2
LTYPE
0
LTYPE
72
65
70
64
2
CONTINUOUS
3
______
73
0
40
0
0
ENDTAB
0
TABLE
2
LAYER
0
ENDTAB
0
ENDSEC
0
SECTION
2
ENTITIES
0
LINE
8
0
10
-22.128496
20
47.0435763
11
-8.7510133
21
48.9236589
0
LINE
8
0
10
-21.7270225
20
37.0016472
11
-22.979591
21
45.9141351
0
LINE
8
0
10
24.8952585
20
63.1536076
11
44.8952585
21
63.1536076
0
LINE
8
0
10
45.8952585
20
62.1536076
11
45.8952585
21
62.0365315
0
LINE
8
0
10
23.8952585
20
61.7726549
11
23.8952585
21
62.1536076
0
LINE
8
0
10
46.825502
20
61.0389674
11
65.4727226
21
59.7350267
0
LINE
8
0
10
66.4005301
20
58.6677061
11
66.323798
21
57.5703858
0
LINE
8
0
10
67.2516055
20
56.5030652
11
85.2077586
21
55.2474486
0
ARC
8
0
10
85.1380021
20
54.2498845
40
1
50
370.6041354
51
85.9999987
0
ARC
8
0
10
67.321362
20
57.5006293
40
1
50
175.9999983
51
265.9999987
0
ARC
8
0
10
65.4029661
20
58.7374626
40
1
50
355.9999983
51
85.9999987
0
ARC
8
0
10
46.8952585
20
62.0365315
40
1
50
180
51
265.9999987
0
ARC
8
0
10
44.8952585
20
62.1536076
40
1
50
0
51
90
0
ARC
8
0
10
24.8952585
20
62.1536076
40
1
50
90
51
180
0
ARC
8
0
10
-21.9893229
20
46.0533082
40
1
50
97.9999997
51
187.9999997
0
LINE
8
0
10
110.1987928
20
-10.7149668
11
117.3086745
21
-33.2414851
0
LINE
8
0
10
116.3787178
20
-38.658296
11
111.0323747
21
-45.7531329
0
LINE
8
0
10
103.526689
20
-47.4934011
11
64.1872408
21
-27.5421573
0
LINE
8
0
10
62.5863772
20
-26.9974518
11
-8.1931259
21
-13.6358467
0
LINE
8
0
10
-10.7331343
20
-12.4997584
11
-29.1811909
21
1.6586974
0
LINE
8
0
10
-31.1789314
20
4.4013126
11
-36.029069
21
17.9882122
0
LINE
8
0
10
-34.4968046
20
24.3686293
11
-22.030875
21
36.1352646
0
LINE
8
0
10
-8.2037708
20
49.1867175
11
1.7004282
21
58.5353261
0
LINE
8
0
10
5.6095247
20
60.1684142
11
22.930158
21
60.7732641
0
ARC
8
0
10
111.5869047
20
-35.0474059
40
6
50
323.0000007
51
17.5168824
0
ARC
8
0
10
106.2405616
20
-42.1422428
40
6
50
243.1078765
51
323.0000005
0
ARC
8
0
10
61.4733682
20
-32.8933157
40
6
50
63.1078765
51
79.3096279
0
ARC
8
0
10
-7.0801169
20
-7.7399828
40
6
50
232.4945977
51
259.3096279
0
ARC
8
0
10
-25.5281735
20
6.418473
40
6
50
199.6451237
51
232.4945973
0
ARC
8
0
10
-30.3783111
20
20.0053724
40
6
50
133.3470371
51
199.645123
0
ARC
8
0
10
5.8189217
20
54.1720692
40
6
50
92.0000002
51
133.3470371
0
ARC
8
0
10
104.477023
20
-12.5208876
40
6
50
17.5168824
51
27.0445783
0
ARC
8
0
10
-8.8901864
20
49.913927
40
1
50
277.9999997
51
313.3470371
0
ARC
8
0
10
22.8952585
20
61.7726549
40
1
50
272.0000002
51
0
0
ARC
8
0
10
110.2337392
20
-45.1513179
40
1
50
323.0000005
51
323.0000007
0
ARC
8
0
10
-28.5723547
20
2.4519933
40
1
50
232.4945973
51
232.4945977
0
ARC
8
0
10
-35.087276
20
18.3244055
40
1
50
199.645123
51
199.6451237
0
ARC
8
0
10
-22.7172906
20
36.8624741
40
1
50
313.3470371
51
7.9999997
0
LINE
8
0
10
86.1209242
20
54.4339068
11
86.2181615
21
54.2144501
0
LINE
8
0
10
86.2181615
20
54.2144501
11
86.3858644
21
54.0323081
0
LINE
8
0
10
86.3858644
20
54.0323081
11
86.9186197
21
53.9098466
0
LINE
8
0
10
86.9186197
20
53.9098466
11
120.74298
21
53.8955728
0
LINE
8
0
10
122.699377
20
51.4842246
11
109.8209412
21
-9.792786
0
ARC
8
0
10
120.742136
20
51.895573
40
2
50
348.1310308
51
89.9758212
0
CIRCLE
8
0
10
1.0152586
20
49.0736076
40
1.1
0
CIRCLE
8
0
10
-17.9047414
20
2.2036076
40
1.1
0
CIRCLE
8
0
10
66.0502586
20
36.7036076
40
1.1
0
CIRCLE
8
0
10
64.1452586
20
-3.9263924
40
1.1
0
CIRCLE
8
0
10
103.3752586
20
-17.0363924
40
1.1
0
CIRCLE
8
0
10
44.1202586
20
22.5536076
40
20.5
0
CIRCLE
8
0
10
80.8143285
20
44.0265853
40
7.5
0
CIRCLE
8
0
10
-4.8710585
20
17.6593824
40
7.5
0
CIRCLE
8
0
10
76.8207703
20
-13.0839565
40
7.5
0
ENDSEC
0
EOF