0
SECTION
2
HEADER
9
$INSUNITS
70
4
0
ENDSEC
0
SECTION
2
TABLES
0
TABLE
2
LTYPE
0
LTYPE
72
65
70
64
2
CONTINUOUS
3
______
73
0
40
0
0
ENDTAB
0
TABLE
2
LAYER
0
ENDTAB
0
ENDSEC
0
SECTION
2
ENTITIES
0
LINE
8
0
10
-18.8793456
20
45.4805594
11
-9.7572269
21
46.7625896
0
LINE
8
0
10
-18.9557534
20
38.8389321
11
-19.7304406
21
44.3511182
0
LINE
8
0
10
24.8952585
20
63.1536076
11
44.8952585
21
63.1536076
0
LINE
8
0
10
45.8952585
20
62.1536076
11
45.8952585
21
61.6355547
0
LINE
8
0
10
23.8952585
20
60.0716187
11
23.8952585
21
62.1536076
0
LINE
8
0
10
46.825502
20
60.6379906
11
65.44482
21
59.3360011
0
LINE
8
0
10
66.3726275
20
58.2686805
11
66.323798
21
57.5703858
0
LINE
8
0
10
67.2516055
20
56.5030652
11
85.2077586
21
55.2474486
0
ARC
8
0
10
85.1380021
20
54.2498845
40
1
50
370.6041354
51
85.9999987
0
ARC
8
0
10
67.321362
20
57.5006293
40
1
50
175.9999983
51
265.9999987
0
ARC
8
0
10
65.3750635
20
58.338437
40
1
50
355.9999983
51
85.9999987
0
ARC
8
0
10
46.8952585
20
61.6355547
40
1
50
180
51
265.9999987
0
ARC
8
0
10
44.8952585
20
62.1536076
40
1
50
0
51
90
0
ARC
8
0
10
24.8952585
20
62.1536076
40
1
50
90
51
180
0
ARC
8
0
10
-18.7401725
20
44.4902913
40
1
50
97.9999997
51
187.9999997
0
LINE
8
0
10
109.6635896
20
-9.2889877
11
117.8670534
21
-31.8895284
0
LINE
8
0
10
116.8899743
20
-37.7126213
11
111.248606
21
-44.6791309
0
LINE
8
0
10
104.0988
20
-46.3635362
11
63.4029336
21
-27.8284254
0
LINE
8
0
10
62.1459423
20
-27.4161684
11
-8.4876918
21
-12.6228462
0
LINE
8
0
10
-10.7771518
20
-11.6096681
11
-29.0781527
21
1.6447321
0
LINE
8
0
10
-31.2095116
20
4.4869783
11
-35.9953308
21
17.8936999
0
LINE
8
0
10
-34.3604293
20
24.3687629
11
-19.2767121
21
37.9567752
0
LINE
8
0
10
-9.2270906
20
47.0098739
11
1.783039
21
56.9282364
0
LINE
8
0
10
5.5894983
20
58.4666787
11
22.930158
21
59.0722279
0
ARC
8
0
10
112.2270984
20
-33.936699
40
6
50
321.000001
51
19.9497028
0
ARC
8
0
10
106.5857302
20
-40.9032085
40
6
50
245.5128999
51
320.9999995
0
ARC
8
0
10
60.9160034
20
-33.2887531
40
6
50
65.5128999
51
78.1710979
0
ARC
8
0
10
-7.257753
20
-6.7502615
40
6
50
234.0862696
51
258.1710979
0
ARC
8
0
10
-25.5587537
20
6.5041387
40
6
50
199.6451237
51
234.0862677
0
ARC
8
0
10
-30.3445729
20
19.9108602
40
6
50
132.0137863
51
199.645123
0
ARC
8
0
10
5.7988953
20
52.4703337
40
6
50
92.0000002
51
132.0137863
0
ARC
8
0
10
-9.8964
20
47.7528577
40
1
50
277.9999997
51
312.0137863
0
ARC
8
0
10
22.8952585
20
60.0716187
40
1
50
272.0000002
51
0
0
ARC
8
0
10
110.47146
20
-44.0498105
40
1
50
320.9999995
51
321.000001
0
ARC
8
0
10
104.5132884
20
-45.4534816
40
1
50
245.5128974
51
245.5128999
0
ARC
8
0
10
62.9884452
20
-28.73848
40
1
50
65.5128974
51
65.5128999
0
ARC
8
0
10
-10.1905853
20
-10.799767
40
1
50
234.0862677
51
234.0862696
0
ARC
8
0
10
-35.0535378
20
18.2298933
40
1
50
199.645123
51
199.6451237
0
ARC
8
0
10
-19.9460215
20
38.699759
40
1
50
312.0137863
51
7.9999997
0
LINE
8
0
10
86.1209242
20
54.4339068
11
86.2181615
21
54.2144501
0
LINE
8
0
10
86.2181615
20
54.2144501
11
86.3858644
21
54.0323081
0
LINE
8
0
10
86.3858644
20
54.0323081
11
86.9186197
21
53.9098466
0
LINE
8
0
10
86.9186197
20
53.9098466
11
120.7329229
21
53.895577
0
LINE
8
0
10
122.6876645
20
51.4764294
11
109.6635896
21
-9.2889877
0
ARC
8
0
10
120.7320789
20
51.8955772
40
2
50
347.902617
51
89.9758212
0
CIRCLE
8
0
10
2.0802586
20
46.4936076
40
1.1
0
CIRCLE
8
0
10
-17.9047414
20
2.2036076
40
1.1
0
CIRCLE
8
0
10
66.0502586
20
36.7036076
40
1.1
0
CIRCLE
8
0
10
63.6802586
20
-4.3263924
40
1.1
0
CIRCLE
8
0
10
103.3952586
20
-17.0363924
40
1.1
0
CIRCLE
8
0
10
44.1202586
20
22.5536076
40
20.5
0
CIRCLE
8
0
10
80.8143285
20
44.0265853
40
7.5
0
CIRCLE
8
0
10
-4.8710585
20
17.6593824
40
7.5
0
CIRCLE
8
0
10
76.8207703
20
-13.0839565
40
7.5
0
ENDSEC
0
EOF