0
SECTION
2
HEADER
9
$INSUNITS
70
4
0
ENDSEC
0
SECTION
2
TABLES
0
TABLE
2
LTYPE
0
LTYPE
72
65
70
64
2
CONTINUOUS
3
______
73
0
40
0
0
ENDTAB
0
TABLE
2
LAYER
0
ENDTAB
0
ENDSEC
0
SECTION
2
ENTITIES
0
LINE
8
0
10
-18.8793456
20
45.4805594
11
-9.7572269
21
46.7625896
0
LINE
8
0
10
-18.9557534
20
38.8389321
11
-19.7304406
21
44.3511182
0
LINE
8
0
10
24.8952585
20
63.1536076
11
44.8952585
21
63.1536076
0
LINE
8
0
10
45.8952585
20
62.1536076
11
45.8952585
21
61.6355547
0
LINE
8
0
10
23.8952585
20
60.0716187
11
23.8952585
21
62.1536076
0
LINE
8
0
10
46.825502
20
60.6379906
11
65.44482
21
59.3360011
0
LINE
8
0
10
66.3726275
20
58.2686805
11
66.323798
21
57.5703858
0
LINE
8
0
10
67.2516055
20
56.5030652
11
83.1226328
21
55.3932548
0
ARC
8
0
10
67.321362
20
57.5006293
40
1
50
175.9999983
51
265.9999987
0
ARC
8
0
10
65.3750635
20
58.338437
40
1
50
355.9999983
51
85.9999987
0
ARC
8
0
10
46.8952585
20
61.6355547
40
1
50
180
51
265.9999987
0
ARC
8
0
10
44.8952585
20
62.1536076
40
1
50
0
51
90
0
ARC
8
0
10
24.8952585
20
62.1536076
40
1
50
90
51
180
0
ARC
8
0
10
-18.7401725
20
44.4902913
40
1
50
97.9999997
51
187.9999997
0
LINE
8
0
10
109.1948787
20
-9.5344273
11
115.8128129
21
-36.7934697
0
LINE
8
0
10
113.9185408
20
-42.7372833
11
107.1186736
21
-48.6483176
0
LINE
8
0
10
100.1152062
20
-49.2768821
11
64.5584154
21
-28.1288356
0
LINE
8
0
10
62.7116401
20
-27.4110705
11
-8.482244
21
-12.6218411
0
LINE
8
0
10
-10.7813046
20
-11.6066605
11
-29.0781527
21
1.6447321
0
LINE
8
0
10
-31.2095116
20
4.4869783
11
-35.9953308
21
17.8936999
0
LINE
8
0
10
-34.3604293
20
24.3687629
11
-19.2767121
21
37.9567752
0
LINE
8
0
10
-9.2270906
20
47.0098739
11
1.783039
21
56.9282364
0
LINE
8
0
10
5.5894983
20
58.4666787
11
22.930158
21
59.0722279
0
ARC
8
0
10
109.9821867
20
-38.2090257
40
6
50
310.9999996
51
13.6462139
0
ARC
8
0
10
103.1823196
20
-44.12006
40
6
50
239.2571672
51
310.999998
0
ARC
8
0
10
61.4913019
20
-33.2856577
40
6
50
59.2571672
51
78.2647501
0
ARC
8
0
10
-7.2619058
20
-6.7472539
40
6
50
234.0862696
51
258.2647501
0
ARC
8
0
10
-25.5587537
20
6.5041387
40
6
50
199.6451237
51
234.0862677
0
ARC
8
0
10
-30.3445729
20
19.9108602
40
6
50
132.0137863
51
199.645123
0
ARC
8
0
10
5.7988953
20
52.4703337
40
6
50
92.0000002
51
132.0137863
0
ARC
8
0
10
-9.8964
20
47.7528577
40
1
50
277.9999997
51
312.0137863
0
ARC
8
0
10
22.8952585
20
60.0716187
40
1
50
272.0000002
51
0
0
ARC
8
0
10
113.2624818
20
-41.9825736
40
1
50
310.999998
51
310.9999996
0
ARC
8
0
10
62.5082504
20
-28.3901684
40
1
50
78.2647501
51
78.2647506
0
ARC
8
0
10
-8.2788543
20
-11.6427432
40
1
50
258.2647501
51
258.2647506
0
ARC
8
0
10
-10.1947381
20
-10.7967594
40
1
50
234.0862677
51
234.0862696
0
ARC
8
0
10
-35.0535378
20
18.2298933
40
1
50
199.645123
51
199.6451237
0
ARC
8
0
10
-19.9460215
20
38.699759
40
1
50
312.0137863
51
7.9999997
0
LINE
8
0
10
83.8153543
20
55.4049615
11
118.4786123
21
52.9810704
0
LINE
8
0
10
122.1029435
20
48.1168566
11
109.1948787
21
-9.5344273
0
ARC
8
0
10
83.5363283
20
51.4147053
40
4
50
85.9999987
51
95.9363668
0
ARC
8
0
10
118.1995863
20
48.9908142
40
4
50
347.3796761
51
85.9999987
0
ENDSEC
0
EOF