0
SECTION
2
HEADER
9
$INSUNITS
70
4
0
ENDSEC
0
SECTION
2
TABLES
0
TABLE
2
LTYPE
0
LTYPE
72
65
70
64
2
CONTINUOUS
3
______
73
0
40
0
0
ENDTAB
0
TABLE
2
LAYER
0
ENDTAB
0
ENDSEC
0
SECTION
2
ENTITIES
0
LINE
8
0
10
-22.128496
20
47.0435763
11
-8.7510133
21
48.9236589
0
LINE
8
0
10
-21.7270225
20
37.0016472
11
-22.979591
21
45.9141351
0
LINE
8
0
10
24.8952585
20
63.1536076
11
44.8952585
21
63.1536076
0
LINE
8
0
10
45.8952585
20
62.1536076
11
45.8952585
21
62.0365315
0
LINE
8
0
10
23.8952585
20
61.7726549
11
23.8952585
21
62.1536076
0
LINE
8
0
10
46.825502
20
61.0389674
11
65.4727226
21
59.7350267
0
LINE
8
0
10
66.4005301
20
58.6677061
11
66.323798
21
57.5703858
0
LINE
8
0
10
83.6940895
20
19.2653863
11
83.4150635
21
15.2751302
0
LINE
8
0
10
82.9485019
20
8.6029886
11
83.4150635
21
15.2751302
0
LINE
8
0
10
84.6706801
20
33.231283
11
85.4031231
21
43.7057056
0
LINE
8
0
10
84.6706801
20
33.231283
11
84.1475065
21
25.7495528
0
LINE
8
0
10
84.1475065
20
25.7495528
11
83.6940895
21
19.2653863
0
LINE
8
0
10
67.2516055
20
56.5030652
11
85.2077586
21
55.2474486
0
LINE
8
0
10
86.1355661
20
54.180128
11
85.4031231
21
43.7057056
0
ARC
8
0
10
85.1380021
20
54.2498845
40
1
50
355.9999983
51
85.9999987
0
ARC
8
0
10
67.321362
20
57.5006293
40
1
50
175.9999983
51
265.9999987
0
ARC
8
0
10
65.4029661
20
58.7374626
40
1
50
355.9999983
51
85.9999987
0
ARC
8
0
10
46.8952585
20
62.0365315
40
1
50
180
51
265.9999987
0
ARC
8
0
10
44.8952585
20
62.1536076
40
1
50
0
51
90
0
ARC
8
0
10
24.8952585
20
62.1536076
40
1
50
90
51
180
0
ARC
8
0
10
-21.9893229
20
46.0533082
40
1
50
97.9999997
51
187.9999997
0
LINE
8
0
10
109.6292186
20
-9.6969172
11
117.2736601
21
-33.218747
0
LINE
8
0
10
116.359258
20
-38.68412
11
111.0323747
21
-45.7531329
0
LINE
8
0
10
103.526689
20
-47.4934011
11
64.1872408
21
-27.5421573
0
LINE
8
0
10
62.5863772
20
-26.9974518
11
-8.1931259
21
-13.6358467
0
LINE
8
0
10
-10.7331343
20
-12.4997584
11
-29.1811909
21
1.6586974
0
LINE
8
0
10
-31.1789314
20
4.4013126
11
-36.029069
21
17.9882122
0
LINE
8
0
10
-34.4968046
20
24.3686293
11
-22.030875
21
36.1352646
0
LINE
8
0
10
-8.2037708
20
49.1867175
11
1.7004282
21
58.5353261
0
LINE
8
0
10
5.6095247
20
60.1684142
11
22.930158
21
60.7732641
0
LINE
8
0
10
83.4916791
20
7.6424277
11
88.0729627
21
5.305579
0
ARC
8
0
10
111.5674449
20
-35.07323
40
6
50
323.0000007
51
18.0038255
0
ARC
8
0
10
106.2405616
20
-42.1422428
40
6
50
243.1078765
51
323.0000005
0
ARC
8
0
10
61.4733682
20
-32.8933157
40
6
50
63.1078765
51
79.3096279
0
ARC
8
0
10
-7.0801169
20
-7.7399828
40
6
50
232.4945977
51
259.3096279
0
ARC
8
0
10
-25.5281735
20
6.418473
40
6
50
199.6451237
51
232.4945973
0
ARC
8
0
10
-30.3783111
20
20.0053724
40
6
50
133.3470371
51
199.645123
0
ARC
8
0
10
5.8189217
20
54.1720692
40
6
50
92.0000002
51
133.3470371
0
ARC
8
0
10
-8.8901864
20
49.913927
40
1
50
277.9999997
51
313.3470371
0
ARC
8
0
10
22.8952585
20
61.7726549
40
1
50
272.0000002
51
0
0
ARC
8
0
10
83.946066
20
8.5332321
40
1
50
175.9999987
51
242.9745058
0
ARC
8
0
10
88.5273496
20
6.1963834
40
1
50
242.9745058
51
248.0000059
0
ARC
8
0
10
110.2337392
20
-45.1513179
40
1
50
323.0000005
51
323.0000007
0
ARC
8
0
10
-28.5723547
20
2.4519933
40
1
50
232.4945973
51
232.4945977
0
ARC
8
0
10
-35.087276
20
18.3244055
40
1
50
199.645123
51
199.6451237
0
ARC
8
0
10
-22.7172906
20
36.8624741
40
1
50
313.3470371
51
7.9999997
0
LINE
8
0
10
-8.3236075
20
-8.071531
11
5.5401455
21
-6.1231076
0
LINE
8
0
10
5.5401455
20
-6.1231076
11
3.5917221
21
7.7406454
0
LINE
8
0
10
3.5917221
20
7.7406454
11
-10.2720309
21
5.792222
0
LINE
8
0
10
-10.2720309
20
5.792222
11
-8.3236075
21
-8.071531
0
LINE
8
0
10
-10.8287233
20
9.7532942
11
3.0350297
21
11.7017176
0
LINE
8
0
10
3.0350297
20
11.7017176
11
1.0866063
21
25.5654706
0
LINE
8
0
10
1.0866063
20
25.5654706
11
-12.7771467
21
23.6170472
0
LINE
8
0
10
-12.7771467
20
23.6170472
11
-10.8287233
21
9.7532942
0
LINE
8
0
10
-29.6438167
20
7.1090052
11
-15.7800637
21
9.0574286
0
LINE
8
0
10
-15.7800637
20
9.0574286
11
-17.7284871
21
22.9211816
0
LINE
8
0
10
-17.7284871
20
22.9211816
11
-31.5922401
21
20.9727582
0
LINE
8
0
10
-31.5922401
20
20.9727582
11
-29.6438167
21
7.1090052
0
LINE
8
0
10
9.0605289
20
5.3554619
11
23.0520005
21
5.8440549
0
LINE
8
0
10
23.0520005
20
5.8440549
11
22.5634075
21
19.8355265
0
LINE
8
0
10
22.5634075
20
19.8355265
11
8.5719359
21
19.3469335
0
LINE
8
0
10
8.5719359
20
19.3469335
11
9.0605289
21
5.3554619
0
LINE
8
0
10
8.4323379
20
23.3444967
11
22.4238095
21
23.8330897
0
LINE
8
0
10
22.4238095
20
23.8330897
11
21.9352165
21
37.8245613
0
LINE
8
0
10
21.9352165
20
37.8245613
11
7.9437449
21
37.3359683
0
LINE
8
0
10
7.9437449
20
37.3359683
11
8.4323379
21
23.3444967
0
LINE
8
0
10
7.804147
20
41.3335317
11
21.7956186
21
41.8221247
0
LINE
8
0
10
21.7956186
20
41.8221247
11
21.3070256
21
55.8135963
0
LINE
8
0
10
21.3070256
20
55.8135963
11
7.315554
21
55.3250033
0
LINE
8
0
10
7.315554
20
55.3250033
11
7.804147
21
41.3335317
0
LINE
8
0
10
27.8952585
20
9.6536076
11
41.8952585
21
9.6536076
0
LINE
8
0
10
41.8952585
20
9.6536076
11
41.8952585
21
23.6536076
0
LINE
8
0
10
41.8952585
20
23.6536076
11
27.8952585
21
23.6536076
0
LINE
8
0
10
27.8952585
20
23.6536076
11
27.8952585
21
9.6536076
0
LINE
8
0
10
27.8952586
20
27.6536076
11
41.8952586
21
27.6536076
0
LINE
8
0
10
41.8952586
20
27.6536076
11
41.8952586
21
41.6536076
0
LINE
8
0
10
41.8952586
20
41.6536076
11
27.8952586
21
41.6536076
0
LINE
8
0
10
27.8952586
20
41.6536076
11
27.8952586
21
27.6536076
0
LINE
8
0
10
27.8952585
20
45.6536076
11
41.8952585
21
45.6536076
0
LINE
8
0
10
41.8952585
20
45.6536076
11
41.8952585
21
59.6536076
0
LINE
8
0
10
41.8952585
20
59.6536076
11
27.8952585
21
59.6536076
0
LINE
8
0
10
27.8952585
20
59.6536076
11
27.8952585
21
45.6536076
0
LINE
8
0
10
46.6098748
20
5.0175434
11
60.5757715
21
4.0409527
0
LINE
8
0
10
60.5757715
20
4.0409527
11
61.5523622
21
18.0068494
0
LINE
8
0
10
61.5523622
20
18.0068494
11
47.5864655
21
18.9834401
0
LINE
8
0
10
47.5864655
20
18.9834401
11
46.6098748
21
5.0175434
0
LINE
8
0
10
47.8654914
20
22.9736964
11
61.8313881
21
21.9971057
0
LINE
8
0
10
61.8313881
20
21.9971057
11
62.8079788
21
35.9630024
0
LINE
8
0
10
62.8079788
20
35.9630024
11
48.8420821
21
36.9395931
0
LINE
8
0
10
48.8420821
20
36.9395931
11
47.8654914
21
22.9736964
0
LINE
8
0
10
49.1211079
20
40.9298492
11
63.0870046
21
39.9532585
0
LINE
8
0
10
63.0870046
20
39.9532585
11
64.0635953
21
53.9191552
0
LINE
8
0
10
64.0635953
20
53.9191552
11
50.0976986
21
54.8957459
0
LINE
8
0
10
50.0976986
20
54.8957459
11
49.1211079
21
40.9298492
0
LINE
8
0
10
65.4450058
20
1.9963115
11
79.4109025
21
1.0197208
0
LINE
8
0
10
79.4109025
20
1.0197208
11
80.3874932
21
14.9856175
0
LINE
8
0
10
80.3874932
20
14.9856175
11
66.4215965
21
15.9622082
0
LINE
8
0
10
66.4215965
20
15.9622082
11
65.4450058
21
1.9963115
0
LINE
8
0
10
66.7006223
20
19.9524645
11
80.666519
21
18.9758738
0
LINE
8
0
10
80.666519
20
18.9758738
11
81.6431097
21
32.9417705
0
LINE
8
0
10
81.6431097
20
32.9417705
11
67.677213
21
33.9183612
0
LINE
8
0
10
67.677213
20
33.9183612
11
66.7006223
21
19.9524645
0
LINE
8
0
10
67.9562389
20
37.9086173
11
81.9221356
21
36.9320266
0
LINE
8
0
10
81.9221356
20
36.9320266
11
82.8987263
21
50.8979233
0
LINE
8
0
10
82.8987263
20
50.8979233
11
68.9328296
21
51.874514
0
LINE
8
0
10
68.9328296
20
51.874514
11
67.9562389
21
37.9086173
0
LINE
8
0
10
56.0823655
20
-21.317443
11
69.9780117
21
-23.0236138
0
LINE
8
0
10
69.9780117
20
-23.0236138
11
71.6841825
21
-9.1279676
0
LINE
8
0
10
71.6841825
20
-9.1279676
11
57.7885363
21
-7.4217968
0
LINE
8
0
10
57.7885363
20
-7.4217968
11
56.0823655
21
-21.317443
0
LINE
8
0
10
76.3194764
20
-26.9555772
11
89.3000503
21
-32.2000695
0
LINE
8
0
10
89.3000503
20
-32.2000695
11
94.5445426
21
-19.2194956
0
LINE
8
0
10
94.5445426
20
-19.2194956
11
81.5639687
21
-13.9750033
0
LINE
8
0
10
81.5639687
20
-13.9750033
11
76.3194764
21
-26.9555772
0
LINE
8
0
10
94.4077678
20
-37.6393465
11
105.5886649
21
-46.0647568
0
LINE
8
0
10
105.5886649
20
-46.0647568
11
114.0140752
21
-34.8838597
0
LINE
8
0
10
114.0140752
20
-34.8838597
11
102.8331781
21
-26.4584494
0
LINE
8
0
10
102.8331781
20
-26.4584494
11
94.4077678
21
-37.6393465
0
LINE
8
0
10
98.5650697
20
-14.3403295
11
101.7304954
21
-6.5056259
0
CIRCLE
8
0
10
1.0152586
20
49.0736076
40
1.1
0
CIRCLE
8
0
10
-17.9047414
20
2.2036076
40
1.1
0
CIRCLE
8
0
10
66.0502586
20
36.7036076
40
1.1
0
CIRCLE
8
0
10
64.1452586
20
-3.9263924
40
1.1
0
CIRCLE
8
0
10
103.3752586
20
-17.0363924
40
1.1
0
LINE
8
0
10
83.9080987
20
-10.5755983
11
95.9614888
21
-15.445484
0
LINE
8
0
10
88.1527431
20
5.2691995
11
82.8029442
21
-7.9720174
0
ARC
8
0
10
96.710702
20
-13.5911163
40
2
50
248.0000006
51
338.0000006
0
ARC
8
0
10
84.6573119
20
-8.7212306
40
2
50
158.0000006
51
248.0000006
0
LINE
8
0
10
101.7304954
20
-6.5056259
11
109.6292186
21
-9.6969172
0
LINE
8
0
10
-14.3883408
20
27.1774621
11
3.2879442
21
29.661702
0
LINE
8
0
10
3.2879442
20
29.661702
11
1.2699343
21
44.0205889
0
LINE
8
0
10
1.2699343
20
44.0205889
11
-16.4063508
21
41.5363491
0
LINE
8
0
10
-16.4063508
20
41.5363491
11
-14.3883408
21
27.1774621
0
ENDSEC
0
EOF