<svg width="157.048mm" height="112.578mm" viewBox="0 0 157.048 112.578" xmlns="http://www.w3.org/2000/svg"><g id="svgGroup" stroke-linecap="round" fill-rule="evenodd" font-size="9pt" stroke="#000" stroke-width="0.25mm" fill="none" style="stroke:#000;stroke-width:0.25mm;fill:none"><path d="M 117.916 9.362 L 153.327 11.838 A 4 4 0 0 1 156.978 16.575 L 146.913 69.542 L 154.994 97.292 A 6 6 0 0 1 153.476 103.212 L 145.868 110.82 A 6 6 0 0 1 138.533 111.719 L 102.586 90.099 A 6 6 0 0 0 100.491 89.324 L 27.23 76.973 A 6 6 0 0 1 24.617 75.848 L 5.862 61.716 A 6 6 0 0 1 3.75 58.724 L 0.277 47.683 A 6 6 0 0 1 1.966 41.441 L 40.773 6.199 A 6 6 0 0 1 44.391 4.655 L 61.536 3.464 L 61.536 2 A 2 2 0 0 1 63.536 0 L 81.386 0 A 2 2 0 0 1 83.386 2 L 83.386 5.043 L 102.586 6.385 A 2 2 0 0 1 104.446 8.42 L 117.915 9.362 Z M 39.221 16.66 m -1.9 0 a 1.9 1.9 0 0 1 3.8 0 a 1.9 1.9 0 0 1 -3.8 0 z M 19.236 60.95 m -1.9 0 a 1.9 1.9 0 0 1 3.8 0 a 1.9 1.9 0 0 1 -3.8 0 z M 103.191 26.45 m -1.9 0 a 1.9 1.9 0 0 1 3.8 0 a 1.9 1.9 0 0 1 -3.8 0 z M 101.191 68.01 m -1.9 0 a 1.9 1.9 0 0 1 3.8 0 a 1.9 1.9 0 0 1 -3.8 0 z M 145.801 87.21 m -1.9 0 a 1.9 1.9 0 0 1 3.8 0 a 1.9 1.9 0 0 1 -3.8 0 z M 150.281 28.96 m -1.1 0 a 1.1 1.1 0 0 1 2.2 0 a 1.1 1.1 0 0 1 -2.2 0 z M 131.301 49.75 m -1.1 0 a 1.1 1.1 0 0 1 2.2 0 a 1.1 1.1 0 0 1 -2.2 0 z" vector-effect="non-scaling-stroke"/></g></svg>