<svg width="155.234mm" height="112.578mm" viewBox="0 0 155.234 112.578" xmlns="http://www.w3.org/2000/svg"><g id="svgGroup" stroke-linecap="round" fill-rule="evenodd" font-size="9pt" stroke="#000" stroke-width="0.25mm" fill="none" style="stroke:#000;stroke-width:0.25mm;fill:none"><path d="M 121.718 47.448 L 124.211 11.807 A 2 2 0 0 0 122.355 9.672 L 104.446 8.42 A 2 2 0 0 0 102.586 6.385 L 83.386 5.043 L 83.386 2 A 2 2 0 0 0 81.386 0 L 63.536 0 A 2 2 0 0 0 61.536 2 L 61.536 3.464 L 44.391 4.655 A 6 6 0 0 0 40.773 6.199 L 1.966 41.441 A 6 6 0 0 0 0.277 47.683 L 3.75 58.724 A 6 6 0 0 0 5.862 61.716 L 24.617 75.848 A 6 6 0 0 0 27.23 76.973 L 100.491 89.324 A 6 6 0 0 1 102.586 90.099 L 138.533 111.719 A 6 6 0 0 0 145.868 110.82 L 153.476 103.212 A 6 6 0 0 0 154.994 97.292 L 144.503 61.265 A 6 6 0 0 0 141.485 57.606 L 121.718 47.448 Z M 135.123 78.296 L 141.016 61.182 L 127.778 56.624 L 121.886 73.738 L 135.123 78.296 Z M 113.995 89.559 L 126.469 95.915 L 132.825 83.441 L 120.351 77.085 L 113.995 89.559 Z M 27.914 73.906 L 41.778 71.957 L 39.829 58.094 L 25.965 60.042 L 27.914 73.906 Z M 25.27 55.091 L 39.133 53.142 L 37.185 39.279 L 23.321 41.227 L 25.27 55.091 Z M 6.455 57.735 L 20.318 55.787 L 18.37 41.923 L 4.506 43.871 L 6.455 57.735 Z M 45.765 59.212 L 59.757 58.724 L 59.268 44.732 L 45.277 45.221 L 45.765 59.212 Z M 44.439 21.236 L 58.431 20.747 L 57.942 6.755 L 43.951 7.244 L 44.439 21.236 Z M 45.102 40.224 L 59.094 39.735 L 58.605 25.744 L 44.614 26.232 L 45.102 40.224 Z M 85.645 40.787 L 99.611 41.764 L 100.588 27.798 L 86.622 26.821 L 85.645 40.787 Z M 86.971 21.834 L 100.936 22.81 L 101.913 8.844 L 87.947 7.868 L 86.971 21.834 Z M 104.466 44.008 L 118.432 44.985 L 119.409 31.019 L 105.443 30.042 L 104.466 44.008 Z M 105.792 25.054 L 119.758 26.031 L 120.734 12.065 L 106.768 11.088 L 105.792 25.054 Z M 84.32 59.741 L 98.286 60.718 L 99.262 46.752 L 85.296 45.775 L 84.32 59.741 Z M 103.141 62.962 L 117.107 63.938 L 118.084 49.972 L 104.118 48.996 L 103.141 62.962 Z M 65.036 54.5 L 79.036 54.5 L 79.036 40.5 L 65.036 40.5 L 65.036 54.5 Z M 65.036 35.5 L 79.036 35.5 L 79.036 21.5 L 65.036 21.5 L 65.036 35.5 Z M 65.036 16.5 L 79.036 16.5 L 79.036 2.5 L 65.036 2.5 L 65.036 16.5 Z M 131.578 99.627 L 141.477 109.526 L 151.377 99.627 L 141.477 89.727 L 131.578 99.627 Z M 94.161 85.417 L 107.989 87.607 L 110.179 73.78 L 96.351 71.59 L 94.161 85.417 Z M 39.221 16.66 m -1.1 0 a 1.1 1.1 0 0 1 2.2 0 a 1.1 1.1 0 0 1 -2.2 0 z M 19.236 60.95 m -1.1 0 a 1.1 1.1 0 0 1 2.2 0 a 1.1 1.1 0 0 1 -2.2 0 z M 103.191 26.45 m -1.1 0 a 1.1 1.1 0 0 1 2.2 0 a 1.1 1.1 0 0 1 -2.2 0 z M 101.191 68.01 m -1.1 0 a 1.1 1.1 0 0 1 2.2 0 a 1.1 1.1 0 0 1 -2.2 0 z M 145.801 87.21 m -1.1 0 a 1.1 1.1 0 0 1 2.2 0 a 1.1 1.1 0 0 1 -2.2 0 z" vector-effect="non-scaling-stroke"/></g></svg>