0
SECTION
2
HEADER
9
$INSUNITS
70
4
0
ENDSEC
0
SECTION
2
TABLES
0
TABLE
2
LTYPE
0
LTYPE
72
65
70
64
2
CONTINUOUS
3
______
73
0
40
0
0
ENDTAB
0
TABLE
2
LAYER
0
ENDTAB
0
ENDSEC
0
SECTION
2
ENTITIES
0
LINE
8
0
10
-1.2095183
20
49.3525813
11
12.9073851
21
51.3365827
0
LINE
8
0
10
-0.8088808
20
39.3166005
11
-2.0606133
21
48.2231401
0
LINE
8
0
10
25.8478195
20
61.05176
11
42.0547742
21
61.6177194
0
ARC
8
0
10
25.9176185
20
59.0529784
40
2
50
92
51
99.3557048
0
LINE
8
0
10
44.0198747
20
65.8147918
11
65.0198747
21
65.8147918
0
LINE
8
0
10
66.0198747
20
64.8147918
11
66.0198747
21
61.6942861
0
LINE
8
0
10
43.0198747
20
62.6171102
11
43.0198747
21
64.8147918
0
ARC
8
0
10
84.9308976
20
57.4344996
40
2
50
17.5101909
51
86
0
LINE
8
0
10
66.9501182
20
60.696722
11
85.0704106
21
59.4296277
0
LINE
8
0
10
105.5589094
20
37.0458966
11
105.4193966
21
35.0507685
0
LINE
8
0
10
104.2969726
20
18.9993606
11
105.4193966
21
35.0507685
0
LINE
8
0
10
87.7221315
20
57.3395617
11
105.8867185
21
56.0693701
0
LINE
8
0
10
105.5589094
20
37.0458966
11
106.814526
21
55.0020495
0
ARC
8
0
10
105.816962
20
55.071806
40
1
50
355.9999983
51
85.9999987
0
ARC
8
0
10
87.791888
20
58.3371259
40
1
50
197.5101909
51
265.9999987
0
ARC
8
0
10
67.0198747
20
61.6942861
40
1
50
180
51
265.9999987
0
ARC
8
0
10
65.0198747
20
64.8147918
40
1
50
0
51
90
0
ARC
8
0
10
44.0198747
20
64.8147918
40
1
50
90
51
180
0
ARC
8
0
10
42.0198747
20
62.6171102
40
1
50
272.0000002
51
0
0
ARC
8
0
10
-1.0703452
20
48.3623132
40
1
50
97.9999997
51
187.9999997
0
LINE
8
0
10
126.9885527
20
4.5529484
11
138.7924809
21
-35.8546913
0
LINE
8
0
10
136.9695392
20
-42.0653612
11
128.975585
21
-49.0143995
0
LINE
8
0
10
121.7254688
20
-49.4880396
11
86.8638377
21
-26.3921745
0
LINE
8
0
10
84.6751745
20
-25.5005035
11
9.6413579
21
-11.1763349
0
LINE
8
0
10
7.1555668
20
-10.0745793
11
-11.6308532
21
4.0820036
0
LINE
8
0
10
-13.7586291
20
7.1223278
11
-17.409712
21
19.0849194
0
LINE
8
0
10
-15.6913838
20
25.29027
11
-1.1290926
21
38.4351171
0
LINE
8
0
10
13.4382683
20
51.5845405
11
22.2248208
21
59.5158398
0
LINE
8
0
10
104.8374606
20
18.0401765
11
123.9717132
21
8.2071015
0
ARC
8
0
10
133.0331851
20
-37.5371037
40
6
50
310.9999996
51
16.2842024
0
ARC
8
0
10
125.039231
20
-44.4861419
40
6
50
236.4754873
51
310.999998
0
ARC
8
0
10
83.5500755
20
-31.3940722
40
6
50
56.4754873
51
79.1921152
0
ARC
8
0
10
10.7664568
20
-5.2827662
40
6
50
233.0000007
51
259.1921152
0
ARC
8
0
10
-8.0199631
20
8.8738166
40
6
50
196.9726276
51
232.9999998
0
ARC
8
0
10
-11.671046
20
20.8364083
40
6
50
132.0714103
51
196.9726276
0
ARC
8
0
10
26.2451586
20
55.0619781
40
6
50
96.244863
51
132.0714095
0
ARC
8
0
10
121.229257
20
2.8705357
40
6
50
16.2842052
51
62.8014099
0
ARC
8
0
10
12.768212
20
52.3268508
40
1
50
277.9999997
51
312.0714095
0
ARC
8
0
10
105.2945366
20
18.9296041
40
1
50
175.9999983
51
242.8014114
0
ARC
8
0
10
123.5146372
20
7.3176738
40
1
50
62.8014099
51
62.8014114
0
ARC
8
0
10
137.8325983
20
-36.1350934
40
1
50
16.2842024
51
16.2842052
0
ARC
8
0
10
136.3134802
20
-41.3106516
40
1
50
310.999998
51
310.9999996
0
ARC
8
0
10
122.2777625
20
-48.65439
40
1
50
236.4754866
51
236.4754873
0
ARC
8
0
10
86.311544
20
-27.2258241
40
1
50
56.4754866
51
56.4754873
0
ARC
8
0
10
-11.0290382
20
4.8806391
40
1
50
232.9999998
51
233.0000007
0
ARC
8
0
10
-15.0213275
20
24.5479597
40
1
50
132.0714095
51
132.0714103
0
ARC
8
0
10
-1.7991489
20
39.1774274
40
1
50
312.0714095
51
7.9999997
0
LINE
8
0
10
10.3980463
20
-8.0909949
11
24.2617993
21
-6.1425715
0
LINE
8
0
10
24.2617993
20
-6.1425715
11
22.3133759
21
7.7211815
0
LINE
8
0
10
22.3133759
20
7.7211815
11
8.4496229
21
5.7727581
0
LINE
8
0
10
8.4496229
20
5.7727581
11
10.3980463
21
-8.0909949
0
LINE
8
0
10
7.7537574
20
10.7240984
11
21.6175104
21
12.6725218
0
LINE
8
0
10
21.6175104
20
12.6725218
11
19.669087
21
26.5362748
0
LINE
8
0
10
19.669087
20
26.5362748
11
5.805334
21
24.5878514
0
LINE
8
0
10
5.805334
20
24.5878514
11
7.7537574
21
10.7240984
0
LINE
8
0
10
-11.061336
20
8.0798095
11
2.802417
21
10.0282329
0
LINE
8
0
10
2.802417
20
10.0282329
11
0.8539936
21
23.8919859
0
LINE
8
0
10
0.8539936
20
23.8919859
11
-13.0097594
21
21.9435625
0
LINE
8
0
10
-13.0097594
20
21.9435625
11
-11.061336
21
8.0798095
0
LINE
8
0
10
28.2495374
20
6.6024096
11
42.241009
21
7.0910026
0
LINE
8
0
10
42.241009
20
7.0910026
11
41.752416
21
21.0824742
0
LINE
8
0
10
41.752416
20
21.0824742
11
27.7609444
21
20.5938812
0
LINE
8
0
10
27.7609444
20
20.5938812
11
28.2495374
21
6.6024096
0
LINE
8
0
10
27.586447
20
25.5908353
11
41.5779186
21
26.0794283
0
LINE
8
0
10
41.5779186
20
26.0794283
11
41.0893256
21
40.0708999
0
LINE
8
0
10
41.0893256
20
40.0708999
11
27.097854
21
39.5823069
0
LINE
8
0
10
27.097854
20
39.5823069
11
27.586447
21
25.5908353
0
LINE
8
0
10
26.9233566
20
44.5792611
11
40.9148282
21
45.0678541
0
LINE
8
0
10
40.9148282
20
45.0678541
11
40.4262352
21
59.0593257
0
LINE
8
0
10
40.4262352
20
59.0593257
11
26.4347636
21
58.5707327
0
LINE
8
0
10
26.4347636
20
58.5707327
11
26.9233566
21
44.5792611
0
LINE
8
0
10
47.5198748
20
11.3147918
11
61.5198748
21
11.3147918
0
LINE
8
0
10
61.5198748
20
11.3147918
11
61.5198748
21
25.3147918
0
LINE
8
0
10
61.5198748
20
25.3147918
11
47.5198748
21
25.3147918
0
LINE
8
0
10
47.5198748
20
25.3147918
11
47.5198748
21
11.3147918
0
LINE
8
0
10
47.5198748
20
30.3147918
11
61.5198748
21
30.3147918
0
LINE
8
0
10
61.5198748
20
30.3147918
11
61.5198748
21
44.3147918
0
LINE
8
0
10
61.5198748
20
44.3147918
11
47.5198748
21
44.3147918
0
LINE
8
0
10
47.5198748
20
44.3147918
11
47.5198748
21
30.3147918
0
LINE
8
0
10
47.5198747
20
49.3147918
11
61.5198747
21
49.3147918
0
LINE
8
0
10
61.5198747
20
49.3147918
11
61.5198747
21
63.3147918
0
LINE
8
0
10
61.5198747
20
63.3147918
11
47.5198747
21
63.3147918
0
LINE
8
0
10
47.5198747
20
63.3147918
11
47.5198747
21
49.3147918
0
LINE
8
0
10
66.8040041
20
6.0738559
11
80.7699008
21
5.0972652
0
LINE
8
0
10
80.7699008
20
5.0972652
11
81.7464915
21
19.0631619
0
LINE
8
0
10
81.7464915
20
19.0631619
11
67.7805948
21
20.0397526
0
LINE
8
0
10
67.7805948
20
20.0397526
11
66.8040041
21
6.0738559
0
LINE
8
0
10
68.1293771
20
25.0275728
11
82.0952738
21
24.0509821
0
LINE
8
0
10
82.0952738
20
24.0509821
11
83.0718645
21
38.0168788
0
LINE
8
0
10
83.0718645
20
38.0168788
11
69.1059678
21
38.9934695
0
LINE
8
0
10
69.1059678
20
38.9934695
11
68.1293771
21
25.0275728
0
LINE
8
0
10
69.45475
20
43.9812898
11
83.4206467
21
43.0046991
0
LINE
8
0
10
83.4206467
20
43.0046991
11
84.3972374
21
56.9705958
0
LINE
8
0
10
84.3972374
20
56.9705958
11
70.4313407
21
57.9471865
0
LINE
8
0
10
70.4313407
20
57.9471865
11
69.45475
21
43.9812898
0
LINE
8
0
10
85.6251836
20
2.8531111
11
99.5910803
21
1.8765204
0
LINE
8
0
10
99.5910803
20
1.8765204
11
100.567671
21
15.8424171
0
LINE
8
0
10
100.567671
20
15.8424171
11
86.6017743
21
16.8190078
0
LINE
8
0
10
86.6017743
20
16.8190078
11
85.6251836
21
2.8531111
0
LINE
8
0
10
86.9505567
20
21.8068281
11
100.9164534
21
20.8302374
0
LINE
8
0
10
100.9164534
20
20.8302374
11
101.8930441
21
34.7961341
0
LINE
8
0
10
101.8930441
20
34.7961341
11
87.9271474
21
35.7727248
0
LINE
8
0
10
87.9271474
20
35.7727248
11
86.9505567
21
21.8068281
0
LINE
8
0
10
88.2759298
20
40.7605451
11
102.2418265
21
39.7839544
0
LINE
8
0
10
102.2418265
20
39.7839544
11
103.2184172
21
53.7498511
0
LINE
8
0
10
103.2184172
20
53.7498511
11
89.2525205
21
54.7264418
0
LINE
8
0
10
89.2525205
20
54.7264418
11
88.2759298
21
40.7605451
0
LINE
8
0
10
78.4080894
20
-21.6304933
11
92.2357261
21
-23.8205758
0
LINE
8
0
10
92.2357261
20
-23.8205758
11
94.4258086
21
-9.9929391
0
LINE
8
0
10
94.4258086
20
-9.9929391
11
80.5981719
21
-7.8028566
0
LINE
8
0
10
80.5981719
20
-7.8028566
11
78.4080894
21
-21.6304933
0
LINE
8
0
10
98.336347
20
-25.921188
11
110.5810229
21
-32.7085227
0
LINE
8
0
10
110.5810229
20
-32.7085227
11
117.3683576
21
-20.4638468
0
LINE
8
0
10
117.3683576
20
-20.4638468
11
105.1236817
21
-13.6765121
0
LINE
8
0
10
105.1236817
20
-13.6765121
11
98.336347
21
-25.921188
0
LINE
8
0
10
115.5952794
20
-36.7689876
11
124.7801058
21
-47.3349218
0
LINE
8
0
10
124.7801058
20
-47.3349218
11
135.34604
21
-38.1500954
0
LINE
8
0
10
135.34604
20
-38.1500954
11
126.1612136
21
-27.5841612
0
LINE
8
0
10
126.1612136
20
-27.5841612
11
115.5952794
21
-36.7689876
0
LINE
8
0
10
112.4509035
20
7.8959407
11
125.1328893
21
0.8662012
0
CIRCLE
8
0
10
21.7048748
20
49.1547918
40
1.1
0
CIRCLE
8
0
10
1.7198748
20
4.8647918
40
1.1
0
CIRCLE
8
0
10
85.6748748
20
39.3647918
40
1.1
0
CIRCLE
8
0
10
83.6748748
20
-2.1952082
40
1.1
0
CIRCLE
8
0
10
128.2848748
20
-21.3952082
40
1.1
0
LINE
8
0
10
103.6758494
20
-7.934676
11
116.3578352
21
-14.9644155
0
LINE
8
0
10
116.3578352
20
-14.9644155
11
125.1328893
21
0.8662012
0
LINE
8
0
10
112.4509035
20
7.8959407
11
103.6758494
21
-7.934676
0
ENDSEC
0
EOF