0
SECTION
2
HEADER
9
$INSUNITS
70
4
0
ENDSEC
0
SECTION
2
TABLES
0
TABLE
2
LTYPE
0
LTYPE
72
65
70
64
2
CONTINUOUS
3
______
73
0
40
0
0
ENDTAB
0
TABLE
2
LAYER
0
ENDTAB
0
ENDSEC
0
SECTION
2
ENTITIES
0
LINE
8
0
10
-18.8793456
20
45.4805594
11
-9.7572269
21
46.7625896
0
LINE
8
0
10
-18.9557534
20
38.8389321
11
-19.7304406
21
44.3511182
0
LINE
8
0
10
24.8952585
20
63.1536076
11
44.8952585
21
63.1536076
0
LINE
8
0
10
45.8952585
20
62.1536076
11
45.8952585
21
61.6355547
0
LINE
8
0
10
23.8952585
20
60.0716187
11
23.8952585
21
62.1536076
0
LINE
8
0
10
46.825502
20
60.6379906
11
65.44482
21
59.3360011
0
LINE
8
0
10
66.3726275
20
58.2686805
11
66.323798
21
57.5703858
0
LINE
8
0
10
83.6940895
20
19.2653863
11
83.4150635
21
15.2751302
0
LINE
8
0
10
82.9485019
20
8.6029886
11
83.4150635
21
15.2751302
0
LINE
8
0
10
84.6706801
20
33.231283
11
85.4031231
21
43.7057056
0
LINE
8
0
10
84.6706801
20
33.231283
11
84.1475065
21
25.7495528
0
LINE
8
0
10
84.1475065
20
25.7495528
11
83.6940895
21
19.2653863
0
LINE
8
0
10
67.2516055
20
56.5030652
11
85.2077586
21
55.2474486
0
LINE
8
0
10
86.1355661
20
54.180128
11
85.4031231
21
43.7057056
0
ARC
8
0
10
85.1380021
20
54.2498845
40
1
50
355.9999983
51
85.9999987
0
ARC
8
0
10
67.321362
20
57.5006293
40
1
50
175.9999983
51
265.9999987
0
ARC
8
0
10
65.3750635
20
58.338437
40
1
50
355.9999983
51
85.9999987
0
ARC
8
0
10
46.8952585
20
61.6355547
40
1
50
180
51
265.9999987
0
ARC
8
0
10
44.8952585
20
62.1536076
40
1
50
0
51
90
0
ARC
8
0
10
24.8952585
20
62.1536076
40
1
50
90
51
180
0
ARC
8
0
10
-18.7401725
20
44.4902913
40
1
50
97.9999997
51
187.9999997
0
LINE
8
0
10
108.8751237
20
-7.1167644
11
117.8670534
21
-31.8895284
0
LINE
8
0
10
116.8899743
20
-37.7126213
11
111.248606
21
-44.6791309
0
LINE
8
0
10
104.0988
20
-46.3635362
11
63.4029336
21
-27.8284254
0
LINE
8
0
10
62.1459423
20
-27.4161684
11
-8.4876918
21
-12.6228462
0
LINE
8
0
10
-10.7771518
20
-11.6096681
11
-29.0781527
21
1.6447321
0
LINE
8
0
10
-31.2095116
20
4.4869783
11
-35.9953308
21
17.8936999
0
LINE
8
0
10
-34.3604293
20
24.3687629
11
-19.2767121
21
37.9567752
0
LINE
8
0
10
-9.2270906
20
47.0098739
11
1.783039
21
56.9282364
0
LINE
8
0
10
5.5894983
20
58.4666787
11
22.930158
21
59.0722279
0
LINE
8
0
10
83.4916791
20
7.6424277
11
87.4195086
21
5.6388969
0
LINE
8
0
10
105.034973
20
-3.346505
11
105.9614902
21
-3.8191085
0
ARC
8
0
10
112.2270984
20
-33.936699
40
6
50
321.000001
51
19.9497028
0
ARC
8
0
10
106.5857302
20
-40.9032085
40
6
50
245.5128999
51
320.9999995
0
ARC
8
0
10
60.9160034
20
-33.2887531
40
6
50
65.5128999
51
78.1710979
0
ARC
8
0
10
-7.257753
20
-6.7502615
40
6
50
234.0862696
51
258.1710979
0
ARC
8
0
10
-25.5587537
20
6.5041387
40
6
50
199.6451237
51
234.0862677
0
ARC
8
0
10
-30.3445729
20
19.9108602
40
6
50
132.0137863
51
199.645123
0
ARC
8
0
10
5.7988953
20
52.4703337
40
6
50
92.0000002
51
132.0137863
0
ARC
8
0
10
103.2351687
20
-9.1639351
40
6
50
19.9497039
51
62.9745058
0
ARC
8
0
10
-9.8964
20
47.7528577
40
1
50
277.9999997
51
312.0137863
0
ARC
8
0
10
22.8952585
20
60.0716187
40
1
50
272.0000002
51
0
0
ARC
8
0
10
83.946066
20
8.5332321
40
1
50
175.9999987
51
242.9745058
0
ARC
8
0
10
105.4893599
20
-2.4557006
40
1
50
234.4630415
51
242.9745058
0
ARC
8
0
10
107.9351312
20
-7.4579595
40
1
50
19.9497028
51
19.9497039
0
ARC
8
0
10
110.47146
20
-44.0498105
40
1
50
320.9999995
51
321.000001
0
ARC
8
0
10
104.5132884
20
-45.4534816
40
1
50
245.5128974
51
245.5128999
0
ARC
8
0
10
62.9884452
20
-28.73848
40
1
50
65.5128974
51
65.5128999
0
ARC
8
0
10
-10.1905853
20
-10.799767
40
1
50
234.0862677
51
234.0862696
0
ARC
8
0
10
-35.0535378
20
18.2298933
40
1
50
199.645123
51
199.6451237
0
ARC
8
0
10
-19.9460215
20
38.699759
40
1
50
312.0137863
51
7.9999997
0
LINE
8
0
10
82.7093261
20
-9.8575331
11
96.9606353
21
-16.2026248
0
LINE
8
0
10
99.6011994
20
-15.189007
11
104.9081319
21
-3.2694414
0
LINE
8
0
10
87.4195086
20
5.6388969
11
81.6957083
21
-7.216969
0
ARC
8
0
10
97.7741085
20
-14.3755338
40
2
50
246.0000032
51
336.0000032
0
ARC
8
0
10
83.5227993
20
-8.0304422
40
2
50
156.0000032
51
246.0000032
0
LINE
8
0
10
-9.1051159
20
-9.6961062
11
6.7391732
21
-7.4693366
0
ARC
8
0
10
6.6000001
20
-6.4790685
40
1
50
278
51
8
0
LINE
8
0
10
7.5902682
20
-6.3398954
11
5.5026717
21
8.5141256
0
ARC
8
0
10
4.5124036
20
8.3749525
40
1
50
8
51
98
0
LINE
8
0
10
4.3732305
20
9.3652206
11
-11.4710586
21
7.138451
0
ARC
8
0
10
-11.3318855
20
6.1481829
40
1
50
98
51
188
0
LINE
8
0
10
-12.3221536
20
6.0090098
11
-10.2345571
21
-8.8450112
0
ARC
8
0
10
-9.244289
20
-8.7058381
40
1
50
188
51
278
0
LINE
8
0
10
-11.6102317
20
8.128719
11
4.2340574
21
10.3554886
0
ARC
8
0
10
4.0948843
20
11.3457567
40
1
50
278
51
8
0
LINE
8
0
10
5.0851524
20
11.4849298
11
2.9975559
21
26.3389508
0
ARC
8
0
10
2.0072878
20
26.1997777
40
1
50
8
51
98
0
LINE
8
0
10
1.8681147
20
27.1900458
11
-13.9761744
21
24.9632762
0
ARC
8
0
10
-13.8370013
20
23.9730081
40
1
50
98
51
188
0
LINE
8
0
10
-14.8272694
20
23.833835
11
-12.7396729
21
8.979814
0
ARC
8
0
10
-11.7494048
20
9.1189871
40
1
50
188
51
278
0
LINE
8
0
10
-30.4253251
20
5.48443
11
-14.581036
21
7.7111996
0
ARC
8
0
10
-14.7202091
20
8.7014677
40
1
50
278
51
8
0
LINE
8
0
10
-13.729941
20
8.8406408
11
-15.8175375
21
23.6946618
0
ARC
8
0
10
-16.8078056
20
23.5554887
40
1
50
8
51
98
0
LINE
8
0
10
-16.9469787
20
24.5457568
11
-32.7912678
21
22.3189872
0
ARC
8
0
10
-32.6520947
20
21.3287191
40
1
50
98
51
188
0
LINE
8
0
10
-33.6423628
20
21.189546
11
-31.5547663
21
6.335525
0
ARC
8
0
10
-30.5644982
20
6.4746981
40
1
50
188
51
278
0
LINE
8
0
10
8.1134873
20
3.8214762
11
24.1037405
21
4.3798681
0
ARC
8
0
10
24.068841
20
5.379259
40
1
50
272
51
2
0
LINE
8
0
10
25.0682319
20
5.4141585
11
24.5447394
21
20.4050209
0
ARC
8
0
10
23.5453486
20
20.3701214
40
1
50
2
51
92
0
LINE
8
0
10
23.5104491
20
21.3695122
11
7.5201959
21
20.8111203
0
ARC
8
0
10
7.5550954
20
19.8117294
40
1
50
92
51
182
0
LINE
8
0
10
6.5557045
20
19.7768299
11
7.079197
21
4.7859675
0
ARC
8
0
10
8.0785878
20
4.820867
40
1
50
182
51
272
0
LINE
8
0
10
7.4852963
20
21.810511
11
23.4755495
21
22.3689029
0
ARC
8
0
10
23.44065
20
23.3682938
40
1
50
272
51
2
0
LINE
8
0
10
24.4400409
20
23.4031933
11
23.9165484
21
38.3940557
0
ARC
8
0
10
22.9171576
20
38.3591562
40
1
50
2
51
92
0
LINE
8
0
10
22.8822581
20
39.358547
11
6.8920049
21
38.8001551
0
ARC
8
0
10
6.9269044
20
37.8007642
40
1
50
92
51
182
0
LINE
8
0
10
5.9275135
20
37.7658647
11
6.451006
21
22.7750023
0
ARC
8
0
10
7.4503968
20
22.8099018
40
1
50
182
51
272
0
LINE
8
0
10
6.8571054
20
39.799546
11
22.8473586
21
40.3579379
0
ARC
8
0
10
22.8124591
20
41.3573288
40
1
50
272
51
2
0
LINE
8
0
10
23.81185
20
41.3922283
11
23.2883575
21
56.3830907
0
ARC
8
0
10
22.2889667
20
56.3481912
40
1
50
2
51
92
0
LINE
8
0
10
22.2540672
20
57.347582
11
6.263814
21
56.7891901
0
ARC
8
0
10
6.2987135
20
55.7897992
40
1
50
92
51
182
0
LINE
8
0
10
5.2993226
20
55.7548997
11
5.8228151
21
40.7640373
0
ARC
8
0
10
6.8222059
20
40.7989368
40
1
50
182
51
272
0
LINE
8
0
10
26.8952585
20
8.1536076
11
42.8952585
21
8.1536076
0
ARC
8
0
10
42.8952585
20
9.1536076
40
1
50
270
51
360
0
LINE
8
0
10
43.8952585
20
9.1536076
11
43.8952585
21
24.1536076
0
ARC
8
0
10
42.8952585
20
24.1536076
40
1
50
0
51
90
0
LINE
8
0
10
42.8952585
20
25.1536076
11
26.8952585
21
25.1536076
0
ARC
8
0
10
26.8952585
20
24.1536076
40
1
50
90
51
180
0
LINE
8
0
10
25.8952585
20
24.1536076
11
25.8952585
21
9.1536076
0
ARC
8
0
10
26.8952585
20
9.1536076
40
1
50
180
51
270
0
LINE
8
0
10
26.8952586
20
26.1536076
11
42.8952586
21
26.1536076
0
ARC
8
0
10
42.8952586
20
27.1536076
40
1
50
270
51
360
0
LINE
8
0
10
43.8952586
20
27.1536076
11
43.8952586
21
42.1536076
0
ARC
8
0
10
42.8952586
20
42.1536076
40
1
50
0
51
90
0
LINE
8
0
10
42.8952586
20
43.1536076
11
26.8952586
21
43.1536076
0
ARC
8
0
10
26.8952586
20
42.1536076
40
1
50
90
51
180
0
LINE
8
0
10
25.8952586
20
42.1536076
11
25.8952586
21
27.1536076
0
ARC
8
0
10
26.8952586
20
27.1536076
40
1
50
180
51
270
0
LINE
8
0
10
26.8952585
20
44.1536076
11
42.8952585
21
44.1536076
0
ARC
8
0
10
42.8952585
20
45.1536076
40
1
50
270
51
360
0
LINE
8
0
10
43.8952585
20
45.1536076
11
43.8952585
21
60.1536076
0
ARC
8
0
10
42.8952585
20
60.1536076
40
1
50
0
51
90
0
LINE
8
0
10
42.8952585
20
61.1536076
11
26.8952585
21
61.1536076
0
ARC
8
0
10
26.8952585
20
60.1536076
40
1
50
90
51
180
0
LINE
8
0
10
25.8952585
20
60.1536076
11
25.8952585
21
45.1536076
0
ARC
8
0
10
26.8952585
20
45.1536076
40
1
50
180
51
270
0
LINE
8
0
10
45.5076761
20
3.5909538
11
61.4687009
21
2.4748502
0
ARC
8
0
10
61.5384573
20
3.4724142
40
1
50
266
51
356
0
LINE
8
0
10
62.5360214
20
3.4026578
11
63.5823685
21
18.3661185
0
ARC
8
0
10
62.5848045
20
18.435875
40
1
50
356
51
86
0
LINE
8
0
10
62.6545609
20
19.433439
11
46.6935361
21
20.5495426
0
ARC
8
0
10
46.6237797
20
19.5519786
40
1
50
86
51
176
0
LINE
8
0
10
45.6262156
20
19.621735
11
44.5798685
21
4.6582743
0
ARC
8
0
10
45.5774325
20
4.5885178
40
1
50
176
51
266
0
LINE
8
0
10
46.7632927
20
21.5471068
11
62.7243175
21
20.4310032
0
ARC
8
0
10
62.7940739
20
21.4285672
40
1
50
266
51
356
0
LINE
8
0
10
63.791638
20
21.3588108
11
64.8379851
21
36.3222715
0
ARC
8
0
10
63.8404211
20
36.392028
40
1
50
356
51
86
0
LINE
8
0
10
63.9101775
20
37.389592
11
47.9491527
21
38.5056956
0
ARC
8
0
10
47.8793963
20
37.5081316
40
1
50
86
51
176
0
LINE
8
0
10
46.8818322
20
37.577888
11
45.8354851
21
22.6144273
0
ARC
8
0
10
46.8330491
20
22.5446708
40
1
50
176
51
266
0
LINE
8
0
10
48.0189092
20
39.5032596
11
63.979934
21
38.387156
0
ARC
8
0
10
64.0496904
20
39.38472
40
1
50
266
51
356
0
LINE
8
0
10
65.0472545
20
39.3149636
11
66.0936016
21
54.2784243
0
ARC
8
0
10
65.0960376
20
54.3481808
40
1
50
356
51
86
0
LINE
8
0
10
65.165794
20
55.3457448
11
49.2047692
21
56.4618484
0
ARC
8
0
10
49.1350128
20
55.4642844
40
1
50
86
51
176
0
LINE
8
0
10
48.1374487
20
55.5340408
11
47.0911016
21
40.5705801
0
ARC
8
0
10
48.0886656
20
40.5008236
40
1
50
176
51
266
0
LINE
8
0
10
64.3428071
20
0.5697219
11
80.3038319
21
-0.5463817
0
ARC
8
0
10
80.3735883
20
0.4511823
40
1
50
266
51
356
0
LINE
8
0
10
81.3711524
20
0.3814259
11
82.4174995
21
15.3448866
0
ARC
8
0
10
81.4199355
20
15.4146431
40
1
50
356
51
86
0
LINE
8
0
10
81.4896919
20
16.4122071
11
65.5286671
21
17.5283107
0
ARC
8
0
10
65.4589107
20
16.5307467
40
1
50
86
51
176
0
LINE
8
0
10
64.4613466
20
16.6005031
11
63.4149995
21
1.6370424
0
ARC
8
0
10
64.4125635
20
1.5672859
40
1
50
176
51
266
0
LINE
8
0
10
65.5984236
20
18.5258749
11
81.5594484
21
17.4097713
0
ARC
8
0
10
81.6292048
20
18.4073353
40
1
50
266
51
356
0
LINE
8
0
10
82.6267689
20
18.3375789
11
83.673116
21
33.3010396
0
ARC
8
0
10
82.675552
20
33.3707961
40
1
50
356
51
86
0
LINE
8
0
10
82.7453084
20
34.3683601
11
66.7842836
21
35.4844637
0
ARC
8
0
10
66.7145272
20
34.4868997
40
1
50
86
51
176
0
LINE
8
0
10
65.7169631
20
34.5566561
11
64.670616
21
19.5931954
0
ARC
8
0
10
65.66818
20
19.5234389
40
1
50
176
51
266
0
LINE
8
0
10
66.8540402
20
36.4820277
11
82.815065
21
35.3659241
0
ARC
8
0
10
82.8848214
20
36.3634881
40
1
50
266
51
356
0
LINE
8
0
10
83.8823855
20
36.2937317
11
84.9287326
21
51.2571924
0
ARC
8
0
10
83.9311686
20
51.3269489
40
1
50
356
51
86
0
LINE
8
0
10
84.000925
20
52.3245129
11
68.0399002
21
53.4406165
0
ARC
8
0
10
67.9701438
20
52.4430525
40
1
50
86
51
176
0
LINE
8
0
10
66.9725797
20
52.5128089
11
65.9262326
21
37.5493482
0
ARC
8
0
10
66.9237966
20
37.4795917
40
1
50
176
51
266
0
LINE
8
0
10
54.3070135
20
-23.6260718
11
70.110027
21
-26.1290232
0
ARC
8
0
10
70.2664614
20
-25.1413349
40
1
50
261
51
351
0
LINE
8
0
10
71.2541498
20
-25.2977693
11
73.6006668
21
-10.4824442
0
ARC
8
0
10
72.6129784
20
-10.3260098
40
1
50
351
51
81
0
LINE
8
0
10
72.7694129
20
-9.3383214
11
56.9663994
21
-6.83537
0
ARC
8
0
10
56.809965
20
-7.8230583
40
1
50
81
51
171
0
LINE
8
0
10
55.8222766
20
-7.6666239
11
53.4757596
21
-22.481949
0
ARC
8
0
10
54.463448
20
-22.6383834
40
1
50
171
51
261
0
LINE
8
0
10
74.7010039
20
-27.3528003
11
89.3177312
21
-33.8605866
0
ARC
8
0
10
89.7244678
20
-32.9470412
40
1
50
246
51
336
0
LINE
8
0
10
90.6380133
20
-33.3537778
11
96.7390629
21
-19.650596
0
ARC
8
0
10
95.8255175
20
-19.2438593
40
1
50
336
51
66
0
LINE
8
0
10
96.2322541
20
-18.3303139
11
81.6155268
21
-11.8225276
0
ARC
8
0
10
81.2087902
20
-12.736073
40
1
50
66
51
156
0
LINE
8
0
10
80.2952447
20
-12.3293364
11
74.1941951
21
-26.0325182
0
ARC
8
0
10
75.1077405
20
-26.4392549
40
1
50
156
51
246
0
LINE
8
0
10
93.4355377
20
-36.2308969
11
105.8698731
21
-46.3000232
0
ARC
8
0
10
106.4991935
20
-45.5228772
40
1
50
231
51
321
0
LINE
8
0
10
107.2763394
20
-46.1521976
11
116.7161453
21
-34.4950082
0
ARC
8
0
10
115.9389993
20
-33.8656878
40
1
50
321
51
51
0
LINE
8
0
10
116.5683197
20
-33.0885419
11
104.1339843
21
-23.0194156
0
ARC
8
0
10
103.5046639
20
-23.7965616
40
1
50
51
51
141
0
LINE
8
0
10
102.727518
20
-23.1672412
11
93.2877121
21
-34.8244306
0
ARC
8
0
10
94.0648581
20
-35.453751
40
1
50
141
51
231
0
LINE
8
0
10
83.1367219
20
-8.4058675
11
97.7534492
21
-14.9136538
0
ARC
8
0
10
98.1601858
20
-14.0001084
40
1
50
246
51
336
0
LINE
8
0
10
99.0737313
20
-14.406845
11
105.1747809
21
-0.7036632
0
ARC
8
0
10
104.2612355
20
-0.2969265
40
1
50
336
51
66
0
LINE
8
0
10
104.6679721
20
0.6166189
11
90.0512448
21
7.1244052
0
ARC
8
0
10
89.6445082
20
6.2108598
40
1
50
66
51
156
0
LINE
8
0
10
88.7309627
20
6.6175964
11
82.6299131
21
-7.0855854
0
ARC
8
0
10
83.5434585
20
-7.4923221
40
1
50
156
51
246
0
ENDSEC
0
EOF