0
SECTION
2
HEADER
9
$INSUNITS
70
4
0
ENDSEC
0
SECTION
2
TABLES
0
TABLE
2
LTYPE
0
LTYPE
72
65
70
64
2
CONTINUOUS
3
______
73
0
40
0
0
ENDTAB
0
TABLE
2
LAYER
0
ENDTAB
0
ENDSEC
0
SECTION
2
ENTITIES
0
LINE
8
0
10
-22.128496
20
47.0435763
11
-8.7510133
21
48.9236589
0
LINE
8
0
10
-21.7270225
20
37.0016472
11
-22.979591
21
45.9141351
0
LINE
8
0
10
24.8952585
20
63.1536076
11
44.8952585
21
63.1536076
0
LINE
8
0
10
45.8952585
20
62.1536076
11
45.8952585
21
62.0365315
0
LINE
8
0
10
23.8952585
20
61.7726549
11
23.8952585
21
62.1536076
0
LINE
8
0
10
46.825502
20
61.0389674
11
65.4727226
21
59.7350267
0
LINE
8
0
10
66.4005301
20
58.6677061
11
66.323798
21
57.5703858
0
LINE
8
0
10
83.6940895
20
19.2653863
11
83.4150635
21
15.2751302
0
LINE
8
0
10
82.9485019
20
8.6029886
11
83.4150635
21
15.2751302
0
LINE
8
0
10
84.6706801
20
33.231283
11
85.4031231
21
43.7057056
0
LINE
8
0
10
84.6706801
20
33.231283
11
84.1475065
21
25.7495528
0
LINE
8
0
10
84.1475065
20
25.7495528
11
83.6940895
21
19.2653863
0
LINE
8
0
10
67.2516055
20
56.5030652
11
85.2077586
21
55.2474486
0
LINE
8
0
10
86.1355661
20
54.180128
11
85.4031231
21
43.7057056
0
ARC
8
0
10
85.1380021
20
54.2498845
40
1
50
355.9999983
51
85.9999987
0
ARC
8
0
10
67.321362
20
57.5006293
40
1
50
175.9999983
51
265.9999987
0
ARC
8
0
10
65.4029661
20
58.7374626
40
1
50
355.9999983
51
85.9999987
0
ARC
8
0
10
46.8952585
20
62.0365315
40
1
50
180
51
265.9999987
0
ARC
8
0
10
44.8952585
20
62.1536076
40
1
50
0
51
90
0
ARC
8
0
10
24.8952585
20
62.1536076
40
1
50
90
51
180
0
ARC
8
0
10
-21.9893229
20
46.0533082
40
1
50
97.9999997
51
187.9999997
0
LINE
8
0
10
109.6292186
20
-9.6969172
11
117.2736601
21
-33.218747
0
LINE
8
0
10
116.359258
20
-38.68412
11
111.0323747
21
-45.7531329
0
LINE
8
0
10
103.526689
20
-47.4934011
11
64.1872408
21
-27.5421573
0
LINE
8
0
10
62.5863772
20
-26.9974518
11
-8.1931259
21
-13.6358467
0
LINE
8
0
10
-10.7331343
20
-12.4997584
11
-29.1811909
21
1.6586974
0
LINE
8
0
10
-31.1789314
20
4.4013126
11
-36.029069
21
17.9882122
0
LINE
8
0
10
-34.4968046
20
24.3686293
11
-22.030875
21
36.1352646
0
LINE
8
0
10
-8.2037708
20
49.1867175
11
1.7004282
21
58.5353261
0
LINE
8
0
10
5.6095247
20
60.1684142
11
22.930158
21
60.7732641
0
LINE
8
0
10
83.4916791
20
7.6424277
11
88.0729627
21
5.305579
0
ARC
8
0
10
111.5674449
20
-35.07323
40
6
50
323.0000007
51
18.0038255
0
ARC
8
0
10
106.2405616
20
-42.1422428
40
6
50
243.1078765
51
323.0000005
0
ARC
8
0
10
61.4733682
20
-32.8933157
40
6
50
63.1078765
51
79.3096279
0
ARC
8
0
10
-7.0801169
20
-7.7399828
40
6
50
232.4945977
51
259.3096279
0
ARC
8
0
10
-25.5281735
20
6.418473
40
6
50
199.6451237
51
232.4945973
0
ARC
8
0
10
-30.3783111
20
20.0053724
40
6
50
133.3470371
51
199.645123
0
ARC
8
0
10
5.8189217
20
54.1720692
40
6
50
92.0000002
51
133.3470371
0
ARC
8
0
10
-8.8901864
20
49.913927
40
1
50
277.9999997
51
313.3470371
0
ARC
8
0
10
22.8952585
20
61.7726549
40
1
50
272.0000002
51
0
0
ARC
8
0
10
83.946066
20
8.5332321
40
1
50
175.9999987
51
242.9745058
0
ARC
8
0
10
88.5273496
20
6.1963834
40
1
50
242.9745058
51
248.0000059
0
ARC
8
0
10
110.2337392
20
-45.1513179
40
1
50
323.0000005
51
323.0000007
0
ARC
8
0
10
-28.5723547
20
2.4519933
40
1
50
232.4945973
51
232.4945977
0
ARC
8
0
10
-35.087276
20
18.3244055
40
1
50
199.645123
51
199.6451237
0
ARC
8
0
10
-22.7172906
20
36.8624741
40
1
50
313.3470371
51
7.9999997
0
LINE
8
0
10
83.9080987
20
-10.5755983
11
95.9614888
21
-15.445484
0
LINE
8
0
10
98.5650697
20
-14.3403295
11
101.7304954
21
-6.5056259
0
LINE
8
0
10
88.1527431
20
5.2691995
11
82.8029442
21
-7.9720174
0
ARC
8
0
10
96.710702
20
-13.5911163
40
2
50
248.0000006
51
338.0000006
0
ARC
8
0
10
84.6573119
20
-8.7212306
40
2
50
158.0000006
51
248.0000006
0
LINE
8
0
10
101.7304954
20
-6.5056259
11
109.6292186
21
-9.6969172
0
LINE
8
0
10
-14.3883408
20
27.1774621
11
3.2879442
21
29.661702
0
LINE
8
0
10
3.2879442
20
29.661702
11
1.2699343
21
44.0205889
0
LINE
8
0
10
1.2699343
20
44.0205889
11
-16.4063508
21
41.5363491
0
LINE
8
0
10
-16.4063508
20
41.5363491
11
-14.3883408
21
27.1774621
0
LINE
8
0
10
-9.1051159
20
-9.6961062
11
6.7391732
21
-7.4693366
0
ARC
8
0
10
6.6000001
20
-6.4790685
40
1
50
278
51
8
0
LINE
8
0
10
7.5902682
20
-6.3398954
11
5.5026717
21
8.5141256
0
ARC
8
0
10
4.5124036
20
8.3749525
40
1
50
8
51
98
0
LINE
8
0
10
4.3732305
20
9.3652206
11
-11.4710586
21
7.138451
0
ARC
8
0
10
-11.3318855
20
6.1481829
40
1
50
98
51
188
0
LINE
8
0
10
-12.3221536
20
6.0090098
11
-10.2345571
21
-8.8450112
0
ARC
8
0
10
-9.244289
20
-8.7058381
40
1
50
188
51
278
0
LINE
8
0
10
-11.6102317
20
8.128719
11
4.2340574
21
10.3554886
0
ARC
8
0
10
4.0948843
20
11.3457567
40
1
50
278
51
8
0
LINE
8
0
10
5.0851524
20
11.4849298
11
2.9975559
21
26.3389508
0
ARC
8
0
10
2.0072878
20
26.1997777
40
1
50
8
51
98
0
LINE
8
0
10
1.8681147
20
27.1900458
11
-13.9761744
21
24.9632762
0
ARC
8
0
10
-13.8370013
20
23.9730081
40
1
50
98
51
188
0
LINE
8
0
10
-14.8272694
20
23.833835
11
-12.7396729
21
8.979814
0
ARC
8
0
10
-11.7494048
20
9.1189871
40
1
50
188
51
278
0
LINE
8
0
10
-30.4253251
20
5.48443
11
-14.581036
21
7.7111996
0
ARC
8
0
10
-14.7202091
20
8.7014677
40
1
50
278
51
8
0
LINE
8
0
10
-13.729941
20
8.8406408
11
-15.8175375
21
23.6946618
0
ARC
8
0
10
-16.8078056
20
23.5554887
40
1
50
8
51
98
0
LINE
8
0
10
-16.9469787
20
24.5457568
11
-32.7912678
21
22.3189872
0
ARC
8
0
10
-32.6520947
20
21.3287191
40
1
50
98
51
188
0
LINE
8
0
10
-33.6423628
20
21.189546
11
-31.5547663
21
6.335525
0
ARC
8
0
10
-30.5644982
20
6.4746981
40
1
50
188
51
278
0
LINE
8
0
10
-14.1153476
20
25.9535443
11
1.7289415
21
28.1803139
0
ARC
8
0
10
1.5897684
20
29.170582
40
1
50
278
51
8
0
LINE
8
0
10
2.5800365
20
29.3097551
11
0.49244
21
44.1637761
0
ARC
8
0
10
-0.4978281
20
44.024603
40
1
50
8
51
98
0
LINE
8
0
10
-0.6370012
20
45.0148711
11
-16.4812903
21
42.7881015
0
ARC
8
0
10
-16.3421172
20
41.7978334
40
1
50
98
51
188
0
LINE
8
0
10
-17.3323853
20
41.6586603
11
-15.2447888
21
26.8046393
0
ARC
8
0
10
-14.2545207
20
26.9438124
40
1
50
188
51
278
0
LINE
8
0
10
8.1134873
20
3.8214762
11
24.1037405
21
4.3798681
0
ARC
8
0
10
24.068841
20
5.379259
40
1
50
272
51
2
0
LINE
8
0
10
25.0682319
20
5.4141585
11
24.5447394
21
20.4050209
0
ARC
8
0
10
23.5453486
20
20.3701214
40
1
50
2
51
92
0
LINE
8
0
10
23.5104491
20
21.3695122
11
7.5201959
21
20.8111203
0
ARC
8
0
10
7.5550954
20
19.8117294
40
1
50
92
51
182
0
LINE
8
0
10
6.5557045
20
19.7768299
11
7.079197
21
4.7859675
0
ARC
8
0
10
8.0785878
20
4.820867
40
1
50
182
51
272
0
LINE
8
0
10
7.4852963
20
21.810511
11
23.4755495
21
22.3689029
0
ARC
8
0
10
23.44065
20
23.3682938
40
1
50
272
51
2
0
LINE
8
0
10
24.4400409
20
23.4031933
11
23.9165484
21
38.3940557
0
ARC
8
0
10
22.9171576
20
38.3591562
40
1
50
2
51
92
0
LINE
8
0
10
22.8822581
20
39.358547
11
6.8920049
21
38.8001551
0
ARC
8
0
10
6.9269044
20
37.8007642
40
1
50
92
51
182
0
LINE
8
0
10
5.9275135
20
37.7658647
11
6.451006
21
22.7750023
0
ARC
8
0
10
7.4503968
20
22.8099018
40
1
50
182
51
272
0
LINE
8
0
10
6.8571054
20
39.799546
11
22.8473586
21
40.3579379
0
ARC
8
0
10
22.8124591
20
41.3573288
40
1
50
272
51
2
0
LINE
8
0
10
23.81185
20
41.3922283
11
23.2883575
21
56.3830907
0
ARC
8
0
10
22.2889667
20
56.3481912
40
1
50
2
51
92
0
LINE
8
0
10
22.2540672
20
57.347582
11
6.263814
21
56.7891901
0
ARC
8
0
10
6.2987135
20
55.7897992
40
1
50
92
51
182
0
LINE
8
0
10
5.2993226
20
55.7548997
11
5.8228151
21
40.7640373
0
ARC
8
0
10
6.8222059
20
40.7989368
40
1
50
182
51
272
0
LINE
8
0
10
26.8952585
20
8.1536076
11
42.8952585
21
8.1536076
0
ARC
8
0
10
42.8952585
20
9.1536076
40
1
50
270
51
360
0
LINE
8
0
10
43.8952585
20
9.1536076
11
43.8952585
21
24.1536076
0
ARC
8
0
10
42.8952585
20
24.1536076
40
1
50
0
51
90
0
LINE
8
0
10
42.8952585
20
25.1536076
11
26.8952585
21
25.1536076
0
ARC
8
0
10
26.8952585
20
24.1536076
40
1
50
90
51
180
0
LINE
8
0
10
25.8952585
20
24.1536076
11
25.8952585
21
9.1536076
0
ARC
8
0
10
26.8952585
20
9.1536076
40
1
50
180
51
270
0
LINE
8
0
10
26.8952586
20
26.1536076
11
42.8952586
21
26.1536076
0
ARC
8
0
10
42.8952586
20
27.1536076
40
1
50
270
51
360
0
LINE
8
0
10
43.8952586
20
27.1536076
11
43.8952586
21
42.1536076
0
ARC
8
0
10
42.8952586
20
42.1536076
40
1
50
0
51
90
0
LINE
8
0
10
42.8952586
20
43.1536076
11
26.8952586
21
43.1536076
0
ARC
8
0
10
26.8952586
20
42.1536076
40
1
50
90
51
180
0
LINE
8
0
10
25.8952586
20
42.1536076
11
25.8952586
21
27.1536076
0
ARC
8
0
10
26.8952586
20
27.1536076
40
1
50
180
51
270
0
LINE
8
0
10
26.8952585
20
44.1536076
11
42.8952585
21
44.1536076
0
ARC
8
0
10
42.8952585
20
45.1536076
40
1
50
270
51
360
0
LINE
8
0
10
43.8952585
20
45.1536076
11
43.8952585
21
60.1536076
0
ARC
8
0
10
42.8952585
20
60.1536076
40
1
50
0
51
90
0
LINE
8
0
10
42.8952585
20
61.1536076
11
26.8952585
21
61.1536076
0
ARC
8
0
10
26.8952585
20
60.1536076
40
1
50
90
51
180
0
LINE
8
0
10
25.8952585
20
60.1536076
11
25.8952585
21
45.1536076
0
ARC
8
0
10
26.8952585
20
45.1536076
40
1
50
180
51
270
0
LINE
8
0
10
45.5076761
20
3.5909538
11
61.4687009
21
2.4748502
0
ARC
8
0
10
61.5384573
20
3.4724142
40
1
50
266
51
356
0
LINE
8
0
10
62.5360214
20
3.4026578
11
63.5823685
21
18.3661185
0
ARC
8
0
10
62.5848045
20
18.435875
40
1
50
356
51
86
0
LINE
8
0
10
62.6545609
20
19.433439
11
46.6935361
21
20.5495426
0
ARC
8
0
10
46.6237797
20
19.5519786
40
1
50
86
51
176
0
LINE
8
0
10
45.6262156
20
19.621735
11
44.5798685
21
4.6582743
0
ARC
8
0
10
45.5774325
20
4.5885178
40
1
50
176
51
266
0
LINE
8
0
10
46.7632927
20
21.5471068
11
62.7243175
21
20.4310032
0
ARC
8
0
10
62.7940739
20
21.4285672
40
1
50
266
51
356
0
LINE
8
0
10
63.791638
20
21.3588108
11
64.8379851
21
36.3222715
0
ARC
8
0
10
63.8404211
20
36.392028
40
1
50
356
51
86
0
LINE
8
0
10
63.9101775
20
37.389592
11
47.9491527
21
38.5056956
0
ARC
8
0
10
47.8793963
20
37.5081316
40
1
50
86
51
176
0
LINE
8
0
10
46.8818322
20
37.577888
11
45.8354851
21
22.6144273
0
ARC
8
0
10
46.8330491
20
22.5446708
40
1
50
176
51
266
0
LINE
8
0
10
48.0189092
20
39.5032596
11
63.979934
21
38.387156
0
ARC
8
0
10
64.0496904
20
39.38472
40
1
50
266
51
356
0
LINE
8
0
10
65.0472545
20
39.3149636
11
66.0936016
21
54.2784243
0
ARC
8
0
10
65.0960376
20
54.3481808
40
1
50
356
51
86
0
LINE
8
0
10
65.165794
20
55.3457448
11
49.2047692
21
56.4618484
0
ARC
8
0
10
49.1350128
20
55.4642844
40
1
50
86
51
176
0
LINE
8
0
10
48.1374487
20
55.5340408
11
47.0911016
21
40.5705801
0
ARC
8
0
10
48.0886656
20
40.5008236
40
1
50
176
51
266
0
LINE
8
0
10
64.3428071
20
0.5697219
11
80.3038319
21
-0.5463817
0
ARC
8
0
10
80.3735883
20
0.4511823
40
1
50
266
51
356
0
LINE
8
0
10
81.3711524
20
0.3814259
11
82.4174995
21
15.3448866
0
ARC
8
0
10
81.4199355
20
15.4146431
40
1
50
356
51
86
0
LINE
8
0
10
81.4896919
20
16.4122071
11
65.5286671
21
17.5283107
0
ARC
8
0
10
65.4589107
20
16.5307467
40
1
50
86
51
176
0
LINE
8
0
10
64.4613466
20
16.6005031
11
63.4149995
21
1.6370424
0
ARC
8
0
10
64.4125635
20
1.5672859
40
1
50
176
51
266
0
LINE
8
0
10
65.5984236
20
18.5258749
11
81.5594484
21
17.4097713
0
ARC
8
0
10
81.6292048
20
18.4073353
40
1
50
266
51
356
0
LINE
8
0
10
82.6267689
20
18.3375789
11
83.673116
21
33.3010396
0
ARC
8
0
10
82.675552
20
33.3707961
40
1
50
356
51
86
0
LINE
8
0
10
82.7453084
20
34.3683601
11
66.7842836
21
35.4844637
0
ARC
8
0
10
66.7145272
20
34.4868997
40
1
50
86
51
176
0
LINE
8
0
10
65.7169631
20
34.5566561
11
64.670616
21
19.5931954
0
ARC
8
0
10
65.66818
20
19.5234389
40
1
50
176
51
266
0
LINE
8
0
10
66.8540402
20
36.4820277
11
82.815065
21
35.3659241
0
ARC
8
0
10
82.8848214
20
36.3634881
40
1
50
266
51
356
0
LINE
8
0
10
83.8823855
20
36.2937317
11
84.9287326
21
51.2571924
0
ARC
8
0
10
83.9311686
20
51.3269489
40
1
50
356
51
86
0
LINE
8
0
10
84.000925
20
52.3245129
11
68.0399002
21
53.4406165
0
ARC
8
0
10
67.9701438
20
52.4430525
40
1
50
86
51
176
0
LINE
8
0
10
66.9725797
20
52.5128089
11
65.9262326
21
37.5493482
0
ARC
8
0
10
66.9237966
20
37.4795917
40
1
50
176
51
266
0
LINE
8
0
10
54.9070154
20
-22.6843928
11
70.7877538
21
-24.6343023
0
ARC
8
0
10
70.9096231
20
-23.6417562
40
1
50
263
51
353
0
LINE
8
0
10
71.9021693
20
-23.7636255
11
73.7302094
21
-8.8754333
0
ARC
8
0
10
72.7376633
20
-8.7535639
40
1
50
353
51
83
0
LINE
8
0
10
72.8595326
20
-7.7610178
11
56.9787942
21
-5.8111083
0
ARC
8
0
10
56.8569249
20
-6.8036544
40
1
50
83
51
173
0
LINE
8
0
10
55.8643787
20
-6.6817851
11
54.0363386
21
-21.5699773
0
ARC
8
0
10
55.0288847
20
-21.6918467
40
1
50
173
51
263
0
LINE
8
0
10
74.8303826
20
-27.9717464
11
89.6653243
21
-33.9654519
0
ARC
8
0
10
90.0399309
20
-33.0382681
40
1
50
248
51
338
0
LINE
8
0
10
90.9671147
20
-33.4128746
11
96.5862136
21
-19.5051168
0
ARC
8
0
10
95.6590298
20
-19.1305102
40
1
50
338
51
68
0
LINE
8
0
10
96.0336364
20
-18.2033264
11
81.1986947
21
-12.2096209
0
ARC
8
0
10
80.8240881
20
-13.1368047
40
1
50
68
51
158
0
LINE
8
0
10
79.8969043
20
-12.7621982
11
74.2778054
21
-26.669956
0
ARC
8
0
10
75.2049892
20
-27.0445626
40
1
50
158
51
248
0
LINE
8
0
10
92.7064097
20
-38.2354848
11
105.4845779
21
-47.8645251
0
ARC
8
0
10
106.0863929
20
-47.0658896
40
1
50
233
51
323
0
LINE
8
0
10
106.8850284
20
-47.6677046
11
115.9122538
21
-35.688172
0
ARC
8
0
10
115.1136183
20
-35.086357
40
1
50
323
51
53
0
LINE
8
0
10
115.7154333
20
-34.2877214
11
102.9372651
21
-24.6586811
0
ARC
8
0
10
102.3354501
20
-25.4573166
40
1
50
53
51
143
0
LINE
8
0
10
101.5368146
20
-24.8555016
11
92.5095892
21
-36.8350342
0
ARC
8
0
10
93.3082247
20
-37.4368492
40
1
50
143
51
233
0
LINE
8
0
10
85.1255701
20
-7.5622507
11
99.9605118
21
-13.5559562
0
ARC
8
0
10
100.3351184
20
-12.6287724
40
1
50
248
51
338
0
LINE
8
0
10
101.2623022
20
-13.0033789
11
106.8814011
21
0.9043789
0
ARC
8
0
10
105.9542173
20
1.2789855
40
1
50
338
51
68
0
LINE
8
0
10
106.3288239
20
2.2061693
11
91.4938822
21
8.1998748
0
ARC
8
0
10
91.1192756
20
7.272691
40
1
50
68
51
158
0
LINE
8
0
10
90.1920918
20
7.6472975
11
84.5729929
21
-6.2604603
0
ARC
8
0
10
85.5001767
20
-6.6350669
40
1
50
158
51
248
0
ENDSEC
0
EOF