0
SECTION
2
HEADER
9
$INSUNITS
70
4
0
ENDSEC
0
SECTION
2
TABLES
0
TABLE
2
LTYPE
0
LTYPE
72
65
70
64
2
CONTINUOUS
3
______
73
0
40
0
0
ENDTAB
0
TABLE
2
LAYER
0
ENDTAB
0
ENDSEC
0
SECTION
2
ENTITIES
0
LINE
8
0
10
-22.5540436
20
46.4788557
11
-8.7495368
21
48.4189526
0
LINE
8
0
10
-21.7486914
20
37.1558287
11
-22.9795911
21
45.9141352
0
LINE
8
0
10
23.905557
20
62.1365068
11
44.905557
21
62.1365068
0
LINE
8
0
10
45.405557
20
61.6365068
11
45.405557
21
60.5507312
0
LINE
8
0
10
23.405557
20
59.7892558
11
23.405557
21
61.6365068
0
LINE
8
0
10
45.8706788
20
60.0519492
11
65.4120467
21
58.6854836
0
LINE
8
0
10
65.8759505
20
58.1518234
11
65.7782914
21
56.7552338
0
LINE
8
0
10
85.139455
20
54.0888251
11
85.161034
21
54.3974186
0
LINE
8
0
10
66.2421951
20
56.2215736
11
84.6971302
21
54.9310788
0
ARC
8
0
10
84.662252
20
54.4322968
40
0.5
50
355.9999987
51
85.9999987
0
ARC
8
0
10
66.2770734
20
56.7203556
40
0.5
50
175.9999983
51
265.9999987
0
ARC
8
0
10
65.3771685
20
58.1867016
40
0.5
50
355.9999983
51
85.9999987
0
ARC
8
0
10
45.905557
20
60.5507312
40
0.5
50
180
51
265.9999987
0
ARC
8
0
10
44.905557
20
61.6365068
40
0.5
50
0
51
90
0
ARC
8
0
10
23.905557
20
61.6365068
40
0.5
50
90
51
180
0
ARC
8
0
10
-22.4844571
20
45.9837218
40
0.5
50
97.9999997
51
187.9999997
0
LINE
8
0
10
109.7571035
20
-10.5736512
11
117.7888804
21
-33.746753
0
LINE
8
0
10
117.3059615
20
-37.322323
11
110.7462006
21
-46.8668343
0
LINE
8
0
10
105.7475058
20
-48.2209538
11
63.2131734
21
-28.2191223
0
LINE
8
0
10
62.304213
20
-27.918307
11
-8.6909742
21
-13.5541593
0
LINE
8
0
10
-10.3330895
20
-12.8067835
11
-29.6144564
21
1.9912186
0
LINE
8
0
10
-30.9723109
20
3.894899
11
-35.9696969
21
18.8267876
0
LINE
8
0
10
-34.9193316
20
23.0077957
11
-22.66237
21
34.5546807
0
LINE
8
0
10
-7.1099305
20
49.2061281
11
2.2847483
21
58.0565495
0
LINE
8
0
10
4.8879844
20
59.1426079
11
23.405557
21
59.7892558
0
LINE
8
0
10
111.0260266
20
-2.916446
11
110.9642898
21
-3.082544
0
LINE
8
0
10
110.9642898
20
-3.082544
11
109.6569366
21
-8.2896539
0
ARC
8
0
10
114.0094567
20
-35.0566981
40
4
50
325.5000021
51
19.1162701
0
ARC
8
0
10
107.4496958
20
-44.6012095
40
4
50
244.814677
51
325.5000021
0
ARC
8
0
10
61.5109834
20
-31.8388666
40
4
50
64.814677
51
78.5620025
0
ARC
8
0
10
-7.8977446
20
-9.6335998
40
4
50
232.4945977
51
258.5620025
0
ARC
8
0
10
-27.1791115
20
5.1644023
40
4
50
198.5042993
51
232.4945977
0
ARC
8
0
10
-32.1764975
20
20.0962908
40
4
50
133.2913546
51
198.5042993
0
ARC
8
0
10
5.0275824
20
55.1450446
40
4
50
92.0000002
51
133.2913546
0
ARC
8
0
10
113.5365272
20
-9.263706
40
4
50
165.9060259
51
199.1162755
0
ARC
8
0
10
-9.1670561
20
51.3897568
40
3
50
277.9999997
51
313.2913546
0
ARC
8
0
10
114.9543126
20
-34.7292119
40
3
50
19.1162701
51
19.1162755
0
ARC
8
0
10
-24.7194956
20
36.7383094
40
3
50
313.2913546
51
7.9999997
0
LINE
8
0
10
81.8629431
20
8.6660824
11
85.1294338
21
54.0888713
0
LINE
8
0
10
85.1294338
20
54.0888713
11
85.139455
21
54.0888251
0
LINE
8
0
10
111.0260266
20
-2.916446
11
104.4540124
21
-0.3062782
0
LINE
8
0
10
88.6542292
20
5.9688277
11
81.8629431
21
8.6660824
0
LINE
8
0
10
83.7556209
20
-11.4945875
11
95.809011
21
-16.3644732
0
LINE
8
0
10
98.4125919
20
-15.2593187
11
104.4540124
21
-0.3062782
0
LINE
8
0
10
88.6542292
20
5.9688277
11
82.6504664
21
-8.8910066
0
ARC
8
0
10
96.5582242
20
-14.5101055
40
2
50
248.0000006
51
338.0000006
0
ARC
8
0
10
84.5048341
20
-9.6402198
40
2
50
158.0000006
51
248.0000006
0
LINE
8
0
10
-14.1787782
20
26.0456124
11
3.4479934
21
28.5228936
0
LINE
8
0
10
3.4479934
20
28.5228936
11
1.3882315
21
43.178861
0
LINE
8
0
10
1.3882315
20
43.178861
11
-16.2385401
21
40.7015798
0
LINE
8
0
10
-16.2385401
20
40.7015798
11
-14.1787782
21
26.0456124
0
LINE
8
0
10
-8.8923421
20
-9.4137459
11
6.4568129
21
-7.2565628
0
ARC
8
0
10
6.3176398
20
-6.2662948
40
1
50
278
51
8
0
LINE
8
0
10
7.3079079
20
-6.1271217
11
5.2898979
21
8.2317653
0
ARC
8
0
10
4.2996299
20
8.0925922
40
1
50
8
51
98
0
LINE
8
0
10
4.1604567
20
9.0828603
11
-11.1886983
21
6.9256772
0
ARC
8
0
10
-11.0495252
20
5.9354092
40
1
50
98
51
188
0
LINE
8
0
10
-12.0397933
20
5.7962361
11
-10.0217833
21
-8.5626509
0
ARC
8
0
10
-9.0315153
20
-8.4234778
40
1
50
188
51
278
0
LINE
8
0
10
-11.3278714
20
7.9159453
11
4.0212836
21
10.0731284
0
ARC
8
0
10
3.8821105
20
11.0633964
40
1
50
278
51
8
0
LINE
8
0
10
4.8723786
20
11.2025695
11
2.8543686
21
25.5614565
0
ARC
8
0
10
1.8641006
20
25.4222834
40
1
50
8
51
98
0
LINE
8
0
10
1.7249274
20
26.4125515
11
-13.6242276
21
24.2553684
0
ARC
8
0
10
-13.4850545
20
23.2651004
40
1
50
98
51
188
0
LINE
8
0
10
-14.4753226
20
23.1259273
11
-12.4573126
21
8.7670403
0
ARC
8
0
10
-11.4670446
20
8.9062134
40
1
50
188
51
278
0
LINE
8
0
10
-29.6478306
20
5.3412429
11
-14.2986756
21
7.498426
0
ARC
8
0
10
-14.4378487
20
8.488694
40
1
50
278
51
8
0
LINE
8
0
10
-13.4475806
20
8.6278671
11
-15.4655906
21
22.9867541
0
ARC
8
0
10
-16.4558586
20
22.847581
40
1
50
8
51
98
0
LINE
8
0
10
-16.5950318
20
23.8378491
11
-31.9441868
21
21.680666
0
ARC
8
0
10
-31.8050137
20
20.690398
40
1
50
98
51
188
0
LINE
8
0
10
-32.7952818
20
20.5512249
11
-30.7772718
21
6.1923379
0
ARC
8
0
10
-29.7870038
20
6.331511
40
1
50
188
51
278
0
LINE
8
0
10
-13.7634006
20
25.2456365
11
1.5857544
21
27.4028196
0
ARC
8
0
10
1.4465813
20
28.3930876
40
1
50
278
51
8
0
LINE
8
0
10
2.4368494
20
28.5322607
11
0.4188394
21
42.8911477
0
ARC
8
0
10
-0.5714286
20
42.7519746
40
1
50
8
51
98
0
LINE
8
0
10
-0.7106018
20
43.7422427
11
-16.0597568
21
41.5850596
0
ARC
8
0
10
-15.9205837
20
40.5947916
40
1
50
98
51
188
0
LINE
8
0
10
-16.9108518
20
40.4556185
11
-14.8928418
21
26.0967315
0
ARC
8
0
10
-13.9025738
20
26.2359046
40
1
50
188
51
278
0
LINE
8
0
10
8.3546101
20
4.0800488
11
23.845168
21
4.620991
0
ARC
8
0
10
23.8102685
20
5.6203818
40
1
50
272
51
2
0
LINE
8
0
10
24.8096593
20
5.6552813
11
24.3036166
21
20.1464483
0
ARC
8
0
10
23.3042258
20
20.1115488
40
1
50
2
51
92
0
LINE
8
0
10
23.2693263
20
21.1109396
11
7.7787684
21
20.5699974
0
ARC
8
0
10
7.8136679
20
19.5706066
40
1
50
92
51
182
0
LINE
8
0
10
6.8142771
20
19.5357071
11
7.3203198
21
5.0445401
0
ARC
8
0
10
8.3197106
20
5.0794396
40
1
50
182
51
272
0
LINE
8
0
10
7.7438688
20
21.5693883
11
23.2344267
21
22.1103305
0
ARC
8
0
10
23.1995272
20
23.1097213
40
1
50
272
51
2
0
LINE
8
0
10
24.198918
20
23.1446208
11
23.6928753
21
37.6357878
0
ARC
8
0
10
22.6934845
20
37.6008883
40
1
50
2
51
92
0
LINE
8
0
10
22.658585
20
38.6002791
11
7.1680271
21
38.0593369
0
ARC
8
0
10
7.2029266
20
37.0599461
40
1
50
92
51
182
0
LINE
8
0
10
6.2035358
20
37.0250466
11
6.7095785
21
22.5338796
0
ARC
8
0
10
7.7089693
20
22.5687791
40
1
50
182
51
272
0
LINE
8
0
10
7.1331277
20
39.0587277
11
22.6236856
21
39.5996699
0
ARC
8
0
10
22.5887861
20
40.5990607
40
1
50
272
51
2
0
LINE
8
0
10
23.5881769
20
40.6339602
11
23.0821342
21
55.1251272
0
ARC
8
0
10
22.0827434
20
55.0902277
40
1
50
2
51
92
0
LINE
8
0
10
22.0478439
20
56.0896185
11
6.557286
21
55.5486763
0
ARC
8
0
10
6.5921855
20
54.5492855
40
1
50
92
51
182
0
LINE
8
0
10
5.5927947
20
54.514386
11
6.0988374
21
40.023219
0
ARC
8
0
10
7.0982282
20
40.0581185
40
1
50
182
51
272
0
LINE
8
0
10
26.6555569
20
8.3865067
11
42.1555569
21
8.3865067
0
ARC
8
0
10
42.1555569
20
9.3865067
40
1
50
270
51
360
0
LINE
8
0
10
43.1555569
20
9.3865067
11
43.1555569
21
23.8865067
0
ARC
8
0
10
42.1555569
20
23.8865067
40
1
50
0
51
90
0
LINE
8
0
10
42.1555569
20
24.8865067
11
26.6555569
21
24.8865067
0
ARC
8
0
10
26.6555569
20
23.8865067
40
1
50
90
51
180
0
LINE
8
0
10
25.6555569
20
23.8865067
11
25.6555569
21
9.3865067
0
ARC
8
0
10
26.6555569
20
9.3865067
40
1
50
180
51
270
0
LINE
8
0
10
26.655557
20
25.8865068
11
42.155557
21
25.8865068
0
ARC
8
0
10
42.155557
20
26.8865068
40
1
50
270
51
360
0
LINE
8
0
10
43.155557
20
26.8865068
11
43.155557
21
41.3865068
0
ARC
8
0
10
42.155557
20
41.3865068
40
1
50
0
51
90
0
LINE
8
0
10
42.155557
20
42.3865068
11
26.655557
21
42.3865068
0
ARC
8
0
10
26.655557
20
41.3865068
40
1
50
90
51
180
0
LINE
8
0
10
25.655557
20
41.3865068
11
25.655557
21
26.8865068
0
ARC
8
0
10
26.655557
20
26.8865068
40
1
50
180
51
270
0
LINE
8
0
10
26.655557
20
43.3865068
11
42.155557
21
43.3865068
0
ARC
8
0
10
42.155557
20
44.3865068
40
1
50
270
51
360
0
LINE
8
0
10
43.155557
20
44.3865068
11
43.155557
21
58.8865068
0
ARC
8
0
10
42.155557
20
58.8865068
40
1
50
0
51
90
0
LINE
8
0
10
42.155557
20
59.8865068
11
26.655557
21
59.8865068
0
ARC
8
0
10
26.655557
20
58.8865068
40
1
50
90
51
180
0
LINE
8
0
10
25.655557
20
58.8865068
11
25.655557
21
44.3865068
0
ARC
8
0
10
26.655557
20
44.3865068
40
1
50
180
51
270
0
LINE
8
0
10
45.2848048
20
3.805805
11
60.7470476
21
2.7245796
0
ARC
8
0
10
60.8168041
20
3.7221437
40
1
50
266
51
356
0
LINE
8
0
10
61.8143681
20
3.6523872
11
62.825837
21
18.1170659
0
ARC
8
0
10
61.8282729
20
18.1868224
40
1
50
356
51
86
0
LINE
8
0
10
61.8980294
20
19.1843864
11
46.4357866
21
20.2656118
0
ARC
8
0
10
46.3660301
20
19.2680477
40
1
50
86
51
176
0
LINE
8
0
10
45.3684661
20
19.3378042
11
44.3569972
21
4.8731255
0
ARC
8
0
10
45.3545613
20
4.803369
40
1
50
176
51
266
0
LINE
8
0
10
46.505543
20
21.2631758
11
61.9677858
21
20.1819504
0
ARC
8
0
10
62.0375423
20
21.1795145
40
1
50
266
51
356
0
LINE
8
0
10
63.0351063
20
21.109758
11
64.0465752
21
35.5744367
0
ARC
8
0
10
63.0490111
20
35.6441932
40
1
50
356
51
86
0
LINE
8
0
10
63.1187676
20
36.6417572
11
47.6565248
21
37.7229826
0
ARC
8
0
10
47.5867683
20
36.7254185
40
1
50
86
51
176
0
LINE
8
0
10
46.5892043
20
36.795175
11
45.5777354
21
22.3304963
0
ARC
8
0
10
46.5752995
20
22.2607398
40
1
50
176
51
266
0
LINE
8
0
10
47.7262814
20
38.7205467
11
63.1885242
21
37.6393213
0
ARC
8
0
10
63.2582807
20
38.6368854
40
1
50
266
51
356
0
LINE
8
0
10
64.2558447
20
38.5671289
11
65.2673136
21
53.0318076
0
ARC
8
0
10
64.2697495
20
53.1015641
40
1
50
356
51
86
0
LINE
8
0
10
64.339506
20
54.0991281
11
48.8772632
21
55.1803535
0
ARC
8
0
10
48.8075067
20
54.1827894
40
1
50
86
51
176
0
LINE
8
0
10
47.8099427
20
54.2525459
11
46.7984738
21
39.7878672
0
ARC
8
0
10
47.7960379
20
39.7181107
40
1
50
176
51
266
0
LINE
8
0
10
63.6211537
20
0.8194513
11
79.0833965
21
-0.2617741
0
ARC
8
0
10
79.153153
20
0.73579
40
1
50
266
51
356
0
LINE
8
0
10
80.150717
20
0.6660335
11
81.1621859
21
15.1307122
0
ARC
8
0
10
80.1646218
20
15.2004687
40
1
50
356
51
86
0
LINE
8
0
10
80.2343783
20
16.1980327
11
64.7721355
21
17.2792581
0
ARC
8
0
10
64.702379
20
16.281694
40
1
50
86
51
176
0
LINE
8
0
10
63.704815
20
16.3514505
11
62.6933461
21
1.8867718
0
ARC
8
0
10
63.6909102
20
1.8170153
40
1
50
176
51
266
0
LINE
8
0
10
64.8418921
20
18.2768223
11
80.3041349
21
17.1955969
0
ARC
8
0
10
80.3738914
20
18.193161
40
1
50
266
51
356
0
LINE
8
0
10
81.3714554
20
18.1234045
11
82.3829243
21
32.5880832
0
ARC
8
0
10
81.3853602
20
32.6578397
40
1
50
356
51
86
0
LINE
8
0
10
81.4551167
20
33.6554037
11
65.9928739
21
34.7366291
0
ARC
8
0
10
65.9231174
20
33.739065
40
1
50
86
51
176
0
LINE
8
0
10
64.9255534
20
33.8088215
11
63.9140845
21
19.3441428
0
ARC
8
0
10
64.9116486
20
19.2743863
40
1
50
176
51
266
0
LINE
8
0
10
66.0626304
20
35.7341932
11
81.5248732
21
34.6529678
0
ARC
8
0
10
81.5946297
20
35.6505319
40
1
50
266
51
356
0
LINE
8
0
10
82.5921937
20
35.5807754
11
83.6036626
21
50.0454541
0
ARC
8
0
10
82.6060985
20
50.1152106
40
1
50
356
51
86
0
LINE
8
0
10
82.675855
20
51.1127746
11
67.2136122
21
52.194
0
ARC
8
0
10
67.1438557
20
51.1964359
40
1
50
86
51
176
0
LINE
8
0
10
66.1462917
20
51.2661924
11
65.1348228
21
36.8015137
0
ARC
8
0
10
66.1323869
20
36.7317572
40
1
50
176
51
266
0
LINE
8
0
10
54.5368683
20
-23.3247782
11
69.9213337
21
-25.2137531
0
ARC
8
0
10
70.043203
20
-24.2212069
40
1
50
263
51
353
0
LINE
8
0
10
71.0357492
20
-24.3430763
11
72.8028547
21
-9.9511571
0
ARC
8
0
10
71.8103085
20
-9.8292877
40
1
50
353
51
83
0
LINE
8
0
10
71.9321779
20
-8.8367416
11
56.5477125
21
-6.9477667
0
ARC
8
0
10
56.4258432
20
-7.9403129
40
1
50
83
51
173
0
LINE
8
0
10
55.433297
20
-7.8184435
11
53.6661915
21
-22.2103627
0
ARC
8
0
10
54.6587377
20
-22.3322321
40
1
50
173
51
263
0
LINE
8
0
10
75.0033524
20
-28.7525913
11
89.3747022
21
-34.5589935
0
ARC
8
0
10
89.7493088
20
-33.6318096
40
1
50
248
51
338
0
LINE
8
0
10
90.6764926
20
-34.0064162
11
96.1082882
21
-20.5622503
0
ARC
8
0
10
95.1811044
20
-20.1876438
40
1
50
338
51
68
0
LINE
8
0
10
95.555711
20
-19.2604599
11
81.1843612
21
-13.4540577
0
ARC
8
0
10
80.8097546
20
-14.3812416
40
1
50
68
51
158
0
LINE
8
0
10
79.8825708
20
-14.006635
11
74.4507752
21
-27.4508009
0
ARC
8
0
10
75.377959
20
-27.8254074
40
1
50
158
51
248
0
LINE
8
0
10
93.3792841
20
-38.7499228
11
106.15324
21
-47.5292195
0
ARC
8
0
10
106.7196462
20
-46.7050933
40
1
50
235.5
51
325.5
0
LINE
8
0
10
107.5437724
20
-47.2714995
11
115.7566629
21
-35.3216698
0
ARC
8
0
10
114.9325367
20
-34.7552636
40
1
50
325.5
51
55.5
0
LINE
8
0
10
115.4989429
20
-33.9311374
11
102.724987
21
-25.1518407
0
ARC
8
0
10
102.1585808
20
-25.9759669
40
1
50
55.5
51
145.5
0
LINE
8
0
10
101.3344546
20
-25.4095607
11
93.1215641
21
-37.3593904
0
ARC
8
0
10
93.9456903
20
-37.9257966
40
1
50
145.5
51
235.5
0
LINE
8
0
10
85.2985399
20
-8.3430956
11
99.6698897
21
-14.1494978
0
ARC
8
0
10
100.0444963
20
-13.2223139
40
1
50
248
51
338
0
LINE
8
0
10
100.9716801
20
-13.5969205
11
106.4034757
21
-0.1527546
0
ARC
8
0
10
105.4762919
20
0.2218519
40
1
50
338
51
68
0
LINE
8
0
10
105.8508985
20
1.1490358
11
91.4795487
21
6.955438
0
ARC
8
0
10
91.1049421
20
6.0282541
40
1
50
68
51
158
0
LINE
8
0
10
90.1777583
20
6.4028607
11
84.7459627
21
-7.0413052
0
ARC
8
0
10
85.6731465
20
-7.4159117
40
1
50
158
51
248
0
LINE
8
0
10
53.1526447
20
-28.4442435
11
70.0259293
21
-30.5160223
0
LINE
8
0
10
70.0259293
20
-30.5160223
11
73.3164015
21
-3.7172762
0
LINE
8
0
10
73.3164015
20
-3.7172762
11
56.443117
21
-1.6454974
0
LINE
8
0
10
56.443117
20
-1.6454974
11
53.1526447
21
-28.4442435
0
LINE
8
0
10
89.7875567
20
-42.6517806
11
103.7977019
21
-52.2806866
0
LINE
8
0
10
103.7977019
20
-52.2806866
11
119.0906703
21
-30.0292795
0
LINE
8
0
10
119.0906703
20
-30.0292795
11
105.0805251
21
-20.4003735
0
LINE
8
0
10
105.0805251
20
-20.4003735
11
89.7875567
21
-42.6517806
0
ENDSEC
0
EOF