0
SECTION
2
HEADER
9
$INSUNITS
70
4
0
ENDSEC
0
SECTION
2
TABLES
0
TABLE
2
LTYPE
0
LTYPE
72
65
70
64
2
CONTINUOUS
3
______
73
0
40
0
0
ENDTAB
0
TABLE
2
LAYER
0
ENDTAB
0
ENDSEC
0
SECTION
2
ENTITIES
0
LINE
8
0
10
-22.128496
20
47.0435763
11
-8.7510133
21
48.9236589
0
LINE
8
0
10
-21.7270225
20
37.0016472
11
-22.979591
21
45.9141351
0
LINE
8
0
10
24.8952585
20
63.1536076
11
44.8952585
21
63.1536076
0
LINE
8
0
10
45.8952585
20
62.1536076
11
45.8952585
21
62.0365315
0
LINE
8
0
10
23.8952585
20
61.7726549
11
23.8952585
21
62.1536076
0
LINE
8
0
10
46.825502
20
61.0389674
11
65.4727226
21
59.7350267
0
LINE
8
0
10
66.4005301
20
58.6677061
11
66.3656519
21
58.1689242
0
LINE
8
0
10
67.2934594
20
57.1016036
11
85.2496124
21
55.8459871
0
ARC
8
0
10
85.1798559
20
54.848423
40
1
50
384.8849652
51
85.9999987
0
ARC
8
0
10
67.3632159
20
58.0991677
40
1
50
175.9999983
51
265.9999987
0
ARC
8
0
10
65.4029661
20
58.7374626
40
1
50
355.9999983
51
85.9999987
0
ARC
8
0
10
46.8952585
20
62.0365315
40
1
50
180
51
265.9999987
0
ARC
8
0
10
44.8952585
20
62.1536076
40
1
50
0
51
90
0
ARC
8
0
10
24.8952585
20
62.1536076
40
1
50
90
51
180
0
ARC
8
0
10
-21.9893229
20
46.0533082
40
1
50
97.9999997
51
187.9999997
0
LINE
8
0
10
109.2166911
20
-11.3753244
11
117.1263438
21
-33.1290163
0
LINE
8
0
10
116.2793315
20
-38.7901861
11
111.0323747
21
-45.7531329
0
LINE
8
0
10
103.526689
20
-47.4934011
11
64.1872408
21
-27.5421573
0
LINE
8
0
10
62.5863772
20
-26.9974518
11
-8.1931259
21
-13.6358467
0
LINE
8
0
10
-10.7331343
20
-12.4997584
11
-29.1811909
21
1.6586974
0
LINE
8
0
10
-31.1789314
20
4.4013126
11
-36.029069
21
17.9882122
0
LINE
8
0
10
-34.4968046
20
24.3686293
11
-22.030875
21
36.1352646
0
LINE
8
0
10
-8.2037708
20
49.1867175
11
1.7004282
21
58.5353261
0
LINE
8
0
10
5.6095247
20
60.1684142
11
22.930158
21
60.7732641
0
ARC
8
0
10
111.4875184
20
-35.179296
40
6
50
323.0000007
51
19.9812909
0
ARC
8
0
10
106.2405616
20
-42.1422428
40
6
50
243.1078765
51
323.0000005
0
ARC
8
0
10
61.4733682
20
-32.8933157
40
6
50
63.1078765
51
79.3096279
0
ARC
8
0
10
-7.0801169
20
-7.7399828
40
6
50
232.4945977
51
259.3096279
0
ARC
8
0
10
-25.5281735
20
6.418473
40
6
50
199.6451237
51
232.4945973
0
ARC
8
0
10
-30.3783111
20
20.0053724
40
6
50
133.3470371
51
199.645123
0
ARC
8
0
10
5.8189217
20
54.1720692
40
6
50
92.0000002
51
133.3470371
0
ARC
8
0
10
-8.8901864
20
49.913927
40
1
50
277.9999997
51
313.3470371
0
ARC
8
0
10
22.8952585
20
61.7726549
40
1
50
272.0000002
51
0
0
ARC
8
0
10
110.2337392
20
-45.1513179
40
1
50
323.0000005
51
323.0000007
0
ARC
8
0
10
-28.5723547
20
2.4519933
40
1
50
232.4945973
51
232.4945977
0
ARC
8
0
10
-35.087276
20
18.3244055
40
1
50
199.645123
51
199.6451237
0
ARC
8
0
10
-22.7172906
20
36.8624741
40
1
50
313.3470371
51
7.9999997
0
LINE
8
0
10
86.0870104
20
55.2692208
11
86.2774545
21
55.0623796
0
LINE
8
0
10
86.2774545
20
55.0623796
11
86.6306482
21
54.9524743
0
LINE
8
0
10
86.6306482
20
54.9524743
11
120.9611247
21
54.9521366
0
LINE
8
0
10
122.9166763
20
52.5329216
11
109.2166911
21
-11.3753244
0
ARC
8
0
10
120.9611051
20
52.9521366
40
2
50
347.9006482
51
89.9994385
0
ENDSEC
0
EOF