0
SECTION
2
HEADER
9
$INSUNITS
70
4
0
ENDSEC
0
SECTION
2
TABLES
0
TABLE
2
LTYPE
0
LTYPE
72
65
70
64
2
CONTINUOUS
3
______
73
0
40
0
0
ENDTAB
0
TABLE
2
LAYER
0
ENDTAB
0
ENDSEC
0
SECTION
2
ENTITIES
0
LINE
8
0
10
-22.5540436
20
46.4788557
11
-8.7526869
21
48.4185099
0
LINE
8
0
10
-21.7494114
20
37.1609518
11
-22.9795911
21
45.9141352
0
LINE
8
0
10
23.905557
20
62.1365068
11
44.905557
21
62.1365068
0
LINE
8
0
10
45.405557
20
61.6365068
11
45.405557
21
60.5507312
0
LINE
8
0
10
23.405557
20
60.3716986
11
23.405557
21
61.6365068
0
LINE
8
0
10
45.8706788
20
60.0519492
11
65.4120467
21
58.6854836
0
LINE
8
0
10
65.8759505
20
58.1518234
11
65.7782914
21
56.7552338
0
LINE
8
0
10
85.1394143
20
54.0882434
11
85.161034
21
54.3974186
0
LINE
8
0
10
66.2421951
20
56.2215736
11
84.6971302
21
54.9310788
0
ARC
8
0
10
84.662252
20
54.4322968
40
0.5
50
355.9999987
51
85.9999987
0
ARC
8
0
10
66.2770734
20
56.7203556
40
0.5
50
175.9999983
51
265.9999987
0
ARC
8
0
10
65.3771685
20
58.1867016
40
0.5
50
355.9999983
51
85.9999987
0
ARC
8
0
10
45.905557
20
60.5507312
40
0.5
50
180
51
265.9999987
0
ARC
8
0
10
44.905557
20
61.6365068
40
0.5
50
0
51
90
0
ARC
8
0
10
23.905557
20
61.6365068
40
0.5
50
90
51
180
0
ARC
8
0
10
-22.4844571
20
45.9837218
40
0.5
50
97.9999997
51
187.9999997
0
LINE
8
0
10
109.7701476
20
-10.5169977
11
117.7920493
21
-33.7487402
0
LINE
8
0
10
117.3076121
20
-37.3199214
11
110.7462006
21
-46.8668344
0
LINE
8
0
10
105.7475058
20
-48.2209538
11
63.2131734
21
-28.2191223
0
LINE
8
0
10
62.304213
20
-27.918307
11
-8.6909742
21
-13.5541593
0
LINE
8
0
10
-10.3330895
20
-12.8067835
11
-29.6144564
21
1.9912186
0
LINE
8
0
10
-30.9723109
20
3.8948991
11
-35.9696969
21
18.8267876
0
LINE
8
0
10
-34.9193316
20
23.0077957
11
-22.6661356
21
34.5511333
0
LINE
8
0
10
-7.1076152
20
49.2083093
11
2.3132007
21
58.0833536
0
LINE
8
0
10
4.8478224
20
59.166426
11
23.1578334
21
60.1208123
0
LINE
8
0
10
23.1578334
20
60.1208123
11
23.405557
21
60.3716986
0
LINE
8
0
10
110.8484602
20
-2.9040293
11
110.8146552
21
-3.0720806
0
LINE
8
0
10
110.8146552
20
-3.0720806
11
109.6458461
21
-8.3459509
0
ARC
8
0
10
114.0111072
20
-35.0542966
40
4
50
325.5000021
51
19.049753
0
ARC
8
0
10
107.4496958
20
-44.6012095
40
4
50
244.814677
51
325.4999979
0
ARC
8
0
10
61.5109834
20
-31.8388666
40
4
50
64.814677
51
78.5620025
0
ARC
8
0
10
-7.8977446
20
-9.6335998
40
4
50
232.4945977
51
258.5620025
0
ARC
8
0
10
-27.1791115
20
5.1644023
40
4
50
198.5042984
51
232.4945977
0
ARC
8
0
10
-32.1764975
20
20.0962908
40
4
50
133.2913546
51
198.5042993
0
ARC
8
0
10
5.0560348
20
55.1718487
40
4
50
92.9837715
51
133.2913546
0
ARC
8
0
10
113.5510896
20
-9.2114413
40
4
50
167.5039333
51
199.0497545
0
ARC
8
0
10
-9.1715979
20
51.3992168
40
3.01
50
277.9999997
51
313.2913546
0
ARC
8
0
10
114.9468904
20
-34.7311714
40
3.01
50
19.049753
51
19.0497545
0
ARC
8
0
10
108.2655807
20
-45.1619517
40
3.01
50
325.4999979
51
325.5000021
0
ARC
8
0
10
-24.7301183
20
36.7420407
40
3.01
50
313.2913546
51
7.9999997
0
LINE
8
0
10
85.1394143
20
54.0882434
11
120.7509102
21
54.0833112
0
LINE
8
0
10
122.7050222
20
51.658619
11
110.8484602
21
-2.9040293
0
ARC
8
0
10
120.7506332
20
52.0833112
40
2
50
347.7401245
51
89.9920645
0
ARC
8
0
10
-29.0757112
20
4.5296507
40
2
50
198.5042984
51
198.5042993
0
ENDSEC
0
EOF