0
SECTION
2
HEADER
9
$INSUNITS
70
4
0
ENDSEC
0
SECTION
2
TABLES
0
TABLE
2
LTYPE
0
LTYPE
72
65
70
64
2
CONTINUOUS
3
______
73
0
40
0
0
ENDTAB
0
TABLE
2
LAYER
0
ENDTAB
0
ENDSEC
0
SECTION
2
ENTITIES
0
LINE
8
0
10
-22.5540436
20
46.4788557
11
-8.7495368
21
48.4189526
0
LINE
8
0
10
-21.7486914
20
37.1558287
11
-22.9795911
21
45.9141352
0
LINE
8
0
10
23.905557
20
62.1365068
11
44.905557
21
62.1365068
0
LINE
8
0
10
45.405557
20
61.6365068
11
45.405557
21
60.5507312
0
LINE
8
0
10
23.405557
20
59.7892558
11
23.405557
21
61.6365068
0
LINE
8
0
10
45.8706788
20
60.0519492
11
65.4120467
21
58.6854836
0
LINE
8
0
10
65.8759505
20
58.1518234
11
65.7782914
21
56.7552338
0
LINE
8
0
10
85.139455
20
54.0888251
11
85.161034
21
54.3974186
0
LINE
8
0
10
66.2421951
20
56.2215736
11
84.6971302
21
54.9310788
0
ARC
8
0
10
84.662252
20
54.4322968
40
0.5
50
355.9999987
51
85.9999987
0
ARC
8
0
10
66.2770734
20
56.7203556
40
0.5
50
175.9999983
51
265.9999987
0
ARC
8
0
10
65.3771685
20
58.1867016
40
0.5
50
355.9999983
51
85.9999987
0
ARC
8
0
10
45.905557
20
60.5507312
40
0.5
50
180
51
265.9999987
0
ARC
8
0
10
44.905557
20
61.6365068
40
0.5
50
0
51
90
0
ARC
8
0
10
23.905557
20
61.6365068
40
0.5
50
90
51
180
0
ARC
8
0
10
-22.4844571
20
45.9837218
40
0.5
50
97.9999997
51
187.9999997
0
LINE
8
0
10
109.7571034
20
-10.5736511
11
117.7888804
21
-33.746753
0
LINE
8
0
10
117.3059615
20
-37.322323
11
110.7462006
21
-46.8668344
0
LINE
8
0
10
105.7475058
20
-48.2209538
11
63.2131734
21
-28.2191223
0
LINE
8
0
10
62.304213
20
-27.918307
11
-8.6909742
21
-13.5541593
0
LINE
8
0
10
-10.3330895
20
-12.8067835
11
-29.6144564
21
1.9912186
0
LINE
8
0
10
-30.9723109
20
3.8948991
11
-35.9696969
21
18.8267876
0
LINE
8
0
10
-34.9193316
20
23.0077957
11
-22.66237
21
34.5546807
0
LINE
8
0
10
-7.1099305
20
49.2061281
11
2.2847483
21
58.0565495
0
LINE
8
0
10
4.8879844
20
59.1426079
11
23.405557
21
59.7892558
0
LINE
8
0
10
111.0260266
20
-2.916446
11
110.9642898
21
-3.082544
0
LINE
8
0
10
110.9642898
20
-3.082544
11
109.6569366
21
-8.2896541
0
ARC
8
0
10
114.0094567
20
-35.0566981
40
4
50
325.5000021
51
19.1162701
0
ARC
8
0
10
107.4496958
20
-44.6012095
40
4
50
244.814677
51
325.4999998
0
ARC
8
0
10
61.5109834
20
-31.8388666
40
4
50
64.814677
51
78.5620025
0
ARC
8
0
10
-7.8977446
20
-9.6335998
40
4
50
232.4945977
51
258.5620025
0
ARC
8
0
10
-27.1791115
20
5.1644023
40
4
50
198.5042984
51
232.4945977
0
ARC
8
0
10
-32.1764975
20
20.0962908
40
4
50
133.2913546
51
198.5042993
0
ARC
8
0
10
5.0275824
20
55.1450446
40
4
50
92.0000002
51
133.2913546
0
ARC
8
0
10
113.5365272
20
-9.263706
40
4
50
165.9060293
51
199.1162718
0
ARC
8
0
10
-9.1670561
20
51.3897568
40
3
50
277.9999997
51
313.2913546
0
ARC
8
0
10
114.9543126
20
-34.7292119
40
3
50
19.1162701
51
19.1162755
0
ARC
8
0
10
-24.7194956
20
36.7383094
40
3
50
313.2913546
51
7.9999997
0
LINE
8
0
10
85.139455
20
54.0888251
11
120.7569713
21
53.9247292
0
LINE
8
0
10
122.7032481
20
51.5051616
11
111.0260266
21
-2.916446
0
ARC
8
0
10
120.7477571
20
51.9247504
40
2
50
347.8896959
51
89.7360317
0
ARC
8
0
10
111.5967319
20
-8.7766801
40
2
50
165.9060259
51
165.9060293
0
ARC
8
0
10
111.6468153
20
-9.9186785
40
2
50
199.1162718
51
199.1162755
0
ARC
8
0
10
109.0979482
20
-45.734022
40
2
50
325.4999998
51
325.5000021
0
ARC
8
0
10
-29.0757112
20
4.5296507
40
2
50
198.5042984
51
198.5042993
0
ENDSEC
0
EOF