0
SECTION
2
HEADER
9
$INSUNITS
70
4
0
ENDSEC
0
SECTION
2
TABLES
0
TABLE
2
LTYPE
0
LTYPE
72
65
70
64
2
CONTINUOUS
3
______
73
0
40
0
0
ENDTAB
0
TABLE
2
LAYER
0
ENDTAB
0
ENDSEC
0
SECTION
2
ENTITIES
0
LINE
8
0
10
-22.5540436
20
46.4788557
11
-8.7495368
21
48.4189526
0
LINE
8
0
10
-21.7486914
20
37.1558287
11
-22.9795911
21
45.9141352
0
LINE
8
0
10
23.905557
20
62.1365068
11
44.905557
21
62.1365068
0
LINE
8
0
10
45.405557
20
61.6365068
11
45.405557
21
60.5507312
0
LINE
8
0
10
23.405557
20
60.3716986
11
23.405557
21
61.6365068
0
LINE
8
0
10
45.8706788
20
60.0519492
11
65.4120467
21
58.6854836
0
LINE
8
0
10
65.8759505
20
58.1518234
11
65.7782914
21
56.7552338
0
LINE
8
0
10
85.1394143
20
54.0882434
11
85.161034
21
54.3974186
0
LINE
8
0
10
66.2421951
20
56.2215736
11
84.6971302
21
54.9310788
0
ARC
8
0
10
84.662252
20
54.4322968
40
0.5
50
355.9999987
51
85.9999987
0
ARC
8
0
10
66.2770734
20
56.7203556
40
0.5
50
175.9999983
51
265.9999987
0
ARC
8
0
10
65.3771685
20
58.1867016
40
0.5
50
355.9999983
51
85.9999987
0
ARC
8
0
10
45.905557
20
60.5507312
40
0.5
50
180
51
265.9999987
0
ARC
8
0
10
44.905557
20
61.6365068
40
0.5
50
0
51
90
0
ARC
8
0
10
23.905557
20
61.6365068
40
0.5
50
90
51
180
0
ARC
8
0
10
-22.4844571
20
45.9837218
40
0.5
50
97.9999997
51
187.9999997
0
LINE
8
0
10
109.7571034
20
-10.5736511
11
117.7888804
21
-33.746753
0
LINE
8
0
10
117.3059615
20
-37.322323
11
110.7462006
21
-46.8668344
0
LINE
8
0
10
105.7475058
20
-48.2209538
11
63.2131734
21
-28.2191223
0
LINE
8
0
10
62.304213
20
-27.918307
11
-8.6909742
21
-13.5541593
0
LINE
8
0
10
-10.3330895
20
-12.8067835
11
-29.6144564
21
1.9912186
0
LINE
8
0
10
-30.9723109
20
3.8948991
11
-35.9696969
21
18.8267876
0
LINE
8
0
10
-34.9193316
20
23.0077957
11
-22.66237
21
34.5546807
0
LINE
8
0
10
-7.1099305
20
49.2061281
11
2.3132007
21
58.0833536
0
LINE
8
0
10
4.8478224
20
59.166426
11
23.1578334
21
60.1208123
0
LINE
8
0
10
23.1578334
20
60.1208123
11
23.405557
21
60.3716986
0
LINE
8
0
10
111.0260266
20
-2.916446
11
110.9642898
21
-3.082544
0
LINE
8
0
10
110.9642898
20
-3.082544
11
109.6569366
21
-8.2896541
0
ARC
8
0
10
114.0094567
20
-35.0566981
40
4
50
325.5000021
51
19.1162701
0
ARC
8
0
10
107.4496958
20
-44.6012095
40
4
50
244.814677
51
325.4999998
0
ARC
8
0
10
61.5109834
20
-31.8388666
40
4
50
64.814677
51
78.5620025
0
ARC
8
0
10
-7.8977446
20
-9.6335998
40
4
50
232.4945977
51
258.5620025
0
ARC
8
0
10
-27.1791115
20
5.1644023
40
4
50
198.5042984
51
232.4945977
0
ARC
8
0
10
-32.1764975
20
20.0962908
40
4
50
133.2913546
51
198.5042993
0
ARC
8
0
10
5.0560348
20
55.1718487
40
4
50
92.9837715
51
133.2913546
0
ARC
8
0
10
113.5365272
20
-9.263706
40
4
50
165.9060293
51
199.1162718
0
ARC
8
0
10
-9.1670561
20
51.3897568
40
3
50
277.9999997
51
313.2913546
0
ARC
8
0
10
114.9543126
20
-34.7292119
40
3
50
19.1162701
51
19.1162755
0
ARC
8
0
10
-24.7194956
20
36.7383094
40
3
50
313.2913546
51
7.9999997
0
LINE
8
0
10
85.1384119
20
54.0882435
11
120.7585677
21
54.0833101
0
LINE
8
0
10
122.7139542
20
51.6645259
11
111.0260266
21
-2.916446
0
ARC
8
0
10
120.7582907
20
52.0833101
40
2
50
347.9132692
51
89.9920645
0
ARC
8
0
10
109.0979482
20
-45.734022
40
2
50
325.4999998
51
325.5000021
0
ARC
8
0
10
-29.0757112
20
4.5296507
40
2
50
198.5042984
51
198.5042993
0
LINE
8
0
10
81.8629431
20
8.6660824
11
85.1384119
21
54.0882435
0
LINE
8
0
10
111.0260266
20
-2.916446
11
104.4540124
21
-0.3062782
0
LINE
8
0
10
88.6542292
20
5.9688277
11
81.8629431
21
8.6660824
0
LINE
8
0
10
-8.3236075
20
-8.071531
11
5.5401455
21
-6.1231076
0
LINE
8
0
10
5.5401455
20
-6.1231076
11
3.5917221
21
7.7406454
0
LINE
8
0
10
3.5917221
20
7.7406454
11
-10.2720309
21
5.792222
0
LINE
8
0
10
-10.2720309
20
5.792222
11
-8.3236075
21
-8.071531
0
LINE
8
0
10
-10.7591368
20
9.2581602
11
3.1046162
21
11.2065836
0
LINE
8
0
10
3.1046162
20
11.2065836
11
1.1561928
21
25.0703366
0
LINE
8
0
10
1.1561928
20
25.0703366
11
-12.7075602
21
23.1219132
0
LINE
8
0
10
-12.7075602
20
23.1219132
11
-10.7591368
21
9.2581602
0
LINE
8
0
10
-29.079096
20
6.6834578
11
-15.215343
21
8.6318812
0
LINE
8
0
10
-15.215343
20
8.6318812
11
-17.1637664
21
22.4956342
0
LINE
8
0
10
-17.1637664
20
22.4956342
11
-31.0275194
21
20.5472108
0
LINE
8
0
10
-31.0275194
20
20.5472108
11
-29.079096
21
6.6834578
0
LINE
8
0
10
9.0605289
20
5.3554619
11
23.0520005
21
5.8440549
0
LINE
8
0
10
23.0520005
20
5.8440549
11
22.5634075
21
19.8355265
0
LINE
8
0
10
22.5634075
20
19.8355265
11
8.5719359
21
19.3469335
0
LINE
8
0
10
8.5719359
20
19.3469335
11
9.0605289
21
5.3554619
0
LINE
8
0
10
8.4497876
20
22.8448014
11
22.4412592
21
23.3333944
0
LINE
8
0
10
22.4412592
20
23.3333944
11
21.9526662
21
37.324866
0
LINE
8
0
10
21.9526662
20
37.324866
11
7.9611946
21
36.836273
0
LINE
8
0
10
7.9611946
20
36.836273
11
8.4497876
21
22.8448014
0
LINE
8
0
10
7.8390465
20
40.3341408
11
21.8305181
21
40.8227338
0
LINE
8
0
10
21.8305181
20
40.8227338
11
21.3419251
21
54.8142054
0
LINE
8
0
10
21.3419251
20
54.8142054
11
7.3504535
21
54.3256124
0
LINE
8
0
10
7.3504535
20
54.3256124
11
7.8390465
21
40.3341408
0
LINE
8
0
10
27.4055569
20
9.6365067
11
41.4055569
21
9.6365067
0
LINE
8
0
10
41.4055569
20
9.6365067
11
41.4055569
21
23.6365067
0
LINE
8
0
10
41.4055569
20
23.6365067
11
27.4055569
21
23.6365067
0
LINE
8
0
10
27.4055569
20
23.6365067
11
27.4055569
21
9.6365067
0
LINE
8
0
10
27.405557
20
27.1365068
11
41.405557
21
27.1365068
0
LINE
8
0
10
41.405557
20
27.1365068
11
41.405557
21
41.1365068
0
LINE
8
0
10
41.405557
20
41.1365068
11
27.405557
21
41.1365068
0
LINE
8
0
10
27.405557
20
41.1365068
11
27.405557
21
27.1365068
0
LINE
8
0
10
27.405557
20
44.6365068
11
41.405557
21
44.6365068
0
LINE
8
0
10
41.405557
20
44.6365068
11
41.405557
21
58.6365068
0
LINE
8
0
10
41.405557
20
58.6365068
11
27.405557
21
58.6365068
0
LINE
8
0
10
27.405557
20
58.6365068
11
27.405557
21
44.6365068
0
LINE
8
0
10
46.1201734
20
5.0004427
11
60.0860701
21
4.023852
0
LINE
8
0
10
60.0860701
20
4.023852
11
61.0626608
21
17.9897487
0
LINE
8
0
10
61.0626608
20
17.9897487
11
47.0967641
21
18.9663394
0
LINE
8
0
10
47.0967641
20
18.9663394
11
46.1201734
21
5.0004427
0
LINE
8
0
10
47.3409116
20
22.4578135
11
61.3068083
21
21.4812228
0
LINE
8
0
10
61.3068083
20
21.4812228
11
62.283399
21
35.4471195
0
LINE
8
0
10
62.283399
20
35.4471195
11
48.3175023
21
36.4237102
0
LINE
8
0
10
48.3175023
20
36.4237102
11
47.3409116
21
22.4578135
0
LINE
8
0
10
48.56165
20
39.9151844
11
62.5275467
21
38.9385937
0
LINE
8
0
10
62.5275467
20
38.9385937
11
63.5041374
21
52.9044904
0
LINE
8
0
10
63.5041374
20
52.9044904
11
49.5382407
21
53.8810811
0
LINE
8
0
10
49.5382407
20
53.8810811
11
48.56165
21
39.9151844
0
LINE
8
0
10
64.4565223
20
2.014089
11
78.422419
21
1.0374983
0
LINE
8
0
10
78.422419
20
1.0374983
11
79.3990097
21
15.003395
0
LINE
8
0
10
79.3990097
20
15.003395
11
65.433113
21
15.9799857
0
LINE
8
0
10
65.433113
20
15.9799857
11
64.4565223
21
2.014089
0
LINE
8
0
10
65.6772607
20
19.47146
11
79.6431574
21
18.4948693
0
LINE
8
0
10
79.6431574
20
18.4948693
11
80.6197481
21
32.460766
0
LINE
8
0
10
80.6197481
20
32.460766
11
66.6538514
21
33.4373567
0
LINE
8
0
10
66.6538514
20
33.4373567
11
65.6772607
21
19.47146
0
LINE
8
0
10
66.897999
20
36.9288309
11
80.8638957
21
35.9522402
0
LINE
8
0
10
80.8638957
20
35.9522402
11
81.8404864
21
49.9181369
0
LINE
8
0
10
81.8404864
20
49.9181369
11
67.8745897
21
50.8947276
0
LINE
8
0
10
67.8745897
20
50.8947276
11
66.897999
21
36.9288309
0
LINE
8
0
10
55.4336146
20
-22.1754976
11
69.3292608
21
-23.8816684
0
LINE
8
0
10
69.3292608
20
-23.8816684
11
71.0354316
21
-9.9860222
0
LINE
8
0
10
71.0354316
20
-9.9860222
11
57.1397854
21
-8.2798514
0
LINE
8
0
10
57.1397854
20
-8.2798514
11
55.4336146
21
-22.1754976
0
LINE
8
0
10
76.1669986
20
-27.8745664
11
89.1475725
21
-33.1190587
0
LINE
8
0
10
89.1475725
20
-33.1190587
11
94.3920648
21
-20.1384848
0
LINE
8
0
10
94.3920648
20
-20.1384848
11
81.4114909
21
-14.8939925
0
LINE
8
0
10
81.4114909
20
-14.8939925
11
76.1669986
21
-27.8745664
0
LINE
8
0
10
94.7053865
20
-38.1445698
11
106.2431532
21
-46.0742571
0
LINE
8
0
10
106.2431532
20
-46.0742571
11
114.1728405
21
-34.5364904
0
LINE
8
0
10
114.1728405
20
-34.5364904
11
102.6350738
21
-26.6068031
0
LINE
8
0
10
102.6350738
20
-26.6068031
11
94.7053865
21
-38.1445698
0
LINE
8
0
10
98.4125919
20
-15.2593187
11
104.4540124
21
-0.3062782
0
CIRCLE
8
0
10
0.805557
20
48.3765068
40
1.1
0
CIRCLE
8
0
10
-18.404443
20
1.6965068
40
1.1
0
CIRCLE
8
0
10
64.495557
20
36.2465068
40
1.1
0
CIRCLE
8
0
10
64.325557
20
-3.8834932
40
1.1
0
CIRCLE
8
0
10
100.715557
20
-19.9834932
40
1.1
0
LINE
8
0
10
83.7556209
20
-11.4945875
11
95.809011
21
-16.3644732
0
LINE
8
0
10
88.6542292
20
5.9688277
11
82.6504664
21
-8.8910066
0
ARC
8
0
10
96.5582242
20
-14.5101055
40
2
50
248.0000006
51
338.0000006
0
ARC
8
0
10
84.5048341
20
-9.6402198
40
2
50
158.0000006
51
248.0000006
0
LINE
8
0
10
-14.1787782
20
26.0456124
11
3.4479934
21
28.5228936
0
LINE
8
0
10
3.4479934
20
28.5228936
11
1.3882315
21
43.178861
0
LINE
8
0
10
1.3882315
20
43.178861
11
-16.2385401
21
40.7015798
0
LINE
8
0
10
-16.2385401
20
40.7015798
11
-14.1787782
21
26.0456124
0
CIRCLE
8
0
10
108.875557
20
50.6865068
40
1.1
0
CIRCLE
8
0
10
87.425557
20
11.0165068
40
1.1
0
CIRCLE
8
0
10
107.435557
20
4.4765068
40
1.1
0
CIRCLE
8
0
10
0.805557
20
48.3765068
40
1.9
0
CIRCLE
8
0
10
-18.404443
20
1.6965068
40
1.9
0
CIRCLE
8
0
10
64.495557
20
36.2465068
40
1.9
0
CIRCLE
8
0
10
64.325557
20
-3.8834932
40
1.9
0
CIRCLE
8
0
10
100.715557
20
-19.9834932
40
1.9
0
CIRCLE
8
0
10
43.630557
20
22.0365068
40
20.5
0
CIRCLE
8
0
10
79.7560886
20
43.0467989
40
7.5
0
CIRCLE
8
0
10
-4.801472
20
17.1642484
40
7.5
0
CIRCLE
8
0
10
75.8322868
20
-13.066179
40
7.5
0
LINE
8
0
10
83.5729839
20
-10.6118963
11
96.5535579
21
-15.8563886
0
LINE
8
0
10
96.5535579
20
-15.8563886
11
102.92187
21
-0.0942631
0
LINE
8
0
10
102.92187
20
-0.0942631
11
89.941296
21
5.1502292
0
LINE
8
0
10
89.941296
20
5.1502292
11
83.5729839
21
-10.6118963
0
LINE
8
0
10
-13.9868804
20
26.4765129
11
2.8476768
21
28.8424556
0
LINE
8
0
10
2.8476768
20
28.8424556
11
0.8992534
21
42.7062086
0
LINE
8
0
10
0.8992534
20
42.7062086
11
-15.9353038
21
40.3402659
0
LINE
8
0
10
-15.9353038
20
40.3402659
11
-13.9868804
21
26.4765129
0
CIRCLE
8
0
10
103.675557
20
26.6165068
40
17.5
0
LINE
8
0
10
53.1526447
20
-28.4442435
11
70.0259293
21
-30.5160223
0
LINE
8
0
10
70.0259293
20
-30.5160223
11
73.3164015
21
-3.7172762
0
LINE
8
0
10
73.3164015
20
-3.7172762
11
56.443117
21
-1.6454974
0
LINE
8
0
10
56.443117
20
-1.6454974
11
53.1526447
21
-28.4442435
0
LINE
8
0
10
89.7875567
20
-42.6517806
11
103.7977019
21
-52.2806866
0
LINE
8
0
10
103.7977019
20
-52.2806866
11
119.0906703
21
-30.0292795
0
LINE
8
0
10
119.0906703
20
-30.0292795
11
105.0805251
21
-20.4003735
0
LINE
8
0
10
105.0805251
20
-20.4003735
11
89.7875567
21
-42.6517806
0
ENDSEC
0
EOF