0
SECTION
2
HEADER
9
$INSUNITS
70
4
0
ENDSEC
0
SECTION
2
TABLES
0
TABLE
2
LTYPE
0
LTYPE
72
65
70
64
2
CONTINUOUS
3
______
73
0
40
0
0
ENDTAB
0
TABLE
2
LAYER
0
ENDTAB
0
ENDSEC
0
SECTION
2
ENTITIES
0
LINE
8
0
10
-18.8793456
20
45.4805594
11
-9.7572269
21
46.7625896
0
LINE
8
0
10
-18.9557534
20
38.8389321
11
-19.7304406
21
44.3511182
0
LINE
8
0
10
24.8952585
20
63.1536076
11
44.8952585
21
63.1536076
0
LINE
8
0
10
45.8952585
20
62.1536076
11
45.8952585
21
61.6355547
0
LINE
8
0
10
23.8952585
20
60.0716187
11
23.8952585
21
62.1536076
0
LINE
8
0
10
46.825502
20
60.6379906
11
65.44482
21
59.3360011
0
LINE
8
0
10
66.3726275
20
58.2686805
11
66.323798
21
57.5703858
0
LINE
8
0
10
67.2516055
20
56.5030652
11
85.2077586
21
55.2474486
0
ARC
8
0
10
85.1380021
20
54.2498845
40
1
50
355.9999983
51
85.9999987
0
ARC
8
0
10
67.321362
20
57.5006293
40
1
50
175.9999983
51
265.9999987
0
ARC
8
0
10
65.3750635
20
58.338437
40
1
50
355.9999983
51
85.9999987
0
ARC
8
0
10
46.8952585
20
61.6355547
40
1
50
180
51
265.9999987
0
ARC
8
0
10
44.8952585
20
62.1536076
40
1
50
0
51
90
0
ARC
8
0
10
24.8952585
20
62.1536076
40
1
50
90
51
180
0
ARC
8
0
10
-18.7401725
20
44.4902913
40
1
50
97.9999997
51
187.9999997
0
LINE
8
0
10
108.8751237
20
-7.1167644
11
117.8670534
21
-31.8895284
0
LINE
8
0
10
116.8899743
20
-37.7126213
11
111.248606
21
-44.6791309
0
LINE
8
0
10
104.0988
20
-46.3635362
11
63.4029336
21
-27.8284254
0
LINE
8
0
10
62.1459423
20
-27.4161684
11
-8.4876918
21
-12.6228462
0
LINE
8
0
10
-10.7771518
20
-11.6096681
11
-29.0781527
21
1.6447321
0
LINE
8
0
10
-31.2095116
20
4.4869783
11
-35.9953308
21
17.8936999
0
LINE
8
0
10
-34.3604293
20
24.3687629
11
-19.2767121
21
37.9567752
0
LINE
8
0
10
-9.2270906
20
47.0098739
11
1.783039
21
56.9282364
0
LINE
8
0
10
5.5894983
20
58.4666787
11
22.930158
21
59.0722279
0
ARC
8
0
10
112.2270984
20
-33.936699
40
6
50
321.000001
51
19.9497028
0
ARC
8
0
10
106.5857302
20
-40.9032085
40
6
50
245.5128999
51
320.9999995
0
ARC
8
0
10
60.9160034
20
-33.2887531
40
6
50
65.5128999
51
78.1710979
0
ARC
8
0
10
-7.257753
20
-6.7502615
40
6
50
234.0862696
51
258.1710979
0
ARC
8
0
10
-25.5587537
20
6.5041387
40
6
50
199.6451237
51
234.0862677
0
ARC
8
0
10
-30.3445729
20
19.9108602
40
6
50
132.0137863
51
199.645123
0
ARC
8
0
10
5.7988953
20
52.4703337
40
6
50
92.0000002
51
132.0137863
0
ARC
8
0
10
-9.8964
20
47.7528577
40
1
50
277.9999997
51
312.0137863
0
ARC
8
0
10
22.8952585
20
60.0716187
40
1
50
272.0000002
51
0
0
ARC
8
0
10
110.47146
20
-44.0498105
40
1
50
320.9999995
51
321.000001
0
ARC
8
0
10
104.5132884
20
-45.4534816
40
1
50
245.5128974
51
245.5128999
0
ARC
8
0
10
62.9884452
20
-28.73848
40
1
50
65.5128974
51
65.5128999
0
ARC
8
0
10
-10.1905853
20
-10.799767
40
1
50
234.0862677
51
234.0862696
0
ARC
8
0
10
-35.0535378
20
18.2298933
40
1
50
199.645123
51
199.6451237
0
ARC
8
0
10
-19.9460215
20
38.699759
40
1
50
312.0137863
51
7.9999997
0
LINE
8
0
10
86.1209242
20
54.4339068
11
86.2181615
21
54.2144501
0
LINE
8
0
10
86.2181615
20
54.2144501
11
86.3858644
21
54.0323081
0
LINE
8
0
10
86.3858644
20
54.0323081
11
86.9186197
21
53.9098466
0
LINE
8
0
10
86.9186197
20
53.9098466
11
120.7329229
21
53.895577
0
LINE
8
0
10
122.6876645
20
51.4764294
11
109.6635896
21
-9.2889877
0
ARC
8
0
10
120.7320789
20
51.8955772
40
2
50
347.902617
51
89.9758212
0
LINE
8
0
10
83.6940895
20
19.2653863
11
83.4150635
21
15.2751302
0
LINE
8
0
10
82.9485019
20
8.6029886
11
83.4150635
21
15.2751302
0
LINE
8
0
10
84.6706801
20
33.231283
11
85.4031231
21
43.7057056
0
LINE
8
0
10
84.6706801
20
33.231283
11
84.1475065
21
25.7495528
0
LINE
8
0
10
84.1475065
20
25.7495528
11
83.6940895
21
19.2653863
0
LINE
8
0
10
86.1355661
20
54.180128
11
85.4031231
21
43.7057056
0
LINE
8
0
10
83.4916791
20
7.6424277
11
87.4195086
21
5.6388969
0
LINE
8
0
10
105.034973
20
-3.346505
11
105.9614902
21
-3.8191085
0
ARC
8
0
10
103.2351687
20
-9.1639351
40
6
50
19.9497039
51
62.9745058
0
ARC
8
0
10
83.946066
20
8.5332321
40
1
50
175.9999987
51
242.9745058
0
ARC
8
0
10
105.4893599
20
-2.4557006
40
1
50
234.4630415
51
242.9745058
0
ARC
8
0
10
107.9351312
20
-7.4579595
40
1
50
19.9497028
51
19.9497039
0
LINE
8
0
10
-8.3236075
20
-8.071531
11
5.5401455
21
-6.1231076
0
LINE
8
0
10
5.5401455
20
-6.1231076
11
3.5917221
21
7.7406454
0
LINE
8
0
10
3.5917221
20
7.7406454
11
-10.2720309
21
5.792222
0
LINE
8
0
10
-10.2720309
20
5.792222
11
-8.3236075
21
-8.071531
0
LINE
8
0
10
-10.8287233
20
9.7532942
11
3.0350297
21
11.7017176
0
LINE
8
0
10
3.0350297
20
11.7017176
11
1.0866063
21
25.5654706
0
LINE
8
0
10
1.0866063
20
25.5654706
11
-12.7771467
21
23.6170472
0
LINE
8
0
10
-12.7771467
20
23.6170472
11
-10.8287233
21
9.7532942
0
LINE
8
0
10
-29.6438167
20
7.1090052
11
-15.7800637
21
9.0574286
0
LINE
8
0
10
-15.7800637
20
9.0574286
11
-17.7284871
21
22.9211816
0
LINE
8
0
10
-17.7284871
20
22.9211816
11
-31.5922401
21
20.9727582
0
LINE
8
0
10
-31.5922401
20
20.9727582
11
-29.6438167
21
7.1090052
0
LINE
8
0
10
9.0605289
20
5.3554619
11
23.0520005
21
5.8440549
0
LINE
8
0
10
23.0520005
20
5.8440549
11
22.5634075
21
19.8355265
0
LINE
8
0
10
22.5634075
20
19.8355265
11
8.5719359
21
19.3469335
0
LINE
8
0
10
8.5719359
20
19.3469335
11
9.0605289
21
5.3554619
0
LINE
8
0
10
8.4323379
20
23.3444967
11
22.4238095
21
23.8330897
0
LINE
8
0
10
22.4238095
20
23.8330897
11
21.9352165
21
37.8245613
0
LINE
8
0
10
21.9352165
20
37.8245613
11
7.9437449
21
37.3359683
0
LINE
8
0
10
7.9437449
20
37.3359683
11
8.4323379
21
23.3444967
0
LINE
8
0
10
7.804147
20
41.3335317
11
21.7956186
21
41.8221247
0
LINE
8
0
10
21.7956186
20
41.8221247
11
21.3070256
21
55.8135963
0
LINE
8
0
10
21.3070256
20
55.8135963
11
7.315554
21
55.3250033
0
LINE
8
0
10
7.315554
20
55.3250033
11
7.804147
21
41.3335317
0
LINE
8
0
10
27.8952585
20
9.6536076
11
41.8952585
21
9.6536076
0
LINE
8
0
10
41.8952585
20
9.6536076
11
41.8952585
21
23.6536076
0
LINE
8
0
10
41.8952585
20
23.6536076
11
27.8952585
21
23.6536076
0
LINE
8
0
10
27.8952585
20
23.6536076
11
27.8952585
21
9.6536076
0
LINE
8
0
10
27.8952586
20
27.6536076
11
41.8952586
21
27.6536076
0
LINE
8
0
10
41.8952586
20
27.6536076
11
41.8952586
21
41.6536076
0
LINE
8
0
10
41.8952586
20
41.6536076
11
27.8952586
21
41.6536076
0
LINE
8
0
10
27.8952586
20
41.6536076
11
27.8952586
21
27.6536076
0
LINE
8
0
10
27.8952585
20
45.6536076
11
41.8952585
21
45.6536076
0
LINE
8
0
10
41.8952585
20
45.6536076
11
41.8952585
21
59.6536076
0
LINE
8
0
10
41.8952585
20
59.6536076
11
27.8952585
21
59.6536076
0
LINE
8
0
10
27.8952585
20
59.6536076
11
27.8952585
21
45.6536076
0
LINE
8
0
10
46.6098748
20
5.0175434
11
60.5757715
21
4.0409527
0
LINE
8
0
10
60.5757715
20
4.0409527
11
61.5523622
21
18.0068494
0
LINE
8
0
10
61.5523622
20
18.0068494
11
47.5864655
21
18.9834401
0
LINE
8
0
10
47.5864655
20
18.9834401
11
46.6098748
21
5.0175434
0
LINE
8
0
10
47.8654914
20
22.9736964
11
61.8313881
21
21.9971057
0
LINE
8
0
10
61.8313881
20
21.9971057
11
62.8079788
21
35.9630024
0
LINE
8
0
10
62.8079788
20
35.9630024
11
48.8420821
21
36.9395931
0
LINE
8
0
10
48.8420821
20
36.9395931
11
47.8654914
21
22.9736964
0
LINE
8
0
10
49.1211079
20
40.9298492
11
63.0870046
21
39.9532585
0
LINE
8
0
10
63.0870046
20
39.9532585
11
64.0635953
21
53.9191552
0
LINE
8
0
10
64.0635953
20
53.9191552
11
50.0976986
21
54.8957459
0
LINE
8
0
10
50.0976986
20
54.8957459
11
49.1211079
21
40.9298492
0
LINE
8
0
10
65.4450058
20
1.9963115
11
79.4109025
21
1.0197208
0
LINE
8
0
10
79.4109025
20
1.0197208
11
80.3874932
21
14.9856175
0
LINE
8
0
10
80.3874932
20
14.9856175
11
66.4215965
21
15.9622082
0
LINE
8
0
10
66.4215965
20
15.9622082
11
65.4450058
21
1.9963115
0
LINE
8
0
10
66.7006223
20
19.9524645
11
80.666519
21
18.9758738
0
LINE
8
0
10
80.666519
20
18.9758738
11
81.6431097
21
32.9417705
0
LINE
8
0
10
81.6431097
20
32.9417705
11
67.677213
21
33.9183612
0
LINE
8
0
10
67.677213
20
33.9183612
11
66.7006223
21
19.9524645
0
LINE
8
0
10
67.9562389
20
37.9086173
11
81.9221356
21
36.9320266
0
LINE
8
0
10
81.9221356
20
36.9320266
11
82.8987263
21
50.8979233
0
LINE
8
0
10
82.8987263
20
50.8979233
11
68.9328296
21
51.874514
0
LINE
8
0
10
68.9328296
20
51.874514
11
67.9562389
21
37.9086173
0
LINE
8
0
10
55.5293536
20
-22.3009737
11
69.3569903
21
-24.4910562
0
LINE
8
0
10
69.3569903
20
-24.4910562
11
71.5470728
21
-10.6634195
0
LINE
8
0
10
71.5470728
20
-10.6634195
11
57.7194361
21
-8.473337
0
LINE
8
0
10
57.7194361
20
-8.473337
11
55.5293536
21
-22.3009737
0
LINE
8
0
10
76.2246543
20
-26.3892188
11
89.0142907
21
-32.0835318
0
LINE
8
0
10
89.0142907
20
-32.0835318
11
94.7086037
21
-19.2938954
0
LINE
8
0
10
94.7086037
20
-19.2938954
11
81.9189673
21
-13.5995824
0
LINE
8
0
10
81.9189673
20
-13.5995824
11
76.2246543
21
-26.3892188
0
LINE
8
0
10
95.1566642
20
-35.6944984
11
106.0367077
21
-44.5049839
0
LINE
8
0
10
106.0367077
20
-44.5049839
11
114.8471932
21
-33.6249404
0
LINE
8
0
10
114.8471932
20
-33.6249404
11
103.9671497
21
-24.8144549
0
LINE
8
0
10
103.9671497
20
-24.8144549
11
95.1566642
21
-35.6944984
0
CIRCLE
8
0
10
2.0802586
20
46.4936076
40
1.1
0
CIRCLE
8
0
10
-17.9047414
20
2.2036076
40
1.1
0
CIRCLE
8
0
10
66.0502586
20
36.7036076
40
1.1
0
CIRCLE
8
0
10
63.6802586
20
-4.3263924
40
1.1
0
CIRCLE
8
0
10
103.3952586
20
-17.0363924
40
1.1
0
LINE
8
0
10
82.7093261
20
-9.8575331
11
96.9606353
21
-16.2026248
0
LINE
8
0
10
99.6011994
20
-15.189007
11
104.9081319
21
-3.2694414
0
LINE
8
0
10
87.4195086
20
5.6388969
11
81.6957083
21
-7.216969
0
ARC
8
0
10
97.7741085
20
-14.3755338
40
2
50
246.0000032
51
336.0000032
0
ARC
8
0
10
83.5227993
20
-8.0304422
40
2
50
156.0000032
51
246.0000032
0
CIRCLE
8
0
10
109.4602586
20
51.4736076
40
1.1
0
CIRCLE
8
0
10
88.1402586
20
9.6236076
40
1.1
0
CIRCLE
8
0
10
105.7252586
20
3.3136076
40
1.1
0
CIRCLE
8
0
10
2.0802586
20
46.4936076
40
1.9
0
CIRCLE
8
0
10
-17.9047414
20
2.2036076
40
1.9
0
CIRCLE
8
0
10
66.0502586
20
36.7036076
40
1.9
0
CIRCLE
8
0
10
63.6802586
20
-4.3263924
40
1.9
0
CIRCLE
8
0
10
103.3952586
20
-17.0363924
40
1.9
0
CIRCLE
8
0
10
44.1202586
20
22.5536076
40
20.5
0
CIRCLE
8
0
10
80.8143285
20
44.0265853
40
7.5
0
CIRCLE
8
0
10
-4.8710585
20
17.6593824
40
7.5
0
CIRCLE
8
0
10
76.8207703
20
-13.0839565
40
7.5
0
LINE
8
0
10
82.7643657
20
-11.0861382
11
96.1021294
21
-17.0244932
0
LINE
8
0
10
96.1021294
20
-17.0244932
11
103.4640626
21
-0.4893204
0
LINE
8
0
10
103.4640626
20
-0.4893204
11
90.1262989
21
5.4490346
0
LINE
8
0
10
90.1262989
20
5.4490346
11
82.7643657
21
-11.0861382
0
CIRCLE
8
0
10
104.8952586
20
24.6536076
40
17.5
0
ENDSEC
0
EOF