0
SECTION
2
HEADER
9
$INSUNITS
70
4
0
ENDSEC
0
SECTION
2
TABLES
0
TABLE
2
LTYPE
0
LTYPE
72
65
70
64
2
CONTINUOUS
3
______
73
0
40
0
0
ENDTAB
0
TABLE
2
LAYER
0
ENDTAB
0
ENDSEC
0
SECTION
2
ENTITIES
0
LINE
8
0
10
-18.8793456
20
45.4805594
11
-9.7572269
21
46.7625896
0
LINE
8
0
10
-18.9557534
20
38.8389321
11
-19.7304406
21
44.3511182
0
LINE
8
0
10
24.8952585
20
63.1536076
11
44.8952585
21
63.1536076
0
LINE
8
0
10
45.8952585
20
62.1536076
11
45.8952585
21
61.6355547
0
LINE
8
0
10
23.8952585
20
60.0716187
11
23.8952585
21
62.1536076
0
LINE
8
0
10
46.825502
20
60.6379906
11
65.44482
21
59.3360011
0
LINE
8
0
10
66.3726275
20
58.2686805
11
66.323798
21
57.5703858
0
LINE
8
0
10
67.2516055
20
56.5030652
11
85.2077586
21
55.2474486
0
ARC
8
0
10
67.321362
20
57.5006293
40
1
50
175.9999983
51
265.9999987
0
ARC
8
0
10
65.3750635
20
58.338437
40
1
50
355.9999983
51
85.9999987
0
ARC
8
0
10
46.8952585
20
61.6355547
40
1
50
180
51
265.9999987
0
ARC
8
0
10
44.8952585
20
62.1536076
40
1
50
0
51
90
0
ARC
8
0
10
24.8952585
20
62.1536076
40
1
50
90
51
180
0
ARC
8
0
10
-18.7401725
20
44.4902913
40
1
50
97.9999997
51
187.9999997
0
LINE
8
0
10
108.7182198
20
-7.5710858
11
115.8128129
21
-36.7934697
0
LINE
8
0
10
113.9185408
20
-42.7372833
11
107.1186736
21
-48.6483176
0
LINE
8
0
10
100.1152062
20
-49.2768821
11
64.5584154
21
-28.1288356
0
LINE
8
0
10
62.7116401
20
-27.4110705
11
-8.482244
21
-12.6218411
0
LINE
8
0
10
-10.7813046
20
-11.6066605
11
-29.0781527
21
1.6447321
0
LINE
8
0
10
-31.2095116
20
4.4869783
11
-35.9953308
21
17.8936999
0
LINE
8
0
10
-34.3604293
20
24.3687629
11
-19.2767121
21
37.9567752
0
LINE
8
0
10
-9.2270906
20
47.0098739
11
1.783039
21
56.9282364
0
LINE
8
0
10
5.5894983
20
58.4666787
11
22.930158
21
59.0722279
0
ARC
8
0
10
109.9821867
20
-38.2090257
40
6
50
310.9999996
51
13.6462139
0
ARC
8
0
10
103.1823196
20
-44.12006
40
6
50
239.2571672
51
310.999998
0
ARC
8
0
10
61.4913019
20
-33.2856577
40
6
50
59.2571672
51
78.2647501
0
ARC
8
0
10
-7.2619058
20
-6.7472539
40
6
50
234.0862696
51
258.2647501
0
ARC
8
0
10
-25.5587537
20
6.5041387
40
6
50
199.6451237
51
234.0862677
0
ARC
8
0
10
-30.3445729
20
19.9108602
40
6
50
132.0137863
51
199.645123
0
ARC
8
0
10
5.7988953
20
52.4703337
40
6
50
92.0000002
51
132.0137863
0
ARC
8
0
10
-9.8964
20
47.7528577
40
1
50
277.9999997
51
312.0137863
0
ARC
8
0
10
22.8952585
20
60.0716187
40
1
50
272.0000002
51
0
0
ARC
8
0
10
113.2624818
20
-41.9825736
40
1
50
310.999998
51
310.9999996
0
ARC
8
0
10
62.5082504
20
-28.3901684
40
1
50
78.2647501
51
78.2647506
0
ARC
8
0
10
-8.2788543
20
-11.6427432
40
1
50
258.2647501
51
258.2647506
0
ARC
8
0
10
-10.1947381
20
-10.7967594
40
1
50
234.0862677
51
234.0862696
0
ARC
8
0
10
-35.0535378
20
18.2298933
40
1
50
199.645123
51
199.6451237
0
ARC
8
0
10
-19.9460215
20
38.699759
40
1
50
312.0137863
51
7.9999997
0
LINE
8
0
10
83.8153543
20
55.4049615
11
118.4786123
21
52.9810704
0
LINE
8
0
10
122.1029435
20
48.1168566
11
109.1948787
21
-9.5344273
0
ARC
8
0
10
83.5363283
20
51.4147053
40
4
50
85.9999987
51
95.9363668
0
ARC
8
0
10
118.1995863
20
48.9908142
40
4
50
347.3796761
51
85.9999987
0
LINE
8
0
10
83.6940895
20
19.2653863
11
83.4150635
21
15.2751302
0
LINE
8
0
10
82.9485019
20
8.6029886
11
83.4150635
21
15.2751302
0
LINE
8
0
10
84.6706801
20
33.231283
11
85.4031231
21
43.7057056
0
LINE
8
0
10
84.6706801
20
33.231283
11
84.1475065
21
25.7495528
0
LINE
8
0
10
84.1475065
20
25.7495528
11
83.6940895
21
19.2653863
0
LINE
8
0
10
86.1355661
20
54.180128
11
85.4031231
21
43.7057056
0
ARC
8
0
10
85.1380021
20
54.2498845
40
1
50
355.9999983
51
85.9999987
0
LINE
8
0
10
83.4916791
20
7.6424277
11
87.3064258
21
5.6965788
0
LINE
8
0
10
105.1330992
20
-3.3965578
11
105.6139151
21
-3.6418153
0
ARC
8
0
10
102.8875936
20
-8.9866419
40
6
50
13.6462139
51
62.9745058
0
ARC
8
0
10
83.946066
20
8.5332321
40
1
50
175.9999987
51
242.9745058
0
ARC
8
0
10
87.7608127
20
6.5873832
40
1
50
242.9745058
51
252.5369605
0
ARC
8
0
10
105.5874861
20
-2.5057534
40
1
50
229.4630426
51
242.9745058
0
LINE
8
0
10
-8.3236075
20
-8.071531
11
5.5401455
21
-6.1231076
0
LINE
8
0
10
5.5401455
20
-6.1231076
11
3.5917221
21
7.7406454
0
LINE
8
0
10
3.5917221
20
7.7406454
11
-10.2720309
21
5.792222
0
LINE
8
0
10
-10.2720309
20
5.792222
11
-8.3236075
21
-8.071531
0
LINE
8
0
10
-10.8287233
20
9.7532942
11
3.0350297
21
11.7017176
0
LINE
8
0
10
3.0350297
20
11.7017176
11
1.0866063
21
25.5654706
0
LINE
8
0
10
1.0866063
20
25.5654706
11
-12.7771467
21
23.6170472
0
LINE
8
0
10
-12.7771467
20
23.6170472
11
-10.8287233
21
9.7532942
0
LINE
8
0
10
-29.6438167
20
7.1090052
11
-15.7800637
21
9.0574286
0
LINE
8
0
10
-15.7800637
20
9.0574286
11
-17.7284871
21
22.9211816
0
LINE
8
0
10
-17.7284871
20
22.9211816
11
-31.5922401
21
20.9727582
0
LINE
8
0
10
-31.5922401
20
20.9727582
11
-29.6438167
21
7.1090052
0
LINE
8
0
10
9.0605289
20
5.3554619
11
23.0520005
21
5.8440549
0
LINE
8
0
10
23.0520005
20
5.8440549
11
22.5634075
21
19.8355265
0
LINE
8
0
10
22.5634075
20
19.8355265
11
8.5719359
21
19.3469335
0
LINE
8
0
10
8.5719359
20
19.3469335
11
9.0605289
21
5.3554619
0
LINE
8
0
10
8.4323379
20
23.3444967
11
22.4238095
21
23.8330897
0
LINE
8
0
10
22.4238095
20
23.8330897
11
21.9352165
21
37.8245613
0
LINE
8
0
10
21.9352165
20
37.8245613
11
7.9437449
21
37.3359683
0
LINE
8
0
10
7.9437449
20
37.3359683
11
8.4323379
21
23.3444967
0
LINE
8
0
10
7.804147
20
41.3335317
11
21.7956186
21
41.8221247
0
LINE
8
0
10
21.7956186
20
41.8221247
11
21.3070256
21
55.8135963
0
LINE
8
0
10
21.3070256
20
55.8135963
11
7.315554
21
55.3250033
0
LINE
8
0
10
7.315554
20
55.3250033
11
7.804147
21
41.3335317
0
LINE
8
0
10
27.8952585
20
9.6536076
11
41.8952585
21
9.6536076
0
LINE
8
0
10
41.8952585
20
9.6536076
11
41.8952585
21
23.6536076
0
LINE
8
0
10
41.8952585
20
23.6536076
11
27.8952585
21
23.6536076
0
LINE
8
0
10
27.8952585
20
23.6536076
11
27.8952585
21
9.6536076
0
LINE
8
0
10
27.8952586
20
27.6536076
11
41.8952586
21
27.6536076
0
LINE
8
0
10
41.8952586
20
27.6536076
11
41.8952586
21
41.6536076
0
LINE
8
0
10
41.8952586
20
41.6536076
11
27.8952586
21
41.6536076
0
LINE
8
0
10
27.8952586
20
41.6536076
11
27.8952586
21
27.6536076
0
LINE
8
0
10
27.8952585
20
45.6536076
11
41.8952585
21
45.6536076
0
LINE
8
0
10
41.8952585
20
45.6536076
11
41.8952585
21
59.6536076
0
LINE
8
0
10
41.8952585
20
59.6536076
11
27.8952585
21
59.6536076
0
LINE
8
0
10
27.8952585
20
59.6536076
11
27.8952585
21
45.6536076
0
LINE
8
0
10
46.6098748
20
5.0175434
11
60.5757715
21
4.0409527
0
LINE
8
0
10
60.5757715
20
4.0409527
11
61.5523622
21
18.0068494
0
LINE
8
0
10
61.5523622
20
18.0068494
11
47.5864655
21
18.9834401
0
LINE
8
0
10
47.5864655
20
18.9834401
11
46.6098748
21
5.0175434
0
LINE
8
0
10
47.8654914
20
22.9736964
11
61.8313881
21
21.9971057
0
LINE
8
0
10
61.8313881
20
21.9971057
11
62.8079788
21
35.9630024
0
LINE
8
0
10
62.8079788
20
35.9630024
11
48.8420821
21
36.9395931
0
LINE
8
0
10
48.8420821
20
36.9395931
11
47.8654914
21
22.9736964
0
LINE
8
0
10
49.1211079
20
40.9298492
11
63.0870046
21
39.9532585
0
LINE
8
0
10
63.0870046
20
39.9532585
11
64.0635953
21
53.9191552
0
LINE
8
0
10
64.0635953
20
53.9191552
11
50.0976986
21
54.8957459
0
LINE
8
0
10
50.0976986
20
54.8957459
11
49.1211079
21
40.9298492
0
LINE
8
0
10
65.4450058
20
1.9963115
11
79.4109025
21
1.0197208
0
LINE
8
0
10
79.4109025
20
1.0197208
11
80.3874932
21
14.9856175
0
LINE
8
0
10
80.3874932
20
14.9856175
11
66.4215965
21
15.9622082
0
LINE
8
0
10
66.4215965
20
15.9622082
11
65.4450058
21
1.9963115
0
LINE
8
0
10
66.7006223
20
19.9524645
11
80.666519
21
18.9758738
0
LINE
8
0
10
80.666519
20
18.9758738
11
81.6431097
21
32.9417705
0
LINE
8
0
10
81.6431097
20
32.9417705
11
67.677213
21
33.9183612
0
LINE
8
0
10
67.677213
20
33.9183612
11
66.7006223
21
19.9524645
0
LINE
8
0
10
67.9562389
20
37.9086173
11
81.9221356
21
36.9320266
0
LINE
8
0
10
81.9221356
20
36.9320266
11
82.8987263
21
50.8979233
0
LINE
8
0
10
82.8987263
20
50.8979233
11
68.9328296
21
51.874514
0
LINE
8
0
10
68.9328296
20
51.874514
11
67.9562389
21
37.9086173
0
LINE
8
0
10
56.4271613
20
-22.3637546
11
70.254798
21
-24.5538371
0
LINE
8
0
10
70.254798
20
-24.5538371
11
72.4448805
21
-10.7262004
0
LINE
8
0
10
72.4448805
20
-10.7262004
11
58.6172438
21
-8.5361179
0
LINE
8
0
10
58.6172438
20
-8.5361179
11
56.4271613
21
-22.3637546
0
LINE
8
0
10
76.0179029
20
-26.3545794
11
88.2625788
21
-33.1419141
0
LINE
8
0
10
88.2625788
20
-33.1419141
11
95.0499135
21
-20.8972382
0
LINE
8
0
10
95.0499135
20
-20.8972382
11
82.8052376
21
-14.1099035
0
LINE
8
0
10
82.8052376
20
-14.1099035
11
76.0179029
21
-26.3545794
0
LINE
8
0
10
93.062236
20
-36.8051564
11
102.2470624
21
-47.3710906
0
LINE
8
0
10
102.2470624
20
-47.3710906
11
112.8129966
21
-38.1862642
0
LINE
8
0
10
112.8129966
20
-38.1862642
11
103.6281702
21
-27.62033
0
LINE
8
0
10
103.6281702
20
-27.62033
11
93.062236
21
-36.8051564
0
CIRCLE
8
0
10
2.0802586
20
46.4936076
40
1.1
0
CIRCLE
8
0
10
-17.9047414
20
2.2036076
40
1.1
0
CIRCLE
8
0
10
66.0502586
20
36.7036076
40
1.1
0
CIRCLE
8
0
10
63.6802586
20
-4.3263924
40
1.1
0
CIRCLE
8
0
10
103.3102586
20
-20.2763924
40
1.1
0
LINE
8
0
10
81.5596806
20
-9.137619
11
95.2037481
21
-16.7006492
0
LINE
8
0
10
97.9226067
20
-15.921029
11
104.9375477
21
-3.2657403
0
LINE
8
0
10
87.4607222
20
5.6334725
11
80.7800604
21
-6.4187604
0
ARC
8
0
10
96.1733673
20
-14.9514098
40
2
50
241.0000008
51
331.0000008
0
ARC
8
0
10
82.5292998
20
-7.3883796
40
2
50
151.0000008
51
241.0000008
0
CIRCLE
8
0
10
110.7402586
20
50.3336076
40
1.1
0
CIRCLE
8
0
10
88.1402586
20
9.6236076
40
1.1
0
CIRCLE
8
0
10
105.4202586
20
2.6436076
40
1.1
0
CIRCLE
8
0
10
2.0802586
20
46.4936076
40
1.9
0
CIRCLE
8
0
10
-17.9047414
20
2.2036076
40
1.9
0
CIRCLE
8
0
10
66.0502586
20
36.7036076
40
1.9
0
CIRCLE
8
0
10
63.6802586
20
-4.3263924
40
1.9
0
CIRCLE
8
0
10
103.3102586
20
-20.2763924
40
1.9
0
CIRCLE
8
0
10
44.1202586
20
22.5536076
40
20.5
0
CIRCLE
8
0
10
80.8143285
20
44.0265853
40
7.5
0
CIRCLE
8
0
10
-4.8710585
20
17.6593824
40
7.5
0
CIRCLE
8
0
10
76.8207703
20
-13.0839565
40
7.5
0
LINE
8
0
10
94.8101691
20
-16.4824848
11
103.5852233
21
-0.6518681
0
LINE
8
0
10
103.5852233
20
-0.6518681
11
90.8157755
21
6.4263524
0
LINE
8
0
10
90.8157755
20
6.4263524
11
82.0407214
21
-9.4042643
0
CIRCLE
8
0
10
104.8952586
20
24.6536076
40
17.5
0
ENDSEC
0
EOF