0
SECTION
2
HEADER
9
$INSUNITS
70
4
0
ENDSEC
0
SECTION
2
TABLES
0
TABLE
2
LTYPE
0
LTYPE
72
65
70
64
2
CONTINUOUS
3
______
73
0
40
0
0
ENDTAB
0
TABLE
2
LAYER
0
ENDTAB
0
ENDSEC
0
SECTION
2
ENTITIES
0
LINE
8
0
10
-1.2095183
20
49.3525813
11
12.9073851
21
51.3365827
0
LINE
8
0
10
-0.8088808
20
39.3166005
11
-2.0606133
21
48.2231401
0
LINE
8
0
10
25.8478195
20
61.05176
11
42.0547742
21
61.6177194
0
ARC
8
0
10
25.9176185
20
59.0529784
40
2
50
92
51
99.3557048
0
LINE
8
0
10
44.0198747
20
65.8147918
11
65.0198747
21
65.8147918
0
LINE
8
0
10
66.0198747
20
64.8147918
11
66.0198747
21
61.6942861
0
LINE
8
0
10
43.0198747
20
62.6171102
11
43.0198747
21
64.8147918
0
ARC
8
0
10
84.9308976
20
57.4344996
40
2
50
17.5101909
51
86
0
LINE
8
0
10
66.9501182
20
60.696722
11
85.0704106
21
59.4296277
0
LINE
8
0
10
87.7221315
20
57.3395617
11
135.8115757
21
53.9768202
0
ARC
8
0
10
87.791888
20
58.3371259
40
1
50
197.5101909
51
265.9999987
0
ARC
8
0
10
67.0198747
20
61.6942861
40
1
50
180
51
265.9999987
0
ARC
8
0
10
65.0198747
20
64.8147918
40
1
50
0
51
90
0
ARC
8
0
10
44.0198747
20
64.8147918
40
1
50
90
51
180
0
ARC
8
0
10
42.0198747
20
62.6171102
40
1
50
272.0000002
51
0
0
ARC
8
0
10
-1.0703452
20
48.3623132
40
1
50
97.9999997
51
187.9999997
0
LINE
8
0
10
129.4013418
20
-3.7065995
11
138.7924809
21
-35.8546913
0
LINE
8
0
10
136.9695392
20
-42.0653612
11
128.975585
21
-49.0143995
0
LINE
8
0
10
121.7254688
20
-49.4880396
11
86.8638377
21
-26.3921745
0
LINE
8
0
10
84.6751745
20
-25.5005035
11
9.6413579
21
-11.1763349
0
LINE
8
0
10
7.1555668
20
-10.0745793
11
-11.6308532
21
4.0820036
0
LINE
8
0
10
-13.7586291
20
7.1223278
11
-17.409712
21
19.0849194
0
LINE
8
0
10
-15.6913838
20
25.29027
11
-1.1290926
21
38.4351171
0
LINE
8
0
10
13.4382683
20
51.5845405
11
22.2248208
21
59.5158398
0
ARC
8
0
10
133.0331851
20
-37.5371037
40
6
50
310.9999996
51
16.2842024
0
ARC
8
0
10
125.039231
20
-44.4861419
40
6
50
236.4754873
51
310.999998
0
ARC
8
0
10
83.5500755
20
-31.3940722
40
6
50
56.4754873
51
79.1921152
0
ARC
8
0
10
10.7664568
20
-5.2827662
40
6
50
233.0000007
51
259.1921152
0
ARC
8
0
10
-8.0199631
20
8.8738166
40
6
50
196.9726276
51
232.9999998
0
ARC
8
0
10
-11.671046
20
20.8364083
40
6
50
132.0714103
51
196.9726276
0
ARC
8
0
10
26.2451586
20
55.0619781
40
6
50
96.244863
51
132.0714095
0
ARC
8
0
10
12.768212
20
52.3268508
40
1
50
277.9999997
51
312.0714095
0
ARC
8
0
10
137.8325983
20
-36.1350934
40
1
50
16.2842024
51
16.2842052
0
ARC
8
0
10
136.3134802
20
-41.3106516
40
1
50
310.999998
51
310.9999996
0
ARC
8
0
10
122.2777625
20
-48.65439
40
1
50
236.4754866
51
236.4754873
0
ARC
8
0
10
86.311544
20
-27.2258241
40
1
50
56.4754866
51
56.4754873
0
ARC
8
0
10
-11.0290382
20
4.8806391
40
1
50
232.9999998
51
233.0000007
0
ARC
8
0
10
-15.0213275
20
24.5479597
40
1
50
132.0714095
51
132.0714103
0
ARC
8
0
10
-1.7991489
20
39.1774274
40
1
50
312.0714095
51
7.9999997
0
LINE
8
0
10
139.462233
20
49.2398448
11
129.4013418
21
-3.7065995
0
ARC
8
0
10
135.5325497
20
49.986564
40
4
50
349.2409157
51
85.9999987
0
CIRCLE
8
0
10
21.7048748
20
49.1547918
40
1.1
0
CIRCLE
8
0
10
1.7198748
20
4.8647918
40
1.1
0
CIRCLE
8
0
10
85.6748748
20
39.3647918
40
1.1
0
CIRCLE
8
0
10
83.6748748
20
-2.1952082
40
1.1
0
CIRCLE
8
0
10
128.2848748
20
-21.3952082
40
1.1
0
CIRCLE
8
0
10
34.3378863
20
32.8308676
40
2.5527
0
CIRCLE
8
0
10
54.5198748
20
37.3147918
40
2.5527
0
CIRCLE
8
0
10
75.6006208
20
31.5222258
40
2.5527
0
CIRCLE
8
0
10
35.0009767
20
13.8424419
40
2.5527
0
CIRCLE
8
0
10
54.5198748
20
18.3147918
40
2.5527
0
CIRCLE
8
0
10
74.2752478
20
12.5685089
40
2.5527
0
CIRCLE
8
0
10
95.7471735
20
47.2551981
40
7.5
0
CIRCLE
8
0
10
13.7114222
20
18.6301866
40
7.5
0
CIRCLE
8
0
10
91.3734424
20
-15.2920679
40
7.5
0
ENDSEC
0
EOF