  0
SECTION
  2
HEADER
  9
$ACADVER
  1
AC1014
  9
$HANDSEED
  5
FFFF
  9
$MEASUREMENT
 70
     1
  0
ENDSEC
  0
SECTION
  2
TABLES
  0
TABLE
  2
VPORT
  5
8
330
0
100
AcDbSymbolTable
 70
     4
  0
VPORT
  5
2E
330
8
100
AcDbSymbolTableRecord
100
AcDbViewportTableRecord
  2
*ACTIVE
 70
     0
 10
0.0
 20
0.0
 11
1.0
 21
1.0
 12
210.0
 22
148.5
 13
0.0
 23
0.0
 14
10.0
 24
10.0
 15
10.0
 25
10.0
 16
0.0
 26
0.0
 36
1.0
 17
0.0
 27
0.0
 37
0.0
 40
341.0
 41
1.24
 42
50.0
 43
0.0
 44
0.0
 50
0.0
 51
0.0
 71
     0
 72
   100
 73
     1
 74
     3
 75
     0
 76
     0
 77
     0
 78
     0
  0
ENDTAB
  0
TABLE
  2
LTYPE
  5
5
330
0
100
AcDbSymbolTable
 70
     1
  0
LTYPE
  5
14
330
5
100
AcDbSymbolTableRecord
100
AcDbLinetypeTableRecord
  2
BYBLOCK
 70
     0
  3

 72
    65
 73
     0
 40
0.0
  0
LTYPE
  5
15
330
5
100
AcDbSymbolTableRecord
100
AcDbLinetypeTableRecord
  2
BYLAYER
 70
     0
  3

 72
    65
 73
     0
 40
0.0
  0
LTYPE
  5
16
330
5
100
AcDbSymbolTableRecord
100
AcDbLinetypeTableRecord
  2
CONTINUOUS
 70
     0
  3
Solid line
 72
    65
 73
     0
 40
0.0
  0
ENDTAB
  0
TABLE
  2
LAYER
  5
2
100
AcDbSymbolTable
 70
2
  0
LAYER
  5
50
100
AcDbSymbolTableRecord
100
AcDbLayerTableRecord
  2
0
 70
0
  6
CONTINUOUS
  0
LAYER
  5
51
100
AcDbSymbolTableRecord
100
AcDbLayerTableRecord
  2
Layer_1
 70
0
  6
CONTINUOUS
  0
ENDTAB
  0
TABLE
  2
STYLE
  5
3
330
0
100
AcDbSymbolTable
 70
     1
  0
STYLE
  5
11
330
3
100
AcDbSymbolTableRecord
100
AcDbTextStyleTableRecord
  2
STANDARD
 70
     0
 40
0.0
 41
1.0
 50
0.0
 71
     0
 42
2.5
  3
txt
  4

  0
ENDTAB
  0
TABLE
  2
VIEW
  5
6
330
0
100
AcDbSymbolTable
 70
     0
  0
ENDTAB
  0
TABLE
  2
UCS
  5
7
330
0
100
AcDbSymbolTable
 70
     0
  0
ENDTAB
  0
TABLE
  2
APPID
  5
9
330
0
100
AcDbSymbolTable
 70
     2
  0
APPID
  5
12
330
9
100
AcDbSymbolTableRecord
100
AcDbRegAppTableRecord
  2
ACAD
 70
     0
  0
ENDTAB
  0
TABLE
  2
DIMSTYLE
  5
A
330
0
100
AcDbSymbolTable
 70
     1
  0
DIMSTYLE
105
27
330
A
100
AcDbSymbolTableRecord
100
AcDbDimStyleTableRecord
  2
ISO-25
 70
     0
  3

  4

  5

  6

  7

 40
1.0
 41
2.5
 42
0.625
 43
3.75
 44
1.25
 45
0.0
 46
0.0
 47
0.0
 48
0.0
140
2.5
141
2.5
142
0.0
143
0.03937007874016
144
1.0
145
0.0
146
1.0
147
0.625
 71
     0
 72
     0
 73
     0
 74
     0
 75
     0
 76
     0
 77
     1
 78
     8
170
     0
171
     3
172
     1
173
     0
174
     0
175
     0
176
     0
177
     0
178
     0
270
     2
271
     2
272
     2
273
     2
274
     3
340
11
275
     0
280
     0
281
     0
282
     0
283
     0
284
     8
285
     0
286
     0
287
     3
288
     0
  0
ENDTAB
  0
TABLE
  2
BLOCK_RECORD
  5
1
330
0
100
AcDbSymbolTable
 70
     1
  0
BLOCK_RECORD
  5
1F
330
1
100
AcDbSymbolTableRecord
100
AcDbBlockTableRecord
  2
*MODEL_SPACE
  0
BLOCK_RECORD
  5
1B
330
1
100
AcDbSymbolTableRecord
100
AcDbBlockTableRecord
  2
*PAPER_SPACE
  0
ENDTAB
  0
ENDSEC
  0
SECTION
  2
BLOCKS
  0
BLOCK
  5
20
330
1F
100
AcDbEntity
  8
0
100
AcDbBlockBegin
  2
*MODEL_SPACE
 70
     0
 10
0.0
 20
0.0
 30
0.0
  3
*MODEL_SPACE
  1

  0
ENDBLK
  5
21
330
1F
100
AcDbEntity
  8
0
100
AcDbBlockEnd
  0
BLOCK
  5
1C
330
1B
100
AcDbEntity
 67
     1
  8
0
100
AcDbBlockBegin
  2
*PAPER_SPACE
  1

  0
ENDBLK
  5
1D
330
1B
100
AcDbEntity
 67
     1
  8
0
100
AcDbBlockEnd
  0
ENDSEC
  0
SECTION
  2
ENTITIES
  0
SPLINE
  5
100
100
AcDbEntity
  8
Layer_1
 62
7
100
AcDbSpline
 70
8
 71
3
 72
8
 73
4
 74
0
 40
0
 40
0
 40
0
 40
0
 40
1
 40
1
 40
1
 40
1
 10
19.161411
 20
0.243085
 30
0.0
 10
17.673548
 20
0.613795
 30
0.0
 10
17.557468
 20
0.694205
 30
0.0
 10
17.557158
 20
1.354507
 30
0.0
  0
SPLINE
  5
101
100
AcDbEntity
  8
Layer_1
 62
7
100
AcDbSpline
 70
8
 71
3
 72
8
 73
4
 74
0
 40
0
 40
0
 40
0
 40
0
 40
1
 40
1
 40
1
 40
1
 10
17.557158
 20
1.354507
 30
0.0
 10
17.557058
 20
1.553587
 30
0.0
 10
17.575658
 20
1.716478
 30
0.0
 10
17.598758
 20
1.716478
 30
0.0
  0
SPLINE
  5
102
100
AcDbEntity
  8
Layer_1
 62
7
100
AcDbSpline
 70
8
 71
3
 72
8
 73
4
 74
0
 40
0
 40
0
 40
0
 40
0
 40
1
 40
1
 40
1
 40
1
 10
17.598758
 20
1.716478
 30
0.0
 10
17.661258
 20
1.716478
 30
0.0
 10
17.792778
 20
1.358867
 30
0.0
 10
17.856518
 20
1.015876
 30
0.0
  0
SPLINE
  5
103
100
AcDbEntity
  8
Layer_1
 62
7
100
AcDbSpline
 70
8
 71
3
 72
8
 73
4
 74
0
 40
0
 40
0
 40
0
 40
0
 40
1
 40
1
 40
1
 40
1
 10
17.856518
 20
1.015876
 30
0.0
 10
17.887519
 20
0.848906
 30
0.0
 10
17.929819
 20
0.712296
 30
0.0
 10
17.950419
 20
0.712296
 30
0.0
  0
SPLINE
  5
104
100
AcDbEntity
  8
Layer_1
 62
7
100
AcDbSpline
 70
8
 71
3
 72
8
 73
4
 74
0
 40
0
 40
0
 40
0
 40
0
 40
1
 40
1
 40
1
 40
1
 10
17.950419
 20
0.712296
 30
0.0
 10
18.014919
 20
0.712296
 30
0.0
 10
18.348680
 20
1.303367
 30
0.0
 10
18.430330
 20
1.562447
 30
0.0
  0
SPLINE
  5
105
100
AcDbEntity
  8
Layer_1
 62
7
100
AcDbSpline
 70
8
 71
3
 72
8
 73
4
 74
0
 40
0
 40
0
 40
0
 40
0
 40
1
 40
1
 40
1
 40
1
 10
18.430330
 20
1.562447
 30
0.0
 10
18.473330
 20
1.698518
 30
0.0
 10
18.526330
 20
1.809888
 30
0.0
 10
18.548420
 20
1.809888
 30
0.0
  0
SPLINE
  5
106
100
AcDbEntity
  8
Layer_1
 62
7
100
AcDbSpline
 70
8
 71
3
 72
8
 73
4
 74
0
 40
0
 40
0
 40
0
 40
0
 40
1
 40
1
 40
1
 40
1
 10
18.548420
 20
1.809888
 30
0.0
 10
18.631520
 20
1.809888
 30
0.0
 10
18.954691
 20
1.620807
 30
0.0
 10
19.013691
 20
1.537687
 30
0.0
  0
SPLINE
  5
107
100
AcDbEntity
  8
Layer_1
 62
7
100
AcDbSpline
 70
8
 71
3
 72
8
 73
4
 74
0
 40
0
 40
0
 40
0
 40
0
 40
1
 40
1
 40
1
 40
1
 10
19.013691
 20
1.537687
 30
0.0
 10
19.123401
 20
1.383047
 30
0.0
 10
19.258381
 20
1.348037
 30
0.0
 10
19.709222
 20
1.357217
 30
0.0
  0
SPLINE
  5
108
100
AcDbEntity
  8
Layer_1
 62
7
100
AcDbSpline
 70
8
 71
3
 72
8
 73
4
 74
0
 40
0
 40
0
 40
0
 40
0
 40
1
 40
1
 40
1
 40
1
 10
19.709222
 20
1.357217
 30
0.0
 10
20.055103
 20
1.364217
 30
0.0
 10
20.181933
 20
1.347217
 30
0.0
 10
20.301204
 20
1.283217
 30
0.0
  0
SPLINE
  5
109
100
AcDbEntity
  8
Layer_1
 62
7
100
AcDbSpline
 70
8
 71
3
 72
8
 73
4
 74
0
 40
0
 40
0
 40
0
 40
0
 40
1
 40
1
 40
1
 40
1
 10
20.301204
 20
1.283217
 30
0.0
 10
20.513814
 20
1.167047
 30
0.0
 10
20.490784
 20
1.130006
 30
0.0
 10
20.217704
 20
1.148926
 30
0.0
  0
SPLINE
  5
10a
100
AcDbEntity
  8
Layer_1
 62
7
100
AcDbSpline
 70
8
 71
3
 72
8
 73
4
 74
0
 40
0
 40
0
 40
0
 40
0
 40
1
 40
1
 40
1
 40
1
 10
20.217704
 20
1.148926
 30
0.0
 10
19.934673
 20
1.168527
 30
0.0
 10
19.738973
 20
1.126126
 30
0.0
 10
19.764143
 20
1.050626
 30
0.0
  0
SPLINE
  5
10b
100
AcDbEntity
  8
Layer_1
 62
7
100
AcDbSpline
 70
8
 71
3
 72
8
 73
4
 74
0
 40
0
 40
0
 40
0
 40
0
 40
1
 40
1
 40
1
 40
1
 10
19.764143
 20
1.050626
 30
0.0
 10
19.775143
 20
1.015926
 30
0.0
 10
19.894853
 20
0.994926
 30
0.0
 10
20.084743
 20
0.993926
 30
0.0
  0
SPLINE
  5
10c
100
AcDbEntity
  8
Layer_1
 62
7
100
AcDbSpline
 70
8
 71
3
 72
8
 73
4
 74
0
 40
0
 40
0
 40
0
 40
0
 40
1
 40
1
 40
1
 40
1
 10
20.084743
 20
0.993926
 30
0.0
 10
20.437664
 20
0.992926
 30
0.0
 10
20.639784
 20
0.891356
 30
0.0
 10
20.639784
 20
0.716886
 30
0.0
  0
SPLINE
  5
10d
100
AcDbEntity
  8
Layer_1
 62
7
100
AcDbSpline
 70
8
 71
3
 72
8
 73
4
 74
0
 40
0
 40
0
 40
0
 40
0
 40
1
 40
1
 40
1
 40
1
 10
20.639784
 20
0.716886
 30
0.0
 10
20.639784
 20
0.539575
 30
0.0
 10
20.532404
 20
0.482755
 30
0.0
 10
20.362874
 20
0.570425
 30
0.0
  0
SPLINE
  5
10e
100
AcDbEntity
  8
Layer_1
 62
7
100
AcDbSpline
 70
8
 71
3
 72
8
 73
4
 74
0
 40
0
 40
0
 40
0
 40
0
 40
1
 40
1
 40
1
 40
1
 10
20.362874
 20
0.570425
 30
0.0
 10
20.039823
 20
0.737456
 30
0.0
 10
19.472122
 20
0.765966
 30
0.0
 10
19.472122
 20
0.615025
 30
0.0
  0
SPLINE
  5
10f
100
AcDbEntity
  8
Layer_1
 62
7
100
AcDbSpline
 70
8
 71
3
 72
8
 73
4
 74
0
 40
0
 40
0
 40
0
 40
0
 40
1
 40
1
 40
1
 40
1
 10
19.472122
 20
0.615025
 30
0.0
 10
19.472122
 20
0.564925
 30
0.0
 10
19.543422
 20
0.548425
 30
0.0
 10
19.764033
 20
0.547625
 30
0.0
  0
SPLINE
  5
110
100
AcDbEntity
  8
Layer_1
 62
7
100
AcDbSpline
 70
8
 71
3
 72
8
 73
4
 74
0
 40
0
 40
0
 40
0
 40
0
 40
1
 40
1
 40
1
 40
1
 10
19.764033
 20
0.547625
 30
0.0
 10
20.091963
 20
0.546875
 30
0.0
 10
20.415184
 20
0.426235
 30
0.0
 10
20.495884
 20
0.275465
 30
0.0
  0
SPLINE
  5
111
100
AcDbEntity
  8
Layer_1
 62
7
100
AcDbSpline
 70
8
 71
3
 72
8
 73
4
 74
0
 40
0
 40
0
 40
0
 40
0
 40
1
 40
1
 40
1
 40
1
 10
20.495884
 20
0.275465
 30
0.0
 10
20.560684
 20
0.154214
 30
0.0
 10
20.560184
 20
0.148724
 30
0.0
 10
20.472984
 20
0.061564
 30
0.0
  0
SPLINE
  5
112
100
AcDbEntity
  8
Layer_1
 62
7
100
AcDbSpline
 70
8
 71
3
 72
8
 73
4
 74
0
 40
0
 40
0
 40
0
 40
0
 40
1
 40
1
 40
1
 40
1
 10
20.472984
 20
0.061564
 30
0.0
 10
20.366564
 20
-0.044856
 30
0.0
 10
20.254674
 20
-0.029436
 30
0.0
 10
19.161591
 20
0.242915
 30
0.0
  0
SPLINE
  5
113
100
AcDbEntity
  8
Layer_1
 62
7
100
AcDbSpline
 70
8
 71
3
 72
8
 73
4
 74
0
 40
0
 40
0
 40
0
 40
0
 40
1
 40
1
 40
1
 40
1
 10
8.028827
 20
0.177284
 30
0.0
 10
6.603654
 20
0.371275
 30
0.0
 10
6.440794
 20
0.471145
 30
0.0
 10
6.440794
 20
1.151116
 30
0.0
  0
SPLINE
  5
114
100
AcDbEntity
  8
Layer_1
 62
7
100
AcDbSpline
 70
8
 71
3
 72
8
 73
4
 74
0
 40
0
 40
0
 40
0
 40
0
 40
1
 40
1
 40
1
 40
1
 10
6.440794
 20
1.151116
 30
0.0
 10
6.440794
 20
1.415947
 30
0.0
 10
6.448794
 20
1.436457
 30
0.0
 10
6.615944
 20
1.573887
 30
0.0
  0
SPLINE
  5
115
100
AcDbEntity
  8
Layer_1
 62
7
100
AcDbSpline
 70
8
 71
3
 72
8
 73
4
 74
0
 40
0
 40
0
 40
0
 40
0
 40
1
 40
1
 40
1
 40
1
 10
6.615944
 20
1.573887
 30
0.0
 10
6.843675
 20
1.761678
 30
0.0
 10
7.358906
 20
2.028328
 30
0.0
 10
7.405006
 20
1.982228
 30
0.0
  0
SPLINE
  5
116
100
AcDbEntity
  8
Layer_1
 62
7
100
AcDbSpline
 70
8
 71
3
 72
8
 73
4
 74
0
 40
0
 40
0
 40
0
 40
0
 40
1
 40
1
 40
1
 40
1
 10
7.405006
 20
1.982228
 30
0.0
 10
7.424806
 20
1.962428
 30
0.0
 10
7.449606
 20
1.684448
 30
0.0
 10
7.460206
 20
1.364357
 30
0.0
  0
SPLINE
  5
117
100
AcDbEntity
  8
Layer_1
 62
7
100
AcDbSpline
 70
8
 71
3
 72
8
 73
4
 74
0
 40
0
 40
0
 40
0
 40
0
 40
1
 40
1
 40
1
 40
1
 10
7.460206
 20
1.364357
 30
0.0
 10
7.471206
 20
1.044256
 30
0.0
 10
7.487806
 20
0.782366
 30
0.0
 10
7.497806
 20
0.782366
 30
0.0
  0
SPLINE
  5
118
100
AcDbEntity
  8
Layer_1
 62
7
100
AcDbSpline
 70
8
 71
3
 72
8
 73
4
 74
0
 40
0
 40
0
 40
0
 40
0
 40
1
 40
1
 40
1
 40
1
 10
7.497806
 20
0.782366
 30
0.0
 10
7.507806
 20
0.782366
 30
0.0
 10
7.659746
 20
0.877966
 30
0.0
 10
7.835337
 20
0.994666
 30
0.0
  0
SPLINE
  5
119
100
AcDbEntity
  8
Layer_1
 62
7
100
AcDbSpline
 70
8
 71
3
 72
8
 73
4
 74
0
 40
0
 40
0
 40
0
 40
0
 40
1
 40
1
 40
1
 40
1
 10
7.835337
 20
0.994666
 30
0.0
 10
8.115427
 20
1.180897
 30
0.0
 10
8.194558
 20
1.210317
 30
0.0
 10
8.479988
 20
1.234247
 30
0.0
  0
SPLINE
  5
11a
100
AcDbEntity
  8
Layer_1
 62
7
100
AcDbSpline
 70
8
 71
3
 72
8
 73
4
 74
0
 40
0
 40
0
 40
0
 40
0
 40
1
 40
1
 40
1
 40
1
 10
8.479988
 20
1.234247
 30
0.0
 10
8.728789
 20
1.255147
 30
0.0
 10
8.837649
 20
1.244247
 30
0.0
 10
8.942489
 20
1.187247
 30
0.0
  0
LWPOLYLINE
  5
11b
100
AcDbEntity
  8
Layer_1
 62
7
100
AcDbPolyline
 90
2
 70
0
 10
19.161591
 20
0.242915
 30
0.0
 10
19.161411
 20
0.243085
 30
0.0
  0
SPLINE
  5
11c
100
AcDbEntity
  8
Layer_1
 62
7
100
AcDbSpline
 70
8
 71
3
 72
8
 73
4
 74
0
 40
0
 40
0
 40
0
 40
0
 40
1
 40
1
 40
1
 40
1
 10
8.939529
 20
1.111946
 30
0.0
 10
8.625369
 20
1.106946
 30
0.0
 10
8.449118
 20
1.054146
 30
0.0
 10
8.449118
 20
0.965526
 30
0.0
  0
SPLINE
  5
11d
100
AcDbEntity
  8
Layer_1
 62
7
100
AcDbSpline
 70
8
 71
3
 72
8
 73
4
 74
0
 40
0
 40
0
 40
0
 40
0
 40
1
 40
1
 40
1
 40
1
 10
8.449118
 20
0.965526
 30
0.0
 10
8.449118
 20
0.892626
 30
0.0
 10
8.472318
 20
0.884626
 30
0.0
 10
8.600909
 20
0.913326
 30
0.0
  0
SPLINE
  5
11e
100
AcDbEntity
  8
Layer_1
 62
7
100
AcDbSpline
 70
8
 71
3
 72
8
 73
4
 74
0
 40
0
 40
0
 40
0
 40
0
 40
1
 40
1
 40
1
 40
1
 10
8.600909
 20
0.913326
 30
0.0
 10
8.988729
 20
0.999826
 30
0.0
 10
9.243130
 20
0.918326
 30
0.0
 10
9.243130
 20
0.710686
 30
0.0
  0
SPLINE
  5
11f
100
AcDbEntity
  8
Layer_1
 62
7
100
AcDbSpline
 70
8
 71
3
 72
8
 73
4
 74
0
 40
0
 40
0
 40
0
 40
0
 40
1
 40
1
 40
1
 40
1
 10
9.243130
 20
0.710686
 30
0.0
 10
9.243130
 20
0.557365
 30
0.0
 10
9.203330
 20
0.547745
 30
0.0
 10
8.908439
 20
0.629785
 30
0.0
  0
SPLINE
  5
120
100
AcDbEntity
  8
Layer_1
 62
7
100
AcDbSpline
 70
8
 71
3
 72
8
 73
4
 74
0
 40
0
 40
0
 40
0
 40
0
 40
1
 40
1
 40
1
 40
1
 10
8.908439
 20
0.629785
 30
0.0
 10
8.604459
 20
0.714386
 30
0.0
 10
8.215588
 20
0.681285
 30
0.0
 10
8.215588
 20
0.570585
 30
0.0
  0
SPLINE
  5
121
100
AcDbEntity
  8
Layer_1
 62
7
100
AcDbSpline
 70
8
 71
3
 72
8
 73
4
 74
0
 40
0
 40
0
 40
0
 40
0
 40
1
 40
1
 40
1
 40
1
 10
8.215588
 20
0.570585
 30
0.0
 10
8.215588
 20
0.518385
 30
0.0
 10
8.290788
 20
0.503285
 30
0.0
 10
8.554208
 20
0.503285
 30
0.0
  0
SPLINE
  5
122
100
AcDbEntity
  8
Layer_1
 62
7
100
AcDbSpline
 70
8
 71
3
 72
8
 73
4
 74
0
 40
0
 40
0
 40
0
 40
0
 40
1
 40
1
 40
1
 40
1
 10
8.554208
 20
0.503285
 30
0.0
 10
8.958699
 20
0.503145
 30
0.0
 10
9.212740
 20
0.385605
 30
0.0
 10
9.187850
 20
0.210344
 30
0.0
  0
SPLINE
  5
123
100
AcDbEntity
  8
Layer_1
 62
7
100
AcDbSpline
 70
8
 71
3
 72
8
 73
4
 74
0
 40
0
 40
0
 40
0
 40
0
 40
1
 40
1
 40
1
 40
1
 10
9.187850
 20
0.210344
 30
0.0
 10
9.174150
 20
0.118344
 30
0.0
 10
9.143650
 20
0.105584
 30
0.0
 10
8.916189
 20
0.099674
 30
0.0
  0
SPLINE
  5
124
100
AcDbEntity
  8
Layer_1
 62
7
100
AcDbSpline
 70
8
 71
3
 72
8
 73
4
 74
0
 40
0
 40
0
 40
0
 40
0
 40
1
 40
1
 40
1
 40
1
 10
8.916189
 20
0.099674
 30
0.0
 10
8.774879
 20
0.095674
 30
0.0
 10
8.375558
 20
0.131574
 30
0.0
 10
8.028757
 20
0.178674
 30
0.0
  0
LWPOLYLINE
  5
125
100
AcDbEntity
  8
Layer_1
 62
7
100
AcDbPolyline
 90
3
 70
0
 10
8.942489
 20
1.187247
 30
0.0
 10
9.079660
 20
1.112946
 30
0.0
 10
8.939529
 20
1.111946
 30
0.0
  0
SPLINE
  5
126
100
AcDbEntity
  8
Layer_1
 62
7
100
AcDbSpline
 70
8
 71
3
 72
8
 73
4
 74
0
 40
0
 40
0
 40
0
 40
0
 40
1
 40
1
 40
1
 40
1
 10
12.816198
 20
0.747326
 30
0.0
 10
12.776698
 20
1.049426
 30
0.0
 10
12.576177
 20
1.670088
 30
0.0
 10
12.489917
 20
1.758018
 30
0.0
  0
SPLINE
  5
127
100
AcDbEntity
  8
Layer_1
 62
7
100
AcDbSpline
 70
8
 71
3
 72
8
 73
4
 74
0
 40
0
 40
0
 40
0
 40
0
 40
1
 40
1
 40
1
 40
1
 10
12.489917
 20
1.758018
 30
0.0
 10
12.396117
 20
1.853618
 30
0.0
 10
12.071346
 20
1.648038
 30
0.0
 10
11.597875
 20
1.193497
 30
0.0
  0
LWPOLYLINE
  5
128
100
AcDbEntity
  8
Layer_1
 62
7
100
AcDbPolyline
 90
2
 70
0
 10
8.028757
 20
0.178674
 30
0.0
 10
8.028827
 20
0.177284
 30
0.0
  0
SPLINE
  5
129
100
AcDbEntity
  8
Layer_1
 62
7
100
AcDbSpline
 70
8
 71
3
 72
8
 73
4
 74
0
 40
0
 40
0
 40
0
 40
0
 40
1
 40
1
 40
1
 40
1
 10
11.197344
 20
1.359907
 30
0.0
 10
11.189344
 20
1.654648
 30
0.0
 10
11.166044
 20
1.911268
 30
0.0
 10
11.147044
 20
1.930218
 30
0.0
  0
SPLINE
  5
12a
100
AcDbEntity
  8
Layer_1
 62
7
100
AcDbSpline
 70
8
 71
3
 72
8
 73
4
 74
0
 40
0
 40
0
 40
0
 40
0
 40
1
 40
1
 40
1
 40
1
 10
11.147044
 20
1.930218
 30
0.0
 10
11.070744
 20
2.006318
 30
0.0
 10
10.341062
 20
1.587897
 30
0.0
 10
9.948991
 20
1.243007
 30
0.0
  0
SPLINE
  5
12b
100
AcDbEntity
  8
Layer_1
 62
7
100
AcDbSpline
 70
8
 71
3
 72
8
 73
4
 74
0
 40
0
 40
0
 40
0
 40
0
 40
1
 40
1
 40
1
 40
1
 10
9.948991
 20
1.243007
 30
0.0
 10
9.836261
 20
1.143706
 30
0.0
 10
9.731091
 20
1.062846
 30
0.0
 10
9.715441
 20
1.063136
 30
0.0
  0
SPLINE
  5
12c
100
AcDbEntity
  8
Layer_1
 62
7
100
AcDbSpline
 70
8
 71
3
 72
8
 73
4
 74
0
 40
0
 40
0
 40
0
 40
0
 40
1
 40
1
 40
1
 40
1
 10
9.715441
 20
1.063136
 30
0.0
 10
9.699841
 20
1.063396
 30
0.0
 10
9.638241
 20
1.265827
 30
0.0
 10
9.578411
 20
1.512927
 30
0.0
  0
SPLINE
  5
12d
100
AcDbEntity
  8
Layer_1
 62
7
100
AcDbSpline
 70
8
 71
3
 72
8
 73
4
 74
0
 40
0
 40
0
 40
0
 40
0
 40
1
 40
1
 40
1
 40
1
 10
9.578411
 20
1.512927
 30
0.0
 10
9.518710
 20
1.759998
 30
0.0
 10
9.450440
 20
2.013098
 30
0.0
 10
9.426810
 20
2.075368
 30
0.0
  0
LWPOLYLINE
  5
12e
100
AcDbEntity
  8
Layer_1
 62
7
100
AcDbPolyline
 90
3
 70
0
 10
11.597875
 20
1.193497
 30
0.0
 10
11.213044
 20
0.824026
 30
0.0
 10
11.197344
 20
1.359907
 30
0.0
  0
SPLINE
  5
12f
100
AcDbEntity
  8
Layer_1
 62
7
100
AcDbSpline
 70
8
 71
3
 72
8
 73
4
 74
0
 40
0
 40
0
 40
0
 40
0
 40
1
 40
1
 40
1
 40
1
 10
9.091600
 20
1.980198
 30
0.0
 10
8.809969
 20
1.779358
 30
0.0
 10
7.666247
 20
1.062546
 30
0.0
 10
7.627436
 20
1.062546
 30
0.0
  0
SPLINE
  5
130
100
AcDbEntity
  8
Layer_1
 62
7
100
AcDbSpline
 70
8
 71
3
 72
8
 73
4
 74
0
 40
0
 40
0
 40
0
 40
0
 40
1
 40
1
 40
1
 40
1
 10
7.627436
 20
1.062546
 30
0.0
 10
7.616436
 20
1.062546
 30
0.0
 10
7.608536
 20
1.238257
 30
0.0
 10
7.608536
 20
1.453037
 30
0.0
  0
SPLINE
  5
131
100
AcDbEntity
  8
Layer_1
 62
7
100
AcDbSpline
 70
8
 71
3
 72
8
 73
4
 74
0
 40
0
 40
0
 40
0
 40
0
 40
1
 40
1
 40
1
 40
1
 10
7.608536
 20
1.453037
 30
0.0
 10
7.608536
 20
1.667798
 30
0.0
 10
7.594836
 20
1.939188
 30
0.0
 10
7.579336
 20
2.056118
 30
0.0
  0
LWPOLYLINE
  5
132
100
AcDbEntity
  8
Layer_1
 62
7
100
AcDbPolyline
 90
3
 70
0
 10
9.426810
 20
2.075368
 30
0.0
 10
9.383710
 20
2.188509
 30
0.0
 10
9.091600
 20
1.980198
 30
0.0
  0
SPLINE
  5
133
100
AcDbEntity
  8
Layer_1
 62
7
100
AcDbSpline
 70
8
 71
3
 72
8
 73
4
 74
0
 40
0
 40
0
 40
0
 40
0
 40
1
 40
1
 40
1
 40
1
 10
7.374326
 20
2.206589
 30
0.0
 10
7.143115
 20
2.124989
 30
0.0
 10
6.860975
 20
1.946818
 30
0.0
 10
6.481454
 20
1.642698
 30
0.0
  0
LWPOLYLINE
  5
134
100
AcDbEntity
  8
Layer_1
 62
7
100
AcDbPolyline
 90
3
 70
0
 10
7.579336
 20
2.056118
 30
0.0
 10
7.550036
 20
2.268689
 30
0.0
 10
7.374326
 20
2.206589
 30
0.0
  0
SPLINE
  5
135
100
AcDbEntity
  8
Layer_1
 62
7
100
AcDbSpline
 70
8
 71
3
 72
8
 73
4
 74
0
 40
0
 40
0
 40
0
 40
0
 40
1
 40
1
 40
1
 40
1
 10
6.140543
 20
1.714318
 30
0.0
 10
6.123143
 20
1.890138
 30
0.0
 10
6.123643
 20
2.194739
 30
0.0
 10
6.141293
 20
2.391269
 30
0.0
  0
LWPOLYLINE
  5
136
100
AcDbEntity
  8
Layer_1
 62
7
100
AcDbPolyline
 90
3
 70
0
 10
6.481454
 20
1.642698
 30
0.0
 10
6.171943
 20
1.394677
 30
0.0
 10
6.140543
 20
1.714318
 30
0.0
  0
SPLINE
  5
137
100
AcDbEntity
  8
Layer_1
 62
7
100
AcDbSpline
 70
8
 71
3
 72
8
 73
4
 74
0
 40
0
 40
0
 40
0
 40
0
 40
1
 40
1
 40
1
 40
1
 10
5.921733
 20
2.637100
 30
0.0
 10
5.783162
 20
2.575900
 30
0.0
 10
5.493412
 20
2.416279
 30
0.0
 10
5.277831
 20
2.282589
 30
0.0
  0
LWPOLYLINE
  5
138
100
AcDbEntity
  8
Layer_1
 62
7
100
AcDbPolyline
 90
3
 70
0
 10
6.141293
 20
2.391269
 30
0.0
 10
6.173693
 20
2.748590
 30
0.0
 10
5.921733
 20
2.637100
 30
0.0
  0
SPLINE
  5
139
100
AcDbEntity
  8
Layer_1
 62
7
100
AcDbSpline
 70
8
 71
3
 72
8
 73
4
 74
0
 40
0
 40
0
 40
0
 40
0
 40
1
 40
1
 40
1
 40
1
 10
4.788070
 20
3.200841
 30
0.0
 10
4.707870
 20
3.145241
 30
0.0
 10
4.440240
 20
2.945940
 30
0.0
 10
4.193359
 20
2.758200
 30
0.0
  0
SPLINE
  5
13a
100
AcDbEntity
  8
Layer_1
 62
7
100
AcDbSpline
 70
8
 71
3
 72
8
 73
4
 74
0
 40
0
 40
0
 40
0
 40
0
 40
1
 40
1
 40
1
 40
1
 10
4.193359
 20
2.758200
 30
0.0
 10
3.946488
 20
2.570430
 30
0.0
 10
3.730738
 20
2.416829
 30
0.0
 10
3.713888
 20
2.416829
 30
0.0
  0
SPLINE
  5
13b
100
AcDbEntity
  8
Layer_1
 62
7
100
AcDbSpline
 70
8
 71
3
 72
8
 73
4
 74
0
 40
0
 40
0
 40
0
 40
0
 40
1
 40
1
 40
1
 40
1
 10
3.713888
 20
2.416829
 30
0.0
 10
3.696988
 20
2.416829
 30
0.0
 10
3.697288
 20
2.679550
 30
0.0
 10
3.714428
 20
3.000650
 30
0.0
  0
SPLINE
  5
13c
100
AcDbEntity
  8
Layer_1
 62
7
100
AcDbSpline
 70
8
 71
3
 72
8
 73
4
 74
0
 40
0
 40
0
 40
0
 40
0
 40
1
 40
1
 40
1
 40
1
 10
3.714428
 20
3.000650
 30
0.0
 10
3.736128
 20
3.405501
 30
0.0
 10
3.730328
 20
3.584482
 30
0.0
 10
3.695328
 20
3.584482
 30
0.0
  0
SPLINE
  5
13d
100
AcDbEntity
  8
Layer_1
 62
7
100
AcDbSpline
 70
8
 71
3
 72
8
 73
4
 74
0
 40
0
 40
0
 40
0
 40
0
 40
1
 40
1
 40
1
 40
1
 10
3.695328
 20
3.584482
 30
0.0
 10
3.667728
 20
3.584482
 30
0.0
 10
3.312447
 20
3.459391
 30
0.0
 10
2.905876
 20
3.306611
 30
0.0
  0
SPLINE
  5
13e
100
AcDbEntity
  8
Layer_1
 62
7
100
AcDbSpline
 70
8
 71
3
 72
8
 73
4
 74
0
 40
0
 40
0
 40
0
 40
0
 40
1
 40
1
 40
1
 40
1
 10
2.905876
 20
3.306611
 30
0.0
 10
2.349065
 20
3.097301
 30
0.0
 10
2.163075
 20
3.044721
 30
0.0
 10
2.152135
 20
3.093481
 30
0.0
  0
SPLINE
  5
13f
100
AcDbEntity
  8
Layer_1
 62
7
100
AcDbSpline
 70
8
 71
3
 72
8
 73
4
 74
0
 40
0
 40
0
 40
0
 40
0
 40
1
 40
1
 40
1
 40
1
 10
2.152135
 20
3.093481
 30
0.0
 10
2.134735
 20
3.170681
 30
0.0
 10
2.299935
 20
3.739802
 30
0.0
 10
2.422985
 20
4.026893
 30
0.0
  0
SPLINE
  5
140
100
AcDbEntity
  8
Layer_1
 62
7
100
AcDbSpline
 70
8
 71
3
 72
8
 73
4
 74
0
 40
0
 40
0
 40
0
 40
0
 40
1
 40
1
 40
1
 40
1
 10
2.422985
 20
4.026893
 30
0.0
 10
2.471085
 20
4.139073
 30
0.0
 10
2.587636
 20
4.316333
 30
0.0
 10
2.681996
 20
4.420784
 30
0.0
  0
LWPOLYLINE
  5
141
100
AcDbEntity
  8
Layer_1
 62
7
100
AcDbPolyline
 90
5
 70
0
 10
5.277831
 20
2.282589
 30
0.0
 10
4.885901
 20
2.039498
 30
0.0
 10
4.909901
 20
2.670830
 30
0.0
 10
4.933901
 20
3.302171
 30
0.0
 10
4.788070
 20
3.200841
 30
0.0
  0
SPLINE
  5
142
100
AcDbEntity
  8
Layer_1
 62
7
100
AcDbSpline
 70
8
 71
3
 72
8
 73
4
 74
0
 40
0
 40
0
 40
0
 40
0
 40
1
 40
1
 40
1
 40
1
 10
2.720356
 20
4.661484
 30
0.0
 10
2.285515
 20
4.827054
 30
0.0
 10
1.808484
 20
4.803294
 30
0.0
 10
1.101302
 20
4.580884
 30
0.0
  0
SPLINE
  5
143
100
AcDbEntity
  8
Layer_1
 62
7
100
AcDbSpline
 70
8
 71
3
 72
8
 73
4
 74
0
 40
0
 40
0
 40
0
 40
0
 40
1
 40
1
 40
1
 40
1
 10
1.101302
 20
4.580884
 30
0.0
 10
0.900642
 20
4.517684
 30
0.0
 10
0.716462
 20
4.472824
 30
0.0
 10
0.692051
 20
4.480884
 30
0.0
  0
SPLINE
  5
144
100
AcDbEntity
  8
Layer_1
 62
7
100
AcDbSpline
 70
8
 71
3
 72
8
 73
4
 74
0
 40
0
 40
0
 40
0
 40
0
 40
1
 40
1
 40
1
 40
1
 10
0.692051
 20
4.480884
 30
0.0
 10
0.624051
 20
4.503584
 30
0.0
 10
1.039582
 20
5.296895
 30
0.0
 10
1.301363
 20
5.644656
 30
0.0
  0
SPLINE
  5
145
100
AcDbEntity
  8
Layer_1
 62
7
100
AcDbSpline
 70
8
 71
3
 72
8
 73
4
 74
0
 40
0
 40
0
 40
0
 40
0
 40
1
 40
1
 40
1
 40
1
 10
1.301363
 20
5.644656
 30
0.0
 10
1.429193
 20
5.814387
 30
0.0
 10
1.649834
 20
6.042897
 30
0.0
 10
1.791814
 20
6.152427
 30
0.0
  0
SPLINE
  5
146
100
AcDbEntity
  8
Layer_1
 62
7
100
AcDbSpline
 70
8
 71
3
 72
8
 73
4
 74
0
 40
0
 40
0
 40
0
 40
0
 40
1
 40
1
 40
1
 40
1
 10
1.791814
 20
6.152427
 30
0.0
 10
1.933804
 20
6.261997
 30
0.0
 10
2.049964
 20
6.365508
 30
0.0
 10
2.049964
 20
6.382538
 30
0.0
  0
SPLINE
  5
147
100
AcDbEntity
  8
Layer_1
 62
7
100
AcDbSpline
 70
8
 71
3
 72
8
 73
4
 74
0
 40
0
 40
0
 40
0
 40
0
 40
1
 40
1
 40
1
 40
1
 10
2.049964
 20
6.382538
 30
0.0
 10
2.049964
 20
6.399538
 30
0.0
 10
1.905664
 20
6.469638
 30
0.0
 10
1.729304
 20
6.538228
 30
0.0
  0
SPLINE
  5
148
100
AcDbEntity
  8
Layer_1
 62
7
100
AcDbSpline
 70
8
 71
3
 72
8
 73
4
 74
0
 40
0
 40
0
 40
0
 40
0
 40
1
 40
1
 40
1
 40
1
 10
1.729304
 20
6.538228
 30
0.0
 10
1.380063
 20
6.674168
 30
0.0
 10
0.668861
 20
6.783189
 30
0.0
 10
0.426911
 20
6.737999
 30
0.0
  0
SPLINE
  5
149
100
AcDbEntity
  8
Layer_1
 62
7
100
AcDbSpline
 70
8
 71
3
 72
8
 73
4
 74
0
 40
0
 40
0
 40
0
 40
0
 40
1
 40
1
 40
1
 40
1
 10
0.426911
 20
6.737999
 30
0.0
 10
0.335411
 20
6.720798
 30
0.0
 10
0.275101
 20
6.727998
 30
0.0
 10
0.275101
 20
6.757799
 30
0.0
  0
SPLINE
  5
14a
100
AcDbEntity
  8
Layer_1
 62
7
100
AcDbSpline
 70
8
 71
3
 72
8
 73
4
 74
0
 40
0
 40
0
 40
0
 40
0
 40
1
 40
1
 40
1
 40
1
 10
0.275101
 20
6.757799
 30
0.0
 10
0.275101
 20
6.846599
 30
0.0
 10
0.669661
 20
7.467320
 30
0.0
 10
0.917702
 20
7.768531
 30
0.0
  0
SPLINE
  5
14b
100
AcDbEntity
  8
Layer_1
 62
7
100
AcDbSpline
 70
8
 71
3
 72
8
 73
4
 74
0
 40
0
 40
0
 40
0
 40
0
 40
1
 40
1
 40
1
 40
1
 10
0.917702
 20
7.768531
 30
0.0
 10
1.145302
 20
8.044911
 30
0.0
 10
1.547263
 20
8.403902
 30
0.0
 10
1.686724
 20
8.455352
 30
0.0
  0
SPLINE
  5
14c
100
AcDbEntity
  8
Layer_1
 62
7
100
AcDbSpline
 70
8
 71
3
 72
8
 73
4
 74
0
 40
0
 40
0
 40
0
 40
0
 40
1
 40
1
 40
1
 40
1
 10
1.686724
 20
8.455352
 30
0.0
 10
1.724724
 20
8.469352
 30
0.0
 10
1.663524
 20
8.562722
 30
0.0
 10
1.517993
 20
8.713103
 30
0.0
  0
SPLINE
  5
14d
100
AcDbEntity
  8
Layer_1
 62
7
100
AcDbSpline
 70
8
 71
3
 72
8
 73
4
 74
0
 40
0
 40
0
 40
0
 40
0
 40
1
 40
1
 40
1
 40
1
 10
1.517993
 20
8.713103
 30
0.0
 10
1.212543
 20
9.028383
 30
0.0
 10
0.845852
 20
9.191004
 30
0.0
 10
0.366161
 20
9.223884
 30
0.0
  0
LWPOLYLINE
  5
14e
100
AcDbEntity
  8
Layer_1
 62
7
100
AcDbPolyline
 90
3
 70
0
 10
2.681996
 20
4.420784
 30
0.0
 10
2.853546
 20
4.610684
 30
0.0
 10
2.720356
 20
4.661484
 30
0.0
  0
SPLINE
  5
14f
100
AcDbEntity
  8
Layer_1
 62
7
100
AcDbSpline
 70
8
 71
3
 72
8
 73
4
 74
0
 40
0
 40
0
 40
0
 40
0
 40
1
 40
1
 40
1
 40
1
 10
0.086220
 20
9.418834
 30
0.0
 10
0.354111
 20
9.943945
 30
0.0
 10
0.958262
 20
10.544357
 30
0.0
 10
1.477323
 20
10.801327
 30
0.0
  0
SPLINE
  5
150
100
AcDbEntity
  8
Layer_1
 62
7
100
AcDbSpline
 70
8
 71
3
 72
8
 73
4
 74
0
 40
0
 40
0
 40
0
 40
0
 40
1
 40
1
 40
1
 40
1
 10
1.477323
 20
10.801327
 30
0.0
 10
1.625274
 20
10.874627
 30
0.0
 10
1.754954
 20
10.941038
 30
0.0
 10
1.765504
 20
10.949028
 30
0.0
  0
SPLINE
  5
151
100
AcDbEntity
  8
Layer_1
 62
7
100
AcDbSpline
 70
8
 71
3
 72
8
 73
4
 74
0
 40
0
 40
0
 40
0
 40
0
 40
1
 40
1
 40
1
 40
1
 10
1.765504
 20
10.949028
 30
0.0
 10
1.776504
 20
10.957028
 30
0.0
 10
1.748304
 20
11.003828
 30
0.0
 10
1.703804
 20
11.052968
 30
0.0
  0
SPLINE
  5
152
100
AcDbEntity
  8
Layer_1
 62
7
100
AcDbSpline
 70
8
 71
3
 72
8
 73
4
 74
0
 40
0
 40
0
 40
0
 40
0
 40
1
 40
1
 40
1
 40
1
 10
1.703804
 20
11.052968
 30
0.0
 10
1.558033
 20
11.214048
 30
0.0
 10
1.161393
 20
11.350478
 30
0.0
 10
0.753152
 20
11.379989
 30
0.0
  0
LWPOLYLINE
  5
153
100
AcDbEntity
  8
Layer_1
 62
7
100
AcDbPolyline
 90
3
 70
0
 10
0.366161
 20
9.223884
 30
0.0
 10
-0.000380
 20
9.248984
 30
0.0
 10
0.086220
 20
9.418834
 30
0.0
  0
SPLINE
  5
154
100
AcDbEntity
  8
Layer_1
 62
7
100
AcDbSpline
 70
8
 71
3
 72
8
 73
4
 74
0
 40
0
 40
0
 40
0
 40
0
 40
1
 40
1
 40
1
 40
1
 10
0.538941
 20
11.664769
 30
0.0
 10
0.763642
 20
12.000730
 30
0.0
 10
1.398193
 20
12.629641
 30
0.0
 10
1.722984
 20
12.838322
 30
0.0
  0
SPLINE
  5
155
100
AcDbEntity
  8
Layer_1
 62
7
100
AcDbSpline
 70
8
 71
3
 72
8
 73
4
 74
0
 40
0
 40
0
 40
0
 40
0
 40
1
 40
1
 40
1
 40
1
 10
1.722984
 20
12.838322
 30
0.0
 10
1.864274
 20
12.928922
 30
0.0
 10
2.121355
 20
13.063992
 30
0.0
 10
2.294285
 20
13.138092
 30
0.0
  0
LWPOLYLINE
  5
156
100
AcDbEntity
  8
Layer_1
 62
7
100
AcDbPolyline
 90
3
 70
0
 10
0.753152
 20
11.379989
 30
0.0
 10
0.367131
 20
11.407889
 30
0.0
 10
0.538941
 20
11.664769
 30
0.0
  0
SPLINE
  5
157
100
AcDbEntity
  8
Layer_1
 62
7
100
AcDbSpline
 70
8
 71
3
 72
8
 73
4
 74
0
 40
0
 40
0
 40
0
 40
0
 40
1
 40
1
 40
1
 40
1
 10
2.491295
 20
13.395413
 30
0.0
 10
2.336175
 20
13.557343
 30
0.0
 10
2.012364
 20
13.716604
 30
0.0
 10
1.587553
 20
13.839934
 30
0.0
  0
LWPOLYLINE
  5
158
100
AcDbEntity
  8
Layer_1
 62
7
100
AcDbPolyline
 90
3
 70
0
 10
2.294285
 20
13.138092
 30
0.0
 10
2.608686
 20
13.272793
 30
0.0
 10
2.491295
 20
13.395413
 30
0.0
  0
SPLINE
  5
159
100
AcDbEntity
  8
Layer_1
 62
7
100
AcDbSpline
 70
8
 71
3
 72
8
 73
4
 74
0
 40
0
 40
0
 40
0
 40
0
 40
1
 40
1
 40
1
 40
1
 10
1.447443
 20
14.015104
 30
0.0
 10
2.043154
 20
14.231955
 30
0.0
 10
2.800796
 20
14.373245
 30
0.0
 10
3.369447
 20
14.373545
 30
0.0
  0
SPLINE
  5
15a
100
AcDbEntity
  8
Layer_1
 62
7
100
AcDbSpline
 70
8
 71
3
 72
8
 73
4
 74
0
 40
0
 40
0
 40
0
 40
0
 40
1
 40
1
 40
1
 40
1
 10
3.369447
 20
14.373545
 30
0.0
 10
3.568548
 20
14.373625
 30
0.0
 10
3.731438
 20
14.392345
 30
0.0
 10
3.731438
 20
14.415445
 30
0.0
  0
SPLINE
  5
15b
100
AcDbEntity
  8
Layer_1
 62
7
100
AcDbSpline
 70
8
 71
3
 72
8
 73
4
 74
0
 40
0
 40
0
 40
0
 40
0
 40
1
 40
1
 40
1
 40
1
 10
3.731438
 20
14.415445
 30
0.0
 10
3.731438
 20
14.517875
 30
0.0
 10
3.255657
 20
15.094277
 30
0.0
 10
2.791366
 20
15.554317
 30
0.0
  0
SPLINE
  5
15c
100
AcDbEntity
  8
Layer_1
 62
7
100
AcDbSpline
 70
8
 71
3
 72
8
 73
4
 74
0
 40
0
 40
0
 40
0
 40
0
 40
1
 40
1
 40
1
 40
1
 10
2.791366
 20
15.554317
 30
0.0
 10
2.512055
 20
15.831078
 30
0.0
 10
2.283515
 20
16.066919
 30
0.0
 10
2.283515
 20
16.078399
 30
0.0
  0
SPLINE
  5
15d
100
AcDbEntity
  8
Layer_1
 62
7
100
AcDbSpline
 70
8
 71
3
 72
8
 73
4
 74
0
 40
0
 40
0
 40
0
 40
0
 40
1
 40
1
 40
1
 40
1
 10
2.283515
 20
16.078399
 30
0.0
 10
2.283515
 20
16.089399
 30
0.0
 10
2.372715
 20
16.088399
 30
0.0
 10
2.482035
 20
16.075399
 30
0.0
  0
SPLINE
  5
15e
100
AcDbEntity
  8
Layer_1
 62
7
100
AcDbSpline
 70
8
 71
3
 72
8
 73
4
 74
0
 40
0
 40
0
 40
0
 40
0
 40
1
 40
1
 40
1
 40
1
 10
2.482035
 20
16.075399
 30
0.0
 10
3.368117
 20
15.967478
 30
0.0
 10
3.780578
 20
15.878868
 30
0.0
 10
4.564700
 20
15.627738
 30
0.0
  0
SPLINE
  5
15f
100
AcDbEntity
  8
Layer_1
 62
7
100
AcDbSpline
 70
8
 71
3
 72
8
 73
4
 74
0
 40
0
 40
0
 40
0
 40
0
 40
1
 40
1
 40
1
 40
1
 10
4.564700
 20
15.627738
 30
0.0
 10
4.804650
 20
15.550937
 30
0.0
 10
5.008661
 20
15.495647
 30
0.0
 10
5.018041
 20
15.505117
 30
0.0
  0
SPLINE
  5
160
100
AcDbEntity
  8
Layer_1
 62
7
100
AcDbSpline
 70
8
 71
3
 72
8
 73
4
 74
0
 40
0
 40
0
 40
0
 40
0
 40
1
 40
1
 40
1
 40
1
 10
5.018041
 20
15.505117
 30
0.0
 10
5.028041
 20
15.515117
 30
0.0
 10
5.007041
 20
15.659608
 30
0.0
 10
4.971341
 20
15.827528
 30
0.0
  0
SPLINE
  5
161
100
AcDbEntity
  8
Layer_1
 62
7
100
AcDbSpline
 70
8
 71
3
 72
8
 73
4
 74
0
 40
0
 40
0
 40
0
 40
0
 40
1
 40
1
 40
1
 40
1
 10
4.971341
 20
15.827528
 30
0.0
 10
4.890841
 20
16.211739
 30
0.0
 10
4.681140
 20
16.677540
 30
0.0
 10
4.420300
 20
17.050921
 30
0.0
  0
SPLINE
  5
162
100
AcDbEntity
  8
Layer_1
 62
7
100
AcDbSpline
 70
8
 71
3
 72
8
 73
4
 74
0
 40
0
 40
0
 40
0
 40
0
 40
1
 40
1
 40
1
 40
1
 10
4.420300
 20
17.050921
 30
0.0
 10
4.309219
 20
17.209951
 30
0.0
 10
4.200029
 20
17.369721
 30
0.0
 10
4.177689
 20
17.405971
 30
0.0
  0
SPLINE
  5
163
100
AcDbEntity
  8
Layer_1
 62
7
100
AcDbSpline
 70
8
 71
3
 72
8
 73
4
 74
0
 40
0
 40
0
 40
0
 40
0
 40
1
 40
1
 40
1
 40
1
 10
4.177689
 20
17.405971
 30
0.0
 10
4.143489
 20
17.461572
 30
0.0
 10
4.204989
 20
17.467372
 30
0.0
 10
4.576520
 20
17.442872
 30
0.0
  0
SPLINE
  5
164
100
AcDbEntity
  8
Layer_1
 62
7
100
AcDbSpline
 70
8
 71
3
 72
8
 73
4
 74
0
 40
0
 40
0
 40
0
 40
0
 40
1
 40
1
 40
1
 40
1
 10
4.576520
 20
17.442872
 30
0.0
 10
5.267631
 20
17.397471
 30
0.0
 10
6.056203
 20
17.136491
 30
0.0
 10
6.718114
 20
16.734400
 30
0.0
  0
SPLINE
  5
165
100
AcDbEntity
  8
Layer_1
 62
7
100
AcDbSpline
 70
8
 71
3
 72
8
 73
4
 74
0
 40
0
 40
0
 40
0
 40
0
 40
1
 40
1
 40
1
 40
1
 10
6.718114
 20
16.734400
 30
0.0
 10
6.867585
 20
16.643800
 30
0.0
 10
7.005055
 20
16.569330
 30
0.0
 10
7.023635
 20
16.569330
 30
0.0
  0
SPLINE
  5
166
100
AcDbEntity
  8
Layer_1
 62
7
100
AcDbSpline
 70
8
 71
3
 72
8
 73
4
 74
0
 40
0
 40
0
 40
0
 40
0
 40
1
 40
1
 40
1
 40
1
 10
7.023635
 20
16.569330
 30
0.0
 10
7.068835
 20
16.569330
 30
0.0
 10
7.007535
 20
17.263611
 30
0.0
 10
6.928335
 20
17.648952
 30
0.0
  0
SPLINE
  5
167
100
AcDbEntity
  8
Layer_1
 62
7
100
AcDbSpline
 70
8
 71
3
 72
8
 73
4
 74
0
 40
0
 40
0
 40
0
 40
0
 40
1
 40
1
 40
1
 40
1
 10
6.928335
 20
17.648952
 30
0.0
 10
6.893435
 20
17.818902
 30
0.0
 10
6.812315
 20
18.097393
 30
0.0
 10
6.748115
 20
18.267833
 30
0.0
  0
SPLINE
  5
168
100
AcDbEntity
  8
Layer_1
 62
7
100
AcDbSpline
 70
8
 71
3
 72
8
 73
4
 74
0
 40
0
 40
0
 40
0
 40
0
 40
1
 40
1
 40
1
 40
1
 10
6.748115
 20
18.267833
 30
0.0
 10
6.684014
 20
18.438274
 30
0.0
 10
6.647884
 20
18.577724
 30
0.0
 10
6.667914
 20
18.577724
 30
0.0
  0
SPLINE
  5
169
100
AcDbEntity
  8
Layer_1
 62
7
100
AcDbSpline
 70
8
 71
3
 72
8
 73
4
 74
0
 40
0
 40
0
 40
0
 40
0
 40
1
 40
1
 40
1
 40
1
 10
6.667914
 20
18.577724
 30
0.0
 10
6.687914
 20
18.577724
 30
0.0
 10
6.849885
 20
18.528124
 30
0.0
 10
7.027795
 20
18.467604
 30
0.0
  0
SPLINE
  5
16a
100
AcDbEntity
  8
Layer_1
 62
7
100
AcDbSpline
 70
8
 71
3
 72
8
 73
4
 74
0
 40
0
 40
0
 40
0
 40
0
 40
1
 40
1
 40
1
 40
1
 10
7.027795
 20
18.467604
 30
0.0
 10
7.657706
 20
18.253183
 30
0.0
 10
8.259838
 20
17.898833
 30
0.0
 10
8.740069
 20
17.459922
 30
0.0
  0
SPLINE
  5
16b
100
AcDbEntity
  8
Layer_1
 62
7
100
AcDbSpline
 70
8
 71
3
 72
8
 73
4
 74
0
 40
0
 40
0
 40
0
 40
0
 40
1
 40
1
 40
1
 40
1
 10
8.740069
 20
17.459922
 30
0.0
 10
8.882519
 20
17.329751
 30
0.0
 10
9.008289
 20
17.223221
 30
0.0
 10
9.019559
 20
17.223221
 30
0.0
  0
SPLINE
  5
16c
100
AcDbEntity
  8
Layer_1
 62
7
100
AcDbSpline
 70
8
 71
3
 72
8
 73
4
 74
0
 40
0
 40
0
 40
0
 40
0
 40
1
 40
1
 40
1
 40
1
 10
9.019559
 20
17.223221
 30
0.0
 10
9.061460
 20
17.223221
 30
0.0
 10
8.956759
 20
17.864532
 30
0.0
 10
8.863419
 20
18.180693
 30
0.0
  0
SPLINE
  5
16d
100
AcDbEntity
  8
Layer_1
 62
7
100
AcDbSpline
 70
8
 71
3
 72
8
 73
4
 74
0
 40
0
 40
0
 40
0
 40
0
 40
1
 40
1
 40
1
 40
1
 10
8.863419
 20
18.180693
 30
0.0
 10
8.810319
 20
18.360514
 30
0.0
 10
8.695309
 20
18.662974
 30
0.0
 10
8.607859
 20
18.852845
 30
0.0
  0
SPLINE
  5
16e
100
AcDbEntity
  8
Layer_1
 62
7
100
AcDbSpline
 70
8
 71
3
 72
8
 73
4
 74
0
 40
0
 40
0
 40
0
 40
0
 40
1
 40
1
 40
1
 40
1
 10
8.607859
 20
18.852845
 30
0.0
 10
8.520358
 20
19.042705
 30
0.0
 10
8.448838
 20
19.203455
 30
0.0
 10
8.448838
 20
19.210045
 30
0.0
  0
SPLINE
  5
16f
100
AcDbEntity
  8
Layer_1
 62
7
100
AcDbSpline
 70
8
 71
3
 72
8
 73
4
 74
0
 40
0
 40
0
 40
0
 40
0
 40
1
 40
1
 40
1
 40
1
 10
8.448838
 20
19.210045
 30
0.0
 10
8.448838
 20
19.217045
 30
0.0
 10
8.611739
 20
19.180745
 30
0.0
 10
8.810829
 20
19.130645
 30
0.0
  0
SPLINE
  5
170
100
AcDbEntity
  8
Layer_1
 62
7
100
AcDbSpline
 70
8
 71
3
 72
8
 73
4
 74
0
 40
0
 40
0
 40
0
 40
0
 40
1
 40
1
 40
1
 40
1
 10
8.810829
 20
19.130645
 30
0.0
 10
9.321560
 20
19.001855
 30
0.0
 10
9.956531
 20
18.681224
 30
0.0
 10
10.412462
 20
18.321983
 30
0.0
  0
SPLINE
  5
171
100
AcDbEntity
  8
Layer_1
 62
7
100
AcDbSpline
 70
8
 71
3
 72
8
 73
4
 74
0
 40
0
 40
0
 40
0
 40
0
 40
1
 40
1
 40
1
 40
1
 10
10.412462
 20
18.321983
 30
0.0
 10
10.705203
 20
18.091363
 30
0.0
 10
10.811353
 20
18.030603
 30
0.0
 10
10.838073
 20
18.078363
 30
0.0
  0
SPLINE
  5
172
100
AcDbEntity
  8
Layer_1
 62
7
100
AcDbSpline
 70
8
 71
3
 72
8
 73
4
 74
0
 40
0
 40
0
 40
0
 40
0
 40
1
 40
1
 40
1
 40
1
 10
10.838073
 20
18.078363
 30
0.0
 10
10.964534
 20
18.304233
 30
0.0
 10
11.079914
 20
18.917405
 30
0.0
 10
11.083694
 20
19.383016
 30
0.0
  0
SPLINE
  5
173
100
AcDbEntity
  8
Layer_1
 62
7
100
AcDbSpline
 70
8
 71
3
 72
8
 73
4
 74
0
 40
0
 40
0
 40
0
 40
0
 40
1
 40
1
 40
1
 40
1
 10
11.083694
 20
19.383016
 30
0.0
 10
11.084694
 20
19.658986
 30
0.0
 10
11.101594
 20
19.884937
 30
0.0
 10
11.118194
 20
19.885107
 30
0.0
  0
SPLINE
  5
174
100
AcDbEntity
  8
Layer_1
 62
7
100
AcDbSpline
 70
8
 71
3
 72
8
 73
4
 74
0
 40
0
 40
0
 40
0
 40
0
 40
1
 40
1
 40
1
 40
1
 10
11.118194
 20
19.885107
 30
0.0
 10
11.183994
 20
19.885647
 30
0.0
 10
11.844816
 20
19.134655
 30
0.0
 10
12.203646
 20
18.651574
 30
0.0
  0
LWPOLYLINE
  5
175
100
AcDbEntity
  8
Layer_1
 62
7
100
AcDbPolyline
 90
3
 70
0
 10
1.587553
 20
13.839934
 30
0.0
 10
1.241893
 20
13.940304
 30
0.0
 10
1.447443
 20
14.015104
 30
0.0
  0
SPLINE
  5
176
100
AcDbEntity
  8
Layer_1
 62
7
100
AcDbSpline
 70
8
 71
3
 72
8
 73
4
 74
0
 40
0
 40
0
 40
0
 40
0
 40
1
 40
1
 40
1
 40
1
 10
12.611487
 20
18.495044
 30
0.0
 10
12.627587
 20
18.689394
 30
0.0
 10
12.686987
 20
19.002905
 30
0.0
 10
12.743987
 20
19.191745
 30
0.0
  0
SPLINE
  5
177
100
AcDbEntity
  8
Layer_1
 62
7
100
AcDbSpline
 70
8
 71
3
 72
8
 73
4
 74
0
 40
0
 40
0
 40
0
 40
0
 40
1
 40
1
 40
1
 40
1
 10
12.743987
 20
19.191745
 30
0.0
 10
12.844498
 20
19.525536
 30
0.0
 10
13.258039
 20
20.463158
 30
0.0
 10
13.290429
 20
20.430768
 30
0.0
  0
SPLINE
  5
178
100
AcDbEntity
  8
Layer_1
 62
7
100
AcDbSpline
 70
8
 71
3
 72
8
 73
4
 74
0
 40
0
 40
0
 40
0
 40
0
 40
1
 40
1
 40
1
 40
1
 10
13.290429
 20
20.430768
 30
0.0
 10
13.300429
 20
20.420768
 30
0.0
 10
13.378129
 20
20.153667
 30
0.0
 10
13.465709
 20
19.834737
 30
0.0
  0
SPLINE
  5
179
100
AcDbEntity
  8
Layer_1
 62
7
100
AcDbSpline
 70
8
 71
3
 72
8
 73
4
 74
0
 40
0
 40
0
 40
0
 40
0
 40
1
 40
1
 40
1
 40
1
 10
13.465709
 20
19.834737
 30
0.0
 10
13.623579
 20
19.259475
 30
0.0
 10
13.949070
 20
18.217633
 30
0.0
 10
13.995040
 20
18.140383
 30
0.0
  0
SPLINE
  5
17a
100
AcDbEntity
  8
Layer_1
 62
7
100
AcDbSpline
 70
8
 71
3
 72
8
 73
4
 74
0
 40
0
 40
0
 40
0
 40
0
 40
1
 40
1
 40
1
 40
1
 10
13.995040
 20
18.140383
 30
0.0
 10
14.008740
 20
18.118283
 30
0.0
 10
14.076440
 20
18.247893
 30
0.0
 10
14.146700
 20
18.428394
 30
0.0
  0
SPLINE
  5
17b
100
AcDbEntity
  8
Layer_1
 62
7
100
AcDbSpline
 70
8
 71
3
 72
8
 73
4
 74
0
 40
0
 40
0
 40
0
 40
0
 40
1
 40
1
 40
1
 40
1
 10
14.146700
 20
18.428394
 30
0.0
 10
14.299761
 20
18.821755
 30
0.0
 10
14.562151
 20
19.308836
 30
0.0
 10
14.793242
 20
19.628516
 30
0.0
  0
SPLINE
  5
17c
100
AcDbEntity
  8
Layer_1
 62
7
100
AcDbSpline
 70
8
 71
3
 72
8
 73
4
 74
0
 40
0
 40
0
 40
0
 40
0
 40
1
 40
1
 40
1
 40
1
 10
14.793242
 20
19.628516
 30
0.0
 10
14.983992
 20
19.892367
 30
0.0
 10
15.451223
 20
20.399188
 30
0.0
 10
15.503713
 20
20.399188
 30
0.0
  0
SPLINE
  5
17d
100
AcDbEntity
  8
Layer_1
 62
7
100
AcDbSpline
 70
8
 71
3
 72
8
 73
4
 74
0
 40
0
 40
0
 40
0
 40
0
 40
1
 40
1
 40
1
 40
1
 10
15.503713
 20
20.399188
 30
0.0
 10
15.522813
 20
20.399188
 30
0.0
 10
15.548513
 20
20.005097
 30
0.0
 10
15.560714
 20
19.523436
 30
0.0
  0
SPLINE
  5
17e
100
AcDbEntity
  8
Layer_1
 62
7
100
AcDbSpline
 70
8
 71
3
 72
8
 73
4
 74
0
 40
0
 40
0
 40
0
 40
0
 40
1
 40
1
 40
1
 40
1
 10
15.560714
 20
19.523436
 30
0.0
 10
15.584014
 20
18.610374
 30
0.0
 10
15.645814
 20
18.242513
 30
0.0
 10
15.840734
 20
17.855642
 30
0.0
  0
LWPOLYLINE
  5
17f
100
AcDbEntity
  8
Layer_1
 62
7
100
AcDbPolyline
 90
3
 70
0
 10
12.203646
 20
18.651574
 30
0.0
 10
12.582387
 20
18.141703
 30
0.0
 10
12.611487
 20
18.495044
 30
0.0
  0
SPLINE
  5
180
100
AcDbEntity
  8
Layer_1
 62
7
100
AcDbSpline
 70
8
 71
3
 72
8
 73
4
 74
0
 40
0
 40
0
 40
0
 40
0
 40
1
 40
1
 40
1
 40
1
 10
16.037775
 20
17.957833
 30
0.0
 10
16.196435
 20
18.396004
 30
0.0
 10
16.521896
 20
18.931715
 30
0.0
 10
16.833656
 20
19.267875
 30
0.0
  0
LWPOLYLINE
  5
181
100
AcDbEntity
  8
Layer_1
 62
7
100
AcDbPolyline
 90
3
 70
0
 10
15.840734
 20
17.855642
 30
0.0
 10
15.933834
 20
17.670782
 30
0.0
 10
16.037775
 20
17.957833
 30
0.0
  0
SPLINE
  5
182
100
AcDbEntity
  8
Layer_1
 62
7
100
AcDbSpline
 70
8
 71
3
 72
8
 73
4
 74
0
 40
0
 40
0
 40
0
 40
0
 40
1
 40
1
 40
1
 40
1
 10
17.117767
 20
18.875795
 30
0.0
 10
17.121767
 20
18.152433
 30
0.0
 10
17.179667
 20
17.804922
 30
0.0
 10
17.369857
 20
17.374971
 30
0.0
  0
LWPOLYLINE
  5
183
100
AcDbEntity
  8
Layer_1
 62
7
100
AcDbPolyline
 90
3
 70
0
 10
16.833656
 20
19.267875
 30
0.0
 10
17.114767
 20
19.570956
 30
0.0
 10
17.117767
 20
18.875795
 30
0.0
  0
SPLINE
  5
184
100
AcDbEntity
  8
Layer_1
 62
7
100
AcDbSpline
 70
8
 71
3
 72
8
 73
4
 74
0
 40
0
 40
0
 40
0
 40
0
 40
1
 40
1
 40
1
 40
1
 10
17.904819
 20
18.047093
 30
0.0
 10
18.148239
 20
18.531554
 30
0.0
 10
18.399860
 20
18.990975
 30
0.0
 10
18.463990
 20
19.068045
 30
0.0
  0
LWPOLYLINE
  5
185
100
AcDbEntity
  8
Layer_1
 62
7
100
AcDbPolyline
 90
3
 70
0
 10
17.369857
 20
17.374971
 30
0.0
 10
17.462258
 20
17.166271
 30
0.0
 10
17.904819
 20
18.047093
 30
0.0
  0
SPLINE
  5
186
100
AcDbEntity
  8
Layer_1
 62
7
100
AcDbSpline
 70
8
 71
3
 72
8
 73
4
 74
0
 40
0
 40
0
 40
0
 40
0
 40
1
 40
1
 40
1
 40
1
 10
18.581570
 20
18.927915
 30
0.0
 10
18.584570
 20
18.533484
 30
0.0
 10
18.700340
 20
17.850672
 30
0.0
 10
18.869641
 20
17.234801
 30
0.0
  0
SPLINE
  5
187
100
AcDbEntity
  8
Layer_1
 62
7
100
AcDbSpline
 70
8
 71
3
 72
8
 73
4
 74
0
 40
0
 40
0
 40
0
 40
0
 40
1
 40
1
 40
1
 40
1
 10
18.869641
 20
17.234801
 30
0.0
 10
18.949041
 20
16.945810
 30
0.0
 10
19.022691
 20
16.709350
 30
0.0
 10
19.033231
 20
16.709350
 30
0.0
  0
SPLINE
  5
188
100
AcDbEntity
  8
Layer_1
 62
7
100
AcDbSpline
 70
8
 71
3
 72
8
 73
4
 74
0
 40
0
 40
0
 40
0
 40
0
 40
1
 40
1
 40
1
 40
1
 10
19.033231
 20
16.709350
 30
0.0
 10
19.044231
 20
16.709350
 30
0.0
 10
19.267311
 20
16.926370
 30
0.0
 10
19.530002
 20
17.191621
 30
0.0
  0
SPLINE
  5
189
100
AcDbEntity
  8
Layer_1
 62
7
100
AcDbSpline
 70
8
 71
3
 72
8
 73
4
 74
0
 40
0
 40
0
 40
0
 40
0
 40
1
 40
1
 40
1
 40
1
 10
19.530002
 20
17.191621
 30
0.0
 10
19.792683
 20
17.456862
 30
0.0
 10
20.110513
 20
17.743722
 30
0.0
 10
20.236264
 20
17.829072
 30
0.0
  0
LWPOLYLINE
  5
18a
100
AcDbEntity
  8
Layer_1
 62
7
100
AcDbPolyline
 90
3
 70
0
 10
18.463990
 20
19.068045
 30
0.0
 10
18.580570
 20
19.208175
 30
0.0
 10
18.581570
 20
18.927915
 30
0.0
  0
SPLINE
  5
18b
100
AcDbEntity
  8
Layer_1
 62
7
100
AcDbSpline
 70
8
 71
3
 72
8
 73
4
 74
0
 40
0
 40
0
 40
0
 40
0
 40
1
 40
1
 40
1
 40
1
 10
20.430314
 20
17.848892
 30
0.0
 10
20.287664
 20
17.289441
 30
0.0
 10
20.254414
 20
17.022691
 30
0.0
 10
20.235774
 20
16.288969
 30
0.0
  0
LWPOLYLINE
  5
18c
100
AcDbEntity
  8
Layer_1
 62
7
100
AcDbPolyline
 90
3
 70
0
 10
20.236264
 20
17.829072
 30
0.0
 10
20.464914
 20
17.984273
 30
0.0
 10
20.430314
 20
17.848892
 30
0.0
  0
SPLINE
  5
18d
100
AcDbEntity
  8
Layer_1
 62
7
100
AcDbSpline
 70
8
 71
3
 72
8
 73
4
 74
0
 40
0
 40
0
 40
0
 40
0
 40
1
 40
1
 40
1
 40
1
 10
20.344834
 20
15.632788
 30
0.0
 10
20.632544
 20
15.990108
 30
0.0
 10
21.193146
 20
16.543830
 30
0.0
 10
21.490906
 20
16.764770
 30
0.0
  0
SPLINE
  5
18e
100
AcDbEntity
  8
Layer_1
 62
7
100
AcDbSpline
 70
8
 71
3
 72
8
 73
4
 74
0
 40
0
 40
0
 40
0
 40
0
 40
1
 40
1
 40
1
 40
1
 10
21.490906
 20
16.764770
 30
0.0
 10
21.818987
 20
17.008241
 30
0.0
 10
22.540739
 20
17.456652
 30
0.0
 10
22.604569
 20
17.456652
 30
0.0
  0
SPLINE
  5
18f
100
AcDbEntity
  8
Layer_1
 62
7
100
AcDbSpline
 70
8
 71
3
 72
8
 73
4
 74
0
 40
0
 40
0
 40
0
 40
0
 40
1
 40
1
 40
1
 40
1
 10
22.604569
 20
17.456652
 30
0.0
 10
22.624769
 20
17.456652
 30
0.0
 10
22.518368
 20
17.199191
 30
0.0
 10
22.368078
 20
16.884490
 30
0.0
  0
SPLINE
  5
190
100
AcDbEntity
  8
Layer_1
 62
7
100
AcDbSpline
 70
8
 71
3
 72
8
 73
4
 74
0
 40
0
 40
0
 40
0
 40
0
 40
1
 40
1
 40
1
 40
1
 10
22.368078
 20
16.884490
 30
0.0
 10
22.053107
 20
16.224599
 30
0.0
 10
21.917427
 20
15.844388
 30
0.0
 10
21.824867
 20
15.362427
 30
0.0
  0
SPLINE
  5
191
100
AcDbEntity
  8
Layer_1
 62
7
100
AcDbSpline
 70
8
 71
3
 72
8
 73
4
 74
0
 40
0
 40
0
 40
0
 40
0
 40
1
 40
1
 40
1
 40
1
 10
21.824867
 20
15.362427
 30
0.0
 10
21.748967
 20
14.966416
 30
0.0
 10
21.737267
 20
14.299565
 30
0.0
 10
21.805767
 20
14.257245
 30
0.0
  0
SPLINE
  5
192
100
AcDbEntity
  8
Layer_1
 62
7
100
AcDbSpline
 70
8
 71
3
 72
8
 73
4
 74
0
 40
0
 40
0
 40
0
 40
0
 40
1
 40
1
 40
1
 40
1
 10
21.805767
 20
14.257245
 30
0.0
 10
21.831467
 20
14.241345
 30
0.0
 10
21.852467
 20
14.246245
 30
0.0
 10
21.852467
 20
14.268245
 30
0.0
  0
SPLINE
  5
193
100
AcDbEntity
  8
Layer_1
 62
7
100
AcDbSpline
 70
8
 71
3
 72
8
 73
4
 74
0
 40
0
 40
0
 40
0
 40
0
 40
1
 40
1
 40
1
 40
1
 10
21.852467
 20
14.268245
 30
0.0
 10
21.852467
 20
14.404455
 30
0.0
 10
23.391360
 20
15.327487
 30
0.0
 10
23.431430
 20
15.215297
 30
0.0
  0
SPLINE
  5
194
100
AcDbEntity
  8
Layer_1
 62
7
100
AcDbSpline
 70
8
 71
3
 72
8
 73
4
 74
0
 40
0
 40
0
 40
0
 40
0
 40
1
 40
1
 40
1
 40
1
 10
23.431430
 20
15.215297
 30
0.0
 10
23.439430
 20
15.193197
 30
0.0
 10
23.383230
 20
15.051636
 30
0.0
 10
23.307020
 20
14.900546
 30
0.0
  0
SPLINE
  5
195
100
AcDbEntity
  8
Layer_1
 62
7
100
AcDbSpline
 70
8
 71
3
 72
8
 73
4
 74
0
 40
0
 40
0
 40
0
 40
0
 40
1
 40
1
 40
1
 40
1
 10
23.307020
 20
14.900546
 30
0.0
 10
23.078160
 20
14.447165
 30
0.0
 10
22.850039
 20
13.819384
 30
0.0
 10
22.725169
 20
13.299323
 30
0.0
  0
SPLINE
  5
196
100
AcDbEntity
  8
Layer_1
 62
7
100
AcDbSpline
 70
8
 71
3
 72
8
 73
4
 74
0
 40
0
 40
0
 40
0
 40
0
 40
1
 40
1
 40
1
 40
1
 10
22.725169
 20
13.299323
 30
0.0
 10
22.585689
 20
12.718491
 30
0.0
 10
22.546629
 20
12.505311
 30
0.0
 10
22.579649
 20
12.505311
 30
0.0
  0
SPLINE
  5
197
100
AcDbEntity
  8
Layer_1
 62
7
100
AcDbSpline
 70
8
 71
3
 72
8
 73
4
 74
0
 40
0
 40
0
 40
0
 40
0
 40
1
 40
1
 40
1
 40
1
 10
22.579649
 20
12.505311
 30
0.0
 10
22.593349
 20
12.505311
 30
0.0
 10
22.743589
 20
12.611041
 30
0.0
 10
22.914339
 20
12.740311
 30
0.0
  0
SPLINE
  5
198
100
AcDbEntity
  8
Layer_1
 62
7
100
AcDbSpline
 70
8
 71
3
 72
8
 73
4
 74
0
 40
0
 40
0
 40
0
 40
0
 40
1
 40
1
 40
1
 40
1
 10
22.914339
 20
12.740311
 30
0.0
 10
23.167230
 20
12.931762
 30
0.0
 10
24.387913
 20
13.579553
 30
0.0
 10
24.495763
 20
13.579553
 30
0.0
  0
SPLINE
  5
199
100
AcDbEntity
  8
Layer_1
 62
7
100
AcDbSpline
 70
8
 71
3
 72
8
 73
4
 74
0
 40
0
 40
0
 40
0
 40
0
 40
1
 40
1
 40
1
 40
1
 10
24.495763
 20
13.579553
 30
0.0
 10
24.511863
 20
13.579553
 30
0.0
 10
24.410463
 20
13.456113
 30
0.0
 10
24.270872
 20
13.305283
 30
0.0
  0
SPLINE
  5
19a
100
AcDbEntity
  8
Layer_1
 62
7
100
AcDbSpline
 70
8
 71
3
 72
8
 73
4
 74
0
 40
0
 40
0
 40
0
 40
0
 40
1
 40
1
 40
1
 40
1
 10
24.270872
 20
13.305283
 30
0.0
 10
24.009742
 20
13.023252
 30
0.0
 10
23.440490
 20
11.992030
 30
0.0
 10
23.440490
 20
11.801029
 30
0.0
  0
SPLINE
  5
19b
100
AcDbEntity
  8
Layer_1
 62
7
100
AcDbSpline
 70
8
 71
3
 72
8
 73
4
 74
0
 40
0
 40
0
 40
0
 40
0
 40
1
 40
1
 40
1
 40
1
 10
23.440490
 20
11.801029
 30
0.0
 10
23.440490
 20
11.714929
 30
0.0
 10
23.455291
 20
11.718829
 30
0.0
 10
23.615641
 20
11.847430
 30
0.0
  0
SPLINE
  5
19c
100
AcDbEntity
  8
Layer_1
 62
7
100
AcDbSpline
 70
8
 71
3
 72
8
 73
4
 74
0
 40
0
 40
0
 40
0
 40
0
 40
1
 40
1
 40
1
 40
1
 10
23.615641
 20
11.847430
 30
0.0
 10
23.712041
 20
11.924630
 30
0.0
 10
23.884581
 20
12.020890
 30
0.0
 10
23.999242
 20
12.061230
 30
0.0
  0
SPLINE
  5
19d
100
AcDbEntity
  8
Layer_1
 62
7
100
AcDbSpline
 70
8
 71
3
 72
8
 73
4
 74
0
 40
0
 40
0
 40
0
 40
0
 40
1
 40
1
 40
1
 40
1
 10
23.999242
 20
12.061230
 30
0.0
 10
24.262742
 20
12.153930
 30
0.0
 10
24.794773
 20
12.193730
 30
0.0
 10
25.098554
 20
12.143430
 30
0.0
  0
LWPOLYLINE
  5
19e
100
AcDbEntity
  8
Layer_1
 62
7
100
AcDbPolyline
 90
3
 70
0
 10
20.235774
 20
16.288969
 30
0.0
 10
20.215074
 20
15.471627
 30
0.0
 10
20.344834
 20
15.632788
 30
0.0
  0
SPLINE
  5
19f
100
AcDbEntity
  8
Layer_1
 62
7
100
AcDbSpline
 70
8
 71
3
 72
8
 73
4
 74
0
 40
0
 40
0
 40
0
 40
0
 40
1
 40
1
 40
1
 40
1
 10
24.947184
 20
11.903080
 30
0.0
 10
24.471423
 20
11.653739
 30
0.0
 10
24.101162
 20
11.275898
 30
0.0
 10
23.958222
 20
10.893817
 30
0.0
  0
SPLINE
  5
1a0
100
AcDbEntity
  8
Layer_1
 62
7
100
AcDbSpline
 70
8
 71
3
 72
8
 73
4
 74
0
 40
0
 40
0
 40
0
 40
0
 40
1
 40
1
 40
1
 40
1
 10
23.958222
 20
10.893817
 30
0.0
 10
23.904521
 20
10.750677
 30
0.0
 10
23.860721
 20
10.605477
 30
0.0
 10
23.860721
 20
10.571117
 30
0.0
  0
SPLINE
  5
1a1
100
AcDbEntity
  8
Layer_1
 62
7
100
AcDbSpline
 70
8
 71
3
 72
8
 73
4
 74
0
 40
0
 40
0
 40
0
 40
0
 40
1
 40
1
 40
1
 40
1
 10
23.860721
 20
10.571117
 30
0.0
 10
23.860721
 20
10.536817
 30
0.0
 10
23.792521
 20
10.495017
 30
0.0
 10
23.708921
 20
10.478417
 30
0.0
  0
SPLINE
  5
1a2
100
AcDbEntity
  8
Layer_1
 62
7
100
AcDbSpline
 70
8
 71
3
 72
8
 73
4
 74
0
 40
0
 40
0
 40
0
 40
0
 40
1
 40
1
 40
1
 40
1
 10
23.708921
 20
10.478417
 30
0.0
 10
23.437470
 20
10.424316
 30
0.0
 10
22.817649
 20
10.082476
 30
0.0
 10
22.473878
 20
9.797175
 30
0.0
  0
SPLINE
  5
1a3
100
AcDbEntity
  8
Layer_1
 62
7
100
AcDbSpline
 70
8
 71
3
 72
8
 73
4
 74
0
 40
0
 40
0
 40
0
 40
0
 40
1
 40
1
 40
1
 40
1
 10
22.473878
 20
9.797175
 30
0.0
 10
22.053647
 20
9.448394
 30
0.0
 10
21.531896
 20
8.854623
 30
0.0
 10
21.150406
 20
8.291022
 30
0.0
  0
SPLINE
  5
1a4
100
AcDbEntity
  8
Layer_1
 62
7
100
AcDbSpline
 70
8
 71
3
 72
8
 73
4
 74
0
 40
0
 40
0
 40
0
 40
0
 40
1
 40
1
 40
1
 40
1
 10
21.150406
 20
8.291022
 30
0.0
 10
20.773075
 20
7.733551
 30
0.0
 10
20.804705
 20
7.760261
 30
0.0
 10
20.658354
 20
7.875381
 30
0.0
  0
SPLINE
  5
1a5
100
AcDbEntity
  8
Layer_1
 62
7
100
AcDbSpline
 70
8
 71
3
 72
8
 73
4
 74
0
 40
0
 40
0
 40
0
 40
0
 40
1
 40
1
 40
1
 40
1
 10
20.658354
 20
7.875381
 30
0.0
 10
20.293684
 20
8.162222
 30
0.0
 10
19.673782
 20
7.777081
 30
0.0
 10
19.621302
 20
7.230960
 30
0.0
  0
SPLINE
  5
1a6
100
AcDbEntity
  8
Layer_1
 62
7
100
AcDbSpline
 70
8
 71
3
 72
8
 73
4
 74
0
 40
0
 40
0
 40
0
 40
0
 40
1
 40
1
 40
1
 40
1
 10
19.621302
 20
7.230960
 30
0.0
 10
19.594202
 20
6.949209
 30
0.0
 10
19.667002
 20
6.722398
 30
0.0
 10
19.869773
 20
6.456768
 30
0.0
  0
LWPOLYLINE
  5
1a7
100
AcDbEntity
  8
Layer_1
 62
7
100
AcDbPolyline
 90
3
 70
0
 10
25.098554
 20
12.143430
 30
0.0
 10
25.332115
 20
12.104830
 30
0.0
 10
24.947184
 20
11.903080
 30
0.0
  0
SPLINE
  5
1a8
100
AcDbEntity
  8
Layer_1
 62
7
100
AcDbSpline
 70
8
 71
3
 72
8
 73
4
 74
0
 40
0
 40
0
 40
0
 40
0
 40
1
 40
1
 40
1
 40
1
 10
19.889443
 20
5.916747
 30
0.0
 10
19.604622
 20
5.226055
 30
0.0
 10
19.351922
 20
4.318063
 30
0.0
 10
19.233821
 20
3.561012
 30
0.0
  0
SPLINE
  5
1a9
100
AcDbEntity
  8
Layer_1
 62
7
100
AcDbSpline
 70
8
 71
3
 72
8
 73
4
 74
0
 40
0
 40
0
 40
0
 40
0
 40
1
 40
1
 40
1
 40
1
 10
19.233821
 20
3.561012
 30
0.0
 10
19.162721
 20
3.104711
 30
0.0
 10
19.159221
 20
2.188539
 30
0.0
 10
19.228821
 20
1.904208
 30
0.0
  0
SPLINE
  5
1aa
100
AcDbEntity
  8
Layer_1
 62
7
100
AcDbSpline
 70
8
 71
3
 72
8
 73
4
 74
0
 40
0
 40
0
 40
0
 40
0
 40
1
 40
1
 40
1
 40
1
 10
19.228821
 20
1.904208
 30
0.0
 10
19.256521
 20
1.789288
 30
0.0
 10
19.270722
 20
1.686758
 30
0.0
 10
19.260321
 20
1.676318
 30
0.0
  0
SPLINE
  5
1ab
100
AcDbEntity
  8
Layer_1
 62
7
100
AcDbSpline
 70
8
 71
3
 72
8
 73
4
 74
0
 40
0
 40
0
 40
0
 40
0
 40
1
 40
1
 40
1
 40
1
 10
19.260321
 20
1.676318
 30
0.0
 10
19.249321
 20
1.665318
 30
0.0
 10
19.077671
 20
1.737718
 30
0.0
 10
18.877611
 20
1.836028
 30
0.0
  0
SPLINE
  5
1ac
100
AcDbEntity
  8
Layer_1
 62
7
100
AcDbSpline
 70
8
 71
3
 72
8
 73
4
 74
0
 40
0
 40
0
 40
0
 40
0
 40
1
 40
1
 40
1
 40
1
 10
18.877611
 20
1.836028
 30
0.0
 10
18.677570
 20
1.934328
 30
0.0
 10
18.496500
 20
2.015828
 30
0.0
 10
18.475260
 20
2.017188
 30
0.0
  0
SPLINE
  5
1ad
100
AcDbEntity
  8
Layer_1
 62
7
100
AcDbSpline
 70
8
 71
3
 72
8
 73
4
 74
0
 40
0
 40
0
 40
0
 40
0
 40
1
 40
1
 40
1
 40
1
 10
18.475260
 20
2.017188
 30
0.0
 10
18.453960
 20
2.017948
 30
0.0
 10
18.397560
 20
1.908578
 30
0.0
 10
18.349760
 20
1.772818
 30
0.0
  0
SPLINE
  5
1ae
100
AcDbEntity
  8
Layer_1
 62
7
100
AcDbSpline
 70
8
 71
3
 72
8
 73
4
 74
0
 40
0
 40
0
 40
0
 40
0
 40
1
 40
1
 40
1
 40
1
 10
18.349760
 20
1.772818
 30
0.0
 10
18.301859
 20
1.637028
 30
0.0
 10
18.200179
 20
1.417477
 30
0.0
 10
18.123639
 20
1.284897
 30
0.0
  0
LWPOLYLINE
  5
1af
100
AcDbEntity
  8
Layer_1
 62
7
100
AcDbPolyline
 90
3
 70
0
 10
19.869773
 20
6.456768
 30
0.0
 10
20.027113
 20
6.250637
 30
0.0
 10
19.889443
 20
5.916747
 30
0.0
  0
SPLINE
  5
1b0
100
AcDbEntity
  8
Layer_1
 62
7
100
AcDbSpline
 70
8
 71
3
 72
8
 73
4
 74
0
 40
0
 40
0
 40
0
 40
0
 40
1
 40
1
 40
1
 40
1
 10
17.951449
 20
1.228177
 30
0.0
 10
17.907949
 20
1.471377
 30
0.0
 10
17.653638
 20
2.136469
 30
0.0
 10
17.604098
 20
2.136469
 30
0.0
  0
SPLINE
  5
1b1
100
AcDbEntity
  8
Layer_1
 62
7
100
AcDbSpline
 70
8
 71
3
 72
8
 73
4
 74
0
 40
0
 40
0
 40
0
 40
0
 40
1
 40
1
 40
1
 40
1
 10
17.604098
 20
2.136469
 30
0.0
 10
17.582798
 20
2.136469
 30
0.0
 10
17.508798
 20
2.040068
 30
0.0
 10
17.439698
 20
1.922278
 30
0.0
  0
SPLINE
  5
1b2
100
AcDbEntity
  8
Layer_1
 62
7
100
AcDbSpline
 70
8
 71
3
 72
8
 73
4
 74
0
 40
0
 40
0
 40
0
 40
0
 40
1
 40
1
 40
1
 40
1
 10
17.439698
 20
1.922278
 30
0.0
 10
17.305137
 20
1.692638
 30
0.0
 10
16.860466
 20
1.223437
 30
0.0
 10
16.546476
 20
0.979756
 30
0.0
  0
LWPOLYLINE
  5
1b3
100
AcDbEntity
  8
Layer_1
 62
7
100
AcDbPolyline
 90
3
 70
0
 10
18.123639
 20
1.284897
 30
0.0
 10
17.984449
 20
1.043836
 30
0.0
 10
17.951449
 20
1.228177
 30
0.0
  0
SPLINE
  5
1b4
100
AcDbEntity
  8
Layer_1
 62
7
100
AcDbSpline
 70
8
 71
3
 72
8
 73
4
 74
0
 40
0
 40
0
 40
0
 40
0
 40
1
 40
1
 40
1
 40
1
 10
16.298875
 20
1.260057
 30
0.0
 10
16.268575
 20
1.496387
 30
0.0
 10
16.235275
 20
1.698328
 30
0.0
 10
16.224775
 20
1.708778
 30
0.0
  0
SPLINE
  5
1b5
100
AcDbEntity
  8
Layer_1
 62
7
100
AcDbSpline
 70
8
 71
3
 72
8
 73
4
 74
0
 40
0
 40
0
 40
0
 40
0
 40
1
 40
1
 40
1
 40
1
 10
16.224775
 20
1.708778
 30
0.0
 10
16.183975
 20
1.749578
 30
0.0
 10
15.791244
 20
1.557727
 30
0.0
 10
15.522263
 20
1.365807
 30
0.0
  0
SPLINE
  5
1b6
100
AcDbEntity
  8
Layer_1
 62
7
100
AcDbSpline
 70
8
 71
3
 72
8
 73
4
 74
0
 40
0
 40
0
 40
0
 40
0
 40
1
 40
1
 40
1
 40
1
 10
15.522263
 20
1.365807
 30
0.0
 10
15.366823
 20
1.254867
 30
0.0
 10
15.160253
 20
1.076326
 30
0.0
 10
15.063242
 20
0.968936
 30
0.0
  0
SPLINE
  5
1b7
100
AcDbEntity
  8
Layer_1
 62
7
100
AcDbSpline
 70
8
 71
3
 72
8
 73
4
 74
0
 40
0
 40
0
 40
0
 40
0
 40
1
 40
1
 40
1
 40
1
 10
15.063242
 20
0.968936
 30
0.0
 10
14.966142
 20
0.861556
 30
0.0
 10
14.880172
 20
0.780796
 30
0.0
 10
14.872012
 20
0.789506
 30
0.0
  0
SPLINE
  5
1b8
100
AcDbEntity
  8
Layer_1
 62
7
100
AcDbSpline
 70
8
 71
3
 72
8
 73
4
 74
0
 40
0
 40
0
 40
0
 40
0
 40
1
 40
1
 40
1
 40
1
 10
14.872012
 20
0.789506
 30
0.0
 10
14.864012
 20
0.797506
 30
0.0
 10
14.811912
 20
0.973806
 30
0.0
 10
14.756672
 20
1.179747
 30
0.0
  0
SPLINE
  5
1b9
100
AcDbEntity
  8
Layer_1
 62
7
100
AcDbSpline
 70
8
 71
3
 72
8
 73
4
 74
0
 40
0
 40
0
 40
0
 40
0
 40
1
 40
1
 40
1
 40
1
 10
14.756672
 20
1.179747
 30
0.0
 10
14.609881
 20
1.726738
 30
0.0
 10
14.634202
 20
1.712938
 30
0.0
 10
14.220541
 20
1.484607
 30
0.0
  0
SPLINE
  5
1ba
100
AcDbEntity
  8
Layer_1
 62
7
100
AcDbSpline
 70
8
 71
3
 72
8
 73
4
 74
0
 40
0
 40
0
 40
0
 40
0
 40
1
 40
1
 40
1
 40
1
 10
14.220541
 20
1.484607
 30
0.0
 10
13.830520
 20
1.269327
 30
0.0
 10
13.208438
 20
0.820536
 30
0.0
 10
13.029338
 20
0.625215
 30
0.0
  0
SPLINE
  5
1bb
100
AcDbEntity
  8
Layer_1
 62
7
100
AcDbSpline
 70
8
 71
3
 72
8
 73
4
 74
0
 40
0
 40
0
 40
0
 40
0
 40
1
 40
1
 40
1
 40
1
 10
13.029338
 20
0.625215
 30
0.0
 10
12.967138
 20
0.557215
 30
0.0
 10
12.900678
 20
0.501775
 30
0.0
 10
12.881938
 20
0.501775
 30
0.0
  0
SPLINE
  5
1bc
100
AcDbEntity
  8
Layer_1
 62
7
100
AcDbSpline
 70
8
 71
3
 72
8
 73
4
 74
0
 40
0
 40
0
 40
0
 40
0
 40
1
 40
1
 40
1
 40
1
 10
12.881938
 20
0.501775
 30
0.0
 10
12.863138
 20
0.501775
 30
0.0
 10
12.833238
 20
0.612165
 30
0.0
 10
12.815438
 20
0.746986
 30
0.0
  0
LWPOLYLINE
  5
1bd
100
AcDbEntity
  8
Layer_1
 62
7
100
AcDbPolyline
 90
3
 70
0
 10
16.546476
 20
0.979756
 30
0.0
 10
16.353975
 20
0.830346
 30
0.0
 10
16.298875
 20
1.260057
 30
0.0
  0
SPLINE
  5
1be
100
AcDbEntity
  8
Layer_1
 62
7
100
AcDbSpline
 70
8
 71
3
 72
8
 73
4
 74
0
 40
0
 40
0
 40
0
 40
0
 40
1
 40
1
 40
1
 40
1
 10
15.303373
 20
3.778372
 30
0.0
 10
15.512623
 20
4.027153
 30
0.0
 10
15.532753
 20
4.073943
 30
0.0
 10
15.452023
 20
4.123843
 30
0.0
  0
SPLINE
  5
1bf
100
AcDbEntity
  8
Layer_1
 62
7
100
AcDbSpline
 70
8
 71
3
 72
8
 73
4
 74
0
 40
0
 40
0
 40
0
 40
0
 40
1
 40
1
 40
1
 40
1
 10
15.452023
 20
4.123843
 30
0.0
 10
15.424723
 20
4.140843
 30
0.0
 10
15.324743
 20
4.063243
 30
0.0
 10
15.230163
 20
3.951643
 30
0.0
  0
SPLINE
  5
1c0
100
AcDbEntity
  8
Layer_1
 62
7
100
AcDbSpline
 70
8
 71
3
 72
8
 73
4
 74
0
 40
0
 40
0
 40
0
 40
0
 40
1
 40
1
 40
1
 40
1
 10
15.230163
 20
3.951643
 30
0.0
 10
14.979192
 20
3.655392
 30
0.0
 10
14.453271
 20
3.162671
 30
0.0
 10
14.437031
 20
3.208601
 30
0.0
  0
SPLINE
  5
1c1
100
AcDbEntity
  8
Layer_1
 62
7
100
AcDbSpline
 70
8
 71
3
 72
8
 73
4
 74
0
 40
0
 40
0
 40
0
 40
0
 40
1
 40
1
 40
1
 40
1
 10
14.437031
 20
3.208601
 30
0.0
 10
14.429031
 20
3.230301
 30
0.0
 10
14.476131
 20
3.413151
 30
0.0
 10
14.540971
 20
3.614922
 30
0.0
  0
SPLINE
  5
1c2
100
AcDbEntity
  8
Layer_1
 62
7
100
AcDbSpline
 70
8
 71
3
 72
8
 73
4
 74
0
 40
0
 40
0
 40
0
 40
0
 40
1
 40
1
 40
1
 40
1
 10
14.540971
 20
3.614922
 30
0.0
 10
14.731322
 20
4.207533
 30
0.0
 10
14.851892
 20
4.767244
 30
0.0
 10
14.800332
 20
4.818804
 30
0.0
  0
SPLINE
  5
1c3
100
AcDbEntity
  8
Layer_1
 62
7
100
AcDbSpline
 70
8
 71
3
 72
8
 73
4
 74
0
 40
0
 40
0
 40
0
 40
0
 40
1
 40
1
 40
1
 40
1
 10
14.800332
 20
4.818804
 30
0.0
 10
14.727032
 20
4.892105
 30
0.0
 10
14.679642
 20
4.803404
 30
0.0
 10
14.590251
 20
4.425484
 30
0.0
  0
SPLINE
  5
1c4
100
AcDbEntity
  8
Layer_1
 62
7
100
AcDbSpline
 70
8
 71
3
 72
8
 73
4
 74
0
 40
0
 40
0
 40
0
 40
0
 40
1
 40
1
 40
1
 40
1
 10
14.590251
 20
4.425484
 30
0.0
 10
14.544751
 20
4.232813
 30
0.0
 10
14.416101
 20
3.770422
 30
0.0
 10
14.304581
 20
3.397941
 30
0.0
  0
SPLINE
  5
1c5
100
AcDbEntity
  8
Layer_1
 62
7
100
AcDbSpline
 70
8
 71
3
 72
8
 73
4
 74
0
 40
0
 40
0
 40
0
 40
0
 40
1
 40
1
 40
1
 40
1
 10
14.304581
 20
3.397941
 30
0.0
 10
14.193091
 20
3.025451
 30
0.0
 10
14.101560
 20
2.692500
 30
0.0
 10
14.101270
 20
2.658050
 30
0.0
  0
SPLINE
  5
1c6
100
AcDbEntity
  8
Layer_1
 62
7
100
AcDbSpline
 70
8
 71
3
 72
8
 73
4
 74
0
 40
0
 40
0
 40
0
 40
0
 40
1
 40
1
 40
1
 40
1
 10
14.101270
 20
2.658050
 30
0.0
 10
14.100720
 20
2.583850
 30
0.0
 10
15.017512
 20
3.438441
 30
0.0
 10
15.303423
 20
3.778372
 30
0.0
  0
LWPOLYLINE
  5
1c7
100
AcDbEntity
  8
Layer_1
 62
7
100
AcDbPolyline
 90
2
 70
0
 10
12.815438
 20
0.746986
 30
0.0
 10
12.816198
 20
0.747326
 30
0.0
  0
SPLINE
  5
1c8
100
AcDbEntity
  8
Layer_1
 62
7
100
AcDbSpline
 70
8
 71
3
 72
8
 73
4
 74
0
 40
0
 40
0
 40
0
 40
0
 40
1
 40
1
 40
1
 40
1
 10
9.519451
 20
3.264651
 30
0.0
 10
9.916011
 20
3.481421
 30
0.0
 10
10.798013
 20
4.057763
 30
0.0
 10
10.960284
 20
4.206133
 30
0.0
  0
SPLINE
  5
1c9
100
AcDbEntity
  8
Layer_1
 62
7
100
AcDbSpline
 70
8
 71
3
 72
8
 73
4
 74
0
 40
0
 40
0
 40
0
 40
0
 40
1
 40
1
 40
1
 40
1
 10
10.960284
 20
4.206133
 30
0.0
 10
11.027984
 20
4.268033
 30
0.0
 10
11.049784
 20
4.319003
 30
0.0
 10
11.021084
 20
4.347683
 30
0.0
  0
SPLINE
  5
1ca
100
AcDbEntity
  8
Layer_1
 62
7
100
AcDbSpline
 70
8
 71
3
 72
8
 73
4
 74
0
 40
0
 40
0
 40
0
 40
0
 40
1
 40
1
 40
1
 40
1
 10
11.021084
 20
4.347683
 30
0.0
 10
10.992384
 20
4.376383
 30
0.0
 10
10.769133
 20
4.258183
 30
0.0
 10
10.401592
 20
4.019683
 30
0.0
  0
SPLINE
  5
1cb
100
AcDbEntity
  8
Layer_1
 62
7
100
AcDbSpline
 70
8
 71
3
 72
8
 73
4
 74
0
 40
0
 40
0
 40
0
 40
0
 40
1
 40
1
 40
1
 40
1
 10
10.401592
 20
4.019683
 30
0.0
 10
10.085572
 20
3.814582
 30
0.0
 10
9.745751
 20
3.598092
 30
0.0
 10
9.646431
 20
3.538542
 30
0.0
  0
LWPOLYLINE
  5
1cc
100
AcDbEntity
  8
Layer_1
 62
7
100
AcDbPolyline
 90
1
 70
1
 10
15.303423
 20
3.778372
 30
0.0
  0
SPLINE
  5
1cd
100
AcDbEntity
  8
Layer_1
 62
7
100
AcDbSpline
 70
8
 71
3
 72
8
 73
4
 74
0
 40
0
 40
0
 40
0
 40
0
 40
1
 40
1
 40
1
 40
1
 10
9.501270
 20
3.542522
 30
0.0
 10
9.520771
 20
3.604222
 30
0.0
 10
9.660011
 20
3.926082
 30
0.0
 10
9.810681
 20
4.257683
 30
0.0
  0
SPLINE
  5
1ce
100
AcDbEntity
  8
Layer_1
 62
7
100
AcDbSpline
 70
8
 71
3
 72
8
 73
4
 74
0
 40
0
 40
0
 40
0
 40
0
 40
1
 40
1
 40
1
 40
1
 10
9.810681
 20
4.257683
 30
0.0
 10
9.961331
 20
4.589274
 30
0.0
 10
10.077312
 20
4.867864
 30
0.0
 10
10.068422
 20
4.876765
 30
0.0
  0
SPLINE
  5
1cf
100
AcDbEntity
  8
Layer_1
 62
7
100
AcDbSpline
 70
8
 71
3
 72
8
 73
4
 74
0
 40
0
 40
0
 40
0
 40
0
 40
1
 40
1
 40
1
 40
1
 10
10.068422
 20
4.876765
 30
0.0
 10
10.058422
 20
4.886765
 30
0.0
 10
9.991122
 20
4.872764
 30
0.0
 10
9.916241
 20
4.846264
 30
0.0
  0
SPLINE
  5
1d0
100
AcDbEntity
  8
Layer_1
 62
7
100
AcDbSpline
 70
8
 71
3
 72
8
 73
4
 74
0
 40
0
 40
0
 40
0
 40
0
 40
1
 40
1
 40
1
 40
1
 10
9.916241
 20
4.846264
 30
0.0
 10
9.797201
 20
4.805364
 30
0.0
 10
8.668439
 20
4.565514
 30
0.0
 10
8.595629
 20
4.565514
 30
0.0
  0
SPLINE
  5
1d1
100
AcDbEntity
  8
Layer_1
 62
7
100
AcDbSpline
 70
8
 71
3
 72
8
 73
4
 74
0
 40
0
 40
0
 40
0
 40
0
 40
1
 40
1
 40
1
 40
1
 10
8.595629
 20
4.565514
 30
0.0
 10
8.544528
 20
4.565514
 30
0.0
 10
9.264760
 20
5.269565
 30
0.0
 10
9.511660
 20
5.460986
 30
0.0
  0
SPLINE
  5
1d2
100
AcDbEntity
  8
Layer_1
 62
7
100
AcDbSpline
 70
8
 71
3
 72
8
 73
4
 74
0
 40
0
 40
0
 40
0
 40
0
 40
1
 40
1
 40
1
 40
1
 10
9.511660
 20
5.460986
 30
0.0
 10
9.742411
 20
5.639896
 30
0.0
 10
9.825831
 20
5.779896
 30
0.0
 10
9.701711
 20
5.779896
 30
0.0
  0
SPLINE
  5
1d3
100
AcDbEntity
  8
Layer_1
 62
7
100
AcDbSpline
 70
8
 71
3
 72
8
 73
4
 74
0
 40
0
 40
0
 40
0
 40
0
 40
1
 40
1
 40
1
 40
1
 10
9.701711
 20
5.779896
 30
0.0
 10
9.617011
 20
5.779896
 30
0.0
 10
9.014969
 20
5.302095
 30
0.0
 10
8.748929
 20
5.023865
 30
0.0
  0
SPLINE
  5
1d4
100
AcDbEntity
  8
Layer_1
 62
7
100
AcDbSpline
 70
8
 71
3
 72
8
 73
4
 74
0
 40
0
 40
0
 40
0
 40
0
 40
1
 40
1
 40
1
 40
1
 10
8.748929
 20
5.023865
 30
0.0
 10
8.425718
 20
4.685854
 30
0.0
 10
8.056117
 20
4.238583
 30
0.0
 10
8.099997
 20
4.238583
 30
0.0
  0
SPLINE
  5
1d5
100
AcDbEntity
  8
Layer_1
 62
7
100
AcDbSpline
 70
8
 71
3
 72
8
 73
4
 74
0
 40
0
 40
0
 40
0
 40
0
 40
1
 40
1
 40
1
 40
1
 10
8.099997
 20
4.238583
 30
0.0
 10
8.119797
 20
4.238583
 30
0.0
 10
8.253658
 20
4.280983
 30
0.0
 10
8.397588
 20
4.332883
 30
0.0
  0
SPLINE
  5
1d6
100
AcDbEntity
  8
Layer_1
 62
7
100
AcDbSpline
 70
8
 71
3
 72
8
 73
4
 74
0
 40
0
 40
0
 40
0
 40
0
 40
1
 40
1
 40
1
 40
1
 10
8.397588
 20
4.332883
 30
0.0
 10
8.541508
 20
4.384783
 30
0.0
 10
8.915499
 20
4.475644
 30
0.0
 10
9.228660
 20
4.534924
 30
0.0
  0
LWPOLYLINE
  5
1d7
100
AcDbEntity
  8
Layer_1
 62
7
100
AcDbPolyline
 90
3
 70
0
 10
9.646431
 20
3.538542
 30
0.0
 10
9.465870
 20
3.430341
 30
0.0
 10
9.501270
 20
3.542522
 30
0.0
  0
SPLINE
  5
1d8
100
AcDbEntity
  8
Layer_1
 62
7
100
AcDbSpline
 70
8
 71
3
 72
8
 73
4
 74
0
 40
0
 40
0
 40
0
 40
0
 40
1
 40
1
 40
1
 40
1
 10
9.735551
 20
4.499044
 30
0.0
 10
9.701051
 20
4.420144
 30
0.0
 10
9.544761
 20
4.073773
 30
0.0
 10
9.388030
 20
3.729562
 30
0.0
  0
SPLINE
  5
1d9
100
AcDbEntity
  8
Layer_1
 62
7
100
AcDbSpline
 70
8
 71
3
 72
8
 73
4
 74
0
 40
0
 40
0
 40
0
 40
0
 40
1
 40
1
 40
1
 40
1
 10
9.388030
 20
3.729562
 30
0.0
 10
9.231300
 20
3.385371
 30
0.0
 10
9.103060
 20
3.096351
 30
0.0
 10
9.103060
 20
3.087351
 30
0.0
  0
SPLINE
  5
1da
100
AcDbEntity
  8
Layer_1
 62
7
100
AcDbSpline
 70
8
 71
3
 72
8
 73
4
 74
0
 40
0
 40
0
 40
0
 40
0
 40
1
 40
1
 40
1
 40
1
 10
9.103060
 20
3.087351
 30
0.0
 10
9.103060
 20
3.047251
 30
0.0
 10
9.187960
 20
3.083351
 30
0.0
 10
9.519441
 20
3.264611
 30
0.0
  0
LWPOLYLINE
  5
1db
100
AcDbEntity
  8
Layer_1
 62
7
100
AcDbPolyline
 90
3
 70
0
 10
9.228660
 20
4.534924
 30
0.0
 10
9.798051
 20
4.642704
 30
0.0
 10
9.735551
 20
4.499044
 30
0.0
  0
SPLINE
  5
1dc
100
AcDbEntity
  8
Layer_1
 62
7
100
AcDbSpline
 70
8
 71
3
 72
8
 73
4
 74
0
 40
0
 40
0
 40
0
 40
0
 40
1
 40
1
 40
1
 40
1
 10
6.001023
 20
4.964965
 30
0.0
 10
6.486944
 20
5.184635
 30
0.0
 10
6.904485
 20
5.384306
 30
0.0
 10
6.928885
 20
5.408696
 30
0.0
  0
SPLINE
  5
1dd
100
AcDbEntity
  8
Layer_1
 62
7
100
AcDbSpline
 70
8
 71
3
 72
8
 73
4
 74
0
 40
0
 40
0
 40
0
 40
0
 40
1
 40
1
 40
1
 40
1
 10
6.928885
 20
5.408696
 30
0.0
 10
6.956985
 20
5.436596
 30
0.0
 10
6.955685
 20
5.470596
 30
0.0
 10
6.925885
 20
5.500796
 30
0.0
  0
SPLINE
  5
1de
100
AcDbEntity
  8
Layer_1
 62
7
100
AcDbSpline
 70
8
 71
3
 72
8
 73
4
 74
0
 40
0
 40
0
 40
0
 40
0
 40
1
 40
1
 40
1
 40
1
 10
6.925885
 20
5.500796
 30
0.0
 10
6.893185
 20
5.533296
 30
0.0
 10
6.730714
 20
5.480296
 30
0.0
 10
6.414444
 20
5.333705
 30
0.0
  0
SPLINE
  5
1df
100
AcDbEntity
  8
Layer_1
 62
7
100
AcDbSpline
 70
8
 71
3
 72
8
 73
4
 74
0
 40
0
 40
0
 40
0
 40
0
 40
1
 40
1
 40
1
 40
1
 10
6.414444
 20
5.333705
 30
0.0
 10
6.159443
 20
5.215485
 30
0.0
 10
5.877273
 20
5.085375
 30
0.0
 10
5.787342
 20
5.044505
 30
0.0
  0
SPLINE
  5
1e0
100
AcDbEntity
  8
Layer_1
 62
7
100
AcDbSpline
 70
8
 71
3
 72
8
 73
4
 74
0
 40
0
 40
0
 40
0
 40
0
 40
1
 40
1
 40
1
 40
1
 10
5.787342
 20
5.044505
 30
0.0
 10
5.697442
 20
5.003605
 30
0.0
 10
5.602862
 20
4.959105
 30
0.0
 10
5.577152
 20
4.945805
 30
0.0
  0
SPLINE
  5
1e1
100
AcDbEntity
  8
Layer_1
 62
7
100
AcDbSpline
 70
8
 71
3
 72
8
 73
4
 74
0
 40
0
 40
0
 40
0
 40
0
 40
1
 40
1
 40
1
 40
1
 10
5.577152
 20
4.945805
 30
0.0
 10
5.550752
 20
4.932105
 30
0.0
 10
5.552452
 20
4.949805
 30
0.0
 10
5.581152
 20
4.988605
 30
0.0
  0
SPLINE
  5
1e2
100
AcDbEntity
  8
Layer_1
 62
7
100
AcDbSpline
 70
8
 71
3
 72
8
 73
4
 74
0
 40
0
 40
0
 40
0
 40
0
 40
1
 40
1
 40
1
 40
1
 10
5.581152
 20
4.988605
 30
0.0
 10
6.624064
 20
6.371668
 30
0.0
 10
6.863625
 20
6.760749
 30
0.0
 10
6.672184
 20
6.760749
 30
0.0
  0
SPLINE
  5
1e3
100
AcDbEntity
  8
Layer_1
 62
7
100
AcDbSpline
 70
8
 71
3
 72
8
 73
4
 74
0
 40
0
 40
0
 40
0
 40
0
 40
1
 40
1
 40
1
 40
1
 10
6.672184
 20
6.760749
 30
0.0
 10
6.648184
 20
6.760749
 30
0.0
 10
6.515474
 20
6.585518
 30
0.0
 10
6.377284
 20
6.371308
 30
0.0
  0
SPLINE
  5
1e4
100
AcDbEntity
  8
Layer_1
 62
7
100
AcDbSpline
 70
8
 71
3
 72
8
 73
4
 74
0
 40
0
 40
0
 40
0
 40
0
 40
1
 40
1
 40
1
 40
1
 10
6.377284
 20
6.371308
 30
0.0
 10
6.101513
 20
5.943847
 30
0.0
 10
5.717772
 20
5.413396
 30
0.0
 10
5.334591
 20
4.930015
 30
0.0
  0
SPLINE
  5
1e5
100
AcDbEntity
  8
Layer_1
 62
7
100
AcDbSpline
 70
8
 71
3
 72
8
 73
4
 74
0
 40
0
 40
0
 40
0
 40
0
 40
1
 40
1
 40
1
 40
1
 10
5.334591
 20
4.930015
 30
0.0
 10
5.108611
 20
4.644964
 30
0.0
 10
5.058001
 20
4.565544
 30
0.0
 10
5.102251
 20
4.565544
 30
0.0
  0
SPLINE
  5
1e6
100
AcDbEntity
  8
Layer_1
 62
7
100
AcDbSpline
 70
8
 71
3
 72
8
 73
4
 74
0
 40
0
 40
0
 40
0
 40
0
 40
1
 40
1
 40
1
 40
1
 10
5.102251
 20
4.565544
 30
0.0
 10
5.110251
 20
4.565544
 30
0.0
 10
5.515442
 20
4.745264
 30
0.0
 10
6.001373
 20
4.964915
 30
0.0
  0
LWPOLYLINE
  5
1e7
100
AcDbEntity
  8
Layer_1
 62
7
100
AcDbPolyline
 90
1
 70
1
 10
9.519441
 20
3.264611
 30
0.0
  0
SPLINE
  5
1e8
100
AcDbEntity
  8
Layer_1
 62
7
100
AcDbSpline
 70
8
 71
3
 72
8
 73
4
 74
0
 40
0
 40
0
 40
0
 40
0
 40
1
 40
1
 40
1
 40
1
 10
14.138580
 20
6.282058
 30
0.0
 10
14.124380
 20
6.355358
 30
0.0
 10
14.032710
 20
6.366258
 30
0.0
 10
13.236039
 20
6.387098
 30
0.0
  0
LWPOLYLINE
  5
1e9
100
AcDbEntity
  8
Layer_1
 62
7
100
AcDbPolyline
 90
2
 70
0
 10
6.001373
 20
4.964915
 30
0.0
 10
6.001023
 20
4.964965
 30
0.0
  0
SPLINE
  5
1ea
100
AcDbEntity
  8
Layer_1
 62
7
100
AcDbSpline
 70
8
 71
3
 72
8
 73
4
 74
0
 40
0
 40
0
 40
0
 40
0
 40
1
 40
1
 40
1
 40
1
 10
12.654357
 20
6.582388
 30
0.0
 10
13.028058
 20
6.792759
 30
0.0
 10
13.761130
 20
7.151449
 30
0.0
 10
13.956680
 20
7.219610
 30
0.0
  0
SPLINE
  5
1eb
100
AcDbEntity
  8
Layer_1
 62
7
100
AcDbSpline
 70
8
 71
3
 72
8
 73
4
 74
0
 40
0
 40
0
 40
0
 40
0
 40
1
 40
1
 40
1
 40
1
 10
13.956680
 20
7.219610
 30
0.0
 10
14.101670
 20
7.270110
 30
0.0
 10
14.140250
 20
7.338100
 30
0.0
 10
14.054180
 20
7.391310
 30
0.0
  0
SPLINE
  5
1ec
100
AcDbEntity
  8
Layer_1
 62
7
100
AcDbSpline
 70
8
 71
3
 72
8
 73
4
 74
0
 40
0
 40
0
 40
0
 40
0
 40
1
 40
1
 40
1
 40
1
 10
14.054180
 20
7.391310
 30
0.0
 10
13.954880
 20
7.452710
 30
0.0
 10
12.637027
 20
6.828059
 30
0.0
 10
12.045596
 20
6.439318
 30
0.0
  0
LWPOLYLINE
  5
1ed
100
AcDbEntity
  8
Layer_1
 62
7
100
AcDbPolyline
 90
3
 70
0
 10
13.236039
 20
6.387098
 30
0.0
 10
12.349187
 20
6.410598
 30
0.0
 10
12.654357
 20
6.582388
 30
0.0
  0
SPLINE
  5
1ee
100
AcDbEntity
  8
Layer_1
 62
7
100
AcDbSpline
 70
8
 71
3
 72
8
 73
4
 74
0
 40
0
 40
0
 40
0
 40
0
 40
1
 40
1
 40
1
 40
1
 10
12.045596
 20
6.243177
 30
0.0
 10
12.186886
 20
6.228177
 30
0.0
 10
12.719137
 20
6.212277
 30
0.0
 10
13.228368
 20
6.208177
 30
0.0
  0
SPLINE
  5
1ef
100
AcDbEntity
  8
Layer_1
 62
7
100
AcDbSpline
 70
8
 71
3
 72
8
 73
4
 74
0
 40
0
 40
0
 40
0
 40
0
 40
1
 40
1
 40
1
 40
1
 10
13.228368
 20
6.208177
 30
0.0
 10
14.087320
 20
6.201177
 30
0.0
 10
14.153110
 20
6.207177
 30
0.0
 10
14.138570
 20
6.282378
 30
0.0
  0
LWPOLYLINE
  5
1f0
100
AcDbEntity
  8
Layer_1
 62
7
100
AcDbPolyline
 90
3
 70
0
 10
12.045596
 20
6.439318
 30
0.0
 10
11.788715
 20
6.270478
 30
0.0
 10
12.045596
 20
6.243177
 30
0.0
  0
SPLINE
  5
1f1
100
AcDbEntity
  8
Layer_1
 62
7
100
AcDbSpline
 70
8
 71
3
 72
8
 73
4
 74
0
 40
0
 40
0
 40
0
 40
0
 40
1
 40
1
 40
1
 40
1
 10
4.712660
 20
6.310858
 30
0.0
 10
4.712660
 20
6.393658
 30
0.0
 10
4.470590
 20
6.432518
 30
0.0
 10
3.949779
 20
6.433208
 30
0.0
  0
SPLINE
  5
1f2
100
AcDbEntity
  8
Layer_1
 62
7
100
AcDbSpline
 70
8
 71
3
 72
8
 73
4
 74
0
 40
0
 40
0
 40
0
 40
0
 40
1
 40
1
 40
1
 40
1
 10
3.949779
 20
6.433208
 30
0.0
 10
3.722878
 20
6.433478
 30
0.0
 10
3.544208
 20
6.452708
 30
0.0
 10
3.552788
 20
6.476008
 30
0.0
  0
SPLINE
  5
1f3
100
AcDbEntity
  8
Layer_1
 62
7
100
AcDbSpline
 70
8
 71
3
 72
8
 73
4
 74
0
 40
0
 40
0
 40
0
 40
0
 40
1
 40
1
 40
1
 40
1
 10
3.552788
 20
6.476008
 30
0.0
 10
3.570588
 20
6.524508
 30
0.0
 10
4.399369
 20
7.210820
 30
0.0
 10
4.706300
 20
7.431440
 30
0.0
  0
LWPOLYLINE
  5
1f4
100
AcDbEntity
  8
Layer_1
 62
7
100
AcDbPolyline
 90
2
 70
0
 10
14.138570
 20
6.282378
 30
0.0
 10
14.138580
 20
6.282058
 30
0.0
  0
SPLINE
  5
1f5
100
AcDbEntity
  8
Layer_1
 62
7
100
AcDbSpline
 70
8
 71
3
 72
8
 73
4
 74
0
 40
0
 40
0
 40
0
 40
0
 40
1
 40
1
 40
1
 40
1
 10
4.776400
 20
7.681611
 30
0.0
 10
4.702800
 20
7.738611
 30
0.0
 10
4.446610
 20
7.934921
 30
0.0
 10
4.207039
 20
8.117851
 30
0.0
  0
SPLINE
  5
1f6
100
AcDbEntity
  8
Layer_1
 62
7
100
AcDbSpline
 70
8
 71
3
 72
8
 73
4
 74
0
 40
0
 40
0
 40
0
 40
0
 40
1
 40
1
 40
1
 40
1
 10
4.207039
 20
8.117851
 30
0.0
 10
3.967449
 20
8.300822
 30
0.0
 10
3.780328
 20
8.459382
 30
0.0
 10
3.791188
 20
8.470242
 30
0.0
  0
SPLINE
  5
1f7
100
AcDbEntity
  8
Layer_1
 62
7
100
AcDbSpline
 70
8
 71
3
 72
8
 73
4
 74
0
 40
0
 40
0
 40
0
 40
0
 40
1
 40
1
 40
1
 40
1
 10
3.791188
 20
8.470242
 30
0.0
 10
3.814888
 20
8.493942
 30
0.0
 10
4.820900
 20
8.367812
 30
0.0
 10
5.173071
 20
8.296902
 30
0.0
  0
SPLINE
  5
1f8
100
AcDbEntity
  8
Layer_1
 62
7
100
AcDbSpline
 70
8
 71
3
 72
8
 73
4
 74
0
 40
0
 40
0
 40
0
 40
0
 40
1
 40
1
 40
1
 40
1
 10
5.173071
 20
8.296902
 30
0.0
 10
5.353402
 20
8.260502
 30
0.0
 10
5.437522
 20
8.260802
 30
0.0
 10
5.474322
 20
8.297452
 30
0.0
  0
SPLINE
  5
1f9
100
AcDbEntity
  8
Layer_1
 62
7
100
AcDbSpline
 70
8
 71
3
 72
8
 73
4
 74
0
 40
0
 40
0
 40
0
 40
0
 40
1
 40
1
 40
1
 40
1
 10
5.474322
 20
8.297452
 30
0.0
 10
5.562322
 20
8.385452
 30
0.0
 10
5.456422
 20
8.427212
 30
0.0
 10
4.946211
 20
8.505542
 30
0.0
  0
SPLINE
  5
1fa
100
AcDbEntity
  8
Layer_1
 62
7
100
AcDbSpline
 70
8
 71
3
 72
8
 73
4
 74
0
 40
0
 40
0
 40
0
 40
0
 40
1
 40
1
 40
1
 40
1
 10
4.946211
 20
8.505542
 30
0.0
 10
4.243049
 20
8.613473
 30
0.0
 10
3.301527
 20
8.727783
 30
0.0
 10
3.281327
 20
8.707583
 30
0.0
  0
SPLINE
  5
1fb
100
AcDbEntity
  8
Layer_1
 62
7
100
AcDbSpline
 70
8
 71
3
 72
8
 73
4
 74
0
 40
0
 40
0
 40
0
 40
0
 40
1
 40
1
 40
1
 40
1
 10
3.281327
 20
8.707583
 30
0.0
 10
3.245627
 20
8.671783
 30
0.0
 10
3.816878
 20
8.168442
 30
0.0
 10
4.186609
 20
7.909951
 30
0.0
  0
SPLINE
  5
1fc
100
AcDbEntity
  8
Layer_1
 62
7
100
AcDbSpline
 70
8
 71
3
 72
8
 73
4
 74
0
 40
0
 40
0
 40
0
 40
0
 40
1
 40
1
 40
1
 40
1
 10
4.186609
 20
7.909951
 30
0.0
 10
4.398199
 20
7.762031
 30
0.0
 10
4.581900
 20
7.623870
 30
0.0
 10
4.594820
 20
7.602950
 30
0.0
  0
SPLINE
  5
1fd
100
AcDbEntity
  8
Layer_1
 62
7
100
AcDbSpline
 70
8
 71
3
 72
8
 73
4
 74
0
 40
0
 40
0
 40
0
 40
0
 40
1
 40
1
 40
1
 40
1
 10
4.594820
 20
7.602950
 30
0.0
 10
4.607220
 20
7.582050
 30
0.0
 10
4.539720
 20
7.505850
 30
0.0
 10
4.443660
 20
7.433920
 30
0.0
  0
SPLINE
  5
1fe
100
AcDbEntity
  8
Layer_1
 62
7
100
AcDbSpline
 70
8
 71
3
 72
8
 73
4
 74
0
 40
0
 40
0
 40
0
 40
0
 40
1
 40
1
 40
1
 40
1
 10
4.443660
 20
7.433920
 30
0.0
 10
4.347659
 20
7.361820
 30
0.0
 10
3.996049
 20
7.081049
 30
0.0
 10
3.662498
 20
6.809859
 30
0.0
  0
LWPOLYLINE
  5
1ff
100
AcDbEntity
  8
Layer_1
 62
7
100
AcDbPolyline
 90
3
 70
0
 10
4.706300
 20
7.431440
 30
0.0
 10
4.910141
 20
7.577940
 30
0.0
 10
4.776400
 20
7.681611
 30
0.0
  0
SPLINE
  5
200
100
AcDbEntity
  8
Layer_1
 62
7
100
AcDbSpline
 70
8
 71
3
 72
8
 73
4
 74
0
 40
0
 40
0
 40
0
 40
0
 40
1
 40
1
 40
1
 40
1
 10
3.615788
 20
6.291068
 30
0.0
 10
4.693330
 20
6.241767
 30
0.0
 10
4.712690
 20
6.242167
 30
0.0
 10
4.712690
 20
6.310568
 30
0.0
  0
LWPOLYLINE
  5
201
100
AcDbEntity
  8
Layer_1
 62
7
100
AcDbPolyline
 90
3
 70
0
 10
3.662498
 20
6.809859
 30
0.0
 10
3.056027
 20
6.316768
 30
0.0
 10
3.615788
 20
6.291068
 30
0.0
  0
SPLINE
  5
202
100
AcDbEntity
  8
Layer_1
 62
7
100
AcDbSpline
 70
8
 71
3
 72
8
 73
4
 74
0
 40
0
 40
0
 40
0
 40
0
 40
1
 40
1
 40
1
 40
1
 10
11.111014
 20
7.916681
 30
0.0
 10
11.110474
 20
8.036141
 30
0.0
 10
10.706263
 20
8.554742
 30
0.0
 10
10.194062
 20
9.093414
 30
0.0
  0
SPLINE
  5
203
100
AcDbEntity
  8
Layer_1
 62
7
100
AcDbSpline
 70
8
 71
3
 72
8
 73
4
 74
0
 40
0
 40
0
 40
0
 40
0
 40
1
 40
1
 40
1
 40
1
 10
10.194062
 20
9.093414
 30
0.0
 10
9.947841
 20
9.352354
 30
0.0
 10
9.775051
 20
9.554625
 30
0.0
 10
9.810071
 20
9.542895
 30
0.0
  0
SPLINE
  5
204
100
AcDbEntity
  8
Layer_1
 62
7
100
AcDbSpline
 70
8
 71
3
 72
8
 73
4
 74
0
 40
0
 40
0
 40
0
 40
0
 40
1
 40
1
 40
1
 40
1
 10
9.810071
 20
9.542895
 30
0.0
 10
10.401212
 20
9.344854
 30
0.0
 10
11.235424
 20
9.096024
 30
0.0
 10
11.308194
 20
9.096024
 30
0.0
  0
SPLINE
  5
205
100
AcDbEntity
  8
Layer_1
 62
7
100
AcDbSpline
 70
8
 71
3
 72
8
 73
4
 74
0
 40
0
 40
0
 40
0
 40
0
 40
1
 40
1
 40
1
 40
1
 10
11.308194
 20
9.096024
 30
0.0
 10
11.382795
 20
9.096024
 30
0.0
 10
11.396995
 20
9.118124
 30
0.0
 10
11.376294
 20
9.201064
 30
0.0
  0
SPLINE
  5
206
100
AcDbEntity
  8
Layer_1
 62
7
100
AcDbSpline
 70
8
 71
3
 72
8
 73
4
 74
0
 40
0
 40
0
 40
0
 40
0
 40
1
 40
1
 40
1
 40
1
 10
11.376294
 20
9.201064
 30
0.0
 10
11.361694
 20
9.258864
 30
0.0
 10
11.296894
 20
9.537345
 30
0.0
 10
11.231854
 20
9.819915
 30
0.0
  0
SPLINE
  5
207
100
AcDbEntity
  8
Layer_1
 62
7
100
AcDbSpline
 70
8
 71
3
 72
8
 73
4
 74
0
 40
0
 40
0
 40
0
 40
0
 40
1
 40
1
 40
1
 40
1
 10
11.231854
 20
9.819915
 30
0.0
 10
11.166754
 20
10.102496
 30
0.0
 10
11.093314
 20
10.417176
 30
0.0
 10
11.068424
 20
10.519207
 30
0.0
  0
SPLINE
  5
208
100
AcDbEntity
  8
Layer_1
 62
7
100
AcDbSpline
 70
8
 71
3
 72
8
 73
4
 74
0
 40
0
 40
0
 40
0
 40
0
 40
1
 40
1
 40
1
 40
1
 10
11.068424
 20
10.519207
 30
0.0
 10
11.043524
 20
10.621227
 30
0.0
 10
11.030924
 20
10.712487
 30
0.0
 10
11.040324
 20
10.721957
 30
0.0
  0
SPLINE
  5
209
100
AcDbEntity
  8
Layer_1
 62
7
100
AcDbSpline
 70
8
 71
3
 72
8
 73
4
 74
0
 40
0
 40
0
 40
0
 40
0
 40
1
 40
1
 40
1
 40
1
 10
11.040324
 20
10.721957
 30
0.0
 10
11.050324
 20
10.731957
 30
0.0
 10
11.222034
 20
10.604287
 30
0.0
 10
11.423055
 20
10.439296
 30
0.0
  0
SPLINE
  5
20a
100
AcDbEntity
  8
Layer_1
 62
7
100
AcDbSpline
 70
8
 71
3
 72
8
 73
4
 74
0
 40
0
 40
0
 40
0
 40
0
 40
1
 40
1
 40
1
 40
1
 10
11.423055
 20
10.439296
 30
0.0
 10
11.951256
 20
10.005866
 30
0.0
 10
12.417927
 20
9.656445
 30
0.0
 10
12.468607
 20
9.656445
 30
0.0
  0
SPLINE
  5
20b
100
AcDbEntity
  8
Layer_1
 62
7
100
AcDbSpline
 70
8
 71
3
 72
8
 73
4
 74
0
 40
0
 40
0
 40
0
 40
0
 40
1
 40
1
 40
1
 40
1
 10
12.468607
 20
9.656445
 30
0.0
 10
12.492807
 20
9.656445
 30
0.0
 10
12.511707
 20
9.693245
 30
0.0
 10
12.510607
 20
9.738145
 30
0.0
  0
SPLINE
  5
20c
100
AcDbEntity
  8
Layer_1
 62
7
100
AcDbSpline
 70
8
 71
3
 72
8
 73
4
 74
0
 40
0
 40
0
 40
0
 40
0
 40
1
 40
1
 40
1
 40
1
 10
12.510607
 20
9.738145
 30
0.0
 10
12.509857
 20
9.787345
 30
0.0
 10
12.293316
 20
9.978025
 30
0.0
 10
11.967896
 20
10.216896
 30
0.0
  0
SPLINE
  5
20d
100
AcDbEntity
  8
Layer_1
 62
7
100
AcDbSpline
 70
8
 71
3
 72
8
 73
4
 74
0
 40
0
 40
0
 40
0
 40
0
 40
1
 40
1
 40
1
 40
1
 10
11.967896
 20
10.216896
 30
0.0
 10
11.670425
 20
10.435246
 30
0.0
 10
11.281614
 20
10.747957
 30
0.0
 10
11.103904
 20
10.911817
 30
0.0
  0
SPLINE
  5
20e
100
AcDbEntity
  8
Layer_1
 62
7
100
AcDbSpline
 70
8
 71
3
 72
8
 73
4
 74
0
 40
0
 40
0
 40
0
 40
0
 40
1
 40
1
 40
1
 40
1
 10
11.103904
 20
10.911817
 30
0.0
 10
10.926194
 20
11.075698
 30
0.0
 10
10.772383
 20
11.201348
 30
0.0
 10
10.762083
 20
11.191058
 30
0.0
  0
SPLINE
  5
20f
100
AcDbEntity
  8
Layer_1
 62
7
100
AcDbSpline
 70
8
 71
3
 72
8
 73
4
 74
0
 40
0
 40
0
 40
0
 40
0
 40
1
 40
1
 40
1
 40
1
 10
10.762083
 20
11.191058
 30
0.0
 10
10.752083
 20
11.181058
 30
0.0
 10
10.838383
 20
10.766487
 30
0.0
 10
10.954604
 20
10.270396
 30
0.0
  0
SPLINE
  5
210
100
AcDbEntity
  8
Layer_1
 62
7
100
AcDbSpline
 70
8
 71
3
 72
8
 73
4
 74
0
 40
0
 40
0
 40
0
 40
0
 40
1
 40
1
 40
1
 40
1
 10
10.954604
 20
10.270396
 30
0.0
 10
11.070764
 20
9.774345
 30
0.0
 10
11.153974
 20
9.356584
 30
0.0
 10
11.139464
 20
9.342084
 30
0.0
  0
SPLINE
  5
211
100
AcDbEntity
  8
Layer_1
 62
7
100
AcDbSpline
 70
8
 71
3
 72
8
 73
4
 74
0
 40
0
 40
0
 40
0
 40
0
 40
1
 40
1
 40
1
 40
1
 10
11.139464
 20
9.342084
 30
0.0
 10
11.107164
 20
9.309784
 30
0.0
 10
10.477263
 20
9.492804
 30
0.0
 10
9.768451
 20
9.740085
 30
0.0
  0
SPLINE
  5
212
100
AcDbEntity
  8
Layer_1
 62
7
100
AcDbSpline
 70
8
 71
3
 72
8
 73
4
 74
0
 40
0
 40
0
 40
0
 40
0
 40
1
 40
1
 40
1
 40
1
 10
9.768451
 20
9.740085
 30
0.0
 10
9.479460
 20
9.840865
 30
0.0
 10
9.243000
 20
9.913665
 30
0.0
 10
9.243000
 20
9.901735
 30
0.0
  0
SPLINE
  5
213
100
AcDbEntity
  8
Layer_1
 62
7
100
AcDbSpline
 70
8
 71
3
 72
8
 73
4
 74
0
 40
0
 40
0
 40
0
 40
0
 40
1
 40
1
 40
1
 40
1
 10
9.243000
 20
9.901735
 30
0.0
 10
9.243000
 20
9.861235
 30
0.0
 10
9.488180
 20
9.586925
 30
0.0
 10
10.042412
 20
9.007723
 30
0.0
  0
SPLINE
  5
214
100
AcDbEntity
  8
Layer_1
 62
7
100
AcDbSpline
 70
8
 71
3
 72
8
 73
4
 74
0
 40
0
 40
0
 40
0
 40
0
 40
1
 40
1
 40
1
 40
1
 10
10.042412
 20
9.007723
 30
0.0
 10
10.346942
 20
8.689473
 30
0.0
 10
10.685743
 20
8.296052
 30
0.0
 10
10.795303
 20
8.133442
 30
0.0
  0
SPLINE
  5
215
100
AcDbEntity
  8
Layer_1
 62
7
100
AcDbSpline
 70
8
 71
3
 72
8
 73
4
 74
0
 40
0
 40
0
 40
0
 40
0
 40
1
 40
1
 40
1
 40
1
 10
10.795303
 20
8.133442
 30
0.0
 10
10.992614
 20
7.840631
 30
0.0
 10
11.111684
 20
7.758781
 30
0.0
 10
11.110834
 20
7.916591
 30
0.0
  0
LWPOLYLINE
  5
216
100
AcDbEntity
  8
Layer_1
 62
7
100
AcDbPolyline
 90
2
 70
0
 10
4.712690
 20
6.310568
 30
0.0
 10
4.712660
 20
6.310858
 30
0.0
  0
SPLINE
  5
217
100
AcDbEntity
  8
Layer_1
 62
7
100
AcDbSpline
 70
8
 71
3
 72
8
 73
4
 74
0
 40
0
 40
0
 40
0
 40
0
 40
1
 40
1
 40
1
 40
1
 10
16.903086
 20
9.698755
 30
0.0
 10
16.903086
 20
9.721955
 30
0.0
 10
16.645826
 20
9.993696
 30
0.0
 10
16.331405
 20
10.302516
 30
0.0
  0
SPLINE
  5
218
100
AcDbEntity
  8
Layer_1
 62
7
100
AcDbSpline
 70
8
 71
3
 72
8
 73
4
 74
0
 40
0
 40
0
 40
0
 40
0
 40
1
 40
1
 40
1
 40
1
 10
16.331405
 20
10.302516
 30
0.0
 10
16.016964
 20
10.611347
 30
0.0
 10
15.772784
 20
10.877107
 30
0.0
 10
15.788774
 20
10.893087
 30
0.0
  0
SPLINE
  5
219
100
AcDbEntity
  8
Layer_1
 62
7
100
AcDbSpline
 70
8
 71
3
 72
8
 73
4
 74
0
 40
0
 40
0
 40
0
 40
0
 40
1
 40
1
 40
1
 40
1
 10
15.788774
 20
10.893087
 30
0.0
 10
15.804874
 20
10.908987
 30
0.0
 10
15.962164
 20
10.858887
 30
0.0
 10
16.138595
 20
10.781727
 30
0.0
  0
SPLINE
  5
21a
100
AcDbEntity
  8
Layer_1
 62
7
100
AcDbSpline
 70
8
 71
3
 72
8
 73
4
 74
0
 40
0
 40
0
 40
0
 40
0
 40
1
 40
1
 40
1
 40
1
 10
16.138595
 20
10.781727
 30
0.0
 10
16.840846
 20
10.474507
 30
0.0
 10
17.440998
 20
10.228066
 30
0.0
 10
17.455248
 20
10.241066
 30
0.0
  0
SPLINE
  5
21b
100
AcDbEntity
  8
Layer_1
 62
7
100
AcDbSpline
 70
8
 71
3
 72
8
 73
4
 74
0
 40
0
 40
0
 40
0
 40
0
 40
1
 40
1
 40
1
 40
1
 10
17.455248
 20
10.241066
 30
0.0
 10
17.463248
 20
10.248066
 30
0.0
 10
17.406747
 20
10.461697
 30
0.0
 10
17.329467
 20
10.714597
 30
0.0
  0
SPLINE
  5
21c
100
AcDbEntity
  8
Layer_1
 62
7
100
AcDbSpline
 70
8
 71
3
 72
8
 73
4
 74
0
 40
0
 40
0
 40
0
 40
0
 40
1
 40
1
 40
1
 40
1
 10
17.329467
 20
10.714597
 30
0.0
 10
17.204937
 20
11.121448
 30
0.0
 10
17.043187
 20
11.757609
 30
0.0
 10
17.043187
 20
11.840890
 30
0.0
  0
SPLINE
  5
21d
100
AcDbEntity
  8
Layer_1
 62
7
100
AcDbSpline
 70
8
 71
3
 72
8
 73
4
 74
0
 40
0
 40
0
 40
0
 40
0
 40
1
 40
1
 40
1
 40
1
 10
17.043187
 20
11.840890
 30
0.0
 10
17.043187
 20
11.857490
 30
0.0
 10
17.167857
 20
11.672269
 30
0.0
 10
17.320377
 20
11.429319
 30
0.0
  0
SPLINE
  5
21e
100
AcDbEntity
  8
Layer_1
 62
7
100
AcDbSpline
 70
8
 71
3
 72
8
 73
4
 74
0
 40
0
 40
0
 40
0
 40
0
 40
1
 40
1
 40
1
 40
1
 10
17.320377
 20
11.429319
 30
0.0
 10
17.597238
 20
10.988078
 30
0.0
 10
17.927699
 20
10.590567
 30
0.0
 10
18.017609
 20
10.590567
 30
0.0
  0
SPLINE
  5
21f
100
AcDbEntity
  8
Layer_1
 62
7
100
AcDbSpline
 70
8
 71
3
 72
8
 73
4
 74
0
 40
0
 40
0
 40
0
 40
0
 40
1
 40
1
 40
1
 40
1
 10
18.017609
 20
10.590567
 30
0.0
 10
18.150659
 20
10.590567
 30
0.0
 10
18.101409
 20
10.715797
 30
0.0
 10
17.874048
 20
10.955318
 30
0.0
  0
SPLINE
  5
220
100
AcDbEntity
  8
Layer_1
 62
7
100
AcDbSpline
 70
8
 71
3
 72
8
 73
4
 74
0
 40
0
 40
0
 40
0
 40
0
 40
1
 40
1
 40
1
 40
1
 10
17.874048
 20
10.955318
 30
0.0
 10
17.735268
 20
11.101508
 30
0.0
 10
17.438258
 20
11.518669
 30
0.0
 10
17.214047
 20
11.882330
 30
0.0
  0
SPLINE
  5
221
100
AcDbEntity
  8
Layer_1
 62
7
100
AcDbSpline
 70
8
 71
3
 72
8
 73
4
 74
0
 40
0
 40
0
 40
0
 40
0
 40
1
 40
1
 40
1
 40
1
 10
17.214047
 20
11.882330
 30
0.0
 10
16.817816
 20
12.524931
 30
0.0
 10
16.619216
 20
12.785212
 30
0.0
 10
16.685356
 20
12.575241
 30
0.0
  0
SPLINE
  5
222
100
AcDbEntity
  8
Layer_1
 62
7
100
AcDbSpline
 70
8
 71
3
 72
8
 73
4
 74
0
 40
0
 40
0
 40
0
 40
0
 40
1
 40
1
 40
1
 40
1
 10
16.685356
 20
12.575241
 30
0.0
 10
16.701456
 20
12.524141
 30
0.0
 10
16.736156
 20
12.366581
 30
0.0
 10
16.762556
 20
12.225290
 30
0.0
  0
SPLINE
  5
223
100
AcDbEntity
  8
Layer_1
 62
7
100
AcDbSpline
 70
8
 71
3
 72
8
 73
4
 74
0
 40
0
 40
0
 40
0
 40
0
 40
1
 40
1
 40
1
 40
1
 10
16.762556
 20
12.225290
 30
0.0
 10
16.823656
 20
11.897840
 30
0.0
 10
17.135567
 20
10.733397
 30
0.0
 10
17.191177
 20
10.625597
 30
0.0
  0
SPLINE
  5
224
100
AcDbEntity
  8
Layer_1
 62
7
100
AcDbSpline
 70
8
 71
3
 72
8
 73
4
 74
0
 40
0
 40
0
 40
0
 40
0
 40
1
 40
1
 40
1
 40
1
 10
17.191177
 20
10.625597
 30
0.0
 10
17.218677
 20
10.572197
 30
0.0
 10
17.215877
 20
10.543897
 30
0.0
 10
17.183177
 20
10.543897
 30
0.0
  0
SPLINE
  5
225
100
AcDbEntity
  8
Layer_1
 62
7
100
AcDbSpline
 70
8
 71
3
 72
8
 73
4
 74
0
 40
0
 40
0
 40
0
 40
0
 40
1
 40
1
 40
1
 40
1
 10
17.183177
 20
10.543897
 30
0.0
 10
17.133177
 20
10.543897
 30
0.0
 10
16.481405
 20
10.806017
 30
0.0
 10
15.650144
 20
11.160418
 30
0.0
  0
SPLINE
  5
226
100
AcDbEntity
  8
Layer_1
 62
7
100
AcDbSpline
 70
8
 71
3
 72
8
 73
4
 74
0
 40
0
 40
0
 40
0
 40
0
 40
1
 40
1
 40
1
 40
1
 10
15.650144
 20
11.160418
 30
0.0
 10
15.410513
 20
11.262568
 30
0.0
 10
15.202913
 20
11.334648
 30
0.0
 10
15.188833
 20
11.320558
 30
0.0
  0
SPLINE
  5
227
100
AcDbEntity
  8
Layer_1
 62
7
100
AcDbSpline
 70
8
 71
3
 72
8
 73
4
 74
0
 40
0
 40
0
 40
0
 40
0
 40
1
 40
1
 40
1
 40
1
 10
15.188833
 20
11.320558
 30
0.0
 10
15.130833
 20
11.262558
 30
0.0
 10
16.025365
 20
10.280326
 30
0.0
 10
16.496936
 20
9.884135
 30
0.0
  0
SPLINE
  5
228
100
AcDbEntity
  8
Layer_1
 62
7
100
AcDbSpline
 70
8
 71
3
 72
8
 73
4
 74
0
 40
0
 40
0
 40
0
 40
0
 40
1
 40
1
 40
1
 40
1
 10
16.496936
 20
9.884135
 30
0.0
 10
16.750996
 20
9.670705
 30
0.0
 10
16.903196
 20
9.601235
 30
0.0
 10
16.903196
 20
9.698725
 30
0.0
  0
LWPOLYLINE
  5
229
100
AcDbEntity
  8
Layer_1
 62
7
100
AcDbPolyline
 90
2
 70
0
 10
11.110834
 20
7.916591
 30
0.0
 10
11.111014
 20
7.916681
 30
0.0
  0
SPLINE
  5
22a
100
AcDbEntity
  8
Layer_1
 62
7
100
AcDbSpline
 70
8
 71
3
 72
8
 73
4
 74
0
 40
0
 40
0
 40
0
 40
0
 40
1
 40
1
 40
1
 40
1
 10
5.731942
 20
9.916195
 30
0.0
 10
5.721942
 20
9.959195
 30
0.0
 10
5.348112
 20
10.163436
 30
0.0
 10
4.819240
 20
10.413506
 30
0.0
  0
SPLINE
  5
22b
100
AcDbEntity
  8
Layer_1
 62
7
100
AcDbSpline
 70
8
 71
3
 72
8
 73
4
 74
0
 40
0
 40
0
 40
0
 40
0
 40
1
 40
1
 40
1
 40
1
 10
4.819240
 20
10.413506
 30
0.0
 10
4.325559
 20
10.646937
 30
0.0
 10
3.931118
 20
10.853297
 30
0.0
 10
3.942718
 20
10.872057
 30
0.0
  0
SPLINE
  5
22c
100
AcDbEntity
  8
Layer_1
 62
7
100
AcDbSpline
 70
8
 71
3
 72
8
 73
4
 74
0
 40
0
 40
0
 40
0
 40
0
 40
1
 40
1
 40
1
 40
1
 10
3.942718
 20
10.872057
 30
0.0
 10
3.953719
 20
10.890857
 30
0.0
 10
4.358229
 20
10.919958
 30
0.0
 10
4.840320
 20
10.936558
 30
0.0
  0
SPLINE
  5
22d
100
AcDbEntity
  8
Layer_1
 62
7
100
AcDbSpline
 70
8
 71
3
 72
8
 73
4
 74
0
 40
0
 40
0
 40
0
 40
0
 40
1
 40
1
 40
1
 40
1
 10
4.840320
 20
10.936558
 30
0.0
 10
5.966463
 20
10.975658
 30
0.0
 10
6.160563
 20
10.998658
 30
0.0
 10
6.160563
 20
11.092648
 30
0.0
  0
SPLINE
  5
22e
100
AcDbEntity
  8
Layer_1
 62
7
100
AcDbSpline
 70
8
 71
3
 72
8
 73
4
 74
0
 40
0
 40
0
 40
0
 40
0
 40
1
 40
1
 40
1
 40
1
 10
6.160563
 20
11.092648
 30
0.0
 10
6.160563
 20
11.156748
 30
0.0
 10
6.080663
 20
11.161848
 30
0.0
 10
5.495002
 20
11.133948
 30
0.0
  0
SPLINE
  5
22f
100
AcDbEntity
  8
Layer_1
 62
7
100
AcDbSpline
 70
8
 71
3
 72
8
 73
4
 74
0
 40
0
 40
0
 40
0
 40
0
 40
1
 40
1
 40
1
 40
1
 10
5.495002
 20
11.133948
 30
0.0
 10
5.128921
 20
11.116548
 30
0.0
 10
4.514160
 20
11.090448
 30
0.0
 10
4.128829
 20
11.076148
 30
0.0
  0
SPLINE
  5
230
100
AcDbEntity
  8
Layer_1
 62
7
100
AcDbSpline
 70
8
 71
3
 72
8
 73
4
 74
0
 40
0
 40
0
 40
0
 40
0
 40
1
 40
1
 40
1
 40
1
 10
4.128829
 20
11.076148
 30
0.0
 10
3.743498
 20
11.061748
 30
0.0
 10
3.397877
 20
11.040148
 30
0.0
 10
3.360777
 20
11.028348
 30
0.0
  0
SPLINE
  5
231
100
AcDbEntity
  8
Layer_1
 62
7
100
AcDbSpline
 70
8
 71
3
 72
8
 73
4
 74
0
 40
0
 40
0
 40
0
 40
0
 40
1
 40
1
 40
1
 40
1
 10
3.360777
 20
11.028348
 30
0.0
 10
3.315177
 20
11.013948
 30
0.0
 10
3.345377
 20
10.974648
 30
0.0
 10
3.454177
 20
10.907377
 30
0.0
  0
SPLINE
  5
232
100
AcDbEntity
  8
Layer_1
 62
7
100
AcDbSpline
 70
8
 71
3
 72
8
 73
4
 74
0
 40
0
 40
0
 40
0
 40
0
 40
1
 40
1
 40
1
 40
1
 10
3.454177
 20
10.907377
 30
0.0
 10
3.691808
 20
10.760347
 30
0.0
 10
5.613172
 20
9.844365
 30
0.0
 10
5.685222
 20
9.843765
 30
0.0
  0
SPLINE
  5
233
100
AcDbEntity
  8
Layer_1
 62
7
100
AcDbSpline
 70
8
 71
3
 72
8
 73
4
 74
0
 40
0
 40
0
 40
0
 40
0
 40
1
 40
1
 40
1
 40
1
 10
5.685222
 20
9.843765
 30
0.0
 10
5.719122
 20
9.843505
 30
0.0
 10
5.740322
 20
9.876065
 30
0.0
 10
5.731922
 20
9.916165
 30
0.0
  0
LWPOLYLINE
  5
234
100
AcDbEntity
  8
Layer_1
 62
7
100
AcDbPolyline
 90
2
 70
0
 10
16.903196
 20
9.698725
 30
0.0
 10
16.903086
 20
9.698755
 30
0.0
  0
SPLINE
  5
235
100
AcDbEntity
  8
Layer_1
 62
7
100
AcDbSpline
 70
8
 71
3
 72
8
 73
4
 74
0
 40
0
 40
0
 40
0
 40
0
 40
1
 40
1
 40
1
 40
1
 10
19.864503
 20
11.704379
 30
0.0
 10
19.878203
 20
11.726079
 30
0.0
 10
19.859503
 20
12.140410
 30
0.0
 10
19.822603
 20
12.625071
 30
0.0
  0
SPLINE
  5
236
100
AcDbEntity
  8
Layer_1
 62
7
100
AcDbSpline
 70
8
 71
3
 72
8
 73
4
 74
0
 40
0
 40
0
 40
0
 40
0
 40
1
 40
1
 40
1
 40
1
 10
19.822603
 20
12.625071
 30
0.0
 10
19.786203
 20
13.109722
 30
0.0
 10
19.763403
 20
13.513233
 30
0.0
 10
19.771803
 20
13.521783
 30
0.0
  0
SPLINE
  5
237
100
AcDbEntity
  8
Layer_1
 62
7
100
AcDbSpline
 70
8
 71
3
 72
8
 73
4
 74
0
 40
0
 40
0
 40
0
 40
0
 40
1
 40
1
 40
1
 40
1
 10
19.771803
 20
13.521783
 30
0.0
 10
19.798803
 20
13.548983
 30
0.0
 10
20.399474
 20
12.870272
 30
0.0
 10
20.700025
 20
12.472561
 30
0.0
  0
SPLINE
  5
238
100
AcDbEntity
  8
Layer_1
 62
7
100
AcDbSpline
 70
8
 71
3
 72
8
 73
4
 74
0
 40
0
 40
0
 40
0
 40
0
 40
1
 40
1
 40
1
 40
1
 10
20.700025
 20
12.472561
 30
0.0
 10
20.864365
 20
12.255100
 30
0.0
 10
21.025115
 20
12.088340
 30
0.0
 10
21.071485
 20
12.087220
 30
0.0
  0
SPLINE
  5
239
100
AcDbEntity
  8
Layer_1
 62
7
100
AcDbSpline
 70
8
 71
3
 72
8
 73
4
 74
0
 40
0
 40
0
 40
0
 40
0
 40
1
 40
1
 40
1
 40
1
 10
21.071485
 20
12.087220
 30
0.0
 10
21.116485
 20
12.086480
 30
0.0
 10
21.153186
 20
12.103320
 30
0.0
 10
21.153186
 20
12.125020
 30
0.0
  0
SPLINE
  5
23a
100
AcDbEntity
  8
Layer_1
 62
7
100
AcDbSpline
 70
8
 71
3
 72
8
 73
4
 74
0
 40
0
 40
0
 40
0
 40
0
 40
1
 40
1
 40
1
 40
1
 10
21.153186
 20
12.125020
 30
0.0
 10
21.153186
 20
12.230060
 30
0.0
 10
20.136773
 20
13.470363
 30
0.0
 10
19.750383
 20
13.836774
 30
0.0
  0
LWPOLYLINE
  5
23b
100
AcDbEntity
  8
Layer_1
 62
7
100
AcDbPolyline
 90
1
 70
1
 10
5.731922
 20
9.916165
 30
0.0
  0
SPLINE
  5
23c
100
AcDbEntity
  8
Layer_1
 62
7
100
AcDbSpline
 70
8
 71
3
 72
8
 73
4
 74
0
 40
0
 40
0
 40
0
 40
0
 40
1
 40
1
 40
1
 40
1
 10
19.582672
 20
13.649953
 30
0.0
 10
19.598772
 20
13.444443
 30
0.0
 10
19.633472
 20
12.950512
 30
0.0
 10
19.659872
 20
12.552351
 30
0.0
  0
SPLINE
  5
23d
100
AcDbEntity
  8
Layer_1
 62
7
100
AcDbSpline
 70
8
 71
3
 72
8
 73
4
 74
0
 40
0
 40
0
 40
0
 40
0
 40
1
 40
1
 40
1
 40
1
 10
19.659872
 20
12.552351
 30
0.0
 10
19.686272
 20
12.154150
 30
0.0
 10
19.719072
 20
11.791619
 30
0.0
 10
19.733172
 20
11.746649
 30
0.0
  0
SPLINE
  5
23e
100
AcDbEntity
  8
Layer_1
 62
7
100
AcDbSpline
 70
8
 71
3
 72
8
 73
4
 74
0
 40
0
 40
0
 40
0
 40
0
 40
1
 40
1
 40
1
 40
1
 10
19.733172
 20
11.746649
 30
0.0
 10
19.760073
 20
11.659749
 30
0.0
 10
19.824173
 20
11.639139
 30
0.0
 10
19.864573
 20
11.704349
 30
0.0
  0
LWPOLYLINE
  5
23f
100
AcDbEntity
  8
Layer_1
 62
7
100
AcDbPolyline
 90
3
 70
0
 10
19.750383
 20
13.836774
 30
0.0
 10
19.553372
 20
14.023604
 30
0.0
 10
19.582672
 20
13.649953
 30
0.0
  0
SPLINE
  5
240
100
AcDbEntity
  8
Layer_1
 62
7
100
AcDbSpline
 70
8
 71
3
 72
8
 73
4
 74
0
 40
0
 40
0
 40
0
 40
0
 40
1
 40
1
 40
1
 40
1
 10
7.281526
 20
12.599011
 30
0.0
 10
7.281526
 20
12.631111
 30
0.0
 10
7.014405
 20
12.843542
 30
0.0
 10
6.145293
 20
13.502373
 30
0.0
  0
SPLINE
  5
241
100
AcDbEntity
  8
Layer_1
 62
7
100
AcDbSpline
 70
8
 71
3
 72
8
 73
4
 74
0
 40
0
 40
0
 40
0
 40
0
 40
1
 40
1
 40
1
 40
1
 10
6.145293
 20
13.502373
 30
0.0
 10
5.978283
 20
13.628973
 30
0.0
 10
5.944043
 20
13.673263
 30
0.0
 10
6.013063
 20
13.673263
 30
0.0
  0
SPLINE
  5
242
100
AcDbEntity
  8
Layer_1
 62
7
100
AcDbSpline
 70
8
 71
3
 72
8
 73
4
 74
0
 40
0
 40
0
 40
0
 40
0
 40
1
 40
1
 40
1
 40
1
 10
6.013063
 20
13.673263
 30
0.0
 10
6.111963
 20
13.673263
 30
0.0
 10
7.075865
 20
13.484073
 30
0.0
 10
7.526716
 20
13.376163
 30
0.0
  0
SPLINE
  5
243
100
AcDbEntity
  8
Layer_1
 62
7
100
AcDbSpline
 70
8
 71
3
 72
8
 73
4
 74
0
 40
0
 40
0
 40
0
 40
0
 40
1
 40
1
 40
1
 40
1
 10
7.526716
 20
13.376163
 30
0.0
 10
7.725567
 20
13.328463
 30
0.0
 10
7.795277
 20
13.326063
 30
0.0
 10
7.795277
 20
13.366163
 30
0.0
  0
SPLINE
  5
244
100
AcDbEntity
  8
Layer_1
 62
7
100
AcDbSpline
 70
8
 71
3
 72
8
 73
4
 74
0
 40
0
 40
0
 40
0
 40
0
 40
1
 40
1
 40
1
 40
1
 10
7.795277
 20
13.366163
 30
0.0
 10
7.795277
 20
13.396063
 30
0.0
 10
7.711077
 20
13.670843
 30
0.0
 10
7.608456
 20
13.976694
 30
0.0
  0
SPLINE
  5
245
100
AcDbEntity
  8
Layer_1
 62
7
100
AcDbSpline
 70
8
 71
3
 72
8
 73
4
 74
0
 40
0
 40
0
 40
0
 40
0
 40
1
 40
1
 40
1
 40
1
 10
7.608456
 20
13.976694
 30
0.0
 10
7.505746
 20
14.282565
 30
0.0
 10
7.421636
 20
14.549685
 30
0.0
 10
7.421636
 20
14.570315
 30
0.0
  0
SPLINE
  5
246
100
AcDbEntity
  8
Layer_1
 62
7
100
AcDbSpline
 70
8
 71
3
 72
8
 73
4
 74
0
 40
0
 40
0
 40
0
 40
0
 40
1
 40
1
 40
1
 40
1
 10
7.421636
 20
14.570315
 30
0.0
 10
7.421636
 20
14.590815
 30
0.0
 10
7.508036
 20
14.545315
 30
0.0
 10
7.613366
 20
14.468985
 30
0.0
  0
SPLINE
  5
247
100
AcDbEntity
  8
Layer_1
 62
7
100
AcDbSpline
 70
8
 71
3
 72
8
 73
4
 74
0
 40
0
 40
0
 40
0
 40
0
 40
1
 40
1
 40
1
 40
1
 10
7.613366
 20
14.468985
 30
0.0
 10
7.873967
 20
14.280215
 30
0.0
 10
8.264838
 20
14.140834
 30
0.0
 10
8.629109
 20
14.106824
 30
0.0
  0
SPLINE
  5
248
100
AcDbEntity
  8
Layer_1
 62
7
100
AcDbSpline
 70
8
 71
3
 72
8
 73
4
 74
0
 40
0
 40
0
 40
0
 40
0
 40
1
 40
1
 40
1
 40
1
 10
8.629109
 20
14.106824
 30
0.0
 10
8.911299
 20
14.080424
 30
0.0
 10
8.929699
 20
14.084424
 30
0.0
 10
8.898529
 20
14.165725
 30
0.0
  0
SPLINE
  5
249
100
AcDbEntity
  8
Layer_1
 62
7
100
AcDbSpline
 70
8
 71
3
 72
8
 73
4
 74
0
 40
0
 40
0
 40
0
 40
0
 40
1
 40
1
 40
1
 40
1
 10
8.898529
 20
14.165725
 30
0.0
 10
8.880129
 20
14.213825
 30
0.0
 10
8.852429
 20
14.491285
 30
0.0
 10
8.836629
 20
14.782636
 30
0.0
  0
LWPOLYLINE
  5
24a
100
AcDbEntity
  8
Layer_1
 62
7
100
AcDbPolyline
 90
1
 70
1
 10
19.864573
 20
11.704349
 30
0.0
  0
SPLINE
  5
24b
100
AcDbEntity
  8
Layer_1
 62
7
100
AcDbSpline
 70
8
 71
3
 72
8
 73
4
 74
0
 40
0
 40
0
 40
0
 40
0
 40
1
 40
1
 40
1
 40
1
 10
9.095750
 20
15.031156
 30
0.0
 10
9.394730
 20
14.738596
 30
0.0
 10
9.633871
 20
14.583415
 30
0.0
 10
9.711661
 20
14.631496
 30
0.0
  0
SPLINE
  5
24c
100
AcDbEntity
  8
Layer_1
 62
7
100
AcDbSpline
 70
8
 71
3
 72
8
 73
4
 74
0
 40
0
 40
0
 40
0
 40
0
 40
1
 40
1
 40
1
 40
1
 10
9.711661
 20
14.631496
 30
0.0
 10
9.792761
 20
14.681596
 30
0.0
 10
9.759761
 20
14.743536
 30
0.0
 10
9.610731
 20
14.820656
 30
0.0
  0
SPLINE
  5
24d
100
AcDbEntity
  8
Layer_1
 62
7
100
AcDbSpline
 70
8
 71
3
 72
8
 73
4
 74
0
 40
0
 40
0
 40
0
 40
0
 40
1
 40
1
 40
1
 40
1
 10
9.610731
 20
14.820656
 30
0.0
 10
9.530231
 20
14.862256
 30
0.0
 10
9.274920
 20
15.078246
 30
0.0
 10
9.043309
 20
15.300607
 30
0.0
  0
LWPOLYLINE
  5
24e
100
AcDbEntity
  8
Layer_1
 62
7
100
AcDbPolyline
 90
3
 70
0
 10
8.836629
 20
14.782636
 30
0.0
 10
8.808329
 20
15.312387
 30
0.0
 10
9.095750
 20
15.031156
 30
0.0
  0
SPLINE
  5
24f
100
AcDbEntity
  8
Layer_1
 62
7
100
AcDbSpline
 70
8
 71
3
 72
8
 73
4
 74
0
 40
0
 40
0
 40
0
 40
0
 40
1
 40
1
 40
1
 40
1
 10
8.652979
 20
15.097707
 30
0.0
 10
8.669879
 20
14.763756
 30
0.0
 10
8.697379
 20
14.440025
 30
0.0
 10
8.713979
 20
14.378295
 30
0.0
  0
SPLINE
  5
250
100
AcDbEntity
  8
Layer_1
 62
7
100
AcDbSpline
 70
8
 71
3
 72
8
 73
4
 74
0
 40
0
 40
0
 40
0
 40
0
 40
1
 40
1
 40
1
 40
1
 10
8.713979
 20
14.378295
 30
0.0
 10
8.743479
 20
14.269135
 30
0.0
 10
8.738679
 20
14.266935
 30
0.0
 10
8.538398
 20
14.297795
 30
0.0
  0
SPLINE
  5
251
100
AcDbEntity
  8
Layer_1
 62
7
100
AcDbSpline
 70
8
 71
3
 72
8
 73
4
 74
0
 40
0
 40
0
 40
0
 40
0
 40
1
 40
1
 40
1
 40
1
 10
8.538398
 20
14.297795
 30
0.0
 10
8.157138
 20
14.356695
 30
0.0
 10
7.898197
 20
14.470745
 30
0.0
 10
7.511396
 20
14.750086
 30
0.0
  0
SPLINE
  5
252
100
AcDbEntity
  8
Layer_1
 62
7
100
AcDbSpline
 70
8
 71
3
 72
8
 73
4
 74
0
 40
0
 40
0
 40
0
 40
0
 40
1
 40
1
 40
1
 40
1
 10
7.511396
 20
14.750086
 30
0.0
 10
7.299686
 20
14.902966
 30
0.0
 10
7.119675
 20
15.021256
 30
0.0
 10
7.111365
 20
15.012936
 30
0.0
  0
SPLINE
  5
253
100
AcDbEntity
  8
Layer_1
 62
7
100
AcDbSpline
 70
8
 71
3
 72
8
 73
4
 74
0
 40
0
 40
0
 40
0
 40
0
 40
1
 40
1
 40
1
 40
1
 10
7.111365
 20
15.012936
 30
0.0
 10
7.103365
 20
15.004936
 30
0.0
 10
7.203266
 20
14.677486
 30
0.0
 10
7.334096
 20
14.285955
 30
0.0
  0
SPLINE
  5
254
100
AcDbEntity
  8
Layer_1
 62
7
100
AcDbSpline
 70
8
 71
3
 72
8
 73
4
 74
0
 40
0
 40
0
 40
0
 40
0
 40
1
 40
1
 40
1
 40
1
 10
7.334096
 20
14.285955
 30
0.0
 10
7.464946
 20
13.894424
 30
0.0
 10
7.563026
 20
13.565193
 30
0.0
 10
7.552156
 20
13.554323
 30
0.0
  0
SPLINE
  5
255
100
AcDbEntity
  8
Layer_1
 62
7
100
AcDbSpline
 70
8
 71
3
 72
8
 73
4
 74
0
 40
0
 40
0
 40
0
 40
0
 40
1
 40
1
 40
1
 40
1
 10
7.552156
 20
13.554323
 30
0.0
 10
7.541156
 20
13.543323
 30
0.0
 10
7.460156
 20
13.555073
 30
0.0
 10
7.372006
 20
13.580823
 30
0.0
  0
SPLINE
  5
256
100
AcDbEntity
  8
Layer_1
 62
7
100
AcDbSpline
 70
8
 71
3
 72
8
 73
4
 74
0
 40
0
 40
0
 40
0
 40
0
 40
1
 40
1
 40
1
 40
1
 10
7.372006
 20
13.580823
 30
0.0
 10
6.901135
 20
13.716624
 30
0.0
 10
5.320001
 20
13.994684
 30
0.0
 10
5.320001
 20
13.941754
 30
0.0
  0
SPLINE
  5
257
100
AcDbEntity
  8
Layer_1
 62
7
100
AcDbSpline
 70
8
 71
3
 72
8
 73
4
 74
0
 40
0
 40
0
 40
0
 40
0
 40
1
 40
1
 40
1
 40
1
 10
5.320001
 20
13.941754
 30
0.0
 10
5.320001
 20
13.929354
 30
0.0
 10
5.619512
 20
13.691593
 30
0.0
 10
5.985573
 20
13.413183
 30
0.0
  0
SPLINE
  5
258
100
AcDbEntity
  8
Layer_1
 62
7
100
AcDbSpline
 70
8
 71
3
 72
8
 73
4
 74
0
 40
0
 40
0
 40
0
 40
0
 40
1
 40
1
 40
1
 40
1
 10
5.985573
 20
13.413183
 30
0.0
 10
6.351644
 20
13.134752
 30
0.0
 10
6.764485
 20
12.818422
 30
0.0
 10
6.903015
 20
12.710201
 30
0.0
  0
SPLINE
  5
259
100
AcDbEntity
  8
Layer_1
 62
7
100
AcDbSpline
 70
8
 71
3
 72
8
 73
4
 74
0
 40
0
 40
0
 40
0
 40
0
 40
1
 40
1
 40
1
 40
1
 10
6.903015
 20
12.710201
 30
0.0
 10
7.126035
 20
12.535991
 30
0.0
 10
7.281686
 20
12.490221
 30
0.0
 10
7.281686
 20
12.598851
 30
0.0
  0
LWPOLYLINE
  5
25a
100
AcDbEntity
  8
Layer_1
 62
7
100
AcDbPolyline
 90
3
 70
0
 10
9.043309
 20
15.300607
 30
0.0
 10
8.622179
 20
15.704898
 30
0.0
 10
8.652979
 20
15.097707
 30
0.0
  0
SPLINE
  5
25b
100
AcDbEntity
  8
Layer_1
 62
7
100
AcDbSpline
 70
8
 71
3
 72
8
 73
4
 74
0
 40
0
 40
0
 40
0
 40
0
 40
1
 40
1
 40
1
 40
1
 10
12.070396
 20
13.348693
 30
0.0
 10
12.113096
 20
13.417793
 30
0.0
 10
11.883246
 20
14.087714
 30
0.0
 10
11.663475
 20
14.534885
 30
0.0
  0
SPLINE
  5
25c
100
AcDbEntity
  8
Layer_1
 62
7
100
AcDbSpline
 70
8
 71
3
 72
8
 73
4
 74
0
 40
0
 40
0
 40
0
 40
0
 40
1
 40
1
 40
1
 40
1
 10
11.663475
 20
14.534885
 30
0.0
 10
11.561725
 20
14.741746
 30
0.0
 10
11.449325
 20
14.980026
 30
0.0
 10
11.413515
 20
15.064396
 30
0.0
  0
LWPOLYLINE
  5
25d
100
AcDbEntity
  8
Layer_1
 62
7
100
AcDbPolyline
 90
2
 70
0
 10
7.281686
 20
12.598851
 30
0.0
 10
7.281526
 20
12.599011
 30
0.0
  0
SPLINE
  5
25e
100
AcDbEntity
  8
Layer_1
 62
7
100
AcDbSpline
 70
8
 71
3
 72
8
 73
4
 74
0
 40
0
 40
0
 40
0
 40
0
 40
1
 40
1
 40
1
 40
1
 10
11.685335
 20
14.984516
 30
0.0
 10
11.870646
 20
14.856276
 30
0.0
 10
12.193806
 20
14.613785
 30
0.0
 10
12.403457
 20
14.445775
 30
0.0
  0
SPLINE
  5
25f
100
AcDbEntity
  8
Layer_1
 62
7
100
AcDbSpline
 70
8
 71
3
 72
8
 73
4
 74
0
 40
0
 40
0
 40
0
 40
0
 40
1
 40
1
 40
1
 40
1
 10
12.403457
 20
14.445775
 30
0.0
 10
12.613127
 20
14.277785
 30
0.0
 10
12.807558
 20
14.140334
 30
0.0
 10
12.835518
 20
14.140334
 30
0.0
  0
SPLINE
  5
260
100
AcDbEntity
  8
Layer_1
 62
7
100
AcDbSpline
 70
8
 71
3
 72
8
 73
4
 74
0
 40
0
 40
0
 40
0
 40
0
 40
1
 40
1
 40
1
 40
1
 10
12.835518
 20
14.140334
 30
0.0
 10
13.010348
 20
14.140334
 30
0.0
 10
12.756117
 20
14.416475
 30
0.0
 10
12.162356
 20
14.871826
 30
0.0
  0
SPLINE
  5
261
100
AcDbEntity
  8
Layer_1
 62
7
100
AcDbSpline
 70
8
 71
3
 72
8
 73
4
 74
0
 40
0
 40
0
 40
0
 40
0
 40
1
 40
1
 40
1
 40
1
 10
12.162356
 20
14.871826
 30
0.0
 10
11.816755
 20
15.136837
 30
0.0
 10
11.002774
 20
15.681948
 30
0.0
 10
10.982674
 20
15.661858
 30
0.0
  0
SPLINE
  5
262
100
AcDbEntity
  8
Layer_1
 62
7
100
AcDbSpline
 70
8
 71
3
 72
8
 73
4
 74
0
 40
0
 40
0
 40
0
 40
0
 40
1
 40
1
 40
1
 40
1
 10
10.982674
 20
15.661858
 30
0.0
 10
10.971674
 20
15.650858
 30
0.0
 10
11.129844
 20
15.288337
 30
0.0
 10
11.334004
 20
14.856126
 30
0.0
  0
SPLINE
  5
263
100
AcDbEntity
  8
Layer_1
 62
7
100
AcDbSpline
 70
8
 71
3
 72
8
 73
4
 74
0
 40
0
 40
0
 40
0
 40
0
 40
1
 40
1
 40
1
 40
1
 10
11.334004
 20
14.856126
 30
0.0
 10
11.647305
 20
14.192935
 30
0.0
 10
11.753515
 20
13.926424
 30
0.0
 10
11.931026
 20
13.358003
 30
0.0
  0
SPLINE
  5
264
100
AcDbEntity
  8
Layer_1
 62
7
100
AcDbSpline
 70
8
 71
3
 72
8
 73
4
 74
0
 40
0
 40
0
 40
0
 40
0
 40
1
 40
1
 40
1
 40
1
 10
11.931026
 20
13.358003
 30
0.0
 10
11.953226
 20
13.287003
 30
0.0
 10
12.029026
 20
13.281803
 30
0.0
 10
12.070406
 20
13.348003
 30
0.0
  0
LWPOLYLINE
  5
265
100
AcDbEntity
  8
Layer_1
 62
7
100
AcDbPolyline
 90
3
 70
0
 10
11.413515
 20
15.064396
 30
0.0
 10
11.348414
 20
15.217817
 30
0.0
 10
11.685335
 20
14.984516
 30
0.0
  0
SPLINE
  5
266
100
AcDbEntity
  8
Layer_1
 62
7
100
AcDbSpline
 70
8
 71
3
 72
8
 73
4
 74
0
 40
0
 40
0
 40
0
 40
0
 40
1
 40
1
 40
1
 40
1
 10
14.254991
 20
13.724714
 30
0.0
 10
14.190991
 20
14.505165
 30
0.0
 10
14.145140
 20
15.321297
 30
0.0
 10
14.164191
 20
15.340297
 30
0.0
  0
SPLINE
  5
267
100
AcDbEntity
  8
Layer_1
 62
7
100
AcDbSpline
 70
8
 71
3
 72
8
 73
4
 74
0
 40
0
 40
0
 40
0
 40
0
 40
1
 40
1
 40
1
 40
1
 10
14.164191
 20
15.340297
 30
0.0
 10
14.177891
 20
15.353997
 30
0.0
 10
14.310351
 20
14.983956
 30
0.0
 10
14.459731
 20
14.519125
 30
0.0
  0
SPLINE
  5
268
100
AcDbEntity
  8
Layer_1
 62
7
100
AcDbSpline
 70
8
 71
3
 72
8
 73
4
 74
0
 40
0
 40
0
 40
0
 40
0
 40
1
 40
1
 40
1
 40
1
 10
14.459731
 20
14.519125
 30
0.0
 10
14.609091
 20
14.054314
 30
0.0
 10
14.744822
 20
13.673843
 30
0.0
 10
14.761322
 20
13.673633
 30
0.0
  0
SPLINE
  5
269
100
AcDbEntity
  8
Layer_1
 62
7
100
AcDbSpline
 70
8
 71
3
 72
8
 73
4
 74
0
 40
0
 40
0
 40
0
 40
0
 40
1
 40
1
 40
1
 40
1
 10
14.761322
 20
13.673633
 30
0.0
 10
14.777822
 20
13.673503
 30
0.0
 10
14.802522
 20
13.699434
 30
0.0
 10
14.816122
 20
13.731634
 30
0.0
  0
SPLINE
  5
26a
100
AcDbEntity
  8
Layer_1
 62
7
100
AcDbSpline
 70
8
 71
3
 72
8
 73
4
 74
0
 40
0
 40
0
 40
0
 40
0
 40
1
 40
1
 40
1
 40
1
 10
14.816122
 20
13.731634
 30
0.0
 10
15.068182
 20
14.328465
 30
0.0
 10
15.606774
 20
15.524777
 30
0.0
 10
15.637074
 20
15.555097
 30
0.0
  0
SPLINE
  5
26b
100
AcDbEntity
  8
Layer_1
 62
7
100
AcDbSpline
 70
8
 71
3
 72
8
 73
4
 74
0
 40
0
 40
0
 40
0
 40
0
 40
1
 40
1
 40
1
 40
1
 10
15.637074
 20
15.555097
 30
0.0
 10
15.659874
 20
15.577898
 30
0.0
 10
15.701974
 20
15.394677
 30
0.0
 10
15.733774
 20
15.136457
 30
0.0
  0
SPLINE
  5
26c
100
AcDbEntity
  8
Layer_1
 62
7
100
AcDbSpline
 70
8
 71
3
 72
8
 73
4
 74
0
 40
0
 40
0
 40
0
 40
0
 40
1
 40
1
 40
1
 40
1
 10
15.733774
 20
15.136457
 30
0.0
 10
15.764674
 20
14.883996
 30
0.0
 10
15.804074
 20
14.563555
 30
0.0
 10
15.821274
 20
14.424365
 30
0.0
  0
SPLINE
  5
26d
100
AcDbEntity
  8
Layer_1
 62
7
100
AcDbSpline
 70
8
 71
3
 72
8
 73
4
 74
0
 40
0
 40
0
 40
0
 40
0
 40
1
 40
1
 40
1
 40
1
 10
15.821274
 20
14.424365
 30
0.0
 10
15.838474
 20
14.285175
 30
0.0
 10
15.874274
 20
14.164095
 30
0.0
 10
15.900774
 20
14.155294
 30
0.0
  0
SPLINE
  5
26e
100
AcDbEntity
  8
Layer_1
 62
7
100
AcDbSpline
 70
8
 71
3
 72
8
 73
4
 74
0
 40
0
 40
0
 40
0
 40
0
 40
1
 40
1
 40
1
 40
1
 10
15.900774
 20
14.155294
 30
0.0
 10
15.927374
 20
14.145294
 30
0.0
 10
16.284595
 20
14.393565
 30
0.0
 10
16.694786
 20
14.704336
 30
0.0
  0
SPLINE
  5
26f
100
AcDbEntity
  8
Layer_1
 62
7
100
AcDbSpline
 70
8
 71
3
 72
8
 73
4
 74
0
 40
0
 40
0
 40
0
 40
0
 40
1
 40
1
 40
1
 40
1
 10
16.694786
 20
14.704336
 30
0.0
 10
17.104967
 20
15.015116
 30
0.0
 10
17.497238
 20
15.299037
 30
0.0
 10
17.566478
 20
15.335257
 30
0.0
  0
LWPOLYLINE
  5
270
100
AcDbEntity
  8
Layer_1
 62
7
100
AcDbPolyline
 90
2
 70
0
 10
12.070406
 20
13.348003
 30
0.0
 10
12.070396
 20
13.348693
 30
0.0
  0
SPLINE
  5
271
100
AcDbEntity
  8
Layer_1
 62
7
100
AcDbSpline
 70
8
 71
3
 72
8
 73
4
 74
0
 40
0
 40
0
 40
0
 40
0
 40
1
 40
1
 40
1
 40
1
 10
17.606488
 20
15.156067
 30
0.0
 10
17.559288
 20
15.021236
 30
0.0
 10
17.444788
 20
14.735726
 30
0.0
 10
17.352157
 20
14.521515
 30
0.0
  0
SPLINE
  5
272
100
AcDbEntity
  8
Layer_1
 62
7
100
AcDbSpline
 70
8
 71
3
 72
8
 73
4
 74
0
 40
0
 40
0
 40
0
 40
0
 40
1
 40
1
 40
1
 40
1
 10
17.352157
 20
14.521515
 30
0.0
 10
17.169217
 20
14.098414
 30
0.0
 10
17.149567
 20
14.000194
 30
0.0
 10
17.247807
 20
14.000194
 30
0.0
  0
SPLINE
  5
273
100
AcDbEntity
  8
Layer_1
 62
7
100
AcDbSpline
 70
8
 71
3
 72
8
 73
4
 74
0
 40
0
 40
0
 40
0
 40
0
 40
1
 40
1
 40
1
 40
1
 10
17.247807
 20
14.000194
 30
0.0
 10
17.321107
 20
14.000194
 30
0.0
 10
17.684898
 20
14.788026
 30
0.0
 10
17.885069
 20
15.380217
 30
0.0
  0
SPLINE
  5
274
100
AcDbEntity
  8
Layer_1
 62
7
100
AcDbSpline
 70
8
 71
3
 72
8
 73
4
 74
0
 40
0
 40
0
 40
0
 40
0
 40
1
 40
1
 40
1
 40
1
 10
17.885069
 20
15.380217
 30
0.0
 10
17.976669
 20
15.651078
 30
0.0
 10
18.000549
 20
15.775058
 30
0.0
 10
17.961169
 20
15.775058
 30
0.0
  0
SPLINE
  5
275
100
AcDbEntity
  8
Layer_1
 62
7
100
AcDbSpline
 70
8
 71
3
 72
8
 73
4
 74
0
 40
0
 40
0
 40
0
 40
0
 40
1
 40
1
 40
1
 40
1
 10
17.961169
 20
15.775058
 30
0.0
 10
17.852008
 20
15.775058
 30
0.0
 10
17.158007
 20
15.311597
 30
0.0
 10
16.601586
 20
14.867036
 30
0.0
  0
SPLINE
  5
276
100
AcDbEntity
  8
Layer_1
 62
7
100
AcDbSpline
 70
8
 71
3
 72
8
 73
4
 74
0
 40
0
 40
0
 40
0
 40
0
 40
1
 40
1
 40
1
 40
1
 10
16.601586
 20
14.867036
 30
0.0
 10
16.294235
 20
14.621475
 30
0.0
 10
16.026265
 20
14.420565
 30
0.0
 10
16.006074
 20
14.420565
 30
0.0
  0
SPLINE
  5
277
100
AcDbEntity
  8
Layer_1
 62
7
100
AcDbSpline
 70
8
 71
3
 72
8
 73
4
 74
0
 40
0
 40
0
 40
0
 40
0
 40
1
 40
1
 40
1
 40
1
 10
16.006074
 20
14.420565
 30
0.0
 10
15.985874
 20
14.420565
 30
0.0
 10
15.969274
 20
14.488965
 30
0.0
 10
15.969174
 20
14.572355
 30
0.0
  0
SPLINE
  5
278
100
AcDbEntity
  8
Layer_1
 62
7
100
AcDbSpline
 70
8
 71
3
 72
8
 73
4
 74
0
 40
0
 40
0
 40
0
 40
0
 40
1
 40
1
 40
1
 40
1
 10
15.969174
 20
14.572355
 30
0.0
 10
15.968774
 20
14.816586
 30
0.0
 10
15.781084
 20
16.028079
 30
0.0
 10
15.736734
 20
16.072799
 30
0.0
  0
SPLINE
  5
279
100
AcDbEntity
  8
Layer_1
 62
7
100
AcDbSpline
 70
8
 71
3
 72
8
 73
4
 74
0
 40
0
 40
0
 40
0
 40
0
 40
1
 40
1
 40
1
 40
1
 10
15.736734
 20
16.072799
 30
0.0
 10
15.692434
 20
16.117399
 30
0.0
 10
15.304553
 20
15.339387
 30
0.0
 10
14.986402
 20
14.567035
 30
0.0
  0
LWPOLYLINE
  5
27a
100
AcDbEntity
  8
Layer_1
 62
7
100
AcDbPolyline
 90
3
 70
0
 10
17.566478
 20
15.335257
 30
0.0
 10
17.692388
 20
15.401157
 30
0.0
 10
17.606488
 20
15.156067
 30
0.0
  0
SPLINE
  5
27b
100
AcDbEntity
  8
Layer_1
 62
7
100
AcDbSpline
 70
8
 71
3
 72
8
 73
4
 74
0
 40
0
 40
0
 40
0
 40
0
 40
1
 40
1
 40
1
 40
1
 10
14.474761
 20
15.024416
 30
0.0
 10
14.152500
 20
15.996168
 30
0.0
 10
14.087110
 20
16.132879
 30
0.0
 10
14.004250
 20
16.008208
 30
0.0
  0
SPLINE
  5
27c
100
AcDbEntity
  8
Layer_1
 62
7
100
AcDbSpline
 70
8
 71
3
 72
8
 73
4
 74
0
 40
0
 40
0
 40
0
 40
0
 40
1
 40
1
 40
1
 40
1
 10
14.004250
 20
16.008208
 30
0.0
 10
13.928350
 20
15.893968
 30
0.0
 10
14.043350
 20
13.758064
 30
0.0
 10
14.133320
 20
13.612413
 30
0.0
  0
SPLINE
  5
27d
100
AcDbEntity
  8
Layer_1
 62
7
100
AcDbSpline
 70
8
 71
3
 72
8
 73
4
 74
0
 40
0
 40
0
 40
0
 40
0
 40
1
 40
1
 40
1
 40
1
 10
14.133320
 20
13.612413
 30
0.0
 10
14.179621
 20
13.537613
 30
0.0
 10
14.264451
 20
13.615413
 30
0.0
 10
14.255521
 20
13.724724
 30
0.0
  0
LWPOLYLINE
  5
27e
100
AcDbEntity
  8
Layer_1
 62
7
100
AcDbPolyline
 90
3
 70
0
 10
14.986402
 20
14.567035
 30
0.0
 10
14.787002
 20
14.082974
 30
0.0
 10
14.474761
 20
15.024416
 30
0.0
  0
SPLINE
  5
27f
100
AcDbEntity
  8
Layer_1
 62
7
100
AcDbSpline
 70
8
 71
3
 72
8
 73
4
 74
0
 40
0
 40
0
 40
0
 40
0
 40
1
 40
1
 40
1
 40
1
 10
20.657274
 20
1.050816
 30
0.0
 10
20.550584
 20
1.384497
 30
0.0
 10
20.354264
 20
1.496587
 30
0.0
 10
19.847073
 20
1.513327
 30
0.0
  0
LWPOLYLINE
  5
280
100
AcDbEntity
  8
Layer_1
 62
7
100
AcDbPolyline
 90
2
 70
0
 10
14.255521
 20
13.724724
 30
0.0
 10
14.254991
 20
13.724714
 30
0.0
  0
SPLINE
  5
281
100
AcDbEntity
  8
Layer_1
 62
7
100
AcDbSpline
 70
8
 71
3
 72
8
 73
4
 74
0
 40
0
 40
0
 40
0
 40
0
 40
1
 40
1
 40
1
 40
1
 10
19.429152
 20
1.701828
 30
0.0
 10
19.378052
 20
1.833368
 30
0.0
 10
19.359952
 20
2.085268
 30
0.0
 10
19.359552
 20
2.673360
 30
0.0
  0
SPLINE
  5
282
100
AcDbEntity
  8
Layer_1
 62
7
100
AcDbSpline
 70
8
 71
3
 72
8
 73
4
 74
0
 40
0
 40
0
 40
0
 40
0
 40
1
 40
1
 40
1
 40
1
 10
19.359552
 20
2.673360
 30
0.0
 10
19.359022
 20
3.360121
 30
0.0
 10
19.375852
 20
3.546252
 30
0.0
 10
19.484092
 20
4.051203
 30
0.0
  0
SPLINE
  5
283
100
AcDbEntity
  8
Layer_1
 62
7
100
AcDbSpline
 70
8
 71
3
 72
8
 73
4
 74
0
 40
0
 40
0
 40
0
 40
0
 40
1
 40
1
 40
1
 40
1
 10
19.484092
 20
4.051203
 30
0.0
 10
19.611792
 20
4.646044
 30
0.0
 10
19.801893
 20
5.277495
 30
0.0
 10
20.018213
 20
5.824757
 30
0.0
  0
SPLINE
  5
284
100
AcDbEntity
  8
Layer_1
 62
7
100
AcDbSpline
 70
8
 71
3
 72
8
 73
4
 74
0
 40
0
 40
0
 40
0
 40
0
 40
1
 40
1
 40
1
 40
1
 10
20.018213
 20
5.824757
 30
0.0
 10
20.084513
 20
5.992437
 30
0.0
 10
20.143713
 20
6.135757
 30
0.0
 10
20.149753
 20
6.143227
 30
0.0
  0
SPLINE
  5
285
100
AcDbEntity
  8
Layer_1
 62
7
100
AcDbSpline
 70
8
 71
3
 72
8
 73
4
 74
0
 40
0
 40
0
 40
0
 40
0
 40
1
 40
1
 40
1
 40
1
 10
20.149753
 20
6.143227
 30
0.0
 10
20.154753
 20
6.150227
 30
0.0
 10
20.231754
 20
6.116327
 30
0.0
 10
20.318474
 20
6.067027
 30
0.0
  0
SPLINE
  5
286
100
AcDbEntity
  8
Layer_1
 62
7
100
AcDbSpline
 70
8
 71
3
 72
8
 73
4
 74
0
 40
0
 40
0
 40
0
 40
0
 40
1
 40
1
 40
1
 40
1
 10
20.318474
 20
6.067027
 30
0.0
 10
20.405274
 20
6.017627
 30
0.0
 10
20.535654
 20
5.963357
 30
0.0
 10
20.608384
 20
5.946607
 30
0.0
  0
SPLINE
  5
287
100
AcDbEntity
  8
Layer_1
 62
7
100
AcDbSpline
 70
8
 71
3
 72
8
 73
4
 74
0
 40
0
 40
0
 40
0
 40
0
 40
1
 40
1
 40
1
 40
1
 10
20.608384
 20
5.946607
 30
0.0
 10
20.717275
 20
5.921307
 30
0.0
 10
20.737875
 20
5.930107
 30
0.0
 10
20.725105
 20
5.996607
 30
0.0
  0
SPLINE
  5
288
100
AcDbEntity
  8
Layer_1
 62
7
100
AcDbSpline
 70
8
 71
3
 72
8
 73
4
 74
0
 40
0
 40
0
 40
0
 40
0
 40
1
 40
1
 40
1
 40
1
 10
20.725105
 20
5.996607
 30
0.0
 10
20.717105
 20
6.041207
 30
0.0
 10
20.644204
 20
6.094107
 30
0.0
 10
20.562854
 20
6.115237
 30
0.0
  0
SPLINE
  5
289
100
AcDbEntity
  8
Layer_1
 62
7
100
AcDbSpline
 70
8
 71
3
 72
8
 73
4
 74
0
 40
0
 40
0
 40
0
 40
0
 40
1
 40
1
 40
1
 40
1
 10
20.562854
 20
6.115237
 30
0.0
 10
20.226634
 20
6.202437
 30
0.0
 10
19.752233
 20
6.784909
 30
0.0
 10
19.752233
 20
7.110669
 30
0.0
  0
SPLINE
  5
28a
100
AcDbEntity
  8
Layer_1
 62
7
100
AcDbSpline
 70
8
 71
3
 72
8
 73
4
 74
0
 40
0
 40
0
 40
0
 40
0
 40
1
 40
1
 40
1
 40
1
 10
19.752233
 20
7.110669
 30
0.0
 10
19.752233
 20
7.411440
 30
0.0
 10
20.089703
 20
7.834611
 30
0.0
 10
20.329594
 20
7.834611
 30
0.0
  0
SPLINE
  5
28b
100
AcDbEntity
  8
Layer_1
 62
7
100
AcDbSpline
 70
8
 71
3
 72
8
 73
4
 74
0
 40
0
 40
0
 40
0
 40
0
 40
1
 40
1
 40
1
 40
1
 10
20.329594
 20
7.834611
 30
0.0
 10
20.678715
 20
7.834611
 30
0.0
 10
21.011305
 20
7.227710
 30
0.0
 10
21.012765
 20
6.587958
 30
0.0
  0
SPLINE
  5
28c
100
AcDbEntity
  8
Layer_1
 62
7
100
AcDbSpline
 70
8
 71
3
 72
8
 73
4
 74
0
 40
0
 40
0
 40
0
 40
0
 40
1
 40
1
 40
1
 40
1
 10
21.012765
 20
6.587958
 30
0.0
 10
21.013285
 20
6.364028
 30
0.0
 10
21.071165
 20
6.242067
 30
0.0
 10
21.142796
 20
6.313718
 30
0.0
  0
SPLINE
  5
28d
100
AcDbEntity
  8
Layer_1
 62
7
100
AcDbSpline
 70
8
 71
3
 72
8
 73
4
 74
0
 40
0
 40
0
 40
0
 40
0
 40
1
 40
1
 40
1
 40
1
 10
21.142796
 20
6.313718
 30
0.0
 10
21.211296
 20
6.382218
 30
0.0
 10
21.143346
 20
6.983809
 30
0.0
 10
21.030615
 20
7.311120
 30
0.0
  0
LWPOLYLINE
  5
28e
100
AcDbEntity
  8
Layer_1
 62
7
100
AcDbPolyline
 90
3
 70
0
 10
19.847073
 20
1.513327
 30
0.0
 10
19.498252
 20
1.524327
 30
0.0
 10
19.429152
 20
1.701828
 30
0.0
  0
SPLINE
  5
28f
100
AcDbEntity
  8
Layer_1
 62
7
100
AcDbSpline
 70
8
 71
3
 72
8
 73
4
 74
0
 40
0
 40
0
 40
0
 40
0
 40
1
 40
1
 40
1
 40
1
 10
21.180076
 20
8.060611
 30
0.0
 10
21.874407
 20
9.106764
 30
0.0
 10
22.626789
 20
9.833645
 30
0.0
 10
23.361430
 20
10.168076
 30
0.0
  0
SPLINE
  5
290
100
AcDbEntity
  8
Layer_1
 62
7
100
AcDbSpline
 70
8
 71
3
 72
8
 73
4
 74
0
 40
0
 40
0
 40
0
 40
0
 40
1
 40
1
 40
1
 40
1
 10
23.361430
 20
10.168076
 30
0.0
 10
23.907371
 20
10.416586
 30
0.0
 10
23.860011
 20
10.439476
 30
0.0
 10
24.183182
 20
9.770965
 30
0.0
  0
SPLINE
  5
291
100
AcDbEntity
  8
Layer_1
 62
7
100
AcDbSpline
 70
8
 71
3
 72
8
 73
4
 74
0
 40
0
 40
0
 40
0
 40
0
 40
1
 40
1
 40
1
 40
1
 10
24.183182
 20
9.770965
 30
0.0
 10
24.667363
 20
8.769353
 30
0.0
 10
25.260874
 20
7.931941
 30
0.0
 10
25.970056
 20
7.249790
 30
0.0
  0
SPLINE
  5
292
100
AcDbEntity
  8
Layer_1
 62
7
100
AcDbSpline
 70
8
 71
3
 72
8
 73
4
 74
0
 40
0
 40
0
 40
0
 40
0
 40
1
 40
1
 40
1
 40
1
 10
25.970056
 20
7.249790
 30
0.0
 10
27.021208
 20
6.238677
 30
0.0
 10
28.133321
 20
5.735886
 30
0.0
 10
29.357073
 20
5.718526
 30
0.0
  0
LWPOLYLINE
  5
293
100
AcDbEntity
  8
Layer_1
 62
7
100
AcDbPolyline
 90
3
 70
0
 10
21.030615
 20
7.311120
 30
0.0
 10
20.911565
 20
7.656080
 30
0.0
 10
21.180076
 20
8.060611
 30
0.0
  0
SPLINE
  5
294
100
AcDbEntity
  8
Layer_1
 62
7
100
AcDbSpline
 70
8
 71
3
 72
8
 73
4
 74
0
 40
0
 40
0
 40
0
 40
0
 40
1
 40
1
 40
1
 40
1
 10
29.903194
 20
5.492016
 30
0.0
 10
29.935594
 20
5.217765
 30
0.0
 10
30.079135
 20
4.930895
 30
0.0
 10
30.243785
 20
4.810934
 30
0.0
  0
LWPOLYLINE
  5
295
100
AcDbEntity
  8
Layer_1
 62
7
100
AcDbPolyline
 90
3
 70
0
 10
29.357073
 20
5.718526
 30
0.0
 10
29.877294
 20
5.711526
 30
0.0
 10
29.903194
 20
5.492016
 30
0.0
  0
SPLINE
  5
296
100
AcDbEntity
  8
Layer_1
 62
7
100
AcDbSpline
 70
8
 71
3
 72
8
 73
4
 74
0
 40
0
 40
0
 40
0
 40
0
 40
1
 40
1
 40
1
 40
1
 10
30.189795
 20
4.420434
 30
0.0
 10
29.235603
 20
2.836010
 30
0.0
 10
28.289571
 20
2.276809
 30
0.0
 10
26.563377
 20
2.276809
 30
0.0
  0
SPLINE
  5
297
100
AcDbEntity
  8
Layer_1
 62
7
100
AcDbSpline
 70
8
 71
3
 72
8
 73
4
 74
0
 40
0
 40
0
 40
0
 40
0
 40
1
 40
1
 40
1
 40
1
 10
26.563377
 20
2.276809
 30
0.0
 10
25.646945
 20
2.276809
 30
0.0
 10
24.969714
 20
2.464759
 30
0.0
 10
24.460083
 20
2.860540
 30
0.0
  0
SPLINE
  5
298
100
AcDbEntity
  8
Layer_1
 62
7
100
AcDbSpline
 70
8
 71
3
 72
8
 73
4
 74
0
 40
0
 40
0
 40
0
 40
0
 40
1
 40
1
 40
1
 40
1
 10
24.460083
 20
2.860540
 30
0.0
 10
24.159762
 20
3.093771
 30
0.0
 10
24.042132
 20
3.062281
 30
0.0
 10
24.283482
 20
2.813140
 30
0.0
  0
SPLINE
  5
299
100
AcDbEntity
  8
Layer_1
 62
7
100
AcDbSpline
 70
8
 71
3
 72
8
 73
4
 74
0
 40
0
 40
0
 40
0
 40
0
 40
1
 40
1
 40
1
 40
1
 10
24.283482
 20
2.813140
 30
0.0
 10
24.757303
 20
2.324279
 30
0.0
 10
25.928606
 20
2.037018
 30
0.0
 10
27.047298
 20
2.135299
 30
0.0
  0
SPLINE
  5
29a
100
AcDbEntity
  8
Layer_1
 62
7
100
AcDbSpline
 70
8
 71
3
 72
8
 73
4
 74
0
 40
0
 40
0
 40
0
 40
0
 40
1
 40
1
 40
1
 40
1
 10
27.047298
 20
2.135299
 30
0.0
 10
27.317399
 20
2.159099
 30
0.0
 10
27.636930
 20
2.203299
 30
0.0
 10
27.757310
 20
2.233499
 30
0.0
  0
SPLINE
  5
29b
100
AcDbEntity
  8
Layer_1
 62
7
100
AcDbSpline
 70
8
 71
3
 72
8
 73
4
 74
0
 40
0
 40
0
 40
0
 40
0
 40
1
 40
1
 40
1
 40
1
 10
27.757310
 20
2.233499
 30
0.0
 10
27.877730
 20
2.263799
 30
0.0
 10
27.987160
 20
2.277699
 30
0.0
 10
28.000520
 20
2.264399
 30
0.0
  0
SPLINE
  5
29c
100
AcDbEntity
  8
Layer_1
 62
7
100
AcDbSpline
 70
8
 71
3
 72
8
 73
4
 74
0
 40
0
 40
0
 40
0
 40
0
 40
1
 40
1
 40
1
 40
1
 10
28.000520
 20
2.264399
 30
0.0
 10
28.042020
 20
2.222899
 30
0.0
 10
27.497099
 20
1.919908
 30
0.0
 10
27.198999
 20
1.818618
 30
0.0
  0
SPLINE
  5
29d
100
AcDbEntity
  8
Layer_1
 62
7
100
AcDbSpline
 70
8
 71
3
 72
8
 73
4
 74
0
 40
0
 40
0
 40
0
 40
0
 40
1
 40
1
 40
1
 40
1
 10
27.198999
 20
1.818618
 30
0.0
 10
26.562727
 20
1.602427
 30
0.0
 10
25.632825
 20
1.481127
 30
0.0
 10
23.909171
 20
1.389517
 30
0.0
  0
SPLINE
  5
29e
100
AcDbEntity
  8
Layer_1
 62
7
100
AcDbSpline
 70
8
 71
3
 72
8
 73
4
 74
0
 40
0
 40
0
 40
0
 40
0
 40
1
 40
1
 40
1
 40
1
 10
23.909171
 20
1.389517
 30
0.0
 10
22.656419
 20
1.322917
 30
0.0
 10
21.748657
 20
1.220077
 30
0.0
 10
21.211776
 20
1.083876
 30
0.0
  0
SPLINE
  5
29f
100
AcDbEntity
  8
Layer_1
 62
7
100
AcDbSpline
 70
8
 71
3
 72
8
 73
4
 74
0
 40
0
 40
0
 40
0
 40
0
 40
1
 40
1
 40
1
 40
1
 10
21.211776
 20
1.083876
 30
0.0
 10
20.671655
 20
0.946846
 30
0.0
 10
20.690185
 20
0.947946
 30
0.0
 10
20.657354
 20
1.050776
 30
0.0
  0
LWPOLYLINE
  5
2a0
100
AcDbEntity
  8
Layer_1
 62
7
100
AcDbPolyline
 90
3
 70
0
 10
30.243785
 20
4.810934
 30
0.0
 10
30.369695
 20
4.719134
 30
0.0
 10
30.189795
 20
4.420434
 30
0.0
  0
SPLINE
  5
2a1
100
AcDbEntity
  8
Layer_1
 62
7
100
AcDbSpline
 70
8
 71
3
 72
8
 73
4
 74
0
 40
0
 40
0
 40
0
 40
0
 40
1
 40
1
 40
1
 40
1
 10
25.032634
 20
6.248307
 30
0.0
 10
25.235234
 20
6.356778
 30
0.0
 10
25.331255
 20
6.794599
 30
0.0
 10
25.210534
 20
7.059549
 30
0.0
  0
SPLINE
  5
2a2
100
AcDbEntity
  8
Layer_1
 62
7
100
AcDbSpline
 70
8
 71
3
 72
8
 73
4
 74
0
 40
0
 40
0
 40
0
 40
0
 40
1
 40
1
 40
1
 40
1
 10
25.210534
 20
7.059549
 30
0.0
 10
25.143434
 20
7.206940
 30
0.0
 10
24.833333
 20
7.336680
 30
0.0
 10
24.646403
 20
7.295610
 30
0.0
  0
SPLINE
  5
2a3
100
AcDbEntity
  8
Layer_1
 62
7
100
AcDbSpline
 70
8
 71
3
 72
8
 73
4
 74
0
 40
0
 40
0
 40
0
 40
0
 40
1
 40
1
 40
1
 40
1
 10
24.646403
 20
7.295610
 30
0.0
 10
24.382163
 20
7.237710
 30
0.0
 10
24.237142
 20
6.769779
 30
0.0
 10
24.395043
 20
6.484818
 30
0.0
  0
SPLINE
  5
2a4
100
AcDbEntity
  8
Layer_1
 62
7
100
AcDbSpline
 70
8
 71
3
 72
8
 73
4
 74
0
 40
0
 40
0
 40
0
 40
0
 40
1
 40
1
 40
1
 40
1
 10
24.395043
 20
6.484818
 30
0.0
 10
24.462443
 20
6.363298
 30
0.0
 10
24.721053
 20
6.205337
 30
0.0
 10
24.857964
 20
6.202167
 30
0.0
  0
SPLINE
  5
2a5
100
AcDbEntity
  8
Layer_1
 62
7
100
AcDbSpline
 70
8
 71
3
 72
8
 73
4
 74
0
 40
0
 40
0
 40
0
 40
0
 40
1
 40
1
 40
1
 40
1
 10
24.857964
 20
6.202167
 30
0.0
 10
24.904464
 20
6.201417
 30
0.0
 10
24.983194
 20
6.221767
 30
0.0
 10
25.032634
 20
6.248267
 30
0.0
  0
LWPOLYLINE
  5
2a6
100
AcDbEntity
  8
Layer_1
 62
7
100
AcDbPolyline
 90
1
 70
1
 10
20.657354
 20
1.050776
 30
0.0
  0
SPLINE
  5
2a7
100
AcDbEntity
  8
Layer_1
 62
7
100
AcDbSpline
 70
8
 71
3
 72
8
 73
4
 74
0
 40
0
 40
0
 40
0
 40
0
 40
1
 40
1
 40
1
 40
1
 10
30.471366
 20
4.864954
 30
0.0
 10
30.206675
 20
4.982625
 30
0.0
 10
30.103935
 20
5.144605
 30
0.0
 10
30.082715
 20
5.477836
 30
0.0
  0
SPLINE
  5
2a8
100
AcDbEntity
  8
Layer_1
 62
7
100
AcDbSpline
 70
8
 71
3
 72
8
 73
4
 74
0
 40
0
 40
0
 40
0
 40
0
 40
1
 40
1
 40
1
 40
1
 10
30.082715
 20
5.477836
 30
0.0
 10
30.066415
 20
5.734306
 30
0.0
 10
30.082295
 20
5.818527
 30
0.0
 10
30.188025
 20
6.034667
 30
0.0
  0
SPLINE
  5
2a9
100
AcDbEntity
  8
Layer_1
 62
7
100
AcDbSpline
 70
8
 71
3
 72
8
 73
4
 74
0
 40
0
 40
0
 40
0
 40
0
 40
1
 40
1
 40
1
 40
1
 10
30.188025
 20
6.034667
 30
0.0
 10
30.400775
 20
6.469498
 30
0.0
 10
30.834556
 20
6.745789
 30
0.0
 10
31.214937
 20
6.688748
 30
0.0
  0
SPLINE
  5
2aa
100
AcDbEntity
  8
Layer_1
 62
7
100
AcDbSpline
 70
8
 71
3
 72
8
 73
4
 74
0
 40
0
 40
0
 40
0
 40
0
 40
1
 40
1
 40
1
 40
1
 10
31.214937
 20
6.688748
 30
0.0
 10
31.646998
 20
6.624048
 30
0.0
 10
31.849169
 20
6.378898
 30
0.0
 10
31.849169
 20
5.919977
 30
0.0
  0
SPLINE
  5
2ab
100
AcDbEntity
  8
Layer_1
 62
7
100
AcDbSpline
 70
8
 71
3
 72
8
 73
4
 74
0
 40
0
 40
0
 40
0
 40
0
 40
1
 40
1
 40
1
 40
1
 10
31.849169
 20
5.919977
 30
0.0
 10
31.849169
 20
5.623416
 30
0.0
 10
31.766768
 20
5.423626
 30
0.0
 10
31.541628
 20
5.174445
 30
0.0
  0
SPLINE
  5
2ac
100
AcDbEntity
  8
Layer_1
 62
7
100
AcDbSpline
 70
8
 71
3
 72
8
 73
4
 74
0
 40
0
 40
0
 40
0
 40
0
 40
1
 40
1
 40
1
 40
1
 10
31.541628
 20
5.174445
 30
0.0
 10
31.227947
 20
4.827244
 30
0.0
 10
30.820946
 20
4.709554
 30
0.0
 10
30.471326
 20
4.864954
 30
0.0
  0
LWPOLYLINE
  5
2ad
100
AcDbEntity
  8
Layer_1
 62
7
100
AcDbPolyline
 90
1
 70
1
 10
25.032634
 20
6.248267
 30
0.0
  0
LWPOLYLINE
  5
2ae
100
AcDbEntity
  8
Layer_1
 62
7
100
AcDbPolyline
 90
1
 70
1
 10
30.471326
 20
4.864954
 30
0.0
  0
ENDSEC
  0
SECTION
  2
OBJECTS
  0
DICTIONARY
  5
C
330
0
100
AcDbDictionary
  3
ACAD_GROUP
350
D
  3
ACAD_MLINESTYLE
350
17
  0
DICTIONARY
  5
D
330
C
100
AcDbDictionary
  0
DICTIONARY
  5
1A
330
C
100
AcDbDictionary
  0
DICTIONARY
  5
17
330
C
100
AcDbDictionary
  3
STANDARD
350
18
  0
DICTIONARY
  5
19
330
C
100
AcDbDictionary
  0
ENDSEC
  0
EOF
