<?xml version="1.0" encoding="UTF-8" standalone="no"?>
<!-- Created with Inkscape (http://www.inkscape.org/) -->

<svg
   width="31.84948mm"
   height="20.431244mm"
   viewBox="0 0 31.84948 20.431244"
   version="1.1"
   id="svg5"
   inkscape:version="1.1.2 (0a00cf5339, 2022-02-04)"
   sodipodi:docname="hedgehog.svg"
   xmlns:inkscape="http://www.inkscape.org/namespaces/inkscape"
   xmlns:sodipodi="http://sodipodi.sourceforge.net/DTD/sodipodi-0.dtd"
   xmlns="http://www.w3.org/2000/svg"
   xmlns:svg="http://www.w3.org/2000/svg">
  <sodipodi:namedview
     id="namedview7"
     pagecolor="#ffffff"
     bordercolor="#111111"
     borderopacity="1"
     inkscape:pageshadow="0"
     inkscape:pageopacity="0"
     inkscape:pagecheckerboard="1"
     inkscape:document-units="mm"
     showgrid="false"
     inkscape:zoom="5.385964"
     inkscape:cx="56.350172"
     inkscape:cy="41.403916"
     inkscape:window-width="1920"
     inkscape:window-height="986"
     inkscape:window-x="0"
     inkscape:window-y="31"
     inkscape:window-maximized="1"
     inkscape:current-layer="layer1"
     fit-margin-top="0"
     fit-margin-left="0"
     fit-margin-right="0"
     fit-margin-bottom="0" />
  <defs
     id="defs2" />
  <g
     inkscape:label="Layer 1"
     inkscape:groupmode="layer"
     id="layer1"
     transform="translate(-107.58362,-138.5637)">
    <path
       style="fill:#000000;stroke-width:0.0467064"
       d="m 126.74537,158.75216 c -1.48786,-0.37071 -1.60394,-0.45112 -1.60425,-1.11142 -1e-4,-0.19908 0.0185,-0.36197 0.0416,-0.36197 0.0625,0 0.19402,0.35761 0.25776,0.7006 0.031,0.16697 0.0733,0.30358 0.0939,0.30358 0.0645,0 0.39826,-0.59107 0.47991,-0.85015 0.043,-0.13607 0.096,-0.24744 0.11809,-0.24744 0.0831,0 0.40627,0.18908 0.46527,0.2722 0.10971,0.15464 0.24469,0.18965 0.69553,0.18047 0.34588,-0.007 0.47271,0.01 0.59198,0.074 0.21261,0.11617 0.18958,0.15321 -0.0835,0.13429 -0.28303,-0.0196 -0.47873,0.0228 -0.45356,0.0983 0.011,0.0347 0.13071,0.0557 0.3206,0.0567 0.35292,0.001 0.55504,0.10257 0.55504,0.27704 0,0.17731 -0.10738,0.23413 -0.27691,0.14646 -0.32305,-0.16703 -0.89075,-0.19554 -0.89075,-0.0446 0,0.0501 0.0713,0.0666 0.29191,0.0674 0.32793,7.5e-4 0.65115,0.12139 0.73185,0.27216 0.0648,0.12125 0.0643,0.12674 -0.0229,0.2139 -0.10642,0.10642 -0.21831,0.091 -1.31139,-0.18135 z m -11.13256,0.0658 c -1.42517,-0.19399 -1.58803,-0.29386 -1.58803,-0.97383 0,-0.26483 0.008,-0.28534 0.17515,-0.42277 0.22773,-0.18779 0.74296,-0.45444 0.78906,-0.40834 0.0198,0.0198 0.0446,0.29778 0.0552,0.61787 0.011,0.3201 0.0276,0.58199 0.0376,0.58199 0.01,0 0.16194,-0.0956 0.33753,-0.2123 0.28009,-0.18623 0.35922,-0.21565 0.64465,-0.23958 0.2488,-0.0209 0.35766,-0.01 0.4625,0.047 l 0.13717,0.0743 -0.14013,0.001 c -0.31416,0.005 -0.49041,0.0578 -0.49041,0.14642 0,0.0729 0.0232,0.0809 0.15179,0.0522 0.38782,-0.0865 0.64222,-0.005 0.64222,0.20264 0,0.15332 -0.0398,0.16294 -0.33469,0.0809 -0.30398,-0.0846 -0.69285,-0.0515 -0.69285,0.0592 0,0.0522 0.0752,0.0673 0.33862,0.0673 0.40449,1.4e-4 0.65853,0.11768 0.63364,0.29294 -0.0137,0.092 -0.0442,0.10476 -0.27166,0.11067 -0.14131,0.004 -0.54063,-0.0319 -0.88743,-0.079 z m 4.78736,-0.57004 c -0.0395,-0.3021 -0.24002,-0.92276 -0.32628,-1.01069 -0.0938,-0.0956 -0.41857,0.10998 -0.89204,0.56452 l -0.38483,0.36947 -0.0157,-0.53588 c -0.008,-0.29474 -0.0313,-0.55136 -0.0503,-0.57031 -0.0763,-0.0761 -0.80598,0.34232 -1.19805,0.68721 -0.11273,0.0993 -0.2179,0.18016 -0.23355,0.17987 -0.0156,-2.6e-4 -0.0772,-0.20269 -0.13703,-0.44979 -0.0597,-0.24707 -0.12797,-0.50017 -0.1516,-0.56244 l -0.0431,-0.11314 -0.29211,0.20831 c -0.28163,0.20084 -1.42535,0.91765 -1.46416,0.91765 -0.011,0 -0.0189,-0.17571 -0.0189,-0.39049 0,-0.21476 -0.0137,-0.48615 -0.0292,-0.60308 l -0.0293,-0.21257 -0.17571,0.0621 c -0.23121,0.0816 -0.51335,0.25977 -0.89287,0.56389 l -0.30951,0.24802 -0.0314,-0.31964 c -0.0174,-0.17582 -0.0169,-0.48042 7.5e-4,-0.67695 l 0.0324,-0.35732 -0.25196,0.11149 c -0.13857,0.0612 -0.42832,0.22082 -0.6439,0.35451 l -0.39193,0.24309 0.024,-0.63133 0.024,-0.63134 -0.14583,0.10133 c -0.0802,0.0556 -0.34783,0.2549 -0.59471,0.44264 -0.24687,0.18777 -0.46262,0.34137 -0.47947,0.34137 -0.0169,0 -0.0166,-0.26272 5.4e-4,-0.58382 0.0217,-0.40485 0.0159,-0.58383 -0.0191,-0.58383 -0.0276,0 -0.38288,0.12509 -0.78945,0.27787 -0.55681,0.20931 -0.7428,0.26189 -0.75374,0.21313 -0.0174,-0.0772 0.1478,-0.64632 0.27085,-0.93341 0.0481,-0.11218 0.16465,-0.28944 0.25901,-0.39389 l 0.17155,-0.1899 -0.13319,-0.0508 c -0.43484,-0.16557 -0.91187,-0.14181 -1.61905,0.0806 -0.20066,0.0632 -0.38484,0.10806 -0.40925,0.1 -0.068,-0.0227 0.34753,-0.81601 0.60931,-1.16377 0.12783,-0.16973 0.34847,-0.39824 0.49045,-0.50777 0.14199,-0.10957 0.25815,-0.21308 0.25815,-0.23011 0,-0.017 -0.1443,-0.0871 -0.32066,-0.15569 -0.34924,-0.13594 -1.06044,-0.24496 -1.30239,-0.19977 -0.0915,0.0172 -0.15181,0.01 -0.15181,-0.0198 0,-0.0888 0.39456,-0.70952 0.6426,-1.01073 0.2276,-0.27638 0.62956,-0.63537 0.76902,-0.68682 0.038,-0.014 -0.0232,-0.10737 -0.16873,-0.25775 -0.30545,-0.31528 -0.67214,-0.4779 -1.15183,-0.51078 l -0.36654,-0.0251 0.0866,-0.16985 c 0.26789,-0.52511 0.87204,-1.12552 1.3911,-1.38249 0.14795,-0.0733 0.27763,-0.13971 0.28818,-0.1477 0.011,-0.008 -0.0172,-0.0548 -0.0617,-0.10394 -0.14577,-0.16108 -0.54241,-0.29751 -0.95065,-0.32702 l -0.38602,-0.0279 0.17181,-0.25688 c 0.2247,-0.33596 0.85925,-0.96487 1.18404,-1.17355 0.14129,-0.0906 0.39837,-0.22567 0.5713,-0.29977 l 0.3144,-0.1347 -0.11739,-0.12262 c -0.15512,-0.16193 -0.47893,-0.32119 -0.90374,-0.44452 l -0.34566,-0.10037 0.20555,-0.0748 c 0.59571,-0.21685 1.35335,-0.35814 1.922,-0.35844 0.1991,-8e-5 0.36199,-0.0188 0.36199,-0.0419 0,-0.10243 -0.47578,-0.67883 -0.94007,-1.13887 -0.27931,-0.27676 -0.50785,-0.5126 -0.50785,-0.52408 0,-0.011 0.0892,-0.01 0.19852,0.003 0.88608,0.10792 1.29854,0.19653 2.08266,0.44766 0.23995,0.0768 0.44396,0.13209 0.45334,0.12262 0.01,-0.01 -0.011,-0.15449 -0.0467,-0.32241 -0.0805,-0.38421 -0.2902,-0.85001 -0.55104,-1.22339 -0.11108,-0.15903 -0.22027,-0.3188 -0.24261,-0.35505 -0.0342,-0.0556 0.0273,-0.0614 0.39883,-0.0369 0.69111,0.0454 1.47968,0.30638 2.14159,0.70847 0.14947,0.0906 0.28694,0.16507 0.30552,0.16507 0.0452,0 -0.0161,-0.69428 -0.0953,-1.07962 -0.0349,-0.16995 -0.11602,-0.44844 -0.18022,-0.61888 -0.0641,-0.17044 -0.10023,-0.30989 -0.0802,-0.30989 0.02,0 0.18197,0.0496 0.35988,0.11012 0.62991,0.21442 1.23204,0.56877 1.71227,1.00768 0.14245,0.13017 0.26822,0.2367 0.27949,0.2367 0.0419,0 -0.0628,-0.64131 -0.15614,-0.95747 -0.0531,-0.17982 -0.16811,-0.48228 -0.25556,-0.67215 -0.0875,-0.18986 -0.15902,-0.35061 -0.15902,-0.3572 0,-0.007 0.1629,0.0293 0.36199,0.0794 0.51073,0.12879 1.1457,0.44942 1.60163,0.80866 0.29274,0.23062 0.39889,0.29138 0.42561,0.24362 0.12646,-0.22587 0.24184,-0.83904 0.24562,-1.30465 0.001,-0.27597 0.0179,-0.50192 0.0345,-0.50209 0.0658,-5.4e-4 0.72662,0.75045 1.08545,1.23353 l 0.37874,0.50987 0.0291,-0.35334 c 0.0161,-0.19435 0.0755,-0.50786 0.1325,-0.6967 0.10051,-0.33379 0.51405,-1.27141 0.54644,-1.23902 0.01,0.01 0.0877,0.2771 0.17528,0.59603 0.15787,0.57526 0.48336,1.6171 0.52933,1.69435 0.0137,0.0221 0.0814,-0.10751 0.15166,-0.28801 0.15306,-0.39336 0.41545,-0.88044 0.64654,-1.20012 0.19075,-0.26385 0.65798,-0.77067 0.71047,-0.77067 0.0191,0 0.0448,0.39409 0.057,0.87575 0.0233,0.91306 0.0851,1.28092 0.28002,1.66779 l 0.0931,0.18486 0.10394,-0.28705 c 0.15866,-0.43817 0.48412,-0.97388 0.79588,-1.31004 l 0.28111,-0.30308 0.003,0.69516 c 0.004,0.72336 0.0619,1.07087 0.25209,1.50082 l 0.0924,0.2087 0.44256,-0.88082 c 0.24342,-0.48446 0.49504,-0.94388 0.55917,-1.02095 l 0.11658,-0.14013 0.001,0.28026 c 0.003,0.39443 0.11877,1.07724 0.28807,1.69311 0.0794,0.28899 0.15305,0.52545 0.16359,0.52545 0.011,0 0.23408,-0.21702 0.49677,-0.48227 0.26268,-0.26524 0.58051,-0.5521 0.70626,-0.63745 l 0.22865,-0.1552 -0.0346,0.13538 c -0.14265,0.55945 -0.1759,0.8262 -0.19454,1.55992 l -0.0207,0.81734 0.12976,-0.16116 c 0.28771,-0.35732 0.84831,-0.91104 1.14607,-1.13198 0.32808,-0.24347 1.04983,-0.69188 1.11366,-0.69188 0.0202,0 -0.0862,0.25746 -0.23649,0.57216 -0.31497,0.65989 -0.45065,1.0401 -0.54321,1.52206 -0.0759,0.39601 -0.0876,1.06286 -0.0191,1.10518 0.0257,0.0159 0.0467,0.011 0.0467,-0.011 0,-0.13621 1.53889,-1.05924 1.57896,-0.94705 0.008,0.0221 -0.0482,0.16366 -0.12441,0.31475 -0.22886,0.45338 -0.45698,1.08116 -0.58185,1.60122 -0.13948,0.58083 -0.17854,0.79401 -0.14552,0.79401 0.0137,0 0.16394,-0.10573 0.33469,-0.235 0.25289,-0.19145 1.47357,-0.83924 1.58142,-0.83924 0.0161,0 -0.0853,0.12344 -0.22489,0.27427 -0.26113,0.28203 -0.83038,1.31325 -0.83038,1.50425 0,0.0861 0.0148,0.0822 0.17515,-0.0464 0.0964,-0.0772 0.26894,-0.17346 0.3836,-0.2138 0.2635,-0.0927 0.79553,-0.1325 1.09931,-0.0822 l 0.23356,0.0386 -0.38493,0.20175 c -0.47576,0.24934 -0.84602,0.62718 -0.98896,1.00926 -0.0537,0.14314 -0.0975,0.28834 -0.0975,0.3227 0,0.0343 -0.0682,0.0761 -0.1518,0.0927 -0.27145,0.0541 -0.89127,0.39594 -1.23504,0.68124 -0.42023,0.34878 -0.94198,0.94255 -1.32347,1.50615 -0.37733,0.55747 -0.3457,0.53076 -0.49205,0.41564 -0.36467,-0.28684 -0.98457,0.0983 -1.03705,0.64442 -0.0271,0.28175 0.0457,0.50856 0.24847,0.77419 l 0.15734,0.20613 -0.13767,0.33389 c -0.28482,0.69069 -0.53752,1.59868 -0.65562,2.35573 -0.0711,0.4563 -0.0746,1.37247 -0.005,1.6568 0.0277,0.11492 0.0419,0.21745 0.0315,0.22789 -0.011,0.011 -0.18265,-0.0614 -0.38271,-0.15971 -0.20004,-0.0983 -0.38111,-0.1798 -0.40235,-0.18116 -0.0213,-7.6e-4 -0.0777,0.10861 -0.1255,0.24437 -0.0479,0.13579 -0.14958,0.35534 -0.22612,0.48792 l -0.13919,0.24106 -0.033,-0.18434 c -0.0435,-0.2432 -0.29781,-0.90829 -0.34735,-0.90829 -0.0213,0 -0.0953,0.0964 -0.1644,0.21419 -0.13456,0.22964 -0.57923,0.69884 -0.89322,0.94252 l -0.1925,0.14941 -0.0551,-0.42971 c -0.0303,-0.23633 -0.0636,-0.43827 -0.0741,-0.44872 -0.0408,-0.0408 -0.43353,0.15105 -0.70251,0.34297 -0.15544,0.11094 -0.36201,0.28948 -0.45902,0.39687 -0.0971,0.10738 -0.18307,0.18814 -0.19123,0.17943 -0.008,-0.008 -0.0601,-0.1843 -0.11534,-0.39024 -0.14679,-0.54699 -0.12247,-0.53319 -0.53613,-0.30486 -0.39002,0.21528 -1.0121,0.66407 -1.1912,0.85939 -0.0622,0.068 -0.12866,0.12344 -0.1474,0.12344 -0.0188,0 -0.0487,-0.11039 -0.0665,-0.24521 z m 2.48717,-3.03104 c 0.20925,-0.24878 0.22938,-0.29557 0.14865,-0.34547 -0.0273,-0.017 -0.12728,0.0606 -0.22186,0.1722 -0.25097,0.29625 -0.77689,0.78897 -0.79313,0.74304 -0.008,-0.0217 0.0391,-0.20455 0.10394,-0.40632 0.19035,-0.59261 0.31092,-1.15232 0.25936,-1.20388 -0.0733,-0.0733 -0.12069,0.0154 -0.21008,0.39332 -0.0455,0.19267 -0.17415,0.65506 -0.28567,1.02754 -0.11149,0.37249 -0.20302,0.70544 -0.20331,0.73989 -5.5e-4,0.0742 0.91624,-0.78039 1.20215,-1.12032 z m -5.78391,0.51372 c 0.39656,-0.21677 1.27856,-0.79311 1.44083,-0.94148 0.0677,-0.0619 0.0895,-0.11287 0.0608,-0.14155 -0.0287,-0.0287 -0.25195,0.0895 -0.61949,0.328 -0.31602,0.2051 -0.65584,0.42159 -0.75516,0.48114 l -0.18056,0.1082 0.0354,-0.11218 c 0.0195,-0.0617 0.15874,-0.38356 0.30941,-0.71516 0.15065,-0.33159 0.26663,-0.61018 0.25774,-0.61908 -0.01,-0.01 -0.0773,0.004 -0.15218,0.0305 -0.11904,0.0409 -1.2478,0.28075 -1.32061,0.28075 -0.0511,0 0.66913,-0.70405 0.91603,-0.89547 0.23075,-0.17891 0.31417,-0.31891 0.19005,-0.31891 -0.0847,0 -0.68674,0.4778 -0.95278,0.75603 -0.32321,0.33801 -0.69281,0.78528 -0.64893,0.78528 0.0198,0 0.15366,-0.0424 0.29759,-0.0943 0.14392,-0.0519 0.51791,-0.14276 0.83107,-0.20204 l 0.56939,-0.10778 -0.0625,0.14366 c -0.0345,0.0789 -0.19079,0.42527 -0.34752,0.76948 -0.15673,0.34419 -0.28497,0.63321 -0.28497,0.64221 0,0.0401 0.0849,0.004 0.41638,-0.17726 z m -3.51842,-1.70031 c 0.48592,-0.21967 0.90346,-0.41934 0.92786,-0.44373 0.0281,-0.0279 0.0268,-0.0619 -0.003,-0.0921 -0.0327,-0.0325 -0.19517,0.0205 -0.51144,0.16709 -0.255,0.11822 -0.53717,0.24833 -0.6271,0.2892 -0.0899,0.0409 -0.18448,0.0854 -0.21019,0.0987 -0.0264,0.0137 -0.0247,-0.004 0.004,-0.0428 1.04291,-1.38306 1.28247,-1.77214 1.09103,-1.77214 -0.024,0 -0.15671,0.17523 -0.2949,0.38944 -0.27577,0.42746 -0.65951,0.95791 -1.04269,1.44129 -0.22598,0.28505 -0.27659,0.36447 -0.23234,0.36447 0.008,0 0.41319,-0.17972 0.89912,-0.39937 z m 8.13754,-1.31709 c -0.0142,-0.0733 -0.10587,-0.0842 -0.90254,-0.10504 l -0.88685,-0.0235 0.30517,-0.17179 c 0.3737,-0.21037 1.10677,-0.56906 1.30232,-0.63722 0.14499,-0.0505 0.18357,-0.11849 0.0975,-0.1717 -0.0993,-0.0614 -1.41715,0.56325 -2.00858,0.95199 l -0.25688,0.16884 0.25688,0.0273 c 0.14129,0.015 0.67354,0.0309 1.18277,0.035 0.85895,0.007 0.92474,0.001 0.9102,-0.0742 z m -9.4259,-0.0288 c 0,-0.0828 -0.24207,-0.12166 -0.76288,-0.12235 -0.2269,-2.7e-4 -0.40557,-0.0195 -0.39699,-0.0428 0.0178,-0.0485 0.84658,-0.73481 1.15351,-0.95543 l 0.20384,-0.1465 -0.13374,-0.10367 c -0.0736,-0.057 -0.32979,-0.25331 -0.56936,-0.43624 -0.23959,-0.18297 -0.42671,-0.34153 -0.41585,-0.35239 0.0237,-0.0237 1.02971,0.10243 1.38188,0.17334 0.18033,0.0364 0.26445,0.0361 0.30125,-5.5e-4 0.088,-0.088 -0.0179,-0.12976 -0.52811,-0.20809 -0.70316,-0.10793 -1.64468,-0.22224 -1.66488,-0.20204 -0.0357,0.0358 0.53555,0.53914 0.90528,0.79763 0.21159,0.14792 0.39529,0.28608 0.40821,0.307 0.0124,0.0209 -0.0551,0.0971 -0.15116,0.16903 -0.096,0.0721 -0.44761,0.35287 -0.78116,0.62406 l -0.60647,0.49309 0.55976,0.0257 c 1.07754,0.0493 1.0969,0.0489 1.0969,-0.0195 z m 6.39834,-1.60582 c -5.4e-4,-0.11946 -0.40475,-0.63806 -0.91695,-1.17673 -0.24622,-0.25894 -0.41901,-0.46121 -0.38399,-0.44948 0.59114,0.19804 1.42535,0.44687 1.49812,0.44687 0.0746,0 0.0888,-0.0221 0.0681,-0.10504 -0.0146,-0.0578 -0.0794,-0.33628 -0.14444,-0.61885 -0.0651,-0.28258 -0.13854,-0.59726 -0.16343,-0.69929 -0.0249,-0.10202 -0.0375,-0.19328 -0.0281,-0.20275 0.01,-0.01 0.18171,0.11767 0.38273,0.28266 0.5282,0.43343 0.99487,0.78285 1.04555,0.78285 0.0242,0 0.0431,-0.0368 0.042,-0.0817 -7.5e-4,-0.0492 -0.21729,-0.23988 -0.54271,-0.47875 -0.29747,-0.21835 -0.68628,-0.53106 -0.86399,-0.69492 -0.17771,-0.16388 -0.33152,-0.28953 -0.34182,-0.27924 -0.01,0.01 0.0763,0.42457 0.19252,0.92066 0.11616,0.49605 0.19937,0.91381 0.18486,0.92831 -0.0323,0.0323 -0.6622,-0.15072 -1.37101,-0.398 -0.28899,-0.10078 -0.52545,-0.17358 -0.52545,-0.16165 0,0.0405 0.24518,0.31481 0.79941,0.89401 0.30453,0.31825 0.64333,0.71167 0.75289,0.87428 0.19731,0.29281 0.31638,0.37466 0.31553,0.21685 z m 5.79206,-1.78207 c 0,-0.0232 -0.25726,-0.29494 -0.57168,-0.60376 -0.31444,-0.30883 -0.55862,-0.57459 -0.54263,-0.59057 0.0161,-0.0159 0.17339,0.0342 0.34982,0.11136 0.70225,0.30722 1.3024,0.55366 1.31665,0.54066 0.008,-0.007 -0.0485,-0.22063 -0.12578,-0.47353 -0.12453,-0.40685 -0.28628,-1.04301 -0.28628,-1.12629 0,-0.0166 0.12467,0.16862 0.27719,0.41157 0.27686,0.44124 0.60732,0.83875 0.69723,0.83875 0.13305,0 0.0838,-0.12523 -0.14356,-0.36475 -0.13878,-0.14619 -0.43579,-0.56335 -0.66,-0.92701 -0.39623,-0.6426 -0.59483,-0.90288 -0.52869,-0.69291 0.0161,0.0511 0.0508,0.20866 0.0772,0.34995 0.0611,0.32745 0.37301,1.49189 0.42862,1.59969 0.0275,0.0534 0.0247,0.0817 -0.008,0.0817 -0.05,0 -0.70177,-0.26212 -1.53303,-0.61652 -0.23963,-0.10215 -0.44723,-0.17423 -0.46131,-0.16014 -0.058,0.058 0.83653,1.04023 1.3081,1.43642 0.25406,0.21343 0.40626,0.2829 0.40626,0.18541 z m -11.17112,-0.21744 c -0.01,-0.043 -0.38383,-0.24724 -0.9127,-0.49731 -0.49368,-0.23343 -0.88812,-0.43979 -0.87652,-0.45855 0.011,-0.0188 0.41551,-0.0479 0.8976,-0.0645 1.12614,-0.0391 1.32024,-0.0621 1.32024,-0.15609 0,-0.0641 -0.0799,-0.0692 -0.66556,-0.0413 -0.36608,0.0174 -0.98084,0.0435 -1.36617,0.0578 -0.38533,0.0144 -0.73095,0.036 -0.76805,0.0478 -0.0456,0.0144 -0.0154,0.0537 0.0934,0.12097 0.23763,0.14703 2.15899,1.06301 2.23104,1.06361 0.0339,2.6e-4 0.0551,-0.0323 0.0467,-0.0724 z m 14.13253,-1.78818 c 0.0137,-0.0217 -0.005,-0.43603 -0.0419,-0.92069 -0.0364,-0.48465 -0.0592,-0.88816 -0.0508,-0.89671 0.027,-0.0272 0.62767,0.65151 0.92822,1.04922 0.16434,0.21746 0.32509,0.38422 0.37146,0.38534 0.045,7.4e-4 0.0817,-0.0161 0.0817,-0.0378 0,-0.10504 -1.01641,-1.34534 -1.4028,-1.71175 l -0.19701,-0.18683 0.0293,0.37365 c 0.0161,0.20551 0.0508,0.69944 0.0772,1.0976 0.0264,0.3982 0.0592,0.76073 0.0733,0.8057 0.0269,0.0869 0.091,0.10751 0.1314,0.0423 z m -12.58295,-0.89463 c 0,-0.0321 -0.26712,-0.24453 -1.13623,-0.90336 -0.16701,-0.1266 -0.20125,-0.17089 -0.13223,-0.17089 0.0989,0 1.0628,0.18919 1.51365,0.2971 0.19885,0.0477 0.26856,0.0501 0.26856,0.01 0,-0.0299 -0.0842,-0.30468 -0.18682,-0.61053 -0.10271,-0.30587 -0.18682,-0.57299 -0.18682,-0.59362 0,-0.0205 0.0864,0.025 0.19173,0.10133 0.2606,0.18877 0.65147,0.32815 1.01574,0.36216 0.28219,0.0264 0.30059,0.0224 0.26942,-0.0589 -0.0184,-0.0481 -0.0461,-0.32556 -0.0619,-0.61691 l -0.0283,-0.52975 0.28742,0.28123 c 0.29898,0.29256 0.53812,0.44774 0.61591,0.39966 0.0811,-0.0501 0.0481,-0.11204 -0.10093,-0.18916 -0.0805,-0.0416 -0.33581,-0.25759 -0.56742,-0.47995 l -0.42113,-0.40429 0.0308,0.60719 c 0.0169,0.33395 0.0444,0.65768 0.061,0.71941 0.0295,0.10916 0.0247,0.11136 -0.17558,0.0805 -0.38126,-0.0589 -0.6402,-0.17295 -1.027,-0.45229 -0.21171,-0.15288 -0.39172,-0.27117 -0.40003,-0.26285 -0.008,0.008 0.0919,0.33545 0.22273,0.72698 0.13085,0.39153 0.22893,0.72076 0.21806,0.73163 -0.011,0.011 -0.092,-7.5e-4 -0.18015,-0.0265 -0.47087,-0.1358 -2.052,-0.41386 -2.052,-0.36093 0,0.0124 0.29951,0.25016 0.66557,0.52857 0.36607,0.27843 0.77891,0.59476 0.91744,0.70298 0.22302,0.17421 0.37867,0.21998 0.37867,0.11135 z m 4.78886,-0.74968 c 0.0427,-0.0691 -0.18715,-0.73902 -0.40692,-1.18619 -0.10175,-0.20686 -0.21415,-0.44514 -0.24996,-0.52951 l -0.0651,-0.15342 0.33692,0.2333 c 0.18531,0.12824 0.50847,0.37073 0.71812,0.53874 0.20967,0.16799 0.4041,0.30544 0.43206,0.30544 0.17483,0 -0.0794,-0.27614 -0.67316,-0.73149 -0.3456,-0.26501 -1.15958,-0.81012 -1.17968,-0.79003 -0.011,0.011 0.14717,0.37352 0.35133,0.80573 0.3133,0.66319 0.41951,0.9297 0.59702,1.49812 0.0222,0.071 0.098,0.0762 0.13938,0.01 z m 2.18459,-0.37602 c -0.064,-0.78045 -0.10985,-1.59658 -0.0908,-1.61558 0.0137,-0.0137 0.14616,0.35634 0.29554,0.82117 0.14936,0.46481 0.28509,0.84528 0.30159,0.84549 0.0165,1.3e-4 0.0412,-0.0258 0.0548,-0.058 0.25206,-0.59683 0.79065,-1.79314 0.82095,-1.82346 0.0228,-0.0228 0.0649,0.16042 0.0967,0.41864 0.0309,0.25246 0.0703,0.5729 0.0875,0.71209 0.0172,0.13919 0.053,0.26027 0.0795,0.26907 0.0266,0.01 0.38382,-0.23827 0.79401,-0.54904 0.41018,-0.31078 0.80245,-0.5947 0.87169,-0.63092 l 0.12591,-0.0659 -0.0859,0.24509 c -0.0472,0.13483 -0.1617,0.42034 -0.25433,0.63455 -0.18294,0.4231 -0.20259,0.52132 -0.10435,0.52132 0.0733,0 0.43709,-0.78783 0.63726,-1.38002 0.0916,-0.27086 0.11548,-0.39484 0.0761,-0.39484 -0.10916,0 -0.80316,0.46346 -1.35958,0.90802 -0.30735,0.24556 -0.57532,0.44647 -0.59551,0.44647 -0.0202,0 -0.0368,-0.0684 -0.0369,-0.15179 -4e-4,-0.24423 -0.18809,-1.45572 -0.23244,-1.50044 -0.0443,-0.0446 -0.43218,0.73341 -0.75033,1.50576 l -0.1994,0.48406 -0.31224,-0.94144 c -0.32226,-0.97175 -0.38765,-1.10846 -0.47051,-0.98379 -0.0759,0.11424 0.0391,2.25014 0.12907,2.39579 0.0463,0.0748 0.13113,-0.003 0.1222,-0.11231 z m 6.40227,12.67387 c -0.10669,-0.33368 -0.30301,-0.44577 -0.8102,-0.46251 l -0.34882,-0.011 -0.0691,-0.1775 c -0.0511,-0.13154 -0.0692,-0.38344 -0.0696,-0.97153 -5.3e-4,-0.68676 0.0163,-0.87289 0.12454,-1.37784 0.1277,-0.59484 0.3178,-1.22629 0.53412,-1.77355 0.0663,-0.16768 0.1255,-0.311 0.13154,-0.31847 0.005,-0.007 0.082,0.0269 0.16872,0.0762 0.0868,0.0494 0.21718,0.10367 0.28991,0.12042 0.10889,0.0253 0.12949,0.0165 0.11672,-0.05 -0.008,-0.0446 -0.0809,-0.0975 -0.16225,-0.11863 -0.33622,-0.0872 -0.81062,-0.66967 -0.81062,-0.99543 0,-0.30077 0.33747,-0.72394 0.57736,-0.72394 0.34912,0 0.68171,0.6069 0.68317,1.24665 5.2e-4,0.22393 0.0584,0.34589 0.13003,0.27424 0.0685,-0.0685 5.5e-4,-0.67009 -0.11218,-0.9974 l -0.11905,-0.34496 0.26851,-0.40453 c 0.69433,-1.04615 1.44671,-1.77303 2.18135,-2.10746 0.54594,-0.24851 0.49858,-0.2714 0.82175,0.39711 0.48418,1.00161 1.07769,1.83902 1.78687,2.52117 1.05115,1.01111 2.16326,1.5139 3.38701,1.53126 l 0.52022,0.007 0.0259,0.21951 c 0.0324,0.27425 0.17594,0.56112 0.34059,0.68108 l 0.12591,0.0918 -0.1799,0.2987 c -0.95419,1.58442 -1.90022,2.14362 -3.62641,2.14362 -0.91643,0 -1.59366,-0.18795 -2.10329,-0.58373 -0.30032,-0.23323 -0.41795,-0.20174 -0.1766,0.0474 0.47382,0.48886 1.64512,0.77612 2.76381,0.67784 0.2701,-0.0238 0.58963,-0.068 0.71001,-0.0982 0.12042,-0.0303 0.22985,-0.0442 0.24321,-0.0309 0.0415,0.0415 -0.50342,0.34449 -0.80152,0.44578 -0.63627,0.21619 -1.56617,0.33749 -3.28982,0.4291 -1.25275,0.0666 -2.16051,0.16944 -2.69739,0.30564 -0.54012,0.13703 -0.52159,0.13593 -0.55442,0.0331 z m 4.37535,-5.19748 c 0.2026,-0.10847 0.29862,-0.54629 0.1779,-0.81124 -0.0671,-0.14739 -0.3772,-0.27713 -0.56413,-0.23606 -0.26424,0.0579 -0.40926,0.52583 -0.25136,0.81079 0.0674,0.12152 0.32601,0.27948 0.46292,0.28265 0.0465,7.5e-4 0.12523,-0.0196 0.17467,-0.0461 z m 5.43872,1.38335 c -0.26469,-0.11767 -0.36743,-0.27965 -0.38865,-0.61288 -0.0163,-0.25647 -4.2e-4,-0.34069 0.10531,-0.55683 0.21275,-0.43483 0.64653,-0.71112 1.02691,-0.65408 0.43206,0.0647 0.63423,0.30985 0.63423,0.76877 0,0.29656 -0.0824,0.49635 -0.30754,0.74553 -0.31368,0.3472 -0.72068,0.46489 -1.0703,0.30949 z"
       id="path836" />
  </g>
</svg>
