  0
SECTION
  2
HEADER
  9
$ACADVER
  1
AC1014
  9
$HANDSEED
  5
FFFF
  9
$MEASUREMENT
 70
     1
  0
ENDSEC
  0
SECTION
  2
TABLES
  0
TABLE
  2
VPORT
  5
8
330
0
100
AcDbSymbolTable
 70
     4
  0
VPORT
  5
2E
330
8
100
AcDbSymbolTableRecord
100
AcDbViewportTableRecord
  2
*ACTIVE
 70
     0
 10
0.0
 20
0.0
 11
1.0
 21
1.0
 12
210.0
 22
148.5
 13
0.0
 23
0.0
 14
10.0
 24
10.0
 15
10.0
 25
10.0
 16
0.0
 26
0.0
 36
1.0
 17
0.0
 27
0.0
 37
0.0
 40
341.0
 41
1.24
 42
50.0
 43
0.0
 44
0.0
 50
0.0
 51
0.0
 71
     0
 72
   100
 73
     1
 74
     3
 75
     0
 76
     0
 77
     0
 78
     0
  0
ENDTAB
  0
TABLE
  2
LTYPE
  5
5
330
0
100
AcDbSymbolTable
 70
     1
  0
LTYPE
  5
14
330
5
100
AcDbSymbolTableRecord
100
AcDbLinetypeTableRecord
  2
BYBLOCK
 70
     0
  3

 72
    65
 73
     0
 40
0.0
  0
LTYPE
  5
15
330
5
100
AcDbSymbolTableRecord
100
AcDbLinetypeTableRecord
  2
BYLAYER
 70
     0
  3

 72
    65
 73
     0
 40
0.0
  0
LTYPE
  5
16
330
5
100
AcDbSymbolTableRecord
100
AcDbLinetypeTableRecord
  2
CONTINUOUS
 70
     0
  3
Solid line
 72
    65
 73
     0
 40
0.0
  0
ENDTAB
  0
TABLE
  2
LAYER
  5
2
100
AcDbSymbolTable
 70
9
  0
LAYER
  5
50
100
AcDbSymbolTableRecord
100
AcDbLayerTableRecord
  2
0
 70
0
  6
CONTINUOUS
  0
LAYER
  5
51
100
AcDbSymbolTableRecord
100
AcDbLayerTableRecord
  2
References
 70
0
  6
CONTINUOUS
  0
LAYER
  5
52
100
AcDbSymbolTableRecord
100
AcDbLayerTableRecord
  2
Base
 70
0
  6
CONTINUOUS
  0
LAYER
  5
53
100
AcDbSymbolTableRecord
100
AcDbLayerTableRecord
  2
holes
 70
0
  6
CONTINUOUS
  0
LAYER
  5
54
100
AcDbSymbolTableRecord
100
AcDbLayerTableRecord
  2
center
 70
0
  6
CONTINUOUS
  0
LAYER
  5
55
100
AcDbSymbolTableRecord
100
AcDbLayerTableRecord
  2
top
 70
0
  6
CONTINUOUS
  0
LAYER
  5
56
100
AcDbSymbolTableRecord
100
AcDbLayerTableRecord
  2
bottom
 70
0
  6
CONTINUOUS
  0
LAYER
  5
57
100
AcDbSymbolTableRecord
100
AcDbLayerTableRecord
  2
15-magnets
 70
0
  6
CONTINUOUS
  0
LAYER
  5
58
100
AcDbSymbolTableRecord
100
AcDbLayerTableRecord
  2
10-magnets
 70
0
  6
CONTINUOUS
  0
ENDTAB
  0
TABLE
  2
STYLE
  5
3
330
0
100
AcDbSymbolTable
 70
     1
  0
STYLE
  5
11
330
3
100
AcDbSymbolTableRecord
100
AcDbTextStyleTableRecord
  2
STANDARD
 70
     0
 40
0.0
 41
1.0
 50
0.0
 71
     0
 42
2.5
  3
txt
  4

  0
ENDTAB
  0
TABLE
  2
VIEW
  5
6
330
0
100
AcDbSymbolTable
 70
     0
  0
ENDTAB
  0
TABLE
  2
UCS
  5
7
330
0
100
AcDbSymbolTable
 70
     0
  0
ENDTAB
  0
TABLE
  2
APPID
  5
9
330
0
100
AcDbSymbolTable
 70
     2
  0
APPID
  5
12
330
9
100
AcDbSymbolTableRecord
100
AcDbRegAppTableRecord
  2
ACAD
 70
     0
  0
ENDTAB
  0
TABLE
  2
DIMSTYLE
  5
A
330
0
100
AcDbSymbolTable
 70
     1
  0
DIMSTYLE
105
27
330
A
100
AcDbSymbolTableRecord
100
AcDbDimStyleTableRecord
  2
ISO-25
 70
     0
  3

  4

  5

  6

  7

 40
1.0
 41
2.5
 42
0.625
 43
3.75
 44
1.25
 45
0.0
 46
0.0
 47
0.0
 48
0.0
140
2.5
141
2.5
142
0.0
143
0.03937007874016
144
1.0
145
0.0
146
1.0
147
0.625
 71
     0
 72
     0
 73
     0
 74
     0
 75
     0
 76
     0
 77
     1
 78
     8
170
     0
171
     3
172
     1
173
     0
174
     0
175
     0
176
     0
177
     0
178
     0
270
     2
271
     2
272
     2
273
     2
274
     3
340
11
275
     0
280
     0
281
     0
282
     0
283
     0
284
     8
285
     0
286
     0
287
     3
288
     0
  0
ENDTAB
  0
TABLE
  2
BLOCK_RECORD
  5
1
330
0
100
AcDbSymbolTable
 70
     1
  0
BLOCK_RECORD
  5
1F
330
1
100
AcDbSymbolTableRecord
100
AcDbBlockTableRecord
  2
*MODEL_SPACE
  0
BLOCK_RECORD
  5
1B
330
1
100
AcDbSymbolTableRecord
100
AcDbBlockTableRecord
  2
*PAPER_SPACE
  0
ENDTAB
  0
ENDSEC
  0
SECTION
  2
BLOCKS
  0
BLOCK
  5
20
330
1F
100
AcDbEntity
  8
0
100
AcDbBlockBegin
  2
*MODEL_SPACE
 70
     0
 10
0.0
 20
0.0
 30
0.0
  3
*MODEL_SPACE
  1

  0
ENDBLK
  5
21
330
1F
100
AcDbEntity
  8
0
100
AcDbBlockEnd
  0
BLOCK
  5
1C
330
1B
100
AcDbEntity
 67
     1
  8
0
100
AcDbBlockBegin
  2
*PAPER_SPACE
  1

  0
ENDBLK
  5
1D
330
1B
100
AcDbEntity
 67
     1
  8
0
100
AcDbBlockEnd
  0
ENDSEC
  0
SECTION
  2
ENTITIES
  0
SPLINE
  5
100
100
AcDbEntity
  8
Base
 62
7
100
AcDbSpline
 70
8
 71
3
 72
8
 73
4
 74
0
 40
0
 40
0
 40
0
 40
0
 40
1
 40
1
 40
1
 40
1
 10
153.365720
 20
100.736007
 30
0.0
 10
154.505872
 20
100.656378
 30
0.0
 10
155.557504
 20
100.092827
 30
0.0
 10
156.255219
 20
99.187575
 30
0.0
  0
SPLINE
  5
101
100
AcDbEntity
  8
Base
 62
7
100
AcDbSpline
 70
8
 71
3
 72
8
 73
4
 74
0
 40
0
 40
0
 40
0
 40
0
 40
1
 40
1
 40
1
 40
1
 10
156.255219
 20
99.187575
 30
0.0
 10
156.952934
 20
98.282322
 30
0.0
 10
157.230082
 20
97.121845
 30
0.0
 10
157.016720
 20
95.999007
 30
0.0
  0
LWPOLYLINE
  5
102
100
AcDbEntity
  8
Base
 62
7
100
AcDbPolyline
 90
2
 70
0
 10
117.954720
 20
103.212007
 30
0.0
 10
153.365720
 20
100.736007
 30
0.0
  0
SPLINE
  5
103
100
AcDbEntity
  8
Base
 62
7
100
AcDbSpline
 70
8
 71
3
 72
8
 73
4
 74
0
 40
0
 40
0
 40
0
 40
0
 40
1
 40
1
 40
1
 40
1
 10
155.032720
 20
15.282010
 30
0.0
 10
155.644944
 20
13.179517
 30
0.0
 10
155.063118
 20
10.910470
 30
0.0
 10
153.514720
 20
9.362000
 30
0.0
  0
LWPOLYLINE
  5
104
100
AcDbEntity
  8
Base
 62
7
100
AcDbPolyline
 90
3
 70
0
 10
157.016720
 20
95.999007
 30
0.0
 10
146.951720
 20
43.032007
 30
0.0
 10
155.032720
 20
15.282010
 30
0.0
  0
SPLINE
  5
105
100
AcDbEntity
  8
Base
 62
7
100
AcDbSpline
 70
8
 71
3
 72
8
 73
4
 74
0
 40
0
 40
0
 40
0
 40
0
 40
1
 40
1
 40
1
 40
1
 10
145.906720
 20
1.754000
 30
0.0
 10
143.958233
 20
-0.194440
 30
0.0
 10
140.933079
 20
-0.565212
 30
0.0
 10
138.571720
 20
0.855000
 30
0.0
  0
LWPOLYLINE
  5
106
100
AcDbEntity
  8
Base
 62
7
100
AcDbPolyline
 90
2
 70
0
 10
153.514720
 20
9.362000
 30
0.0
 10
145.906720
 20
1.754000
 30
0.0
  0
SPLINE
  5
107
100
AcDbEntity
  8
Base
 62
7
100
AcDbSpline
 70
8
 71
3
 72
8
 73
4
 74
0
 40
0
 40
0
 40
0
 40
0
 40
1
 40
1
 40
1
 40
1
 10
102.624720
 20
22.475007
 30
0.0
 10
101.981055
 20
22.862201
 30
0.0
 10
101.270408
 20
23.125089
 30
0.0
 10
100.529720
 20
23.250007
 30
0.0
  0
LWPOLYLINE
  5
108
100
AcDbEntity
  8
Base
 62
7
100
AcDbPolyline
 90
2
 70
0
 10
138.571720
 20
0.855000
 30
0.0
 10
102.624720
 20
22.475007
 30
0.0
  0
SPLINE
  5
109
100
AcDbEntity
  8
Base
 62
7
100
AcDbSpline
 70
8
 71
3
 72
8
 73
4
 74
0
 40
0
 40
0
 40
0
 40
0
 40
1
 40
1
 40
1
 40
1
 10
27.268712
 20
35.601007
 30
0.0
 10
26.320119
 20
35.761107
 30
0.0
 10
25.423929
 20
36.146952
 30
0.0
 10
24.655712
 20
36.726007
 30
0.0
  0
LWPOLYLINE
  5
10a
100
AcDbEntity
  8
Base
 62
7
100
AcDbPolyline
 90
2
 70
0
 10
100.529720
 20
23.250007
 30
0.0
 10
27.268712
 20
35.601007
 30
0.0
  0
SPLINE
  5
10b
100
AcDbEntity
  8
Base
 62
7
100
AcDbSpline
 70
8
 71
3
 72
8
 73
4
 74
0
 40
0
 40
0
 40
0
 40
0
 40
1
 40
1
 40
1
 40
1
 10
5.900712
 20
50.858007
 30
0.0
 10
4.902098
 20
51.610861
 30
0.0
 10
4.163689
 20
52.656939
 30
0.0
 10
3.788712
 20
53.850007
 30
0.0
  0
LWPOLYLINE
  5
10c
100
AcDbEntity
  8
Base
 62
7
100
AcDbPolyline
 90
2
 70
0
 10
24.655712
 20
36.726007
 30
0.0
 10
5.900712
 20
50.858007
 30
0.0
  0
SPLINE
  5
10d
100
AcDbEntity
  8
Base
 62
7
100
AcDbSpline
 70
8
 71
3
 72
8
 73
4
 74
0
 40
0
 40
0
 40
0
 40
0
 40
1
 40
1
 40
1
 40
1
 10
0.315712
 20
64.891007
 30
0.0
 10
-0.386585
 20
67.123016
 30
0.0
 10
0.272743
 20
69.559677
 30
0.0
 10
2.004712
 20
71.133007
 30
0.0
  0
LWPOLYLINE
  5
10e
100
AcDbEntity
  8
Base
 62
7
100
AcDbPolyline
 90
2
 70
0
 10
3.788712
 20
53.850007
 30
0.0
 10
0.315712
 20
64.891007
 30
0.0
  0
SPLINE
  5
10f
100
AcDbEntity
  8
Base
 62
7
100
AcDbSpline
 70
8
 71
3
 72
8
 73
4
 74
0
 40
0
 40
0
 40
0
 40
0
 40
1
 40
1
 40
1
 40
1
 10
40.811712
 20
106.375007
 30
0.0
 10
41.809942
 20
107.281618
 30
0.0
 10
43.084473
 20
107.825531
 30
0.0
 10
44.429712
 20
107.919007
 30
0.0
  0
LWPOLYLINE
  5
110
100
AcDbEntity
  8
Base
 62
7
100
AcDbPolyline
 90
2
 70
0
 10
2.004712
 20
71.133007
 30
0.0
 10
40.811712
 20
106.375007
 30
0.0
  0
SPLINE
  5
111
100
AcDbEntity
  8
Base
 62
7
100
AcDbSpline
 70
8
 71
3
 72
8
 73
4
 74
0
 40
0
 40
0
 40
0
 40
0
 40
1
 40
1
 40
1
 40
1
 10
61.574712
 20
110.574007
 30
0.0
 10
61.574712
 20
111.104440
 30
0.0
 10
61.785426
 20
111.613148
 30
0.0
 10
62.160498
 20
111.988221
 30
0.0
  0
SPLINE
  5
112
100
AcDbEntity
  8
Base
 62
7
100
AcDbSpline
 70
8
 71
3
 72
8
 73
4
 74
0
 40
0
 40
0
 40
0
 40
0
 40
1
 40
1
 40
1
 40
1
 10
62.160498
 20
111.988221
 30
0.0
 10
62.535571
 20
112.363293
 30
0.0
 10
63.044279
 20
112.574007
 30
0.0
 10
63.574712
 20
112.574007
 30
0.0
  0
LWPOLYLINE
  5
113
100
AcDbEntity
  8
Base
 62
7
100
AcDbPolyline
 90
3
 70
0
 10
44.429712
 20
107.919007
 30
0.0
 10
61.574712
 20
109.110007
 30
0.0
 10
61.574712
 20
110.574007
 30
0.0
  0
SPLINE
  5
114
100
AcDbEntity
  8
Base
 62
7
100
AcDbSpline
 70
8
 71
3
 72
8
 73
4
 74
0
 40
0
 40
0
 40
0
 40
0
 40
1
 40
1
 40
1
 40
1
 10
81.424712
 20
112.574007
 30
0.0
 10
81.955145
 20
112.574007
 30
0.0
 10
82.463853
 20
112.363293
 30
0.0
 10
82.838926
 20
111.988221
 30
0.0
  0
SPLINE
  5
115
100
AcDbEntity
  8
Base
 62
7
100
AcDbSpline
 70
8
 71
3
 72
8
 73
4
 74
0
 40
0
 40
0
 40
0
 40
0
 40
1
 40
1
 40
1
 40
1
 10
82.838926
 20
111.988221
 30
0.0
 10
83.213998
 20
111.613148
 30
0.0
 10
83.424712
 20
111.104440
 30
0.0
 10
83.424712
 20
110.574007
 30
0.0
  0
LWPOLYLINE
  5
116
100
AcDbEntity
  8
Base
 62
7
100
AcDbPolyline
 90
2
 70
0
 10
63.574712
 20
112.574007
 30
0.0
 10
81.424712
 20
112.574007
 30
0.0
  0
SPLINE
  5
117
100
AcDbEntity
  8
Base
 62
7
100
AcDbSpline
 70
8
 71
3
 72
8
 73
4
 74
0
 40
0
 40
0
 40
0
 40
0
 40
1
 40
1
 40
1
 40
1
 10
102.624720
 20
106.189007
 30
0.0
 10
103.687900
 20
106.114614
 30
0.0
 10
104.505971
 20
105.219575
 30
0.0
 10
104.484720
 20
104.154007
 30
0.0
  0
LWPOLYLINE
  5
118
100
AcDbEntity
  8
Base
 62
7
100
AcDbPolyline
 90
3
 70
0
 10
83.424712
 20
110.574007
 30
0.0
 10
83.424712
 20
107.531007
 30
0.0
 10
102.624720
 20
106.189007
 30
0.0
  0
SPLINE
  5
119
100
AcDbEntity
  8
Base
 62
7
100
AcDbSpline
 70
8
 71
3
 72
8
 73
4
 74
0
 40
0
 40
0
 40
0
 40
0
 40
1
 40
1
 40
1
 40
1
 10
38.159712
 20
95.914007
 30
0.0
 10
38.159712
 20
96.306999
 30
0.0
 10
38.369371
 20
96.670139
 30
0.0
 10
38.709712
 20
96.866635
 30
0.0
  0
SPLINE
  5
11a
100
AcDbEntity
  8
Base
 62
7
100
AcDbSpline
 70
8
 71
3
 72
8
 73
4
 74
0
 40
0
 40
0
 40
0
 40
0
 40
1
 40
1
 40
1
 40
1
 10
38.709712
 20
96.866635
 30
0.0
 10
39.050053
 20
97.063131
 30
0.0
 10
39.469371
 20
97.063131
 30
0.0
 10
39.809712
 20
96.866635
 30
0.0
  0
SPLINE
  5
11b
100
AcDbEntity
  8
Base
 62
7
100
AcDbSpline
 70
8
 71
3
 72
8
 73
4
 74
0
 40
0
 40
0
 40
0
 40
0
 40
1
 40
1
 40
1
 40
1
 10
39.809712
 20
96.866635
 30
0.0
 10
40.150053
 20
96.670139
 30
0.0
 10
40.359712
 20
96.306999
 30
0.0
 10
40.359712
 20
95.914007
 30
0.0
  0
SPLINE
  5
11c
100
AcDbEntity
  8
Base
 62
7
100
AcDbSpline
 70
8
 71
3
 72
8
 73
4
 74
0
 40
0
 40
0
 40
0
 40
0
 40
1
 40
1
 40
1
 40
1
 10
40.359712
 20
95.914007
 30
0.0
 10
40.359712
 20
95.521015
 30
0.0
 10
40.150053
 20
95.157875
 30
0.0
 10
39.809712
 20
94.961379
 30
0.0
  0
SPLINE
  5
11d
100
AcDbEntity
  8
Base
 62
7
100
AcDbSpline
 70
8
 71
3
 72
8
 73
4
 74
0
 40
0
 40
0
 40
0
 40
0
 40
1
 40
1
 40
1
 40
1
 10
39.809712
 20
94.961379
 30
0.0
 10
39.469371
 20
94.764883
 30
0.0
 10
39.050053
 20
94.764883
 30
0.0
 10
38.709712
 20
94.961379
 30
0.0
  0
SPLINE
  5
11e
100
AcDbEntity
  8
Base
 62
7
100
AcDbSpline
 70
8
 71
3
 72
8
 73
4
 74
0
 40
0
 40
0
 40
0
 40
0
 40
1
 40
1
 40
1
 40
1
 10
38.709712
 20
94.961379
 30
0.0
 10
38.369371
 20
95.157875
 30
0.0
 10
38.159712
 20
95.521015
 30
0.0
 10
38.159712
 20
95.914007
 30
0.0
  0
LWPOLYLINE
  5
11f
100
AcDbEntity
  8
Base
 62
7
100
AcDbPolyline
 90
3
 70
0
 10
104.484720
 20
104.154007
 30
0.0
 10
117.953720
 20
103.212007
 30
0.0
 10
117.954720
 20
103.212007
 30
0.0
  0
SPLINE
  5
120
100
AcDbEntity
  8
Base
 62
7
100
AcDbSpline
 70
8
 71
3
 72
8
 73
4
 74
0
 40
0
 40
0
 40
0
 40
0
 40
1
 40
1
 40
1
 40
1
 10
18.174712
 20
51.624007
 30
0.0
 10
18.174712
 20
52.016999
 30
0.0
 10
18.384371
 20
52.380139
 30
0.0
 10
18.724712
 20
52.576635
 30
0.0
  0
SPLINE
  5
121
100
AcDbEntity
  8
Base
 62
7
100
AcDbSpline
 70
8
 71
3
 72
8
 73
4
 74
0
 40
0
 40
0
 40
0
 40
0
 40
1
 40
1
 40
1
 40
1
 10
18.724712
 20
52.576635
 30
0.0
 10
19.065053
 20
52.773131
 30
0.0
 10
19.484371
 20
52.773131
 30
0.0
 10
19.824712
 20
52.576635
 30
0.0
  0
SPLINE
  5
122
100
AcDbEntity
  8
Base
 62
7
100
AcDbSpline
 70
8
 71
3
 72
8
 73
4
 74
0
 40
0
 40
0
 40
0
 40
0
 40
1
 40
1
 40
1
 40
1
 10
19.824712
 20
52.576635
 30
0.0
 10
20.165053
 20
52.380139
 30
0.0
 10
20.374712
 20
52.016999
 30
0.0
 10
20.374712
 20
51.624007
 30
0.0
  0
SPLINE
  5
123
100
AcDbEntity
  8
Base
 62
7
100
AcDbSpline
 70
8
 71
3
 72
8
 73
4
 74
0
 40
0
 40
0
 40
0
 40
0
 40
1
 40
1
 40
1
 40
1
 10
20.374712
 20
51.624007
 30
0.0
 10
20.374712
 20
51.231015
 30
0.0
 10
20.165053
 20
50.867875
 30
0.0
 10
19.824712
 20
50.671379
 30
0.0
  0
SPLINE
  5
124
100
AcDbEntity
  8
Base
 62
7
100
AcDbSpline
 70
8
 71
3
 72
8
 73
4
 74
0
 40
0
 40
0
 40
0
 40
0
 40
1
 40
1
 40
1
 40
1
 10
19.824712
 20
50.671379
 30
0.0
 10
19.484371
 20
50.474883
 30
0.0
 10
19.065053
 20
50.474883
 30
0.0
 10
18.724712
 20
50.671379
 30
0.0
  0
SPLINE
  5
125
100
AcDbEntity
  8
Base
 62
7
100
AcDbSpline
 70
8
 71
3
 72
8
 73
4
 74
0
 40
0
 40
0
 40
0
 40
0
 40
1
 40
1
 40
1
 40
1
 10
18.724712
 20
50.671379
 30
0.0
 10
18.384371
 20
50.867875
 30
0.0
 10
18.174712
 20
51.231015
 30
0.0
 10
18.174712
 20
51.624007
 30
0.0
  0
LWPOLYLINE
  5
126
100
AcDbEntity
  8
Base
 62
7
100
AcDbPolyline
 90
1
 70
1
 10
38.159712
 20
95.914007
 30
0.0
  0
SPLINE
  5
127
100
AcDbEntity
  8
Base
 62
7
100
AcDbSpline
 70
8
 71
3
 72
8
 73
4
 74
0
 40
0
 40
0
 40
0
 40
0
 40
1
 40
1
 40
1
 40
1
 10
102.129720
 20
86.124007
 30
0.0
 10
102.129720
 20
86.516999
 30
0.0
 10
102.339379
 20
86.880139
 30
0.0
 10
102.679720
 20
87.076635
 30
0.0
  0
SPLINE
  5
128
100
AcDbEntity
  8
Base
 62
7
100
AcDbSpline
 70
8
 71
3
 72
8
 73
4
 74
0
 40
0
 40
0
 40
0
 40
0
 40
1
 40
1
 40
1
 40
1
 10
102.679720
 20
87.076635
 30
0.0
 10
103.020061
 20
87.273131
 30
0.0
 10
103.439379
 20
87.273131
 30
0.0
 10
103.779720
 20
87.076635
 30
0.0
  0
SPLINE
  5
129
100
AcDbEntity
  8
Base
 62
7
100
AcDbSpline
 70
8
 71
3
 72
8
 73
4
 74
0
 40
0
 40
0
 40
0
 40
0
 40
1
 40
1
 40
1
 40
1
 10
103.779720
 20
87.076635
 30
0.0
 10
104.120061
 20
86.880139
 30
0.0
 10
104.329720
 20
86.516999
 30
0.0
 10
104.329720
 20
86.124007
 30
0.0
  0
SPLINE
  5
12a
100
AcDbEntity
  8
Base
 62
7
100
AcDbSpline
 70
8
 71
3
 72
8
 73
4
 74
0
 40
0
 40
0
 40
0
 40
0
 40
1
 40
1
 40
1
 40
1
 10
104.329720
 20
86.124007
 30
0.0
 10
104.329720
 20
85.731015
 30
0.0
 10
104.120061
 20
85.367875
 30
0.0
 10
103.779720
 20
85.171379
 30
0.0
  0
SPLINE
  5
12b
100
AcDbEntity
  8
Base
 62
7
100
AcDbSpline
 70
8
 71
3
 72
8
 73
4
 74
0
 40
0
 40
0
 40
0
 40
0
 40
1
 40
1
 40
1
 40
1
 10
103.779720
 20
85.171379
 30
0.0
 10
103.439379
 20
84.974883
 30
0.0
 10
103.020061
 20
84.974883
 30
0.0
 10
102.679720
 20
85.171379
 30
0.0
  0
SPLINE
  5
12c
100
AcDbEntity
  8
Base
 62
7
100
AcDbSpline
 70
8
 71
3
 72
8
 73
4
 74
0
 40
0
 40
0
 40
0
 40
0
 40
1
 40
1
 40
1
 40
1
 10
102.679720
 20
85.171379
 30
0.0
 10
102.339379
 20
85.367875
 30
0.0
 10
102.129720
 20
85.731015
 30
0.0
 10
102.129720
 20
86.124007
 30
0.0
  0
LWPOLYLINE
  5
12d
100
AcDbEntity
  8
Base
 62
7
100
AcDbPolyline
 90
1
 70
1
 10
18.174712
 20
51.624007
 30
0.0
  0
SPLINE
  5
12e
100
AcDbEntity
  8
Base
 62
7
100
AcDbSpline
 70
8
 71
3
 72
8
 73
4
 74
0
 40
0
 40
0
 40
0
 40
0
 40
1
 40
1
 40
1
 40
1
 10
100.129720
 20
44.564007
 30
0.0
 10
100.129720
 20
44.956999
 30
0.0
 10
100.339379
 20
45.320139
 30
0.0
 10
100.679720
 20
45.516635
 30
0.0
  0
SPLINE
  5
12f
100
AcDbEntity
  8
Base
 62
7
100
AcDbSpline
 70
8
 71
3
 72
8
 73
4
 74
0
 40
0
 40
0
 40
0
 40
0
 40
1
 40
1
 40
1
 40
1
 10
100.679720
 20
45.516635
 30
0.0
 10
101.020061
 20
45.713131
 30
0.0
 10
101.439379
 20
45.713131
 30
0.0
 10
101.779720
 20
45.516635
 30
0.0
  0
SPLINE
  5
130
100
AcDbEntity
  8
Base
 62
7
100
AcDbSpline
 70
8
 71
3
 72
8
 73
4
 74
0
 40
0
 40
0
 40
0
 40
0
 40
1
 40
1
 40
1
 40
1
 10
101.779720
 20
45.516635
 30
0.0
 10
102.120061
 20
45.320139
 30
0.0
 10
102.329720
 20
44.956999
 30
0.0
 10
102.329720
 20
44.564007
 30
0.0
  0
SPLINE
  5
131
100
AcDbEntity
  8
Base
 62
7
100
AcDbSpline
 70
8
 71
3
 72
8
 73
4
 74
0
 40
0
 40
0
 40
0
 40
0
 40
1
 40
1
 40
1
 40
1
 10
102.329720
 20
44.564007
 30
0.0
 10
102.329720
 20
44.171015
 30
0.0
 10
102.120061
 20
43.807875
 30
0.0
 10
101.779720
 20
43.611379
 30
0.0
  0
SPLINE
  5
132
100
AcDbEntity
  8
Base
 62
7
100
AcDbSpline
 70
8
 71
3
 72
8
 73
4
 74
0
 40
0
 40
0
 40
0
 40
0
 40
1
 40
1
 40
1
 40
1
 10
101.779720
 20
43.611379
 30
0.0
 10
101.439379
 20
43.414883
 30
0.0
 10
101.020061
 20
43.414883
 30
0.0
 10
100.679720
 20
43.611379
 30
0.0
  0
SPLINE
  5
133
100
AcDbEntity
  8
Base
 62
7
100
AcDbSpline
 70
8
 71
3
 72
8
 73
4
 74
0
 40
0
 40
0
 40
0
 40
0
 40
1
 40
1
 40
1
 40
1
 10
100.679720
 20
43.611379
 30
0.0
 10
100.339379
 20
43.807875
 30
0.0
 10
100.129720
 20
44.171015
 30
0.0
 10
100.129720
 20
44.564007
 30
0.0
  0
LWPOLYLINE
  5
134
100
AcDbEntity
  8
Base
 62
7
100
AcDbPolyline
 90
1
 70
1
 10
102.129720
 20
86.124007
 30
0.0
  0
SPLINE
  5
135
100
AcDbEntity
  8
Base
 62
7
100
AcDbSpline
 70
8
 71
3
 72
8
 73
4
 74
0
 40
0
 40
0
 40
0
 40
0
 40
1
 40
1
 40
1
 40
1
 10
144.739720
 20
25.364007
 30
0.0
 10
144.739720
 20
25.756999
 30
0.0
 10
144.949379
 20
26.120139
 30
0.0
 10
145.289720
 20
26.316635
 30
0.0
  0
SPLINE
  5
136
100
AcDbEntity
  8
Base
 62
7
100
AcDbSpline
 70
8
 71
3
 72
8
 73
4
 74
0
 40
0
 40
0
 40
0
 40
0
 40
1
 40
1
 40
1
 40
1
 10
145.289720
 20
26.316635
 30
0.0
 10
145.630061
 20
26.513131
 30
0.0
 10
146.049379
 20
26.513131
 30
0.0
 10
146.389720
 20
26.316635
 30
0.0
  0
SPLINE
  5
137
100
AcDbEntity
  8
Base
 62
7
100
AcDbSpline
 70
8
 71
3
 72
8
 73
4
 74
0
 40
0
 40
0
 40
0
 40
0
 40
1
 40
1
 40
1
 40
1
 10
146.389720
 20
26.316635
 30
0.0
 10
146.730061
 20
26.120139
 30
0.0
 10
146.939720
 20
25.756999
 30
0.0
 10
146.939720
 20
25.364007
 30
0.0
  0
SPLINE
  5
138
100
AcDbEntity
  8
Base
 62
7
100
AcDbSpline
 70
8
 71
3
 72
8
 73
4
 74
0
 40
0
 40
0
 40
0
 40
0
 40
1
 40
1
 40
1
 40
1
 10
146.939720
 20
25.364007
 30
0.0
 10
146.939720
 20
24.971015
 30
0.0
 10
146.730061
 20
24.607875
 30
0.0
 10
146.389720
 20
24.411379
 30
0.0
  0
SPLINE
  5
139
100
AcDbEntity
  8
Base
 62
7
100
AcDbSpline
 70
8
 71
3
 72
8
 73
4
 74
0
 40
0
 40
0
 40
0
 40
0
 40
1
 40
1
 40
1
 40
1
 10
146.389720
 20
24.411379
 30
0.0
 10
146.049379
 20
24.214883
 30
0.0
 10
145.630061
 20
24.214883
 30
0.0
 10
145.289720
 20
24.411379
 30
0.0
  0
SPLINE
  5
13a
100
AcDbEntity
  8
Base
 62
7
100
AcDbSpline
 70
8
 71
3
 72
8
 73
4
 74
0
 40
0
 40
0
 40
0
 40
0
 40
1
 40
1
 40
1
 40
1
 10
145.289720
 20
24.411379
 30
0.0
 10
144.949379
 20
24.607875
 30
0.0
 10
144.739720
 20
24.971015
 30
0.0
 10
144.739720
 20
25.364007
 30
0.0
  0
LWPOLYLINE
  5
13b
100
AcDbEntity
  8
Base
 62
7
100
AcDbPolyline
 90
1
 70
1
 10
100.129720
 20
44.564007
 30
0.0
  0
SPLINE
  5
13c
100
AcDbEntity
  8
center
 62
7
100
AcDbSpline
 70
8
 71
3
 72
8
 73
4
 74
0
 40
0
 40
0
 40
0
 40
0
 40
1
 40
1
 40
1
 40
1
 10
106.482990
 20
66.998676
 30
0.0
 10
106.482990
 20
66.321711
 30
0.0
 10
106.214067
 20
65.672473
 30
0.0
 10
105.735380
 20
65.193787
 30
0.0
  0
SPLINE
  5
13d
100
AcDbEntity
  8
center
 62
7
100
AcDbSpline
 70
8
 71
3
 72
8
 73
4
 74
0
 40
0
 40
0
 40
0
 40
0
 40
1
 40
1
 40
1
 40
1
 10
105.735380
 20
65.193787
 30
0.0
 10
105.256693
 20
64.715100
 30
0.0
 10
104.607455
 20
64.446177
 30
0.0
 10
103.930490
 20
64.446178
 30
0.0
  0
SPLINE
  5
13e
100
AcDbEntity
  8
center
 62
7
100
AcDbSpline
 70
8
 71
3
 72
8
 73
4
 74
0
 40
0
 40
0
 40
0
 40
0
 40
1
 40
1
 40
1
 40
1
 10
103.930490
 20
64.446178
 30
0.0
 10
103.253525
 20
64.446177
 30
0.0
 10
102.604287
 20
64.715100
 30
0.0
 10
102.125600
 20
65.193787
 30
0.0
  0
SPLINE
  5
13f
100
AcDbEntity
  8
center
 62
7
100
AcDbSpline
 70
8
 71
3
 72
8
 73
4
 74
0
 40
0
 40
0
 40
0
 40
0
 40
1
 40
1
 40
1
 40
1
 10
102.125600
 20
65.193787
 30
0.0
 10
101.646913
 20
65.672473
 30
0.0
 10
101.377990
 20
66.321711
 30
0.0
 10
101.377990
 20
66.998676
 30
0.0
  0
SPLINE
  5
140
100
AcDbEntity
  8
center
 62
7
100
AcDbSpline
 70
8
 71
3
 72
8
 73
4
 74
0
 40
0
 40
0
 40
0
 40
0
 40
1
 40
1
 40
1
 40
1
 10
101.377990
 20
66.998676
 30
0.0
 10
101.377990
 20
67.675641
 30
0.0
 10
101.646913
 20
68.324879
 30
0.0
 10
102.125600
 20
68.803565
 30
0.0
  0
SPLINE
  5
141
100
AcDbEntity
  8
center
 62
7
100
AcDbSpline
 70
8
 71
3
 72
8
 73
4
 74
0
 40
0
 40
0
 40
0
 40
0
 40
1
 40
1
 40
1
 40
1
 10
102.125600
 20
68.803565
 30
0.0
 10
102.604287
 20
69.282252
 30
0.0
 10
103.253525
 20
69.551175
 30
0.0
 10
103.930490
 20
69.551174
 30
0.0
  0
SPLINE
  5
142
100
AcDbEntity
  8
center
 62
7
100
AcDbSpline
 70
8
 71
3
 72
8
 73
4
 74
0
 40
0
 40
0
 40
0
 40
0
 40
1
 40
1
 40
1
 40
1
 10
103.930490
 20
69.551174
 30
0.0
 10
104.607455
 20
69.551175
 30
0.0
 10
105.256693
 20
69.282252
 30
0.0
 10
105.735380
 20
68.803565
 30
0.0
  0
SPLINE
  5
143
100
AcDbEntity
  8
center
 62
7
100
AcDbSpline
 70
8
 71
3
 72
8
 73
4
 74
0
 40
0
 40
0
 40
0
 40
0
 40
1
 40
1
 40
1
 40
1
 10
105.735380
 20
68.803565
 30
0.0
 10
106.214067
 20
68.324879
 30
0.0
 10
106.482990
 20
67.675641
 30
0.0
 10
106.482990
 20
66.998676
 30
0.0
  0
LWPOLYLINE
  5
144
100
AcDbEntity
  8
Base
 62
7
100
AcDbPolyline
 90
1
 70
1
 10
144.739720
 20
25.364007
 30
0.0
  0
SPLINE
  5
145
100
AcDbEntity
  8
center
 62
7
100
AcDbSpline
 70
8
 71
3
 72
8
 73
4
 74
0
 40
0
 40
0
 40
0
 40
0
 40
1
 40
1
 40
1
 40
1
 10
54.108605
 20
67.460219
 30
0.0
 10
54.108605
 20
66.783254
 30
0.0
 10
53.839682
 20
66.134015
 30
0.0
 10
53.360995
 20
65.655329
 30
0.0
  0
SPLINE
  5
146
100
AcDbEntity
  8
center
 62
7
100
AcDbSpline
 70
8
 71
3
 72
8
 73
4
 74
0
 40
0
 40
0
 40
0
 40
0
 40
1
 40
1
 40
1
 40
1
 10
53.360995
 20
65.655329
 30
0.0
 10
52.882309
 20
65.176642
 30
0.0
 10
52.233070
 20
64.907719
 30
0.0
 10
51.556105
 20
64.907719
 30
0.0
  0
SPLINE
  5
147
100
AcDbEntity
  8
center
 62
7
100
AcDbSpline
 70
8
 71
3
 72
8
 73
4
 74
0
 40
0
 40
0
 40
0
 40
0
 40
1
 40
1
 40
1
 40
1
 10
51.556105
 20
64.907719
 30
0.0
 10
50.146398
 20
64.907719
 30
0.0
 10
49.003606
 20
66.050512
 30
0.0
 10
49.003606
 20
67.460219
 30
0.0
  0
SPLINE
  5
148
100
AcDbEntity
  8
center
 62
7
100
AcDbSpline
 70
8
 71
3
 72
8
 73
4
 74
0
 40
0
 40
0
 40
0
 40
0
 40
1
 40
1
 40
1
 40
1
 10
49.003606
 20
67.460219
 30
0.0
 10
49.003606
 20
68.869926
 30
0.0
 10
50.146398
 20
70.012719
 30
0.0
 10
51.556105
 20
70.012719
 30
0.0
  0
SPLINE
  5
149
100
AcDbEntity
  8
center
 62
7
100
AcDbSpline
 70
8
 71
3
 72
8
 73
4
 74
0
 40
0
 40
0
 40
0
 40
0
 40
1
 40
1
 40
1
 40
1
 10
51.556105
 20
70.012719
 30
0.0
 10
52.233070
 20
70.012719
 30
0.0
 10
52.882309
 20
69.743796
 30
0.0
 10
53.360995
 20
69.265109
 30
0.0
  0
SPLINE
  5
14a
100
AcDbEntity
  8
center
 62
7
100
AcDbSpline
 70
8
 71
3
 72
8
 73
4
 74
0
 40
0
 40
0
 40
0
 40
0
 40
1
 40
1
 40
1
 40
1
 10
53.360995
 20
69.265109
 30
0.0
 10
53.839682
 20
68.786423
 30
0.0
 10
54.108605
 20
68.137184
 30
0.0
 10
54.108605
 20
67.460219
 30
0.0
  0
LWPOLYLINE
  5
14b
100
AcDbEntity
  8
center
 62
7
100
AcDbPolyline
 90
1
 70
1
 10
106.482990
 20
66.998676
 30
0.0
  0
SPLINE
  5
14c
100
AcDbEntity
  8
center
 62
7
100
AcDbSpline
 70
8
 71
3
 72
8
 73
4
 74
0
 40
0
 40
0
 40
0
 40
0
 40
1
 40
1
 40
1
 40
1
 10
80.295800
 20
67.314656
 30
0.0
 10
80.295800
 20
65.904949
 30
0.0
 10
79.153007
 20
64.762156
 30
0.0
 10
77.743300
 20
64.762155
 30
0.0
  0
SPLINE
  5
14d
100
AcDbEntity
  8
center
 62
7
100
AcDbSpline
 70
8
 71
3
 72
8
 73
4
 74
0
 40
0
 40
0
 40
0
 40
0
 40
1
 40
1
 40
1
 40
1
 10
77.743300
 20
64.762155
 30
0.0
 10
76.333593
 20
64.762156
 30
0.0
 10
75.190800
 20
65.904949
 30
0.0
 10
75.190800
 20
67.314656
 30
0.0
  0
SPLINE
  5
14e
100
AcDbEntity
  8
center
 62
7
100
AcDbSpline
 70
8
 71
3
 72
8
 73
4
 74
0
 40
0
 40
0
 40
0
 40
0
 40
1
 40
1
 40
1
 40
1
 10
75.190800
 20
67.314656
 30
0.0
 10
75.190800
 20
68.724363
 30
0.0
 10
76.333593
 20
69.867156
 30
0.0
 10
77.743300
 20
69.867157
 30
0.0
  0
SPLINE
  5
14f
100
AcDbEntity
  8
center
 62
7
100
AcDbSpline
 70
8
 71
3
 72
8
 73
4
 74
0
 40
0
 40
0
 40
0
 40
0
 40
1
 40
1
 40
1
 40
1
 10
77.743300
 20
69.867157
 30
0.0
 10
79.153007
 20
69.867156
 30
0.0
 10
80.295800
 20
68.724363
 30
0.0
 10
80.295800
 20
67.314656
 30
0.0
  0
LWPOLYLINE
  5
150
100
AcDbEntity
  8
center
 62
7
100
AcDbPolyline
 90
1
 70
1
 10
54.108605
 20
67.460219
 30
0.0
  0
SPLINE
  5
151
100
AcDbEntity
  8
top
 62
7
100
AcDbSpline
 70
8
 71
3
 72
8
 73
4
 74
0
 40
0
 40
0
 40
0
 40
0
 40
1
 40
1
 40
1
 40
1
 10
67.202201
 20
85.656402
 30
0.0
 10
67.202201
 20
84.979437
 30
0.0
 10
66.933277
 20
84.330198
 30
0.0
 10
66.454591
 20
83.851512
 30
0.0
  0
SPLINE
  5
152
100
AcDbEntity
  8
top
 62
7
100
AcDbSpline
 70
8
 71
3
 72
8
 73
4
 74
0
 40
0
 40
0
 40
0
 40
0
 40
1
 40
1
 40
1
 40
1
 10
66.454591
 20
83.851512
 30
0.0
 10
65.975904
 20
83.372825
 30
0.0
 10
65.326665
 20
83.103902
 30
0.0
 10
64.649700
 20
83.103902
 30
0.0
  0
SPLINE
  5
153
100
AcDbEntity
  8
top
 62
7
100
AcDbSpline
 70
8
 71
3
 72
8
 73
4
 74
0
 40
0
 40
0
 40
0
 40
0
 40
1
 40
1
 40
1
 40
1
 10
64.649700
 20
83.103902
 30
0.0
 10
63.972735
 20
83.103902
 30
0.0
 10
63.323496
 20
83.372825
 30
0.0
 10
62.844809
 20
83.851512
 30
0.0
  0
SPLINE
  5
154
100
AcDbEntity
  8
top
 62
7
100
AcDbSpline
 70
8
 71
3
 72
8
 73
4
 74
0
 40
0
 40
0
 40
0
 40
0
 40
1
 40
1
 40
1
 40
1
 10
62.844809
 20
83.851512
 30
0.0
 10
62.366123
 20
84.330198
 30
0.0
 10
62.097199
 20
84.979437
 30
0.0
 10
62.097199
 20
85.656402
 30
0.0
  0
SPLINE
  5
155
100
AcDbEntity
  8
top
 62
7
100
AcDbSpline
 70
8
 71
3
 72
8
 73
4
 74
0
 40
0
 40
0
 40
0
 40
0
 40
1
 40
1
 40
1
 40
1
 10
62.097199
 20
85.656402
 30
0.0
 10
62.097200
 20
87.066109
 30
0.0
 10
63.239993
 20
88.208901
 30
0.0
 10
64.649700
 20
88.208901
 30
0.0
  0
SPLINE
  5
156
100
AcDbEntity
  8
top
 62
7
100
AcDbSpline
 70
8
 71
3
 72
8
 73
4
 74
0
 40
0
 40
0
 40
0
 40
0
 40
1
 40
1
 40
1
 40
1
 10
64.649700
 20
88.208901
 30
0.0
 10
66.059407
 20
88.208901
 30
0.0
 10
67.202200
 20
87.066109
 30
0.0
 10
67.202201
 20
85.656402
 30
0.0
  0
LWPOLYLINE
  5
157
100
AcDbEntity
  8
center
 62
7
100
AcDbPolyline
 90
1
 70
1
 10
80.295800
 20
67.314656
 30
0.0
  0
SPLINE
  5
158
100
AcDbEntity
  8
top
 62
7
100
AcDbSpline
 70
8
 71
3
 72
8
 73
4
 74
0
 40
0
 40
0
 40
0
 40
0
 40
1
 40
1
 40
1
 40
1
 10
93.389389
 20
86.229495
 30
0.0
 10
93.389389
 20
85.552530
 30
0.0
 10
93.120466
 20
84.903291
 30
0.0
 10
92.641779
 20
84.424604
 30
0.0
  0
SPLINE
  5
159
100
AcDbEntity
  8
top
 62
7
100
AcDbSpline
 70
8
 71
3
 72
8
 73
4
 74
0
 40
0
 40
0
 40
0
 40
0
 40
1
 40
1
 40
1
 40
1
 10
92.641779
 20
84.424604
 30
0.0
 10
92.163092
 20
83.945917
 30
0.0
 10
91.513853
 20
83.676994
 30
0.0
 10
90.836888
 20
83.676994
 30
0.0
  0
SPLINE
  5
15a
100
AcDbEntity
  8
top
 62
7
100
AcDbSpline
 70
8
 71
3
 72
8
 73
4
 74
0
 40
0
 40
0
 40
0
 40
0
 40
1
 40
1
 40
1
 40
1
 10
90.836888
 20
83.676994
 30
0.0
 10
89.427181
 20
83.676994
 30
0.0
 10
88.284388
 20
84.819788
 30
0.0
 10
88.284388
 20
86.229495
 30
0.0
  0
SPLINE
  5
15b
100
AcDbEntity
  8
top
 62
7
100
AcDbSpline
 70
8
 71
3
 72
8
 73
4
 74
0
 40
0
 40
0
 40
0
 40
0
 40
1
 40
1
 40
1
 40
1
 10
88.284388
 20
86.229495
 30
0.0
 10
88.284388
 20
87.639202
 30
0.0
 10
89.427181
 20
88.781996
 30
0.0
 10
90.836888
 20
88.781996
 30
0.0
  0
SPLINE
  5
15c
100
AcDbEntity
  8
top
 62
7
100
AcDbSpline
 70
8
 71
3
 72
8
 73
4
 74
0
 40
0
 40
0
 40
0
 40
0
 40
1
 40
1
 40
1
 40
1
 10
90.836888
 20
88.781996
 30
0.0
 10
91.513853
 20
88.781996
 30
0.0
 10
92.163092
 20
88.513073
 30
0.0
 10
92.641779
 20
88.034386
 30
0.0
  0
SPLINE
  5
15d
100
AcDbEntity
  8
top
 62
7
100
AcDbSpline
 70
8
 71
3
 72
8
 73
4
 74
0
 40
0
 40
0
 40
0
 40
0
 40
1
 40
1
 40
1
 40
1
 10
92.641779
 20
88.034386
 30
0.0
 10
93.120466
 20
87.555699
 30
0.0
 10
93.389389
 20
86.906460
 30
0.0
 10
93.389389
 20
86.229495
 30
0.0
  0
LWPOLYLINE
  5
15e
100
AcDbEntity
  8
top
 62
7
100
AcDbPolyline
 90
1
 70
1
 10
67.202201
 20
85.656402
 30
0.0
  0
SPLINE
  5
15f
100
AcDbEntity
  8
bottom
 62
7
100
AcDbSpline
 70
8
 71
3
 72
8
 73
4
 74
0
 40
0
 40
0
 40
0
 40
0
 40
1
 40
1
 40
1
 40
1
 10
67.202199
 20
50.229817
 30
0.0
 10
67.202199
 20
49.552852
 30
0.0
 10
66.933275
 20
48.903614
 30
0.0
 10
66.454589
 20
48.424927
 30
0.0
  0
SPLINE
  5
160
100
AcDbEntity
  8
bottom
 62
7
100
AcDbSpline
 70
8
 71
3
 72
8
 73
4
 74
0
 40
0
 40
0
 40
0
 40
0
 40
1
 40
1
 40
1
 40
1
 10
66.454589
 20
48.424927
 30
0.0
 10
65.975902
 20
47.946241
 30
0.0
 10
65.326664
 20
47.677318
 30
0.0
 10
64.649699
 20
47.677318
 30
0.0
  0
SPLINE
  5
161
100
AcDbEntity
  8
bottom
 62
7
100
AcDbSpline
 70
8
 71
3
 72
8
 73
4
 74
0
 40
0
 40
0
 40
0
 40
0
 40
1
 40
1
 40
1
 40
1
 10
64.649699
 20
47.677318
 30
0.0
 10
63.239992
 20
47.677318
 30
0.0
 10
62.097199
 20
48.820110
 30
0.0
 10
62.097199
 20
50.229817
 30
0.0
  0
SPLINE
  5
162
100
AcDbEntity
  8
bottom
 62
7
100
AcDbSpline
 70
8
 71
3
 72
8
 73
4
 74
0
 40
0
 40
0
 40
0
 40
0
 40
1
 40
1
 40
1
 40
1
 10
62.097199
 20
50.229817
 30
0.0
 10
62.097199
 20
50.906782
 30
0.0
 10
62.366122
 20
51.556021
 30
0.0
 10
62.844809
 20
52.034707
 30
0.0
  0
SPLINE
  5
163
100
AcDbEntity
  8
bottom
 62
7
100
AcDbSpline
 70
8
 71
3
 72
8
 73
4
 74
0
 40
0
 40
0
 40
0
 40
0
 40
1
 40
1
 40
1
 40
1
 10
62.844809
 20
52.034707
 30
0.0
 10
63.323495
 20
52.513394
 30
0.0
 10
63.972734
 20
52.782317
 30
0.0
 10
64.649699
 20
52.782317
 30
0.0
  0
SPLINE
  5
164
100
AcDbEntity
  8
bottom
 62
7
100
AcDbSpline
 70
8
 71
3
 72
8
 73
4
 74
0
 40
0
 40
0
 40
0
 40
0
 40
1
 40
1
 40
1
 40
1
 10
64.649699
 20
52.782317
 30
0.0
 10
65.326664
 20
52.782317
 30
0.0
 10
65.975903
 20
52.513394
 30
0.0
 10
66.454589
 20
52.034707
 30
0.0
  0
SPLINE
  5
165
100
AcDbEntity
  8
bottom
 62
7
100
AcDbSpline
 70
8
 71
3
 72
8
 73
4
 74
0
 40
0
 40
0
 40
0
 40
0
 40
1
 40
1
 40
1
 40
1
 10
66.454589
 20
52.034707
 30
0.0
 10
66.933276
 20
51.556021
 30
0.0
 10
67.202199
 20
50.906782
 30
0.0
 10
67.202199
 20
50.229817
 30
0.0
  0
LWPOLYLINE
  5
166
100
AcDbEntity
  8
top
 62
7
100
AcDbPolyline
 90
1
 70
1
 10
93.389389
 20
86.229495
 30
0.0
  0
SPLINE
  5
167
100
AcDbEntity
  8
bottom
 62
7
100
AcDbSpline
 70
8
 71
3
 72
8
 73
4
 74
0
 40
0
 40
0
 40
0
 40
0
 40
1
 40
1
 40
1
 40
1
 10
93.389395
 20
49.725346
 30
0.0
 10
93.389394
 20
48.315640
 30
0.0
 10
92.246601
 20
47.172847
 30
0.0
 10
90.836895
 20
47.172847
 30
0.0
  0
SPLINE
  5
168
100
AcDbEntity
  8
bottom
 62
7
100
AcDbSpline
 70
8
 71
3
 72
8
 73
4
 74
0
 40
0
 40
0
 40
0
 40
0
 40
1
 40
1
 40
1
 40
1
 10
90.836895
 20
47.172847
 30
0.0
 10
89.427189
 20
47.172848
 30
0.0
 10
88.284397
 20
48.315640
 30
0.0
 10
88.284396
 20
49.725346
 30
0.0
  0
SPLINE
  5
169
100
AcDbEntity
  8
bottom
 62
7
100
AcDbSpline
 70
8
 71
3
 72
8
 73
4
 74
0
 40
0
 40
0
 40
0
 40
0
 40
1
 40
1
 40
1
 40
1
 10
88.284396
 20
49.725346
 30
0.0
 10
88.284396
 20
51.135052
 30
0.0
 10
89.427189
 20
52.277845
 30
0.0
 10
90.836895
 20
52.277846
 30
0.0
  0
SPLINE
  5
16a
100
AcDbEntity
  8
bottom
 62
7
100
AcDbSpline
 70
8
 71
3
 72
8
 73
4
 74
0
 40
0
 40
0
 40
0
 40
0
 40
1
 40
1
 40
1
 40
1
 10
90.836895
 20
52.277846
 30
0.0
 10
92.246602
 20
52.277846
 30
0.0
 10
93.389395
 20
51.135053
 30
0.0
 10
93.389395
 20
49.725346
 30
0.0
  0
LWPOLYLINE
  5
16b
100
AcDbEntity
  8
bottom
 62
7
100
AcDbPolyline
 90
1
 70
1
 10
67.202199
 20
50.229817
 30
0.0
  0
SPLINE
  5
16c
100
AcDbEntity
  8
10-magnets
 62
7
100
AcDbSpline
 70
8
 71
3
 72
8
 73
4
 74
0
 40
0
 40
0
 40
0
 40
0
 40
1
 40
1
 40
1
 40
1
 10
29.377486
 20
67.296427
 30
0.0
 10
29.377486
 20
64.535003
 30
0.0
 10
27.138910
 20
62.296427
 30
0.0
 10
24.377486
 20
62.296427
 30
0.0
  0
SPLINE
  5
16d
100
AcDbEntity
  8
10-magnets
 62
7
100
AcDbSpline
 70
8
 71
3
 72
8
 73
4
 74
0
 40
0
 40
0
 40
0
 40
0
 40
1
 40
1
 40
1
 40
1
 10
24.377486
 20
62.296427
 30
0.0
 10
23.051403
 20
62.296427
 30
0.0
 10
21.779634
 20
62.823211
 30
0.0
 10
20.841951
 20
63.760893
 30
0.0
  0
SPLINE
  5
16e
100
AcDbEntity
  8
10-magnets
 62
7
100
AcDbSpline
 70
8
 71
3
 72
8
 73
4
 74
0
 40
0
 40
0
 40
0
 40
0
 40
1
 40
1
 40
1
 40
1
 10
20.841951
 20
63.760893
 30
0.0
 10
19.904269
 20
64.698575
 30
0.0
 10
19.377485
 20
65.970344
 30
0.0
 10
19.377485
 20
67.296427
 30
0.0
  0
SPLINE
  5
16f
100
AcDbEntity
  8
10-magnets
 62
7
100
AcDbSpline
 70
8
 71
3
 72
8
 73
4
 74
0
 40
0
 40
0
 40
0
 40
0
 40
1
 40
1
 40
1
 40
1
 10
19.377485
 20
67.296427
 30
0.0
 10
19.377485
 20
68.622510
 30
0.0
 10
19.904269
 20
69.894279
 30
0.0
 10
20.841951
 20
70.831961
 30
0.0
  0
SPLINE
  5
170
100
AcDbEntity
  8
10-magnets
 62
7
100
AcDbSpline
 70
8
 71
3
 72
8
 73
4
 74
0
 40
0
 40
0
 40
0
 40
0
 40
1
 40
1
 40
1
 40
1
 10
20.841951
 20
70.831961
 30
0.0
 10
21.779634
 20
71.769643
 30
0.0
 10
23.051403
 20
72.296427
 30
0.0
 10
24.377486
 20
72.296427
 30
0.0
  0
SPLINE
  5
171
100
AcDbEntity
  8
10-magnets
 62
7
100
AcDbSpline
 70
8
 71
3
 72
8
 73
4
 74
0
 40
0
 40
0
 40
0
 40
0
 40
1
 40
1
 40
1
 40
1
 10
24.377486
 20
72.296427
 30
0.0
 10
27.138910
 20
72.296427
 30
0.0
 10
29.377486
 20
70.057851
 30
0.0
 10
29.377486
 20
67.296427
 30
0.0
  0
LWPOLYLINE
  5
172
100
AcDbEntity
  8
bottom
 62
7
100
AcDbPolyline
 90
1
 70
1
 10
93.389395
 20
49.725346
 30
0.0
  0
SPLINE
  5
173
100
AcDbEntity
  8
10-magnets
 62
7
100
AcDbSpline
 70
8
 71
3
 72
8
 73
4
 74
0
 40
0
 40
0
 40
0
 40
0
 40
1
 40
1
 40
1
 40
1
 10
120.184740
 20
93.083708
 30
0.0
 10
120.184740
 20
90.322284
 30
0.0
 10
117.946164
 20
88.083708
 30
0.0
 10
115.184740
 20
88.083708
 30
0.0
  0
SPLINE
  5
174
100
AcDbEntity
  8
10-magnets
 62
7
100
AcDbSpline
 70
8
 71
3
 72
8
 73
4
 74
0
 40
0
 40
0
 40
0
 40
0
 40
1
 40
1
 40
1
 40
1
 10
115.184740
 20
88.083708
 30
0.0
 10
112.423316
 20
88.083708
 30
0.0
 10
110.184740
 20
90.322284
 30
0.0
 10
110.184740
 20
93.083708
 30
0.0
  0
SPLINE
  5
175
100
AcDbEntity
  8
10-magnets
 62
7
100
AcDbSpline
 70
8
 71
3
 72
8
 73
4
 74
0
 40
0
 40
0
 40
0
 40
0
 40
1
 40
1
 40
1
 40
1
 10
110.184740
 20
93.083708
 30
0.0
 10
110.184740
 20
95.845132
 30
0.0
 10
112.423316
 20
98.083708
 30
0.0
 10
115.184740
 20
98.083708
 30
0.0
  0
SPLINE
  5
176
100
AcDbEntity
  8
10-magnets
 62
7
100
AcDbSpline
 70
8
 71
3
 72
8
 73
4
 74
0
 40
0
 40
0
 40
0
 40
0
 40
1
 40
1
 40
1
 40
1
 10
115.184740
 20
98.083708
 30
0.0
 10
117.946164
 20
98.083708
 30
0.0
 10
120.184740
 20
95.845132
 30
0.0
 10
120.184740
 20
93.083708
 30
0.0
  0
LWPOLYLINE
  5
177
100
AcDbEntity
  8
10-magnets
 62
7
100
AcDbPolyline
 90
1
 70
1
 10
29.377486
 20
67.296427
 30
0.0
  0
SPLINE
  5
178
100
AcDbEntity
  8
10-magnets
 62
7
100
AcDbSpline
 70
8
 71
3
 72
8
 73
4
 74
0
 40
0
 40
0
 40
0
 40
0
 40
1
 40
1
 40
1
 40
1
 10
120.184740
 20
34.442692
 30
0.0
 10
120.184740
 20
31.681268
 30
0.0
 10
117.946164
 20
29.442692
 30
0.0
 10
115.184740
 20
29.442692
 30
0.0
  0
SPLINE
  5
179
100
AcDbEntity
  8
10-magnets
 62
7
100
AcDbSpline
 70
8
 71
3
 72
8
 73
4
 74
0
 40
0
 40
0
 40
0
 40
0
 40
1
 40
1
 40
1
 40
1
 10
115.184740
 20
29.442692
 30
0.0
 10
112.423316
 20
29.442692
 30
0.0
 10
110.184740
 20
31.681268
 30
0.0
 10
110.184740
 20
34.442692
 30
0.0
  0
SPLINE
  5
17a
100
AcDbEntity
  8
10-magnets
 62
7
100
AcDbSpline
 70
8
 71
3
 72
8
 73
4
 74
0
 40
0
 40
0
 40
0
 40
0
 40
1
 40
1
 40
1
 40
1
 10
110.184740
 20
34.442692
 30
0.0
 10
110.184740
 20
37.204116
 30
0.0
 10
112.423316
 20
39.442692
 30
0.0
 10
115.184740
 20
39.442692
 30
0.0
  0
SPLINE
  5
17b
100
AcDbEntity
  8
10-magnets
 62
7
100
AcDbSpline
 70
8
 71
3
 72
8
 73
4
 74
0
 40
0
 40
0
 40
0
 40
0
 40
1
 40
1
 40
1
 40
1
 10
115.184740
 20
39.442692
 30
0.0
 10
117.946164
 20
39.442692
 30
0.0
 10
120.184740
 20
37.204116
 30
0.0
 10
120.184740
 20
34.442692
 30
0.0
  0
LWPOLYLINE
  5
17c
100
AcDbEntity
  8
10-magnets
 62
7
100
AcDbPolyline
 90
1
 70
1
 10
120.184740
 20
93.083708
 30
0.0
  0
LWPOLYLINE
  5
17d
100
AcDbEntity
  8
10-magnets
 62
7
100
AcDbPolyline
 90
1
 70
1
 10
120.184740
 20
34.442692
 30
0.0
  0
ENDSEC
  0
SECTION
  2
OBJECTS
  0
DICTIONARY
  5
C
330
0
100
AcDbDictionary
  3
ACAD_GROUP
350
D
  3
ACAD_MLINESTYLE
350
17
  0
DICTIONARY
  5
D
330
C
100
AcDbDictionary
  0
DICTIONARY
  5
1A
330
C
100
AcDbDictionary
  0
DICTIONARY
  5
17
330
C
100
AcDbDictionary
  3
STANDARD
350
18
  0
DICTIONARY
  5
19
330
C
100
AcDbDictionary
  0
ENDSEC
  0
EOF
