  0
SECTION
  2
HEADER
  9
$ACADVER
  1
AC1014
  9
$HANDSEED
  5
FFFF
  9
$MEASUREMENT
 70
     1
  0
ENDSEC
  0
SECTION
  2
TABLES
  0
TABLE
  2
VPORT
  5
8
330
0
100
AcDbSymbolTable
 70
     4
  0
VPORT
  5
2E
330
8
100
AcDbSymbolTableRecord
100
AcDbViewportTableRecord
  2
*ACTIVE
 70
     0
 10
0.0
 20
0.0
 11
1.0
 21
1.0
 12
210.0
 22
148.5
 13
0.0
 23
0.0
 14
10.0
 24
10.0
 15
10.0
 25
10.0
 16
0.0
 26
0.0
 36
1.0
 17
0.0
 27
0.0
 37
0.0
 40
341.0
 41
1.24
 42
50.0
 43
0.0
 44
0.0
 50
0.0
 51
0.0
 71
     0
 72
   100
 73
     1
 74
     3
 75
     0
 76
     0
 77
     0
 78
     0
  0
ENDTAB
  0
TABLE
  2
LTYPE
  5
5
330
0
100
AcDbSymbolTable
 70
     1
  0
LTYPE
  5
14
330
5
100
AcDbSymbolTableRecord
100
AcDbLinetypeTableRecord
  2
BYBLOCK
 70
     0
  3

 72
    65
 73
     0
 40
0.0
  0
LTYPE
  5
15
330
5
100
AcDbSymbolTableRecord
100
AcDbLinetypeTableRecord
  2
BYLAYER
 70
     0
  3

 72
    65
 73
     0
 40
0.0
  0
LTYPE
  5
16
330
5
100
AcDbSymbolTableRecord
100
AcDbLinetypeTableRecord
  2
CONTINUOUS
 70
     0
  3
Solid line
 72
    65
 73
     0
 40
0.0
  0
ENDTAB
  0
TABLE
  2
LAYER
  5
2
100
AcDbSymbolTable
 70
7
  0
LAYER
  5
50
100
AcDbSymbolTableRecord
100
AcDbLayerTableRecord
  2
0
 70
0
  6
CONTINUOUS
  0
LAYER
  5
51
100
AcDbSymbolTableRecord
100
AcDbLayerTableRecord
  2
References
 70
0
  6
CONTINUOUS
  0
LAYER
  5
52
100
AcDbSymbolTableRecord
100
AcDbLayerTableRecord
  2
Base
 70
0
  6
CONTINUOUS
  0
LAYER
  5
53
100
AcDbSymbolTableRecord
100
AcDbLayerTableRecord
  2
3-15
 70
0
  6
CONTINUOUS
  0
LAYER
  5
54
100
AcDbSymbolTableRecord
100
AcDbLayerTableRecord
  2
7-15
 70
0
  6
CONTINUOUS
  0
LAYER
  5
55
100
AcDbSymbolTableRecord
100
AcDbLayerTableRecord
  2
7-10
 70
0
  6
CONTINUOUS
  0
LAYER
  5
56
100
AcDbSymbolTableRecord
100
AcDbLayerTableRecord
  2
3-10
 70
0
  6
CONTINUOUS
  0
ENDTAB
  0
TABLE
  2
STYLE
  5
3
330
0
100
AcDbSymbolTable
 70
     1
  0
STYLE
  5
11
330
3
100
AcDbSymbolTableRecord
100
AcDbTextStyleTableRecord
  2
STANDARD
 70
     0
 40
0.0
 41
1.0
 50
0.0
 71
     0
 42
2.5
  3
txt
  4

  0
ENDTAB
  0
TABLE
  2
VIEW
  5
6
330
0
100
AcDbSymbolTable
 70
     0
  0
ENDTAB
  0
TABLE
  2
UCS
  5
7
330
0
100
AcDbSymbolTable
 70
     0
  0
ENDTAB
  0
TABLE
  2
APPID
  5
9
330
0
100
AcDbSymbolTable
 70
     2
  0
APPID
  5
12
330
9
100
AcDbSymbolTableRecord
100
AcDbRegAppTableRecord
  2
ACAD
 70
     0
  0
ENDTAB
  0
TABLE
  2
DIMSTYLE
  5
A
330
0
100
AcDbSymbolTable
 70
     1
  0
DIMSTYLE
105
27
330
A
100
AcDbSymbolTableRecord
100
AcDbDimStyleTableRecord
  2
ISO-25
 70
     0
  3

  4

  5

  6

  7

 40
1.0
 41
2.5
 42
0.625
 43
3.75
 44
1.25
 45
0.0
 46
0.0
 47
0.0
 48
0.0
140
2.5
141
2.5
142
0.0
143
0.03937007874016
144
1.0
145
0.0
146
1.0
147
0.625
 71
     0
 72
     0
 73
     0
 74
     0
 75
     0
 76
     0
 77
     1
 78
     8
170
     0
171
     3
172
     1
173
     0
174
     0
175
     0
176
     0
177
     0
178
     0
270
     2
271
     2
272
     2
273
     2
274
     3
340
11
275
     0
280
     0
281
     0
282
     0
283
     0
284
     8
285
     0
286
     0
287
     3
288
     0
  0
ENDTAB
  0
TABLE
  2
BLOCK_RECORD
  5
1
330
0
100
AcDbSymbolTable
 70
     1
  0
BLOCK_RECORD
  5
1F
330
1
100
AcDbSymbolTableRecord
100
AcDbBlockTableRecord
  2
*MODEL_SPACE
  0
BLOCK_RECORD
  5
1B
330
1
100
AcDbSymbolTableRecord
100
AcDbBlockTableRecord
  2
*PAPER_SPACE
  0
ENDTAB
  0
ENDSEC
  0
SECTION
  2
BLOCKS
  0
BLOCK
  5
20
330
1F
100
AcDbEntity
  8
0
100
AcDbBlockBegin
  2
*MODEL_SPACE
 70
     0
 10
0.0
 20
0.0
 30
0.0
  3
*MODEL_SPACE
  1

  0
ENDBLK
  5
21
330
1F
100
AcDbEntity
  8
0
100
AcDbBlockEnd
  0
BLOCK
  5
1C
330
1B
100
AcDbEntity
 67
     1
  8
0
100
AcDbBlockBegin
  2
*PAPER_SPACE
  1

  0
ENDBLK
  5
1D
330
1B
100
AcDbEntity
 67
     1
  8
0
100
AcDbBlockEnd
  0
ENDSEC
  0
SECTION
  2
ENTITIES
  0
SPLINE
  5
100
100
AcDbEntity
  8
Base
 62
7
100
AcDbSpline
 70
8
 71
3
 72
8
 73
4
 74
0
 40
0
 40
0
 40
0
 40
0
 40
1
 40
1
 40
1
 40
1
 10
153.365720
 20
100.736007
 30
0.0
 10
154.505872
 20
100.656378
 30
0.0
 10
155.557504
 20
100.092827
 30
0.0
 10
156.255219
 20
99.187575
 30
0.0
  0
SPLINE
  5
101
100
AcDbEntity
  8
Base
 62
7
100
AcDbSpline
 70
8
 71
3
 72
8
 73
4
 74
0
 40
0
 40
0
 40
0
 40
0
 40
1
 40
1
 40
1
 40
1
 10
156.255219
 20
99.187575
 30
0.0
 10
156.952934
 20
98.282322
 30
0.0
 10
157.230082
 20
97.121845
 30
0.0
 10
157.016720
 20
95.999007
 30
0.0
  0
LWPOLYLINE
  5
102
100
AcDbEntity
  8
Base
 62
7
100
AcDbPolyline
 90
2
 70
0
 10
117.954720
 20
103.212007
 30
0.0
 10
153.365720
 20
100.736007
 30
0.0
  0
SPLINE
  5
103
100
AcDbEntity
  8
Base
 62
7
100
AcDbSpline
 70
8
 71
3
 72
8
 73
4
 74
0
 40
0
 40
0
 40
0
 40
0
 40
1
 40
1
 40
1
 40
1
 10
155.032720
 20
15.282010
 30
0.0
 10
155.644944
 20
13.179517
 30
0.0
 10
155.063118
 20
10.910470
 30
0.0
 10
153.514720
 20
9.362000
 30
0.0
  0
LWPOLYLINE
  5
104
100
AcDbEntity
  8
Base
 62
7
100
AcDbPolyline
 90
3
 70
0
 10
157.016720
 20
95.999007
 30
0.0
 10
146.951720
 20
43.032007
 30
0.0
 10
155.032720
 20
15.282010
 30
0.0
  0
SPLINE
  5
105
100
AcDbEntity
  8
Base
 62
7
100
AcDbSpline
 70
8
 71
3
 72
8
 73
4
 74
0
 40
0
 40
0
 40
0
 40
0
 40
1
 40
1
 40
1
 40
1
 10
145.906720
 20
1.754000
 30
0.0
 10
143.958233
 20
-0.194440
 30
0.0
 10
140.933079
 20
-0.565212
 30
0.0
 10
138.571720
 20
0.855000
 30
0.0
  0
LWPOLYLINE
  5
106
100
AcDbEntity
  8
Base
 62
7
100
AcDbPolyline
 90
2
 70
0
 10
153.514720
 20
9.362000
 30
0.0
 10
145.906720
 20
1.754000
 30
0.0
  0
SPLINE
  5
107
100
AcDbEntity
  8
Base
 62
7
100
AcDbSpline
 70
8
 71
3
 72
8
 73
4
 74
0
 40
0
 40
0
 40
0
 40
0
 40
1
 40
1
 40
1
 40
1
 10
102.624720
 20
22.475007
 30
0.0
 10
101.981055
 20
22.862201
 30
0.0
 10
101.270408
 20
23.125089
 30
0.0
 10
100.529720
 20
23.250007
 30
0.0
  0
LWPOLYLINE
  5
108
100
AcDbEntity
  8
Base
 62
7
100
AcDbPolyline
 90
2
 70
0
 10
138.571720
 20
0.855000
 30
0.0
 10
102.624720
 20
22.475007
 30
0.0
  0
SPLINE
  5
109
100
AcDbEntity
  8
Base
 62
7
100
AcDbSpline
 70
8
 71
3
 72
8
 73
4
 74
0
 40
0
 40
0
 40
0
 40
0
 40
1
 40
1
 40
1
 40
1
 10
27.268712
 20
35.601007
 30
0.0
 10
26.320119
 20
35.761107
 30
0.0
 10
25.423929
 20
36.146952
 30
0.0
 10
24.655712
 20
36.726007
 30
0.0
  0
LWPOLYLINE
  5
10a
100
AcDbEntity
  8
Base
 62
7
100
AcDbPolyline
 90
2
 70
0
 10
100.529720
 20
23.250007
 30
0.0
 10
27.268712
 20
35.601007
 30
0.0
  0
SPLINE
  5
10b
100
AcDbEntity
  8
Base
 62
7
100
AcDbSpline
 70
8
 71
3
 72
8
 73
4
 74
0
 40
0
 40
0
 40
0
 40
0
 40
1
 40
1
 40
1
 40
1
 10
5.900712
 20
50.858007
 30
0.0
 10
4.902098
 20
51.610861
 30
0.0
 10
4.163689
 20
52.656939
 30
0.0
 10
3.788712
 20
53.850007
 30
0.0
  0
LWPOLYLINE
  5
10c
100
AcDbEntity
  8
Base
 62
7
100
AcDbPolyline
 90
2
 70
0
 10
24.655712
 20
36.726007
 30
0.0
 10
5.900712
 20
50.858007
 30
0.0
  0
SPLINE
  5
10d
100
AcDbEntity
  8
Base
 62
7
100
AcDbSpline
 70
8
 71
3
 72
8
 73
4
 74
0
 40
0
 40
0
 40
0
 40
0
 40
1
 40
1
 40
1
 40
1
 10
0.315712
 20
64.891007
 30
0.0
 10
-0.386585
 20
67.123016
 30
0.0
 10
0.272743
 20
69.559677
 30
0.0
 10
2.004712
 20
71.133007
 30
0.0
  0
LWPOLYLINE
  5
10e
100
AcDbEntity
  8
Base
 62
7
100
AcDbPolyline
 90
2
 70
0
 10
3.788712
 20
53.850007
 30
0.0
 10
0.315712
 20
64.891007
 30
0.0
  0
SPLINE
  5
10f
100
AcDbEntity
  8
Base
 62
7
100
AcDbSpline
 70
8
 71
3
 72
8
 73
4
 74
0
 40
0
 40
0
 40
0
 40
0
 40
1
 40
1
 40
1
 40
1
 10
40.811712
 20
106.375007
 30
0.0
 10
41.809942
 20
107.281618
 30
0.0
 10
43.084473
 20
107.825531
 30
0.0
 10
44.429712
 20
107.919007
 30
0.0
  0
LWPOLYLINE
  5
110
100
AcDbEntity
  8
Base
 62
7
100
AcDbPolyline
 90
2
 70
0
 10
2.004712
 20
71.133007
 30
0.0
 10
40.811712
 20
106.375007
 30
0.0
  0
SPLINE
  5
111
100
AcDbEntity
  8
Base
 62
7
100
AcDbSpline
 70
8
 71
3
 72
8
 73
4
 74
0
 40
0
 40
0
 40
0
 40
0
 40
1
 40
1
 40
1
 40
1
 10
61.574712
 20
110.574007
 30
0.0
 10
61.574712
 20
111.104440
 30
0.0
 10
61.785426
 20
111.613148
 30
0.0
 10
62.160498
 20
111.988221
 30
0.0
  0
SPLINE
  5
112
100
AcDbEntity
  8
Base
 62
7
100
AcDbSpline
 70
8
 71
3
 72
8
 73
4
 74
0
 40
0
 40
0
 40
0
 40
0
 40
1
 40
1
 40
1
 40
1
 10
62.160498
 20
111.988221
 30
0.0
 10
62.535571
 20
112.363293
 30
0.0
 10
63.044279
 20
112.574007
 30
0.0
 10
63.574712
 20
112.574007
 30
0.0
  0
LWPOLYLINE
  5
113
100
AcDbEntity
  8
Base
 62
7
100
AcDbPolyline
 90
3
 70
0
 10
44.429712
 20
107.919007
 30
0.0
 10
61.574712
 20
109.110007
 30
0.0
 10
61.574712
 20
110.574007
 30
0.0
  0
SPLINE
  5
114
100
AcDbEntity
  8
Base
 62
7
100
AcDbSpline
 70
8
 71
3
 72
8
 73
4
 74
0
 40
0
 40
0
 40
0
 40
0
 40
1
 40
1
 40
1
 40
1
 10
81.424712
 20
112.574007
 30
0.0
 10
81.955145
 20
112.574007
 30
0.0
 10
82.463853
 20
112.363293
 30
0.0
 10
82.838926
 20
111.988221
 30
0.0
  0
SPLINE
  5
115
100
AcDbEntity
  8
Base
 62
7
100
AcDbSpline
 70
8
 71
3
 72
8
 73
4
 74
0
 40
0
 40
0
 40
0
 40
0
 40
1
 40
1
 40
1
 40
1
 10
82.838926
 20
111.988221
 30
0.0
 10
83.213998
 20
111.613148
 30
0.0
 10
83.424712
 20
111.104440
 30
0.0
 10
83.424712
 20
110.574007
 30
0.0
  0
LWPOLYLINE
  5
116
100
AcDbEntity
  8
Base
 62
7
100
AcDbPolyline
 90
2
 70
0
 10
63.574712
 20
112.574007
 30
0.0
 10
81.424712
 20
112.574007
 30
0.0
  0
SPLINE
  5
117
100
AcDbEntity
  8
Base
 62
7
100
AcDbSpline
 70
8
 71
3
 72
8
 73
4
 74
0
 40
0
 40
0
 40
0
 40
0
 40
1
 40
1
 40
1
 40
1
 10
102.624720
 20
106.189007
 30
0.0
 10
103.687900
 20
106.114614
 30
0.0
 10
104.505971
 20
105.219575
 30
0.0
 10
104.484720
 20
104.154007
 30
0.0
  0
LWPOLYLINE
  5
118
100
AcDbEntity
  8
Base
 62
7
100
AcDbPolyline
 90
3
 70
0
 10
83.424712
 20
110.574007
 30
0.0
 10
83.424712
 20
107.531007
 30
0.0
 10
102.624720
 20
106.189007
 30
0.0
  0
SPLINE
  5
119
100
AcDbEntity
  8
Base
 62
7
100
AcDbSpline
 70
8
 71
3
 72
8
 73
4
 74
0
 40
0
 40
0
 40
0
 40
0
 40
1
 40
1
 40
1
 40
1
 10
38.159712
 20
95.914007
 30
0.0
 10
38.159712
 20
96.306999
 30
0.0
 10
38.369371
 20
96.670139
 30
0.0
 10
38.709712
 20
96.866635
 30
0.0
  0
SPLINE
  5
11a
100
AcDbEntity
  8
Base
 62
7
100
AcDbSpline
 70
8
 71
3
 72
8
 73
4
 74
0
 40
0
 40
0
 40
0
 40
0
 40
1
 40
1
 40
1
 40
1
 10
38.709712
 20
96.866635
 30
0.0
 10
39.050053
 20
97.063131
 30
0.0
 10
39.469371
 20
97.063131
 30
0.0
 10
39.809712
 20
96.866635
 30
0.0
  0
SPLINE
  5
11b
100
AcDbEntity
  8
Base
 62
7
100
AcDbSpline
 70
8
 71
3
 72
8
 73
4
 74
0
 40
0
 40
0
 40
0
 40
0
 40
1
 40
1
 40
1
 40
1
 10
39.809712
 20
96.866635
 30
0.0
 10
40.150053
 20
96.670139
 30
0.0
 10
40.359712
 20
96.306999
 30
0.0
 10
40.359712
 20
95.914007
 30
0.0
  0
SPLINE
  5
11c
100
AcDbEntity
  8
Base
 62
7
100
AcDbSpline
 70
8
 71
3
 72
8
 73
4
 74
0
 40
0
 40
0
 40
0
 40
0
 40
1
 40
1
 40
1
 40
1
 10
40.359712
 20
95.914007
 30
0.0
 10
40.359712
 20
95.521015
 30
0.0
 10
40.150053
 20
95.157875
 30
0.0
 10
39.809712
 20
94.961379
 30
0.0
  0
SPLINE
  5
11d
100
AcDbEntity
  8
Base
 62
7
100
AcDbSpline
 70
8
 71
3
 72
8
 73
4
 74
0
 40
0
 40
0
 40
0
 40
0
 40
1
 40
1
 40
1
 40
1
 10
39.809712
 20
94.961379
 30
0.0
 10
39.469371
 20
94.764883
 30
0.0
 10
39.050053
 20
94.764883
 30
0.0
 10
38.709712
 20
94.961379
 30
0.0
  0
SPLINE
  5
11e
100
AcDbEntity
  8
Base
 62
7
100
AcDbSpline
 70
8
 71
3
 72
8
 73
4
 74
0
 40
0
 40
0
 40
0
 40
0
 40
1
 40
1
 40
1
 40
1
 10
38.709712
 20
94.961379
 30
0.0
 10
38.369371
 20
95.157875
 30
0.0
 10
38.159712
 20
95.521015
 30
0.0
 10
38.159712
 20
95.914007
 30
0.0
  0
LWPOLYLINE
  5
11f
100
AcDbEntity
  8
Base
 62
7
100
AcDbPolyline
 90
3
 70
0
 10
104.484720
 20
104.154007
 30
0.0
 10
117.953720
 20
103.212007
 30
0.0
 10
117.954720
 20
103.212007
 30
0.0
  0
SPLINE
  5
120
100
AcDbEntity
  8
Base
 62
7
100
AcDbSpline
 70
8
 71
3
 72
8
 73
4
 74
0
 40
0
 40
0
 40
0
 40
0
 40
1
 40
1
 40
1
 40
1
 10
18.174712
 20
51.624007
 30
0.0
 10
18.174712
 20
52.016999
 30
0.0
 10
18.384371
 20
52.380139
 30
0.0
 10
18.724712
 20
52.576635
 30
0.0
  0
SPLINE
  5
121
100
AcDbEntity
  8
Base
 62
7
100
AcDbSpline
 70
8
 71
3
 72
8
 73
4
 74
0
 40
0
 40
0
 40
0
 40
0
 40
1
 40
1
 40
1
 40
1
 10
18.724712
 20
52.576635
 30
0.0
 10
19.065053
 20
52.773131
 30
0.0
 10
19.484371
 20
52.773131
 30
0.0
 10
19.824712
 20
52.576635
 30
0.0
  0
SPLINE
  5
122
100
AcDbEntity
  8
Base
 62
7
100
AcDbSpline
 70
8
 71
3
 72
8
 73
4
 74
0
 40
0
 40
0
 40
0
 40
0
 40
1
 40
1
 40
1
 40
1
 10
19.824712
 20
52.576635
 30
0.0
 10
20.165053
 20
52.380139
 30
0.0
 10
20.374712
 20
52.016999
 30
0.0
 10
20.374712
 20
51.624007
 30
0.0
  0
SPLINE
  5
123
100
AcDbEntity
  8
Base
 62
7
100
AcDbSpline
 70
8
 71
3
 72
8
 73
4
 74
0
 40
0
 40
0
 40
0
 40
0
 40
1
 40
1
 40
1
 40
1
 10
20.374712
 20
51.624007
 30
0.0
 10
20.374712
 20
51.231015
 30
0.0
 10
20.165053
 20
50.867875
 30
0.0
 10
19.824712
 20
50.671379
 30
0.0
  0
SPLINE
  5
124
100
AcDbEntity
  8
Base
 62
7
100
AcDbSpline
 70
8
 71
3
 72
8
 73
4
 74
0
 40
0
 40
0
 40
0
 40
0
 40
1
 40
1
 40
1
 40
1
 10
19.824712
 20
50.671379
 30
0.0
 10
19.484371
 20
50.474883
 30
0.0
 10
19.065053
 20
50.474883
 30
0.0
 10
18.724712
 20
50.671379
 30
0.0
  0
SPLINE
  5
125
100
AcDbEntity
  8
Base
 62
7
100
AcDbSpline
 70
8
 71
3
 72
8
 73
4
 74
0
 40
0
 40
0
 40
0
 40
0
 40
1
 40
1
 40
1
 40
1
 10
18.724712
 20
50.671379
 30
0.0
 10
18.384371
 20
50.867875
 30
0.0
 10
18.174712
 20
51.231015
 30
0.0
 10
18.174712
 20
51.624007
 30
0.0
  0
LWPOLYLINE
  5
126
100
AcDbEntity
  8
Base
 62
7
100
AcDbPolyline
 90
1
 70
1
 10
38.159712
 20
95.914007
 30
0.0
  0
SPLINE
  5
127
100
AcDbEntity
  8
Base
 62
7
100
AcDbSpline
 70
8
 71
3
 72
8
 73
4
 74
0
 40
0
 40
0
 40
0
 40
0
 40
1
 40
1
 40
1
 40
1
 10
102.129720
 20
86.124007
 30
0.0
 10
102.129720
 20
86.516999
 30
0.0
 10
102.339379
 20
86.880139
 30
0.0
 10
102.679720
 20
87.076635
 30
0.0
  0
SPLINE
  5
128
100
AcDbEntity
  8
Base
 62
7
100
AcDbSpline
 70
8
 71
3
 72
8
 73
4
 74
0
 40
0
 40
0
 40
0
 40
0
 40
1
 40
1
 40
1
 40
1
 10
102.679720
 20
87.076635
 30
0.0
 10
103.020061
 20
87.273131
 30
0.0
 10
103.439379
 20
87.273131
 30
0.0
 10
103.779720
 20
87.076635
 30
0.0
  0
SPLINE
  5
129
100
AcDbEntity
  8
Base
 62
7
100
AcDbSpline
 70
8
 71
3
 72
8
 73
4
 74
0
 40
0
 40
0
 40
0
 40
0
 40
1
 40
1
 40
1
 40
1
 10
103.779720
 20
87.076635
 30
0.0
 10
104.120061
 20
86.880139
 30
0.0
 10
104.329720
 20
86.516999
 30
0.0
 10
104.329720
 20
86.124007
 30
0.0
  0
SPLINE
  5
12a
100
AcDbEntity
  8
Base
 62
7
100
AcDbSpline
 70
8
 71
3
 72
8
 73
4
 74
0
 40
0
 40
0
 40
0
 40
0
 40
1
 40
1
 40
1
 40
1
 10
104.329720
 20
86.124007
 30
0.0
 10
104.329720
 20
85.731015
 30
0.0
 10
104.120061
 20
85.367875
 30
0.0
 10
103.779720
 20
85.171379
 30
0.0
  0
SPLINE
  5
12b
100
AcDbEntity
  8
Base
 62
7
100
AcDbSpline
 70
8
 71
3
 72
8
 73
4
 74
0
 40
0
 40
0
 40
0
 40
0
 40
1
 40
1
 40
1
 40
1
 10
103.779720
 20
85.171379
 30
0.0
 10
103.439379
 20
84.974883
 30
0.0
 10
103.020061
 20
84.974883
 30
0.0
 10
102.679720
 20
85.171379
 30
0.0
  0
SPLINE
  5
12c
100
AcDbEntity
  8
Base
 62
7
100
AcDbSpline
 70
8
 71
3
 72
8
 73
4
 74
0
 40
0
 40
0
 40
0
 40
0
 40
1
 40
1
 40
1
 40
1
 10
102.679720
 20
85.171379
 30
0.0
 10
102.339379
 20
85.367875
 30
0.0
 10
102.129720
 20
85.731015
 30
0.0
 10
102.129720
 20
86.124007
 30
0.0
  0
LWPOLYLINE
  5
12d
100
AcDbEntity
  8
Base
 62
7
100
AcDbPolyline
 90
1
 70
1
 10
18.174712
 20
51.624007
 30
0.0
  0
SPLINE
  5
12e
100
AcDbEntity
  8
Base
 62
7
100
AcDbSpline
 70
8
 71
3
 72
8
 73
4
 74
0
 40
0
 40
0
 40
0
 40
0
 40
1
 40
1
 40
1
 40
1
 10
100.129720
 20
44.564007
 30
0.0
 10
100.129720
 20
44.956999
 30
0.0
 10
100.339379
 20
45.320139
 30
0.0
 10
100.679720
 20
45.516635
 30
0.0
  0
SPLINE
  5
12f
100
AcDbEntity
  8
Base
 62
7
100
AcDbSpline
 70
8
 71
3
 72
8
 73
4
 74
0
 40
0
 40
0
 40
0
 40
0
 40
1
 40
1
 40
1
 40
1
 10
100.679720
 20
45.516635
 30
0.0
 10
101.020061
 20
45.713131
 30
0.0
 10
101.439379
 20
45.713131
 30
0.0
 10
101.779720
 20
45.516635
 30
0.0
  0
SPLINE
  5
130
100
AcDbEntity
  8
Base
 62
7
100
AcDbSpline
 70
8
 71
3
 72
8
 73
4
 74
0
 40
0
 40
0
 40
0
 40
0
 40
1
 40
1
 40
1
 40
1
 10
101.779720
 20
45.516635
 30
0.0
 10
102.120061
 20
45.320139
 30
0.0
 10
102.329720
 20
44.956999
 30
0.0
 10
102.329720
 20
44.564007
 30
0.0
  0
SPLINE
  5
131
100
AcDbEntity
  8
Base
 62
7
100
AcDbSpline
 70
8
 71
3
 72
8
 73
4
 74
0
 40
0
 40
0
 40
0
 40
0
 40
1
 40
1
 40
1
 40
1
 10
102.329720
 20
44.564007
 30
0.0
 10
102.329720
 20
44.171015
 30
0.0
 10
102.120061
 20
43.807875
 30
0.0
 10
101.779720
 20
43.611379
 30
0.0
  0
SPLINE
  5
132
100
AcDbEntity
  8
Base
 62
7
100
AcDbSpline
 70
8
 71
3
 72
8
 73
4
 74
0
 40
0
 40
0
 40
0
 40
0
 40
1
 40
1
 40
1
 40
1
 10
101.779720
 20
43.611379
 30
0.0
 10
101.439379
 20
43.414883
 30
0.0
 10
101.020061
 20
43.414883
 30
0.0
 10
100.679720
 20
43.611379
 30
0.0
  0
SPLINE
  5
133
100
AcDbEntity
  8
Base
 62
7
100
AcDbSpline
 70
8
 71
3
 72
8
 73
4
 74
0
 40
0
 40
0
 40
0
 40
0
 40
1
 40
1
 40
1
 40
1
 10
100.679720
 20
43.611379
 30
0.0
 10
100.339379
 20
43.807875
 30
0.0
 10
100.129720
 20
44.171015
 30
0.0
 10
100.129720
 20
44.564007
 30
0.0
  0
LWPOLYLINE
  5
134
100
AcDbEntity
  8
Base
 62
7
100
AcDbPolyline
 90
1
 70
1
 10
102.129720
 20
86.124007
 30
0.0
  0
SPLINE
  5
135
100
AcDbEntity
  8
Base
 62
7
100
AcDbSpline
 70
8
 71
3
 72
8
 73
4
 74
0
 40
0
 40
0
 40
0
 40
0
 40
1
 40
1
 40
1
 40
1
 10
144.739720
 20
25.364007
 30
0.0
 10
144.739720
 20
25.756999
 30
0.0
 10
144.949379
 20
26.120139
 30
0.0
 10
145.289720
 20
26.316635
 30
0.0
  0
SPLINE
  5
136
100
AcDbEntity
  8
Base
 62
7
100
AcDbSpline
 70
8
 71
3
 72
8
 73
4
 74
0
 40
0
 40
0
 40
0
 40
0
 40
1
 40
1
 40
1
 40
1
 10
145.289720
 20
26.316635
 30
0.0
 10
145.630061
 20
26.513131
 30
0.0
 10
146.049379
 20
26.513131
 30
0.0
 10
146.389720
 20
26.316635
 30
0.0
  0
SPLINE
  5
137
100
AcDbEntity
  8
Base
 62
7
100
AcDbSpline
 70
8
 71
3
 72
8
 73
4
 74
0
 40
0
 40
0
 40
0
 40
0
 40
1
 40
1
 40
1
 40
1
 10
146.389720
 20
26.316635
 30
0.0
 10
146.730061
 20
26.120139
 30
0.0
 10
146.939720
 20
25.756999
 30
0.0
 10
146.939720
 20
25.364007
 30
0.0
  0
SPLINE
  5
138
100
AcDbEntity
  8
Base
 62
7
100
AcDbSpline
 70
8
 71
3
 72
8
 73
4
 74
0
 40
0
 40
0
 40
0
 40
0
 40
1
 40
1
 40
1
 40
1
 10
146.939720
 20
25.364007
 30
0.0
 10
146.939720
 20
24.971015
 30
0.0
 10
146.730061
 20
24.607875
 30
0.0
 10
146.389720
 20
24.411379
 30
0.0
  0
SPLINE
  5
139
100
AcDbEntity
  8
Base
 62
7
100
AcDbSpline
 70
8
 71
3
 72
8
 73
4
 74
0
 40
0
 40
0
 40
0
 40
0
 40
1
 40
1
 40
1
 40
1
 10
146.389720
 20
24.411379
 30
0.0
 10
146.049379
 20
24.214883
 30
0.0
 10
145.630061
 20
24.214883
 30
0.0
 10
145.289720
 20
24.411379
 30
0.0
  0
SPLINE
  5
13a
100
AcDbEntity
  8
Base
 62
7
100
AcDbSpline
 70
8
 71
3
 72
8
 73
4
 74
0
 40
0
 40
0
 40
0
 40
0
 40
1
 40
1
 40
1
 40
1
 10
145.289720
 20
24.411379
 30
0.0
 10
144.949379
 20
24.607875
 30
0.0
 10
144.739720
 20
24.971015
 30
0.0
 10
144.739720
 20
25.364007
 30
0.0
  0
LWPOLYLINE
  5
13b
100
AcDbEntity
  8
Base
 62
7
100
AcDbPolyline
 90
1
 70
1
 10
100.129720
 20
44.564007
 30
0.0
  0
SPLINE
  5
13c
100
AcDbEntity
  8
3-15
 62
7
100
AcDbSpline
 70
8
 71
3
 72
8
 73
4
 74
0
 40
0
 40
0
 40
0
 40
0
 40
1
 40
1
 40
1
 40
1
 10
31.869859
 20
67.314656
 30
0.0
 10
31.869859
 20
63.172591
 30
0.0
 10
28.512051
 20
59.814783
 30
0.0
 10
24.369986
 20
59.814783
 30
0.0
  0
SPLINE
  5
13d
100
AcDbEntity
  8
3-15
 62
7
100
AcDbSpline
 70
8
 71
3
 72
8
 73
4
 74
0
 40
0
 40
0
 40
0
 40
0
 40
1
 40
1
 40
1
 40
1
 10
24.369986
 20
59.814783
 30
0.0
 10
22.380896
 20
59.814783
 30
0.0
 10
20.473274
 20
60.604946
 30
0.0
 10
19.066774
 20
62.011445
 30
0.0
  0
SPLINE
  5
13e
100
AcDbEntity
  8
3-15
 62
7
100
AcDbSpline
 70
8
 71
3
 72
8
 73
4
 74
0
 40
0
 40
0
 40
0
 40
0
 40
1
 40
1
 40
1
 40
1
 10
19.066774
 20
62.011445
 30
0.0
 10
17.660275
 20
63.417944
 30
0.0
 10
16.870112
 20
65.325566
 30
0.0
 10
16.870112
 20
67.314656
 30
0.0
  0
SPLINE
  5
13f
100
AcDbEntity
  8
3-15
 62
7
100
AcDbSpline
 70
8
 71
3
 72
8
 73
4
 74
0
 40
0
 40
0
 40
0
 40
0
 40
1
 40
1
 40
1
 40
1
 10
16.870112
 20
67.314656
 30
0.0
 10
16.870112
 20
69.303746
 30
0.0
 10
17.660275
 20
71.211368
 30
0.0
 10
19.066774
 20
72.617867
 30
0.0
  0
SPLINE
  5
140
100
AcDbEntity
  8
3-15
 62
7
100
AcDbSpline
 70
8
 71
3
 72
8
 73
4
 74
0
 40
0
 40
0
 40
0
 40
0
 40
1
 40
1
 40
1
 40
1
 10
19.066774
 20
72.617867
 30
0.0
 10
20.473274
 20
74.024366
 30
0.0
 10
22.380896
 20
74.814529
 30
0.0
 10
24.369986
 20
74.814529
 30
0.0
  0
SPLINE
  5
141
100
AcDbEntity
  8
3-15
 62
7
100
AcDbSpline
 70
8
 71
3
 72
8
 73
4
 74
0
 40
0
 40
0
 40
0
 40
0
 40
1
 40
1
 40
1
 40
1
 10
24.369986
 20
74.814529
 30
0.0
 10
28.512051
 20
74.814529
 30
0.0
 10
31.869859
 20
71.456721
 30
0.0
 10
31.869859
 20
67.314656
 30
0.0
  0
LWPOLYLINE
  5
142
100
AcDbEntity
  8
Base
 62
7
100
AcDbPolyline
 90
1
 70
1
 10
144.739720
 20
25.364007
 30
0.0
  0
SPLINE
  5
143
100
AcDbEntity
  8
3-15
 62
7
100
AcDbSpline
 70
8
 71
3
 72
8
 73
4
 74
0
 40
0
 40
0
 40
0
 40
0
 40
1
 40
1
 40
1
 40
1
 10
122.684610
 20
93.134262
 30
0.0
 10
122.684610
 20
88.992197
 30
0.0
 10
119.326805
 20
85.634388
 30
0.0
 10
115.184740
 20
85.634384
 30
0.0
  0
SPLINE
  5
144
100
AcDbEntity
  8
3-15
 62
7
100
AcDbSpline
 70
8
 71
3
 72
8
 73
4
 74
0
 40
0
 40
0
 40
0
 40
0
 40
1
 40
1
 40
1
 40
1
 10
115.184740
 20
85.634384
 30
0.0
 10
111.042675
 20
85.634388
 30
0.0
 10
107.684870
 20
88.992197
 30
0.0
 10
107.684870
 20
93.134262
 30
0.0
  0
SPLINE
  5
145
100
AcDbEntity
  8
3-15
 62
7
100
AcDbSpline
 70
8
 71
3
 72
8
 73
4
 74
0
 40
0
 40
0
 40
0
 40
0
 40
1
 40
1
 40
1
 40
1
 10
107.684870
 20
93.134262
 30
0.0
 10
107.684870
 20
97.276327
 30
0.0
 10
111.042675
 20
100.634135
 30
0.0
 10
115.184740
 20
100.634139
 30
0.0
  0
SPLINE
  5
146
100
AcDbEntity
  8
3-15
 62
7
100
AcDbSpline
 70
8
 71
3
 72
8
 73
4
 74
0
 40
0
 40
0
 40
0
 40
0
 40
1
 40
1
 40
1
 40
1
 10
115.184740
 20
100.634139
 30
0.0
 10
119.326805
 20
100.634135
 30
0.0
 10
122.684610
 20
97.276327
 30
0.0
 10
122.684610
 20
93.134262
 30
0.0
  0
LWPOLYLINE
  5
147
100
AcDbEntity
  8
3-15
 62
7
100
AcDbPolyline
 90
1
 70
1
 10
31.869859
 20
67.314656
 30
0.0
  0
SPLINE
  5
148
100
AcDbEntity
  8
3-15
 62
7
100
AcDbSpline
 70
8
 71
3
 72
8
 73
4
 74
0
 40
0
 40
0
 40
0
 40
0
 40
1
 40
1
 40
1
 40
1
 10
122.684610
 20
34.475088
 30
0.0
 10
122.684610
 20
30.333023
 30
0.0
 10
119.326805
 20
26.975214
 30
0.0
 10
115.184740
 20
26.975208
 30
0.0
  0
SPLINE
  5
149
100
AcDbEntity
  8
3-15
 62
7
100
AcDbSpline
 70
8
 71
3
 72
8
 73
4
 74
0
 40
0
 40
0
 40
0
 40
0
 40
1
 40
1
 40
1
 40
1
 10
115.184740
 20
26.975208
 30
0.0
 10
111.042675
 20
26.975214
 30
0.0
 10
107.684870
 20
30.333023
 30
0.0
 10
107.684870
 20
34.475088
 30
0.0
  0
SPLINE
  5
14a
100
AcDbEntity
  8
3-15
 62
7
100
AcDbSpline
 70
8
 71
3
 72
8
 73
4
 74
0
 40
0
 40
0
 40
0
 40
0
 40
1
 40
1
 40
1
 40
1
 10
107.684870
 20
34.475088
 30
0.0
 10
107.684870
 20
38.617154
 30
0.0
 10
111.042674
 20
41.974963
 30
0.0
 10
115.184740
 20
41.974969
 30
0.0
  0
SPLINE
  5
14b
100
AcDbEntity
  8
3-15
 62
7
100
AcDbSpline
 70
8
 71
3
 72
8
 73
4
 74
0
 40
0
 40
0
 40
0
 40
0
 40
1
 40
1
 40
1
 40
1
 10
115.184740
 20
41.974969
 30
0.0
 10
119.326806
 20
41.974963
 30
0.0
 10
122.684610
 20
38.617154
 30
0.0
 10
122.684610
 20
34.475088
 30
0.0
  0
LWPOLYLINE
  5
14c
100
AcDbEntity
  8
3-15
 62
7
100
AcDbPolyline
 90
1
 70
1
 10
122.684610
 20
93.134262
 30
0.0
  0
SPLINE
  5
14d
100
AcDbEntity
  8
3-15
 62
7
100
AcDbSpline
 70
8
 71
3
 72
8
 73
4
 74
0
 40
0
 40
0
 40
0
 40
0
 40
1
 40
1
 40
1
 40
1
 10
110.090090
 20
67.314656
 30
0.0
 10
110.090090
 20
66.637691
 30
0.0
 10
109.821167
 20
65.988453
 30
0.0
 10
109.342480
 20
65.509767
 30
0.0
  0
SPLINE
  5
14e
100
AcDbEntity
  8
3-15
 62
7
100
AcDbSpline
 70
8
 71
3
 72
8
 73
4
 74
0
 40
0
 40
0
 40
0
 40
0
 40
1
 40
1
 40
1
 40
1
 10
109.342480
 20
65.509767
 30
0.0
 10
108.863793
 20
65.031080
 30
0.0
 10
108.214555
 20
64.762157
 30
0.0
 10
107.537590
 20
64.762158
 30
0.0
  0
SPLINE
  5
14f
100
AcDbEntity
  8
3-15
 62
7
100
AcDbSpline
 70
8
 71
3
 72
8
 73
4
 74
0
 40
0
 40
0
 40
0
 40
0
 40
1
 40
1
 40
1
 40
1
 10
107.537590
 20
64.762158
 30
0.0
 10
106.860625
 20
64.762157
 30
0.0
 10
106.211387
 20
65.031080
 30
0.0
 10
105.732700
 20
65.509767
 30
0.0
  0
SPLINE
  5
150
100
AcDbEntity
  8
3-15
 62
7
100
AcDbSpline
 70
8
 71
3
 72
8
 73
4
 74
0
 40
0
 40
0
 40
0
 40
0
 40
1
 40
1
 40
1
 40
1
 10
105.732700
 20
65.509767
 30
0.0
 10
105.254013
 20
65.988453
 30
0.0
 10
104.985090
 20
66.637691
 30
0.0
 10
104.985090
 20
67.314656
 30
0.0
  0
SPLINE
  5
151
100
AcDbEntity
  8
3-15
 62
7
100
AcDbSpline
 70
8
 71
3
 72
8
 73
4
 74
0
 40
0
 40
0
 40
0
 40
0
 40
1
 40
1
 40
1
 40
1
 10
104.985090
 20
67.314656
 30
0.0
 10
104.985090
 20
67.991621
 30
0.0
 10
105.254013
 20
68.640859
 30
0.0
 10
105.732700
 20
69.119545
 30
0.0
  0
SPLINE
  5
152
100
AcDbEntity
  8
3-15
 62
7
100
AcDbSpline
 70
8
 71
3
 72
8
 73
4
 74
0
 40
0
 40
0
 40
0
 40
0
 40
1
 40
1
 40
1
 40
1
 10
105.732700
 20
69.119545
 30
0.0
 10
106.211387
 20
69.598232
 30
0.0
 10
106.860625
 20
69.867155
 30
0.0
 10
107.537590
 20
69.867154
 30
0.0
  0
SPLINE
  5
153
100
AcDbEntity
  8
3-15
 62
7
100
AcDbSpline
 70
8
 71
3
 72
8
 73
4
 74
0
 40
0
 40
0
 40
0
 40
0
 40
1
 40
1
 40
1
 40
1
 10
107.537590
 20
69.867154
 30
0.0
 10
108.214555
 20
69.867155
 30
0.0
 10
108.863793
 20
69.598232
 30
0.0
 10
109.342480
 20
69.119545
 30
0.0
  0
SPLINE
  5
154
100
AcDbEntity
  8
3-15
 62
7
100
AcDbSpline
 70
8
 71
3
 72
8
 73
4
 74
0
 40
0
 40
0
 40
0
 40
0
 40
1
 40
1
 40
1
 40
1
 10
109.342480
 20
69.119545
 30
0.0
 10
109.821167
 20
68.640859
 30
0.0
 10
110.090090
 20
67.991621
 30
0.0
 10
110.090090
 20
67.314656
 30
0.0
  0
LWPOLYLINE
  5
155
100
AcDbEntity
  8
3-15
 62
7
100
AcDbPolyline
 90
1
 70
1
 10
122.684610
 20
34.475088
 30
0.0
  0
SPLINE
  5
156
100
AcDbEntity
  8
3-15
 62
7
100
AcDbSpline
 70
8
 71
3
 72
8
 73
4
 74
0
 40
0
 40
0
 40
0
 40
0
 40
1
 40
1
 40
1
 40
1
 10
46.896986
 20
67.314656
 30
0.0
 10
46.896986
 20
66.637691
 30
0.0
 10
46.628063
 20
65.988452
 30
0.0
 10
46.149376
 20
65.509766
 30
0.0
  0
SPLINE
  5
157
100
AcDbEntity
  8
3-15
 62
7
100
AcDbSpline
 70
8
 71
3
 72
8
 73
4
 74
0
 40
0
 40
0
 40
0
 40
0
 40
1
 40
1
 40
1
 40
1
 10
46.149376
 20
65.509766
 30
0.0
 10
45.670690
 20
65.031079
 30
0.0
 10
45.021451
 20
64.762156
 30
0.0
 10
44.344486
 20
64.762156
 30
0.0
  0
SPLINE
  5
158
100
AcDbEntity
  8
3-15
 62
7
100
AcDbSpline
 70
8
 71
3
 72
8
 73
4
 74
0
 40
0
 40
0
 40
0
 40
0
 40
1
 40
1
 40
1
 40
1
 10
44.344486
 20
64.762156
 30
0.0
 10
42.934779
 20
64.762156
 30
0.0
 10
41.791987
 20
65.904949
 30
0.0
 10
41.791987
 20
67.314656
 30
0.0
  0
SPLINE
  5
159
100
AcDbEntity
  8
3-15
 62
7
100
AcDbSpline
 70
8
 71
3
 72
8
 73
4
 74
0
 40
0
 40
0
 40
0
 40
0
 40
1
 40
1
 40
1
 40
1
 10
41.791987
 20
67.314656
 30
0.0
 10
41.791987
 20
68.724363
 30
0.0
 10
42.934779
 20
69.867156
 30
0.0
 10
44.344486
 20
69.867156
 30
0.0
  0
SPLINE
  5
15a
100
AcDbEntity
  8
3-15
 62
7
100
AcDbSpline
 70
8
 71
3
 72
8
 73
4
 74
0
 40
0
 40
0
 40
0
 40
0
 40
1
 40
1
 40
1
 40
1
 10
44.344486
 20
69.867156
 30
0.0
 10
45.021451
 20
69.867156
 30
0.0
 10
45.670690
 20
69.598233
 30
0.0
 10
46.149376
 20
69.119546
 30
0.0
  0
SPLINE
  5
15b
100
AcDbEntity
  8
3-15
 62
7
100
AcDbSpline
 70
8
 71
3
 72
8
 73
4
 74
0
 40
0
 40
0
 40
0
 40
0
 40
1
 40
1
 40
1
 40
1
 10
46.149376
 20
69.119546
 30
0.0
 10
46.628063
 20
68.640860
 30
0.0
 10
46.896986
 20
67.991621
 30
0.0
 10
46.896986
 20
67.314656
 30
0.0
  0
LWPOLYLINE
  5
15c
100
AcDbEntity
  8
3-15
 62
7
100
AcDbPolyline
 90
1
 70
1
 10
110.090090
 20
67.314656
 30
0.0
  0
SPLINE
  5
15d
100
AcDbEntity
  8
3-15
 62
7
100
AcDbSpline
 70
8
 71
3
 72
8
 73
4
 74
0
 40
0
 40
0
 40
0
 40
0
 40
1
 40
1
 40
1
 40
1
 10
78.493548
 20
67.314656
 30
0.0
 10
78.493548
 20
65.904949
 30
0.0
 10
77.350755
 20
64.762156
 30
0.0
 10
75.941048
 20
64.762155
 30
0.0
  0
SPLINE
  5
15e
100
AcDbEntity
  8
3-15
 62
7
100
AcDbSpline
 70
8
 71
3
 72
8
 73
4
 74
0
 40
0
 40
0
 40
0
 40
0
 40
1
 40
1
 40
1
 40
1
 10
75.941048
 20
64.762155
 30
0.0
 10
74.531341
 20
64.762156
 30
0.0
 10
73.388548
 20
65.904949
 30
0.0
 10
73.388548
 20
67.314656
 30
0.0
  0
SPLINE
  5
15f
100
AcDbEntity
  8
3-15
 62
7
100
AcDbSpline
 70
8
 71
3
 72
8
 73
4
 74
0
 40
0
 40
0
 40
0
 40
0
 40
1
 40
1
 40
1
 40
1
 10
73.388548
 20
67.314656
 30
0.0
 10
73.388548
 20
68.724363
 30
0.0
 10
74.531341
 20
69.867156
 30
0.0
 10
75.941048
 20
69.867157
 30
0.0
  0
SPLINE
  5
160
100
AcDbEntity
  8
3-15
 62
7
100
AcDbSpline
 70
8
 71
3
 72
8
 73
4
 74
0
 40
0
 40
0
 40
0
 40
0
 40
1
 40
1
 40
1
 40
1
 10
75.941048
 20
69.867157
 30
0.0
 10
77.350755
 20
69.867156
 30
0.0
 10
78.493548
 20
68.724363
 30
0.0
 10
78.493548
 20
67.314656
 30
0.0
  0
LWPOLYLINE
  5
161
100
AcDbEntity
  8
3-15
 62
7
100
AcDbPolyline
 90
1
 70
1
 10
46.896986
 20
67.314656
 30
0.0
  0
LWPOLYLINE
  5
162
100
AcDbEntity
  8
3-15
 62
7
100
AcDbPolyline
 90
1
 70
1
 10
78.493548
 20
67.314656
 30
0.0
  0
ENDSEC
  0
SECTION
  2
OBJECTS
  0
DICTIONARY
  5
C
330
0
100
AcDbDictionary
  3
ACAD_GROUP
350
D
  3
ACAD_MLINESTYLE
350
17
  0
DICTIONARY
  5
D
330
C
100
AcDbDictionary
  0
DICTIONARY
  5
1A
330
C
100
AcDbDictionary
  0
DICTIONARY
  5
17
330
C
100
AcDbDictionary
  3
STANDARD
350
18
  0
DICTIONARY
  5
19
330
C
100
AcDbDictionary
  0
ENDSEC
  0
EOF
