0
SECTION
2
HEADER
9
$INSUNITS
70
4
0
ENDSEC
0
SECTION
2
TABLES
0
TABLE
2
LTYPE
0
LTYPE
72
65
70
64
2
CONTINUOUS
3
______
73
0
40
0
0
ENDTAB
0
TABLE
2
LAYER
0
ENDTAB
0
ENDSEC
0
SECTION
2
ENTITIES
0
LINE
8
0
10
-1.2095183
20
49.3525813
11
12.9073851
21
51.3365827
0
LINE
8
0
10
-0.8088808
20
39.3166005
11
-2.0606133
21
48.2231401
0
LINE
8
0
10
25.8478195
20
61.05176
11
42.0547742
21
61.6177194
0
ARC
8
0
10
25.9176185
20
59.0529784
40
2
50
92
51
99.3557048
0
LINE
8
0
10
44.0198747
20
65.8147918
11
65.0198747
21
65.8147918
0
LINE
8
0
10
66.0198747
20
64.8147918
11
66.0198747
21
61.6942861
0
LINE
8
0
10
43.0198747
20
62.6171102
11
43.0198747
21
64.8147918
0
ARC
8
0
10
84.9308976
20
57.4344996
40
2
50
17.5101909
51
86
0
LINE
8
0
10
66.9501182
20
60.696722
11
85.0704106
21
59.4296277
0
LINE
8
0
10
105.5589094
20
37.0458966
11
105.4193966
21
35.0507685
0
LINE
8
0
10
104.2969726
20
18.9993606
11
105.4193966
21
35.0507685
0
LINE
8
0
10
87.7221315
20
57.3395617
11
105.8867185
21
56.0693701
0
LINE
8
0
10
105.5589094
20
37.0458966
11
106.814526
21
55.0020495
0
ARC
8
0
10
105.816962
20
55.071806
40
1
50
355.9999983
51
85.9999987
0
ARC
8
0
10
87.791888
20
58.3371259
40
1
50
197.5101909
51
265.9999987
0
ARC
8
0
10
67.0198747
20
61.6942861
40
1
50
180
51
265.9999987
0
ARC
8
0
10
65.0198747
20
64.8147918
40
1
50
0
51
90
0
ARC
8
0
10
44.0198747
20
64.8147918
40
1
50
90
51
180
0
ARC
8
0
10
42.0198747
20
62.6171102
40
1
50
272.0000002
51
0
0
ARC
8
0
10
-1.0703452
20
48.3623132
40
1
50
97.9999997
51
187.9999997
0
LINE
8
0
10
126.9885527
20
4.5529484
11
138.7924809
21
-35.8546913
0
LINE
8
0
10
136.9695392
20
-42.0653612
11
128.975585
21
-49.0143995
0
LINE
8
0
10
121.7254688
20
-49.4880396
11
86.8638377
21
-26.3921745
0
LINE
8
0
10
84.6751745
20
-25.5005035
11
9.6413579
21
-11.1763349
0
LINE
8
0
10
7.1555668
20
-10.0745793
11
-11.6308532
21
4.0820036
0
LINE
8
0
10
-13.7586291
20
7.1223278
11
-17.409712
21
19.0849194
0
LINE
8
0
10
-15.6913838
20
25.29027
11
-1.1290926
21
38.4351171
0
LINE
8
0
10
13.4382683
20
51.5845405
11
22.2248208
21
59.5158398
0
LINE
8
0
10
104.8374606
20
18.0401765
11
123.9717132
21
8.2071015
0
ARC
8
0
10
133.0331851
20
-37.5371037
40
6
50
310.9999996
51
16.2842024
0
ARC
8
0
10
125.039231
20
-44.4861419
40
6
50
236.4754873
51
310.999998
0
ARC
8
0
10
83.5500755
20
-31.3940722
40
6
50
56.4754873
51
79.1921152
0
ARC
8
0
10
10.7664568
20
-5.2827662
40
6
50
233.0000007
51
259.1921152
0
ARC
8
0
10
-8.0199631
20
8.8738166
40
6
50
196.9726276
51
232.9999998
0
ARC
8
0
10
-11.671046
20
20.8364083
40
6
50
132.0714103
51
196.9726276
0
ARC
8
0
10
26.2451586
20
55.0619781
40
6
50
96.244863
51
132.0714095
0
ARC
8
0
10
121.229257
20
2.8705357
40
6
50
16.2842052
51
62.8014099
0
ARC
8
0
10
12.768212
20
52.3268508
40
1
50
277.9999997
51
312.0714095
0
ARC
8
0
10
105.2945366
20
18.9296041
40
1
50
175.9999983
51
242.8014114
0
ARC
8
0
10
123.5146372
20
7.3176738
40
1
50
62.8014099
51
62.8014114
0
ARC
8
0
10
137.8325983
20
-36.1350934
40
1
50
16.2842024
51
16.2842052
0
ARC
8
0
10
136.3134802
20
-41.3106516
40
1
50
310.999998
51
310.9999996
0
ARC
8
0
10
122.2777625
20
-48.65439
40
1
50
236.4754866
51
236.4754873
0
ARC
8
0
10
86.311544
20
-27.2258241
40
1
50
56.4754866
51
56.4754873
0
ARC
8
0
10
-11.0290382
20
4.8806391
40
1
50
232.9999998
51
233.0000007
0
ARC
8
0
10
-15.0213275
20
24.5479597
40
1
50
132.0714095
51
132.0714103
0
ARC
8
0
10
-1.7991489
20
39.1774274
40
1
50
312.0714095
51
7.9999997
0
LINE
8
0
10
9.6165379
20
-9.7155701
11
25.460827
21
-7.4888005
0
ARC
8
0
10
25.3216539
20
-6.4985324
40
1
50
278
51
8
0
LINE
8
0
10
26.311922
20
-6.3593593
11
24.2243255
21
8.4946617
0
ARC
8
0
10
23.2340574
20
8.3554886
40
1
50
8
51
98
0
LINE
8
0
10
23.0948843
20
9.3457567
11
7.2505952
21
7.1189871
0
ARC
8
0
10
7.3897683
20
6.128719
40
1
50
98
51
188
0
LINE
8
0
10
6.3995002
20
5.9895459
11
8.4870967
21
-8.8644751
0
ARC
8
0
10
9.4773648
20
-8.725302
40
1
50
188
51
278
0
LINE
8
0
10
6.972249
20
9.0995232
11
22.8165381
21
11.3262928
0
ARC
8
0
10
22.677365
20
12.3165609
40
1
50
278
51
8
0
LINE
8
0
10
23.6676331
20
12.455734
11
21.5800366
21
27.309755
0
ARC
8
0
10
20.5897685
20
27.1705819
40
1
50
8
51
98
0
LINE
8
0
10
20.4505954
20
28.16085
11
4.6063063
21
25.9340804
0
ARC
8
0
10
4.7454794
20
24.9438123
40
1
50
98
51
188
0
LINE
8
0
10
3.7552113
20
24.8046392
11
5.8428078
21
9.9506182
0
ARC
8
0
10
6.8330759
20
10.0897913
40
1
50
188
51
278
0
LINE
8
0
10
-11.8428444
20
6.4552343
11
4.0014447
21
8.6820039
0
ARC
8
0
10
3.8622716
20
9.672272
40
1
50
278
51
8
0
LINE
8
0
10
4.8525397
20
9.8114451
11
2.7649432
21
24.6654661
0
ARC
8
0
10
1.7746751
20
24.526293
40
1
50
8
51
98
0
LINE
8
0
10
1.635502
20
25.5165611
11
-14.2087871
21
23.2897915
0
ARC
8
0
10
-14.069614
20
22.2995234
40
1
50
98
51
188
0
LINE
8
0
10
-15.0598821
20
22.1603503
11
-12.9722856
21
7.3063293
0
ARC
8
0
10
-11.9820175
20
7.4455024
40
1
50
188
51
278
0
LINE
8
0
10
27.3024958
20
5.0684239
11
43.292749
21
5.6268158
0
ARC
8
0
10
43.2578495
20
6.6262067
40
1
50
272
51
2
0
LINE
8
0
10
44.2572404
20
6.6611062
11
43.7337479
21
21.6519686
0
ARC
8
0
10
42.7343571
20
21.6170691
40
1
50
2
51
92
0
LINE
8
0
10
42.6994576
20
22.6164599
11
26.7092044
21
22.058068
0
ARC
8
0
10
26.7441039
20
21.0586771
40
1
50
92
51
182
0
LINE
8
0
10
25.744713
20
21.0237776
11
26.2682055
21
6.0329152
0
ARC
8
0
10
27.2675963
20
6.0678147
40
1
50
182
51
272
0
LINE
8
0
10
26.6394054
20
24.0568496
11
42.6296586
21
24.6152415
0
ARC
8
0
10
42.5947591
20
25.6146324
40
1
50
272
51
2
0
LINE
8
0
10
43.59415
20
25.6495319
11
43.0706575
21
40.6403943
0
ARC
8
0
10
42.0712667
20
40.6054948
40
1
50
2
51
92
0
LINE
8
0
10
42.0363672
20
41.6048856
11
26.046114
21
41.0464937
0
ARC
8
0
10
26.0810135
20
40.0471028
40
1
50
92
51
182
0
LINE
8
0
10
25.0816226
20
40.0122033
11
25.6051151
21
25.0213409
0
ARC
8
0
10
26.6045059
20
25.0562404
40
1
50
182
51
272
0
LINE
8
0
10
25.976315
20
43.0452754
11
41.9665682
21
43.6036673
0
ARC
8
0
10
41.9316687
20
44.6030582
40
1
50
272
51
2
0
LINE
8
0
10
42.9310596
20
44.6379577
11
42.4075671
21
59.6288201
0
ARC
8
0
10
41.4081763
20
59.5939206
40
1
50
2
51
92
0
LINE
8
0
10
41.3732768
20
60.5933114
11
25.3830236
21
60.0349195
0
ARC
8
0
10
25.4179231
20
59.0355286
40
1
50
92
51
182
0
LINE
8
0
10
24.4185322
20
59.0006291
11
24.9420247
21
44.0097667
0
ARC
8
0
10
25.9414155
20
44.0446662
40
1
50
182
51
272
0
LINE
8
0
10
46.5198748
20
9.8147918
11
62.5198748
21
9.8147918
0
ARC
8
0
10
62.5198748
20
10.8147918
40
1
50
270
51
360
0
LINE
8
0
10
63.5198748
20
10.8147918
11
63.5198748
21
25.8147918
0
ARC
8
0
10
62.5198748
20
25.8147918
40
1
50
0
51
90
0
LINE
8
0
10
62.5198748
20
26.8147918
11
46.5198748
21
26.8147918
0
ARC
8
0
10
46.5198748
20
25.8147918
40
1
50
90
51
180
0
LINE
8
0
10
45.5198748
20
25.8147918
11
45.5198748
21
10.8147918
0
ARC
8
0
10
46.5198748
20
10.8147918
40
1
50
180
51
270
0
LINE
8
0
10
46.5198748
20
28.8147918
11
62.5198748
21
28.8147918
0
ARC
8
0
10
62.5198748
20
29.8147918
40
1
50
270
51
360
0
LINE
8
0
10
63.5198748
20
29.8147918
11
63.5198748
21
44.8147918
0
ARC
8
0
10
62.5198748
20
44.8147918
40
1
50
0
51
90
0
LINE
8
0
10
62.5198748
20
45.8147918
11
46.5198748
21
45.8147918
0
ARC
8
0
10
46.5198748
20
44.8147918
40
1
50
90
51
180
0
LINE
8
0
10
45.5198748
20
44.8147918
11
45.5198748
21
29.8147918
0
ARC
8
0
10
46.5198748
20
29.8147918
40
1
50
180
51
270
0
LINE
8
0
10
46.5198747
20
47.8147918
11
62.5198747
21
47.8147918
0
ARC
8
0
10
62.5198747
20
48.8147918
40
1
50
270
51
360
0
LINE
8
0
10
63.5198747
20
48.8147918
11
63.5198747
21
63.8147918
0
ARC
8
0
10
62.5198747
20
63.8147918
40
1
50
0
51
90
0
LINE
8
0
10
62.5198747
20
64.8147918
11
46.5198747
21
64.8147918
0
ARC
8
0
10
46.5198747
20
63.8147918
40
1
50
90
51
180
0
LINE
8
0
10
45.5198747
20
63.8147918
11
45.5198747
21
48.8147918
0
ARC
8
0
10
46.5198747
20
48.8147918
40
1
50
180
51
270
0
LINE
8
0
10
65.7018054
20
4.6472663
11
81.6628302
21
3.5311627
0
ARC
8
0
10
81.7325866
20
4.5287267
40
1
50
266
51
356
0
LINE
8
0
10
82.7301507
20
4.4589703
11
83.7764978
21
19.422431
0
ARC
8
0
10
82.7789338
20
19.4921875
40
1
50
356
51
86
0
LINE
8
0
10
82.8486902
20
20.4897515
11
66.8876654
21
21.6058551
0
ARC
8
0
10
66.817909
20
20.6082911
40
1
50
86
51
176
0
LINE
8
0
10
65.8203449
20
20.6780475
11
64.7739978
21
5.7145868
0
ARC
8
0
10
65.7715618
20
5.6448303
40
1
50
176
51
266
0
LINE
8
0
10
67.0271784
20
23.6009832
11
82.9882032
21
22.4848796
0
ARC
8
0
10
83.0579596
20
23.4824436
40
1
50
266
51
356
0
LINE
8
0
10
84.0555237
20
23.4126872
11
85.1018708
21
38.3761479
0
ARC
8
0
10
84.1043068
20
38.4459044
40
1
50
356
51
86
0
LINE
8
0
10
84.1740632
20
39.4434684
11
68.2130384
21
40.559572
0
ARC
8
0
10
68.143282
20
39.562008
40
1
50
86
51
176
0
LINE
8
0
10
67.1457179
20
39.6317644
11
66.0993708
21
24.6683037
0
ARC
8
0
10
67.0969348
20
24.5985472
40
1
50
176
51
266
0
LINE
8
0
10
68.3525513
20
42.5547002
11
84.3135761
21
41.4385966
0
ARC
8
0
10
84.3833325
20
42.4361606
40
1
50
266
51
356
0
LINE
8
0
10
85.3808966
20
42.3664042
11
86.4272437
21
57.3298649
0
ARC
8
0
10
85.4296797
20
57.3996214
40
1
50
356
51
86
0
LINE
8
0
10
85.4994361
20
58.3971854
11
69.5384113
21
59.513289
0
ARC
8
0
10
69.4686549
20
58.515725
40
1
50
86
51
176
0
LINE
8
0
10
68.4710908
20
58.5854814
11
67.4247437
21
43.6220207
0
ARC
8
0
10
68.4223077
20
43.5522642
40
1
50
176
51
266
0
LINE
8
0
10
84.5229849
20
1.4265215
11
100.4840097
21
0.3104179
0
ARC
8
0
10
100.5537661
20
1.3079819
40
1
50
266
51
356
0
LINE
8
0
10
101.5513302
20
1.2382255
11
102.5976773
21
16.2016862
0
ARC
8
0
10
101.6001133
20
16.2714427
40
1
50
356
51
86
0
LINE
8
0
10
101.6698697
20
17.2690067
11
85.7088449
21
18.3851103
0
ARC
8
0
10
85.6390885
20
17.3875463
40
1
50
86
51
176
0
LINE
8
0
10
84.6415244
20
17.4573027
11
83.5951773
21
2.493842
0
ARC
8
0
10
84.5927413
20
2.4240855
40
1
50
176
51
266
0
LINE
8
0
10
85.848358
20
20.3802385
11
101.8093828
21
19.2641349
0
ARC
8
0
10
101.8791392
20
20.2616989
40
1
50
266
51
356
0
LINE
8
0
10
102.8767033
20
20.1919425
11
103.9230504
21
35.1554032
0
ARC
8
0
10
102.9254864
20
35.2251597
40
1
50
356
51
86
0
LINE
8
0
10
102.9952428
20
36.2227237
11
87.034218
21
37.3388273
0
ARC
8
0
10
86.9644616
20
36.3412633
40
1
50
86
51
176
0
LINE
8
0
10
85.9668975
20
36.4110197
11
84.9205504
21
21.447559
0
ARC
8
0
10
85.9181144
20
21.3778025
40
1
50
176
51
266
0
LINE
8
0
10
87.1737311
20
39.3339555
11
103.1347559
21
38.2178519
0
ARC
8
0
10
103.2045123
20
39.2154159
40
1
50
266
51
356
0
LINE
8
0
10
104.2020764
20
39.1456595
11
105.2484235
21
54.1091202
0
ARC
8
0
10
104.2508595
20
54.1788767
40
1
50
356
51
86
0
LINE
8
0
10
104.3206159
20
55.1764407
11
88.3595911
21
56.2925443
0
ARC
8
0
10
88.2898347
20
55.2949803
40
1
50
86
51
176
0
LINE
8
0
10
87.2922706
20
55.3647367
11
86.2459235
21
40.401276
0
ARC
8
0
10
87.2434875
20
40.3315195
40
1
50
176
51
266
0
LINE
8
0
10
77.1857493
20
-22.9555914
11
92.9887628
21
-25.4585428
0
ARC
8
0
10
93.1451972
20
-24.4708545
40
1
50
261
51
351
0
LINE
8
0
10
94.1328856
20
-24.6272889
11
96.4794026
21
-9.8119638
0
ARC
8
0
10
95.4917142
20
-9.6555294
40
1
50
351
51
81
0
LINE
8
0
10
95.6481487
20
-8.667841
11
79.8451352
21
-6.1648896
0
ARC
8
0
10
79.6887008
20
-7.1525779
40
1
50
81
51
171
0
LINE
8
0
10
78.7010124
20
-6.9961435
11
76.3544954
21
-21.8114686
0
ARC
8
0
10
77.3421838
20
-21.967903
40
1
50
171
51
261
0
LINE
8
0
10
96.7345129
20
-26.7483079
11
110.7284282
21
-34.5052619
0
ARC
8
0
10
111.2132378
20
-33.6306422
40
1
50
241
51
331
0
LINE
8
0
10
112.0878575
20
-34.1154518
11
119.3600018
21
-20.9961562
0
ARC
8
0
10
118.4853821
20
-20.5113466
40
1
50
331
51
61
0
LINE
8
0
10
118.9701917
20
-19.6367269
11
104.9762764
21
-11.8797729
0
ARC
8
0
10
104.4914668
20
-12.7543926
40
1
50
61
51
151
0
LINE
8
0
10
103.6168471
20
-12.269583
11
96.3447028
21
-25.3888786
0
ARC
8
0
10
97.2193225
20
-25.8736882
40
1
50
151
51
241
0
LINE
8
0
10
113.807156
20
-36.9983666
11
124.3041005
21
-49.0737199
0
ARC
8
0
10
125.0588101
20
-48.4176609
40
1
50
221
51
311
0
LINE
8
0
10
125.7148691
20
-49.1723704
11
137.0355128
21
-39.331485
0
ARC
8
0
10
136.3794538
20
-38.5767754
40
1
50
311
51
41
0
LINE
8
0
10
137.1341634
20
-37.9207164
11
126.6372189
21
-25.8453631
0
ARC
8
0
10
125.8825093
20
-26.5014221
40
1
50
41
51
131
0
LINE
8
0
10
125.2264503
20
-25.7467126
11
113.9058066
21
-35.587598
0
ARC
8
0
10
114.5618656
20
-36.3423076
40
1
50
131
51
221
0
LINE
8
0
10
104.2803897
20
-5.2970575
11
118.274305
21
-13.0540115
0
ARC
8
0
10
118.7591146
20
-12.1793918
40
1
50
241
51
331
0
LINE
8
0
10
119.6337343
20
-12.6642014
11
126.9058786
21
0.4550942
0
ARC
8
0
10
126.0312589
20
0.9399038
40
1
50
331
51
61
0
LINE
8
0
10
126.5160685
20
1.8145235
11
112.5221532
21
9.5714775
0
ARC
8
0
10
112.0373436
20
8.6968578
40
1
50
61
51
151
0
LINE
8
0
10
111.1627239
20
9.1816674
11
103.8905796
21
-3.9376282
0
ARC
8
0
10
104.7651993
20
-4.4224378
40
1
50
151
51
241
0
ENDSEC
0
EOF